<?xml version="1.0" encoding="UTF-8" standalone="no"?>
<svg
   height="46.25px"
   width="97.0px"
   version="1.1"
   id="svg5"
   sodipodi:docname="1045.svg"
   inkscape:version="1.4.2 (f4327f4, 2025-05-13)"
   xmlns:inkscape="http://www.inkscape.org/namespaces/inkscape"
   xmlns:sodipodi="http://sodipodi.sourceforge.net/DTD/sodipodi-0.dtd"
   xmlns="http://www.w3.org/2000/svg"
   xmlns:svg="http://www.w3.org/2000/svg">
  <defs
     id="defs5" />
  <sodipodi:namedview
     id="namedview5"
     pagecolor="#ffffff"
     bordercolor="#000000"
     borderopacity="0.25"
     inkscape:showpageshadow="2"
     inkscape:pageopacity="0.0"
     inkscape:pagecheckerboard="0"
     inkscape:deskcolor="#d1d1d1"
     inkscape:zoom="8.4648649"
     inkscape:cx="25.930715"
     inkscape:cy="12.935824"
     inkscape:window-width="1920"
     inkscape:window-height="1001"
     inkscape:window-x="-9"
     inkscape:window-y="-9"
     inkscape:window-maximized="1"
     inkscape:current-layer="g5" />
  <g
     transform="matrix(1.0, 0.0, 0.0, 1.0, 1.35, 1.15)"
     id="g5">
    <path
       d="m 39,-0.6 h 0.05 q 9,-1.3 19.45,0.4 25.2,3.95 35.5,11.35 l 0.15,0.1 0.2,0.25 0.35,0.8 q 1.9,16.6 0,31.4 l -0.5,1 -0.2,0.1 -1,0.3 H 92.95 Q 47.3,41.6 1.6,44.85 H 1.55 q -0.6,0 -1,-0.35 H 0.5 L -0.1,43.55 V 43.5 q -2.45,-16.05 0,-30.15 0.1,-0.7 0.7,-1 V 12.3 Q 10.25,4 39,-0.6"
       fill="#000000"
       fill-rule="evenodd"
       stroke="none"
       id="path1"
       style="display:inline" />
    <path
       d="m 93.5,11.85 0.2,0.25 0.1,0.3 c 1.266667,11 1.266667,21.383333 0,31.15 L 93.55,44.05 93,44.2 C 62.533333,41.866667 32.05,41.783333 1.55,43.95 L 1.05,43.8 0.75,43.35 c -1.6,-10.6 -1.6,-20.55 0,-29.85 l 0.3,-0.45 c 6.3333333,-5.4666667 19.033333,-9.7333333 38.1,-12.8 5.933333,-0.83333333 12.333333,-0.7 19.2,0.4 16.633333,2.6 28.35,6.3333333 35.15,11.2 m -2.272286,1.472542 C 84.494381,8.6892082 73.195849,5.2997446 57.095849,2.7997446 c -6.7,-1.1 -11.929182,-1.88307793 -23.876979,0.9029374 C 21.271073,6.4886973 5.8162197,11.162708 3.6877714,13.962708 l -0.4407407,4.046136 c -0.275,2.208334 -1.0656769,6.880875 -0.9656769,11.214208 0.066667,3.733333 1.0921455,9.08576 1.1892081,12.017369 L 21.965996,40.011047 c 9.337005,-1.538952 37.293711,-0.643869 46.560377,-0.252203 l 23.044221,1.564208 1.325,-10.959323 c 0.06667,-4.766667 -0.72401,-9.059323 -1.190677,-14.059323 z"
       fill="#a88022"
       fill-rule="evenodd"
       stroke="none"
       id="path2"
       style="display:inline"
       sodipodi:nodetypes="ccccccccccccccccccccccccccc" />
    <path
       d="m 92.65,15.95 0.1,1 c -1.533333,-1.266667 -3.221935,-2.06606 -4.888602,-3.16606 -1.466667,-1 -3.037133,-1.678065 -4.770466,-2.211398 C 75.690932,9.2725415 68.2,7.8006067 60.5,7.33394 57.066667,7.1006067 52.419117,7.4788074 50.502451,7.795474 L 30.45,9.8658046 14.611143,12.097669 c -0.5,0.06667 -1.038601,0.165198 -1.438601,0.531865 -1.566667,1.533333 -4.3003517,1.911398 -5.3670184,1.686398 l -1.6094508,0.83774 C 5.6377394,15.462005 4.9225415,15.94007 4.1225415,16.606737 3.5225415,17.073404 2.4,17.216667 1.7,17.45 L 1.75,17.1 2.15,14.4 2.2,14 C 8.5333333,8.8 20.916667,4.7166667 39.35,1.75 h 0.05 c 5.766667,-0.83333333 12,-0.7 18.7,0.4 16.1,2.5 27.516667,6.0666667 34.25,10.7 l 0.3,3.1 M 1.1,30.05 c 5.897765,3.12417 9.424872,7.385313 15.424872,9.918646 L 17,41.55 2.15,42.4 2.05,41.5 C 1.4833333,37.6 1.1666667,33.783333 1.1,30.05 M 71.15,41.4 72.245083,39.932375 C 80.078416,37.099042 87.276948,32.054821 93.25,29.85 V 30.6 L 92.55,41.7 92.4,42.65 91.3,42.6 71.65,41.45 71.15,41.4"
       fill="#eaca48"
       fill-rule="evenodd"
       stroke="none"
       id="path4"
       style="display:inline"
       sodipodi:nodetypes="cccccccccccccccccccccccccccccccccccc" />
    <path
       d="m 1.7,17.45 q 1.05,-0.35 1.95,-1.05 1.2,-1 2.5,-1.7 L 6.4,14.55 7.3,14.15 7.6,14 q 2.75,0.9 5.1,-1.4 0.6,-0.55 1.35,-0.65 L 30.45,9.6 49.8,7.4 49.95,7.3 50.2,7.1 q 5.15,-0.5 10.3,-0.15 11.55,0.7 22.65,4.15 2.6,0.8 4.8,2.3 2.5,1.65 4.8,3.55 l -0.1,-1 q 0.7,7.5 0.6,14.65 V 29.85 Q 83.05,37.1 71.3,41.35 L 71.15,41.4 Q 44.1,40.3 17.05,41.55 H 17 l -0.8,-0.4 q -9,-3.8 -15.1,-11.1 -0.15,-6.5 0.6,-12.6"
       fill="#f1e385"
       fill-rule="evenodd"
       stroke="none"
       id="path3"
       style="display:inline" />
    <path
       d="m 24.25,27.15 q 0.55,0.2 0.55,0.55 l -0.55,0.6 -1.4,0.2 -1.35,-0.2 q -0.6,-0.25 -0.6,-0.6 0,-0.35 0.6,-0.55 l 1.35,-0.25 1.4,0.25 m 9.8,3.55 0.6,-0.95 3.05,0.25 q 1.25,0.2 2.5,0.7 l -0.5,0.7 -5.25,0.25 -0.4,-0.95 m -3,0.55 v 0.95 h -3.5 l -0.6,-0.55 V 30.9 l 0.8,-0.35 q 1.75,-0.4 3.3,0.7 M 9.15,30.45 8.75,31.4 Q 5.95,31.6 4,29.65 l 0.05,-1.15 0.6,-0.5 1.8,0.25 q 1.85,0.5 2.7,2.2 M 10.4,26.3 q 3.95,-0.6 6.9,2.25 l 0.1,0.75 -0.25,0.4 q -4.25,1.15 -7.1,-2.25 L 10.4,26.3 M 2.25,24.35 q 0,-0.35 0.3,-0.6 0.25,-0.3 0.6,-0.3 0.35,0 0.65,0.3 L 4.05,24.35 3.8,25 3.15,25.25 2.55,25 q -0.3,-0.3 -0.3,-0.65 m 62.2,7.3 V 30.9 L 68.1,31.05 64.8,32 64.45,31.65 m 12.55,1.5 0.05,1.2 Q 63,40.05 47.8,39.55 l -25.1,-2.1 q -4.4,-0.4 -7.45,-3.55 l 0.75,-1.4 5.3,1.1 q 13.25,2.3 26.55,1.2 L 77,33.15 m -0.55,-5.4 1.25,0.3 0.5,0.6 -0.5,0.65 -1.25,0.25 -1.2,-0.25 Q 74.7,29 74.7,28.65 q 0,-0.35 0.55,-0.6 l 1.2,-0.3 M 48.05,28.5 47.2,28.3 46.8,27.75 q 0,-0.3 0.4,-0.5 Q 47.55,27 48.05,27 l 0.9,0.25 0.35,0.5 -0.35,0.55 -0.9,0.2 m 9.9,2.4 0.25,0.75 -0.65,0.75 -4.5,1.35 Q 49.85,34.4 47.3,32.3 l 0.6,-1.5 q 5.1,-1.15 10.05,0.1 m 29.5,-2.35 q -0.75,1.55 -2.35,2.5 -2.55,1.6 -5.55,0.75 l 0.2,-2.05 1.65,-0.85 q 2.85,-1.45 5.75,-1.1 l 0.3,0.75 m -5.8,-3.25 q 0.75,0.25 0.75,0.6 l -0.75,0.65 -1.85,0.25 -1.85,-0.25 q -0.75,-0.3 -0.75,-0.65 0,-0.35 0.75,-0.6 l 1.85,-0.3 1.85,0.3 m 6.85,-1.8 q 0.4,0 0.7,0.3 l 0.3,0.7 -0.3,0.7 -0.7,0.3 q -0.4,0 -0.7,-0.3 l -0.3,-0.7 q 0,-0.4 0.3,-0.7 0.3,-0.3 0.7,-0.3"
       fill="#faf4cb"
       fill-rule="evenodd"
       stroke="none"
       id="path5"
       style="display:inline" />
  </g>
</svg>
