<?xml version="1.0" encoding="UTF-8" standalone="no"?>
<svg xmlns:xlink="http://www.w3.org/1999/xlink" height="104.3px" width="97.3px" xmlns="http://www.w3.org/2000/svg">
  <g transform="matrix(1.0, 0.0, 0.0, 1.0, 1.4, 48.2)">
    <use height="48.3" id="inside" transform="matrix(1.0, 0.0, 0.0, 1.0, 0.0, -5.0)" width="89.1" xlink:href="#sprite0"/>
  </g>
  <defs>
    <g id="sprite0" transform="matrix(1.0, 0.0, 0.0, 1.0, 0.0, 0.0)">
      <use height="48.3" transform="matrix(1.0, 0.0, 0.0, 1.0, 0.0, 0.0)" width="89.1" xlink:href="#shape0"/>
    </g>
    <g id="shape0" transform="matrix(1.0, 0.0, 0.0, 1.0, 0.0, 0.0)">
      <path d="M77.1 5.55 L81.85 9.05 81.95 9.15 Q83.95 11.4 85.0 14.45 89.5 27.1 80.75 36.2 L81.4 36.5 82.55 35.65 Q87.85 29.05 86.6 20.65 L87.0 23.7 Q87.5 29.85 84.7 35.5 L83.55 36.7 Q71.2 42.7 57.4 42.65 L66.65 42.9 Q56.0 45.7 45.0 46.95 29.05 48.5 19.7 36.0 31.2 47.85 46.85 45.35 L46.4 45.05 39.7 45.0 Q31.85 44.55 25.55 39.55 22.05 36.8 18.0 35.0 L16.2 34.2 13.65 32.5 16.8 33.75 19.8 35.0 20.05 34.95 20.0 34.9 20.0 34.85 Q17.05 33.0 12.2 31.45 L7.7 30.2 5.8 29.35 5.0 29.05 1.4 27.4 Q0.75 25.65 1.1 23.6 1.5 21.35 2.25 19.45 6.9 14.75 12.7 11.4 24.55 4.5 37.85 2.15 55.7 -0.95 72.8 4.7 65.75 1.8 58.4 0.75 L60.7 0.8 63.7 1.4 Q69.1 2.65 74.4 4.45 75.85 4.9 77.1 5.55 M82.6 14.75 L83.1 16.45 83.15 16.9 83.1 17.3 83.1 17.7 Q82.2 15.5 80.2 12.6 75.9 6.35 68.3 4.2 L61.4 3.5 64.25 5.7 Q54.05 1.55 42.7 2.6 30.05 3.7 18.95 8.5 8.75 12.8 4.15 22.2 2.1 26.45 6.95 27.6 L9.3 28.1 6.75 25.95 5.95 24.9 Q5.35 23.75 5.05 22.5 4.9 21.75 5.05 21.0 L5.3 20.2 6.05 20.3 5.5 20.9 5.55 23.0 5.6 22.25 Q7.1 25.05 10.15 26.4 16.15 29.1 22.15 31.3 23.55 31.7 24.8 32.75 L19.15 30.35 25.1 34.5 33.8 39.85 Q27.95 38.2 22.75 34.85 L21.1 33.85 Q34.2 42.85 49.65 43.45 44.5 42.65 39.5 41.4 34.6 40.2 30.5 37.3 L31.65 37.7 29.3 36.3 27.15 34.65 26.8 34.15 26.6 33.55 Q33.9 37.95 42.25 39.3 51.3 40.45 60.2 38.95 73.7 37.1 80.75 25.6 82.15 23.3 82.75 20.8 83.05 23.95 81.35 26.8 76.0 35.6 65.75 38.25 56.05 40.85 45.95 40.7 52.1 41.3 58.35 40.6 70.0 39.7 78.5 32.15 82.45 28.7 83.95 23.75 83.85 27.4 82.6 30.85 81.95 32.55 80.7 34.15 79.35 35.9 77.3 36.5 L77.35 36.95 Q79.75 36.45 81.1 34.15 86.0 25.6 83.65 16.05 83.2 14.2 81.95 13.0 L82.6 14.75" fill="#cc985e" fill-rule="evenodd" stroke="none"/>
      <path d="M77.1 5.55 Q75.85 4.9 74.4 4.45 69.1 2.65 63.7 1.4 L60.7 0.8 58.4 0.75 Q65.75 1.8 72.8 4.7 55.7 -0.95 37.85 2.15 24.55 4.5 12.7 11.4 6.9 14.75 2.25 19.45 1.5 21.35 1.1 23.6 0.75 25.65 1.4 27.4 L5.0 29.05 5.8 29.35 7.7 30.2 12.2 31.45 Q17.05 33.0 20.0 34.85 L20.0 34.9 20.05 34.95 19.8 35.0 16.8 33.75 13.65 32.5 16.2 34.2 18.0 35.0 Q22.05 36.8 25.55 39.55 31.85 44.55 39.7 45.0 L46.4 45.05 46.85 45.35 Q31.2 47.85 19.7 36.0 29.05 48.5 45.0 46.95 56.0 45.7 66.65 42.9 L57.4 42.65 Q71.2 42.7 83.55 36.7 L84.7 35.5 Q87.5 29.85 87.0 23.7 L86.6 20.65 Q87.85 29.05 82.55 35.65 L81.4 36.5 80.75 36.2 Q89.5 27.1 85.0 14.45 83.95 11.4 81.95 9.15 88.55 14.95 89.1 26.25 89.6 37.5 79.6 40.35 L60.7 45.9 Q51.8 48.65 39.75 48.25 27.65 47.8 21.85 41.05 L20.75 39.8 19.75 39.0 16.85 36.8 11.9 33.25 Q9.35 31.75 6.35 31.1 5.0 30.75 3.75 29.9 L3.4 29.65 Q-1.05 28.25 0.3 23.15 2.1 16.15 8.95 12.25 18.65 6.65 29.4 3.35 40.45 -0.05 52.05 0.0 L61.6 0.1 Q70.1 1.15 77.1 5.55" fill="#b87c3a" fill-rule="evenodd" stroke="none"/>
      <path d="M82.6 14.75 L81.95 13.0 Q83.2 14.2 83.65 16.05 86.0 25.6 81.1 34.15 79.75 36.45 77.35 36.95 L77.3 36.5 Q79.35 35.9 80.7 34.15 81.95 32.55 82.6 30.85 83.85 27.4 83.95 23.75 82.45 28.7 78.5 32.15 70.0 39.7 58.35 40.6 52.1 41.3 45.95 40.7 56.05 40.85 65.75 38.25 76.0 35.6 81.35 26.8 83.05 23.95 82.75 20.8 82.15 23.3 80.75 25.6 73.7 37.1 60.2 38.95 51.3 40.45 42.25 39.3 33.9 37.95 26.6 33.55 L26.8 34.15 27.15 34.65 29.3 36.3 31.65 37.7 30.5 37.3 Q34.6 40.2 39.5 41.4 44.5 42.65 49.65 43.45 34.2 42.85 21.1 33.85 L22.75 34.85 Q27.95 38.2 33.8 39.85 L25.1 34.5 19.15 30.35 24.8 32.75 Q23.55 31.7 22.15 31.3 16.15 29.1 10.15 26.4 7.1 25.05 5.6 22.25 L5.55 23.0 5.5 20.9 6.05 20.3 5.3 20.2 5.05 21.0 Q4.9 21.75 5.05 22.5 5.35 23.75 5.95 24.9 L6.75 25.95 9.3 28.1 6.95 27.6 Q2.1 26.45 4.15 22.2 8.75 12.8 18.95 8.5 30.05 3.7 42.7 2.6 54.05 1.55 64.25 5.7 L61.4 3.5 68.3 4.2 Q75.9 6.35 80.2 12.6 82.2 15.5 83.1 17.7 L83.1 17.3 83.15 16.9 83.1 16.45 82.6 14.75 M72.35 12.05 L72.8 12.55 72.35 13.05 71.3 13.25 70.25 13.05 69.8 12.55 Q69.8 12.25 70.25 12.05 L71.3 11.85 72.35 12.05 M68.35 8.15 L70.5 10.05 60.15 5.7 Q48.15 2.45 35.85 4.85 L30.55 6.05 Q45.2 3.8 59.9 7.0 L62.6 7.95 Q45.8 3.85 28.8 7.05 L28.25 6.75 24.25 8.1 Q30.55 8.55 36.6 10.15 27.9 8.25 19.25 11.1 17.2 11.9 16.05 14.0 L15.6 14.9 15.3 14.9 Q15.4 13.45 15.85 12.05 L14.85 12.7 12.65 16.75 Q11.55 18.75 13.15 20.1 14.75 21.5 16.9 22.2 17.45 22.35 18.0 22.65 14.4 22.8 12.45 19.5 11.75 18.35 12.05 16.95 12.35 15.4 13.05 14.0 9.25 15.95 7.65 19.75 L6.95 21.9 Q8.4 24.55 11.6 25.25 L14.55 25.6 Q10.8 24.1 9.45 20.65 8.85 19.0 9.95 17.65 L10.7 16.7 Q7.55 22.15 13.55 23.8 19.75 25.3 24.3 29.85 20.9 27.9 17.15 27.25 26.85 33.2 37.4 36.0 47.6 38.6 57.65 36.25 44.05 37.6 31.35 32.5 26.2 30.5 21.95 27.2 31.0 31.0 41.15 33.65 46.0 34.95 51.0 34.75 51.4 33.5 48.5 33.9 L47.35 33.75 45.1 33.2 45.85 33.15 Q36.75 31.95 28.35 28.6 27.2 28.2 26.3 27.05 39.9 33.5 54.8 32.25 59.35 31.9 63.35 29.4 63.8 30.8 61.9 31.35 L55.6 33.2 Q63.6 32.65 70.7 29.05 L71.7 28.3 Q66.3 21.95 58.6 18.5 54.45 16.55 50.3 14.75 60.35 17.6 68.6 24.35 L71.7 26.9 73.15 24.8 73.3 24.8 73.1 27.35 Q74.85 24.85 75.1 21.95 L75.2 21.6 Q75.95 22.2 75.35 24.8 L75.0 25.9 Q78.7 21.5 77.45 15.85 76.9 13.2 74.5 11.45 79.3 14.05 78.8 19.4 78.55 22.05 77.1 24.35 L75.9 26.15 78.9 23.85 Q76.7 29.25 71.3 31.65 L62.9 34.7 Q71.5 34.5 77.15 28.05 80.7 23.95 81.0 18.45 81.25 13.05 76.55 10.75 71.1 8.05 65.3 5.95 L65.05 5.95 Q65.9 7.0 67.05 7.4 L68.35 8.15 M66.0 15.9 Q69.85 13.9 73.1 16.15 71.05 18.6 66.65 17.45 L65.75 16.4 66.0 15.9 M50.85 9.6 Q50.3 9.35 50.3 9.0 50.3 8.65 50.85 8.45 L52.2 8.2 53.55 8.45 Q54.1 8.65 54.1 9.0 54.1 9.35 53.55 9.6 L52.2 9.8 50.85 9.6 M42.5 7.8 L42.25 8.15 41.6 8.3 41.0 8.15 40.7 7.8 Q40.7 7.6 41.0 7.45 L41.6 7.3 42.25 7.45 42.5 7.8 M42.0 18.9 Q40.8 20.05 39.0 20.3 37.85 20.3 36.75 19.75 L36.35 19.0 Q37.95 17.45 40.25 17.3 L41.7 17.55 42.15 18.3 42.0 18.9 M58.0 13.85 L59.0 13.65 60.05 13.85 60.45 14.25 60.05 14.7 59.0 14.85 58.0 14.7 57.55 14.25 58.0 13.85 M57.7 24.2 L56.75 24.4 55.8 24.2 55.4 23.75 55.8 23.3 56.75 23.1 57.7 23.3 Q58.1 23.5 58.1 23.75 L57.7 24.2 M48.9 28.3 Q49.3 28.55 49.3 28.9 L48.9 29.5 47.9 29.75 46.9 29.5 46.5 28.9 Q46.5 28.55 46.9 28.3 L47.9 28.05 48.9 28.3 M25.5 14.8 L25.25 14.25 Q25.25 13.95 25.5 13.75 25.7 13.5 26.0 13.5 26.3 13.5 26.55 13.75 L26.75 14.25 26.55 14.8 26.0 15.0 25.5 14.8 M29.15 22.7 L28.85 23.25 28.15 23.45 Q27.75 23.45 27.45 23.25 L27.15 22.7 Q27.15 22.4 27.45 22.2 27.75 21.95 28.15 21.95 L28.85 22.2 29.15 22.7" fill="#e6cb9d" fill-rule="evenodd" stroke="none"/>
      <path d="M29.15 22.7 L28.85 22.2 28.15 21.95 Q27.75 21.95 27.45 22.2 27.15 22.4 27.15 22.7 L27.45 23.25 Q27.75 23.45 28.15 23.45 L28.85 23.25 29.15 22.7 M25.5 14.8 L26.0 15.0 26.55 14.8 26.75 14.25 26.55 13.75 Q26.3 13.5 26.0 13.5 25.7 13.5 25.5 13.75 25.25 13.95 25.25 14.25 L25.5 14.8 M48.9 28.3 L47.9 28.05 46.9 28.3 Q46.5 28.55 46.5 28.9 L46.9 29.5 47.9 29.75 48.9 29.5 49.3 28.9 Q49.3 28.55 48.9 28.3 M57.7 24.2 L58.1 23.75 Q58.1 23.5 57.7 23.3 L56.75 23.1 55.8 23.3 55.4 23.75 55.8 24.2 56.75 24.4 57.7 24.2 M58.0 13.85 L57.55 14.25 58.0 14.7 59.0 14.85 60.05 14.7 60.45 14.25 60.05 13.85 59.0 13.65 58.0 13.85 M42.0 18.9 L42.15 18.3 41.7 17.55 40.25 17.3 Q37.95 17.45 36.35 19.0 L36.75 19.75 Q37.85 20.3 39.0 20.3 40.8 20.05 42.0 18.9 M42.5 7.8 L42.25 7.45 41.6 7.3 41.0 7.45 Q40.7 7.6 40.7 7.8 L41.0 8.15 41.6 8.3 42.25 8.15 42.5 7.8 M50.85 9.6 L52.2 9.8 53.55 9.6 Q54.1 9.35 54.1 9.0 54.1 8.65 53.55 8.45 L52.2 8.2 50.85 8.45 Q50.3 8.65 50.3 9.0 50.3 9.35 50.85 9.6 M66.0 15.9 L65.75 16.4 66.65 17.45 Q71.05 18.6 73.1 16.15 69.85 13.9 66.0 15.9 M68.35 8.15 L67.05 7.4 Q65.9 7.0 65.05 5.95 L65.3 5.95 Q71.1 8.05 76.55 10.75 81.25 13.05 81.0 18.45 80.7 23.95 77.15 28.05 71.5 34.5 62.9 34.7 L71.3 31.65 Q76.7 29.25 78.9 23.85 L75.9 26.15 77.1 24.35 Q78.55 22.05 78.8 19.4 79.3 14.05 74.5 11.45 76.9 13.2 77.45 15.85 78.7 21.5 75.0 25.9 L75.35 24.8 Q75.95 22.2 75.2 21.6 L75.1 21.95 Q74.85 24.85 73.1 27.35 L73.3 24.8 73.15 24.8 71.7 26.9 68.6 24.35 Q60.35 17.6 50.3 14.75 54.45 16.55 58.6 18.5 66.3 21.95 71.7 28.3 L70.7 29.05 Q63.6 32.65 55.6 33.2 L61.9 31.35 Q63.8 30.8 63.35 29.4 59.35 31.9 54.8 32.25 39.9 33.5 26.3 27.05 27.2 28.2 28.35 28.6 36.75 31.95 45.85 33.15 L45.1 33.2 47.35 33.75 48.5 33.9 Q51.4 33.5 51.0 34.75 46.0 34.95 41.15 33.65 31.0 31.0 21.95 27.2 26.2 30.5 31.35 32.5 44.05 37.6 57.65 36.25 47.6 38.6 37.4 36.0 26.85 33.2 17.15 27.25 20.9 27.9 24.3 29.85 19.75 25.3 13.55 23.8 7.55 22.15 10.7 16.7 L9.95 17.65 Q8.85 19.0 9.45 20.65 10.8 24.1 14.55 25.6 L11.6 25.25 Q8.4 24.55 6.95 21.9 L7.65 19.75 Q9.25 15.95 13.05 14.0 12.35 15.4 12.05 16.95 11.75 18.35 12.45 19.5 14.4 22.8 18.0 22.65 17.45 22.35 16.9 22.2 14.75 21.5 13.15 20.1 11.55 18.75 12.65 16.75 L14.85 12.7 15.85 12.05 Q15.4 13.45 15.3 14.9 L15.6 14.9 16.05 14.0 Q17.2 11.9 19.25 11.1 27.9 8.25 36.6 10.15 30.55 8.55 24.25 8.1 L28.25 6.75 28.8 7.05 Q45.8 3.85 62.6 7.95 L59.9 7.0 Q45.2 3.8 30.55 6.05 L35.85 4.85 Q48.15 2.45 60.15 5.7 L70.5 10.05 68.35 8.15 M72.35 12.05 L71.3 11.85 70.25 12.05 Q69.8 12.25 69.8 12.55 L70.25 13.05 71.3 13.25 72.35 13.05 72.8 12.55 72.35 12.05" fill="#f3e6d1" fill-rule="evenodd" stroke="none"/>
    </g>
  </defs>
</svg>
