<?xml version="1.0" encoding="UTF-8" standalone="no"?>
<svg
   height="53.45px"
   width="112.6px"
   version="1.1"
   id="svg13"
   sodipodi:docname="687.svg"
   inkscape:version="1.4.2 (f4327f4, 2025-05-13)"
   xmlns:inkscape="http://www.inkscape.org/namespaces/inkscape"
   xmlns:sodipodi="http://sodipodi.sourceforge.net/DTD/sodipodi-0.dtd"
   xmlns="http://www.w3.org/2000/svg"
   xmlns:svg="http://www.w3.org/2000/svg">
  <defs
     id="defs13" />
  <sodipodi:namedview
     id="namedview13"
     pagecolor="#ffffff"
     bordercolor="#000000"
     borderopacity="0.25"
     inkscape:showpageshadow="2"
     inkscape:pageopacity="0.0"
     inkscape:pagecheckerboard="0"
     inkscape:deskcolor="#d1d1d1"
     inkscape:zoom="8"
     inkscape:cx="53.625"
     inkscape:cy="23.3125"
     inkscape:window-width="1920"
     inkscape:window-height="1001"
     inkscape:window-x="-9"
     inkscape:window-y="-9"
     inkscape:window-maximized="1"
     inkscape:current-layer="svg13" />
  <g
     transform="matrix(1.0, 0.0, 0.0, 1.0, 1.75, 0.8)"
     id="g13">
    <path
       d="M67.8 -0.6 Q78.65 -1.55 88.85 2.65 96.85 5.7 105.3 7.35 109.85 8.5 110.85 13.25 L110.2 14.35 109.0 15.85 106.4 18.3 106.3 18.4 106.0 18.7 104.1 21.1 102.8 23.15 Q104.3 25.6 105.2 28.45 108.25 38.2 98.85 38.55 91.7 39.45 84.15 38.3 L81.85 42.25 Q81.75 42.8 81.95 43.25 L82.1 44.45 82.0 45.6 81.8 46.3 81.55 46.6 Q77.65 46.25 74.15 44.75 68.75 42.4 63.0 41.35 57.75 47.5 50.0 50.15 39.45 53.9 32.3 47.45 L28.7 43.85 28.7 43.6 28.55 42.15 Q28.35 41.05 28.8 39.9 29.25 38.75 30.4 37.45 31.5 36.1 30.35 35.5 23.8 35.55 17.4 36.9 11.0 38.25 6.6 36.7 L5.6 35.6 5.65 35.05 Q5.75 34.55 6.0 34.2 L6.95 32.65 8.85 29.8 Q9.75 28.2 9.95 26.4 L7.0 25.8 2.8 25.7 Q0.65 25.95 -1.75 23.9 L-1.7 23.05 -1.6 22.7 -1.1 21.75 0.95 19.0 1.1 17.5 Q1.2 16.8 1.65 16.3 L3.0 14.6 Q3.95 13.3 5.2 12.75 L7.35 11.9 7.6 11.5 7.6 7.4 9.2 5.25 39.4 0.6 Q45.55 -0.65 51.8 -0.65 L67.8 -0.6 M104.4 18.7 L104.7 18.4 104.95 18.15 107.3 15.95 108.45 14.5 109.1 13.45 Q108.15 8.9 103.7 7.8 95.55 6.2 87.8 3.25 77.9 -0.75 67.4 0.15 L51.9 0.1 Q45.85 0.1 39.85 1.3 L10.6 5.75 9.05 7.85 9.05 11.75 8.8 12.15 6.75 12.95 Q5.5 13.5 4.6 14.75 L3.3 16.4 Q2.85 16.85 2.75 17.55 L2.6 18.95 0.65 21.6 0.15 22.5 0.05 22.85 0.0 23.7 Q1.05 24.4 2.65 24.5 6.25 24.55 9.65 25.55 L11.35 26.1 Q11.15 27.8 10.25 29.35 L8.45 32.1 7.5 33.55 Q7.25 33.9 7.15 34.4 L7.1 34.9 8.1 35.95 15.8 36.2 Q24.2 34.35 32.55 34.6 L31.8 36.25 30.8 38.15 Q29.75 39.85 29.55 41.8 L29.5 42.6 29.5 42.85 33.0 46.3 Q39.9 52.5 50.15 48.9 57.65 46.35 62.75 39.95 68.3 41.45 73.55 43.7 76.95 45.15 80.7 45.5 L80.95 45.2 81.15 44.5 81.1 43.75 80.85 42.35 80.75 41.55 83.7 37.05 Q90.55 38.6 97.45 37.75 106.6 37.4 103.65 28.05 102.75 25.3 101.3 22.95 L102.55 21.0 104.4 18.7"
       fill="#000000"
       fill-rule="evenodd"
       stroke="none"
       id="path1" />
    <path
       d="M105.3 11.9 L106.15 12.15 106.75 13.25 105.3 14.7 105.7 12.7 105.3 11.9 M103.3 16.45 L101.65 18.25 Q102.0 17.7 101.55 17.5 L100.55 17.5 100.25 18.45 92.75 18.95 92.25 18.3 89.4 17.65 89.65 17.25 90.35 16.9 Q91.55 15.8 93.05 15.2 96.6 13.95 100.2 14.85 L104.1 12.8 103.45 12.55 94.4 13.95 96.5 11.95 Q98.1 10.5 100.1 10.8 L98.15 10.4 101.55 9.8 102.5 10.45 104.2 12.7 104.4 15.0 Q103.95 15.35 103.45 15.65 L103.3 16.45 M97.6 10.5 L96.9 10.9 Q94.95 12.15 93.25 13.8 L93.35 13.3 93.25 13.3 90.4 15.4 87.3 16.75 81.45 18.55 78.7 18.1 Q74.5 17.15 70.7 15.15 L74.35 14.55 80.3 13.7 77.75 14.3 77.55 14.75 77.85 15.6 Q79.4 16.05 81.05 15.3 L82.1 14.5 82.45 14.0 83.3 13.65 80.55 12.65 76.5 12.9 80.55 10.65 85.6 10.85 87.5 10.85 94.0 10.7 92.95 9.9 93.15 9.6 93.45 9.3 Q95.65 8.35 96.05 10.3 L95.45 10.65 97.6 10.5 M5.95 17.65 L6.75 17.55 5.85 18.0 5.95 17.65 M20.0 17.65 L22.45 17.35 21.6 17.85 20.0 17.65 M42.05 14.7 L44.35 14.3 43.4 14.65 42.05 14.7 M50.1 10.4 Q48.15 13.25 44.85 12.75 L43.85 12.5 41.3 13.35 40.85 12.8 41.25 12.0 48.55 8.5 48.7 8.55 48.5 9.5 49.95 8.7 50.55 9.5 50.1 10.4 M50.9 8.8 L50.7 6.3 Q42.55 9.25 33.8 11.05 L33.35 11.9 29.6 13.2 28.7 12.45 Q31.75 10.4 35.2 10.25 L35.6 10.5 45.05 6.95 43.95 6.25 34.25 7.3 Q40.35 3.5 45.6 6.65 48.5 6.2 50.95 4.2 L53.6 5.25 54.2 5.1 Q59.3 6.55 64.75 6.65 L54.1 7.2 Q51.5 5.75 50.8 5.95 L52.9 7.7 52.45 7.9 52.3 7.45 51.85 7.65 51.5 8.45 50.9 8.8 M73.05 8.8 L77.95 10.35 74.05 13.0 71.1 13.7 67.3 13.55 66.05 13.1 Q61.95 11.2 58.5 8.05 L60.95 8.25 Q64.1 9.5 67.05 8.7 L65.9 7.9 67.2 7.95 73.05 8.8 M80.55 8.8 L76.6 8.3 Q75.95 8.0 75.3 7.8 L75.0 7.4 75.4 6.8 87.75 6.15 87.45 6.8 82.7 8.55 80.55 8.8 M85.05 15.35 Q85.45 15.15 85.45 14.8 85.45 14.5 85.05 14.25 L84.1 14.05 83.15 14.25 Q82.75 14.5 82.75 14.8 82.75 15.15 83.15 15.35 L84.1 15.6 85.05 15.35 M90.05 19.0 L87.25 18.95 88.5 18.5 90.05 19.0 M66.55 12.0 L68.25 12.2 70.0 12.0 70.7 11.4 Q70.7 11.05 70.0 10.85 L68.25 10.55 66.55 10.85 Q65.8 11.05 65.8 11.4 65.8 11.7 66.55 12.0 M51.8 10.3 L53.8 8.65 55.8 10.3 55.05 12.15 54.95 12.25 Q53.0 14.0 51.45 16.3 L51.2 16.45 Q50.3 15.2 48.9 16.8 L48.95 17.2 Q49.05 17.95 49.7 17.7 46.3 20.6 42.35 20.1 L42.05 20.8 41.4 21.05 40.05 21.85 38.25 23.85 14.1 24.6 Q8.9 22.45 3.6 21.1 L4.45 20.2 8.15 20.05 8.95 20.0 10.75 19.95 Q13.2 19.85 15.2 18.4 L18.15 18.8 Q22.25 19.9 25.55 16.95 L30.3 16.35 32.65 16.2 40.0 16.5 46.35 14.9 48.5 13.75 Q50.55 12.5 51.8 10.3 M55.2 14.05 L56.95 12.05 57.8 11.95 60.3 14.0 60.45 15.1 60.45 16.4 57.35 18.9 57.85 18.25 58.55 17.0 58.8 16.35 58.95 15.7 58.25 14.7 58.3 14.2 57.7 13.65 52.95 18.8 Q52.9 20.45 51.55 21.15 L50.7 21.55 49.75 22.05 50.45 22.5 Q45.2 24.25 39.5 23.8 L42.4 21.65 42.65 21.55 45.3 20.95 45.75 21.4 48.45 20.1 49.7 19.45 Q51.9 18.05 53.35 15.7 L53.5 15.55 54.8 14.4 55.2 14.05 M61.5 15.6 L61.5 15.0 61.75 15.4 61.5 15.6 M59.75 4.05 L64.75 5.55 Q62.3 7.25 59.6 4.8 L59.75 4.05 M42.9 19.15 L42.7 17.95 35.1 20.9 36.15 21.95 42.9 19.15 M24.05 8.4 L23.85 8.95 23.35 9.2 Q23.05 9.2 22.85 8.95 L22.65 8.4 22.85 7.85 23.35 7.65 23.85 7.85 24.05 8.4 M20.8 9.9 L26.45 9.4 Q24.6 11.4 21.75 10.4 L20.8 9.9 M25.0 21.55 L21.9 20.85 21.25 21.6 Q23.8 24.2 27.3 22.85 L29.85 21.5 25.0 21.55 M33.6 21.5 L33.95 20.85 30.15 21.65 Q32.0 22.95 33.6 21.5 M17.45 12.15 Q15.9 13.45 13.9 13.35 L12.6 13.15 12.35 12.7 Q14.65 10.55 17.1 11.9 L17.45 12.15"
       fill="#38ad67"
       fill-rule="evenodd"
       stroke="none"
       id="path2" />
    <path
       d="M102.4 8.95 L103.85 9.45 105.3 11.9 105.7 12.7 105.3 14.7 103.3 16.45 103.45 15.65 Q103.95 15.35 104.4 15.0 L104.2 12.7 102.5 10.45 101.55 9.8 Q101.55 9.45 101.8 9.25 102.05 8.95 102.4 8.95 M101.65 18.25 L100.25 19.45 100.25 18.45 100.55 17.5 101.55 17.5 Q102.0 17.7 101.65 18.25 M98.15 24.7 L98.75 23.9 99.85 26.5 100.05 26.95 99.05 26.95 98.25 25.4 98.15 24.7 M100.4 27.55 L101.25 28.05 101.5 30.3 101.4 30.75 101.0 29.15 100.7 28.5 100.4 27.55 M101.5 33.5 L101.4 33.8 99.7 35.05 98.0 34.55 97.5 33.65 99.0 33.05 99.45 33.25 100.6 33.05 101.5 33.5 M84.05 33.35 L82.25 35.05 Q80.85 35.8 79.75 37.05 L79.05 35.85 79.55 34.65 77.05 36.95 76.55 36.95 70.7 29.7 72.65 31.4 76.7 31.45 77.3 32.1 77.8 32.15 77.05 30.7 73.9 30.85 68.55 24.9 68.8 24.05 70.4 23.8 79.5 25.8 80.75 27.45 81.9 27.4 82.3 28.05 86.05 28.8 87.3 28.55 85.45 28.25 85.05 27.85 83.5 27.75 82.3 26.75 81.6 26.75 79.9 25.25 Q84.45 25.25 88.95 26.4 L89.3 26.85 Q90.65 27.2 91.85 27.9 L96.1 31.25 Q90.8 33.75 84.75 31.75 L82.2 31.4 80.5 33.65 82.45 32.3 83.55 32.55 84.05 33.35 M93.25 13.8 L89.55 16.95 90.35 16.9 89.65 17.25 89.4 17.65 92.25 18.3 92.75 18.95 97.75 19.25 97.1 19.55 Q94.85 20.85 92.5 19.95 L92.2 19.4 91.75 19.65 90.05 19.0 88.5 18.5 87.25 18.95 Q79.55 21.45 71.5 20.45 L68.4 19.9 69.8 21.35 69.15 21.4 66.7 18.05 66.05 16.7 Q68.55 18.2 71.25 18.85 L67.45 18.1 69.3 19.85 70.45 19.85 70.8 20.1 81.3 20.0 78.6 19.35 76.2 19.45 75.4 19.4 79.35 19.0 81.45 18.55 87.3 16.75 88.2 16.85 90.4 15.4 93.25 13.3 93.35 13.3 93.25 13.8 M25.95 15.55 L21.5 14.25 Q18.65 15.75 15.45 15.2 L13.3 14.6 Q17.15 15.2 20.9 13.75 L21.45 13.55 Q24.1 13.25 26.7 14.65 L27.25 15.15 25.95 15.55 M47.75 12.9 L49.65 11.2 51.5 8.45 51.85 7.65 52.3 7.45 52.45 7.9 51.8 10.3 Q50.55 12.5 48.5 13.75 L46.35 14.9 45.75 14.85 47.75 12.9 M77.95 10.35 L80.55 8.8 82.7 8.55 84.15 8.95 84.65 10.05 84.15 10.25 83.8 10.1 Q79.6 9.25 76.5 12.9 L76.4 13.0 76.15 13.3 73.35 14.2 74.35 14.55 70.7 15.15 68.45 15.15 64.65 14.35 67.3 13.55 71.1 13.7 72.9 14.15 74.05 13.0 77.95 10.35 M75.4 23.1 L83.25 22.15 83.0 21.55 83.65 20.85 85.55 21.05 85.8 21.95 89.6 22.75 87.95 22.65 87.55 23.75 87.75 24.0 Q89.0 24.65 90.4 24.55 L91.3 24.4 92.15 24.1 92.5 23.45 95.15 24.55 Q97.9 25.6 97.4 28.6 L96.9 30.35 92.45 26.45 95.2 26.45 96.0 27.15 95.55 26.0 91.4 25.1 Q83.55 23.3 75.4 23.1 M81.2 30.4 L81.75 29.8 Q80.6 28.85 79.0 28.9 77.15 28.55 75.45 27.35 L74.9 27.9 75.4 28.35 Q78.1 30.2 81.2 30.4 M88.7 29.1 L88.0 29.95 Q88.85 31.95 90.9 31.2 91.9 30.95 92.15 30.0 L88.7 29.1 M65.9 7.9 L67.05 8.7 Q64.1 9.5 60.95 8.25 L58.65 7.45 Q62.15 6.6 65.9 7.9 M64.7 15.05 L64.05 14.5 64.5 14.65 64.7 15.05 M62.95 13.65 L63.1 14.7 Q65.7 17.65 66.15 21.85 L65.4 21.95 65.15 19.85 64.45 19.0 64.45 18.25 62.45 15.95 62.0 15.85 61.75 15.4 61.5 15.0 61.5 15.6 Q61.65 18.0 60.7 20.05 L60.35 20.65 60.1 20.1 58.6 22.8 57.35 23.15 Q59.65 20.8 60.25 17.65 L60.45 16.4 60.45 15.1 61.45 14.85 61.45 14.0 59.5 12.1 58.9 10.85 58.15 10.4 55.0 9.0 52.9 7.7 50.8 5.95 Q51.5 5.75 54.1 7.2 L55.15 7.7 55.6 7.9 Q59.85 8.5 62.2 12.2 L62.95 13.65 M64.4 24.65 L62.2 27.5 Q53.25 36.75 40.8 38.15 L39.75 41.25 38.6 41.65 37.35 39.85 Q37.6 36.9 38.5 33.85 L38.65 32.0 35.8 30.95 35.65 30.7 35.5 30.1 35.5 29.6 35.7 29.0 36.05 28.45 40.2 27.4 40.4 26.85 41.95 26.25 42.7 25.95 43.15 26.2 Q44.0 26.4 43.4 27.15 L43.15 27.5 48.0 26.85 46.95 27.85 46.45 28.95 45.6 30.05 Q44.4 31.25 42.95 31.05 L39.25 34.05 40.2 34.2 Q41.7 33.2 43.35 32.6 47.7 31.25 49.55 26.65 L54.95 25.9 51.85 29.05 52.35 29.25 Q55.2 28.55 56.7 25.7 L59.05 25.25 61.65 21.75 61.55 20.7 62.45 20.4 63.7 22.0 63.0 24.8 64.4 24.65 M39.9 42.6 L40.55 41.95 41.05 41.2 41.35 40.35 41.6 39.1 Q42.4 38.5 43.3 38.25 L53.85 35.8 Q51.55 36.9 50.5 39.4 49.8 40.95 48.75 42.2 L49.6 42.35 Q50.95 39.9 52.9 38.5 56.05 36.25 58.9 33.3 L59.45 33.65 Q64.05 30.5 67.05 25.25 L67.05 24.25 67.1 24.25 Q68.05 28.65 70.0 32.45 L68.75 34.8 68.95 35.05 Q63.45 34.1 58.55 36.9 L57.4 37.7 57.85 38.35 54.15 43.4 Q53.9 44.35 52.9 44.35 L52.05 44.4 54.8 40.0 Q47.85 46.25 39.9 42.6 M69.4 35.15 L71.15 33.15 74.65 36.95 Q71.95 35.65 69.4 35.15 M55.05 12.15 L55.7 11.4 56.4 11.7 55.2 14.05 54.8 14.4 54.05 14.75 53.5 15.55 53.35 15.7 48.45 20.1 45.75 21.4 45.3 20.95 42.65 21.55 41.4 21.05 42.05 20.8 45.55 20.1 46.0 20.55 48.7 18.75 50.5 17.3 49.7 17.7 Q49.05 17.95 48.95 17.2 L48.9 16.8 Q50.3 15.2 51.2 16.45 L50.9 16.95 51.45 16.3 Q53.0 14.0 54.95 12.25 L55.05 12.15 M67.25 21.65 L67.25 20.85 67.8 21.6 67.25 21.65 M40.0 16.5 L32.65 16.2 30.3 16.35 28.5 15.9 28.1 15.65 Q34.95 14.65 41.75 15.35 L40.0 16.5 M8.95 20.0 L8.15 20.05 7.05 19.85 Q8.9 19.85 10.35 18.6 L10.75 18.1 14.25 17.5 13.55 18.0 10.2 19.35 9.7 19.45 8.95 20.0 M38.25 23.85 L40.05 21.85 42.4 21.65 39.5 23.8 38.55 24.95 38.4 25.85 35.95 27.45 32.2 28.65 32.2 28.5 32.55 28.0 37.1 25.4 25.65 26.95 30.75 25.8 28.0 25.75 38.0 24.1 38.25 23.85 M44.5 25.6 L48.95 24.25 50.05 24.65 44.5 25.6 M59.5 26.9 L59.45 26.35 Q55.6 30.35 50.75 32.25 L51.95 32.55 53.8 31.6 Q57.3 30.1 59.5 26.9 M42.35 29.7 L42.55 28.95 39.1 30.0 39.45 30.7 42.35 29.7 M49.8 32.45 L48.45 32.1 39.65 35.7 40.1 35.95 Q45.4 35.65 49.8 32.45 M22.1 31.55 L17.3 31.9 14.85 31.65 14.0 30.6 14.1 28.75 16.55 25.65 16.7 26.25 16.7 26.8 Q16.4 27.9 15.75 28.65 L15.0 29.45 15.25 30.5 17.05 30.6 18.8 29.15 20.7 28.05 Q22.75 27.15 24.9 26.35 L24.05 26.7 23.55 27.5 18.55 30.6 27.2 28.65 28.55 29.4 27.75 29.8 Q25.0 31.05 22.1 31.55 M21.15 18.95 L20.1 18.85 19.8 18.35 Q20.55 17.5 21.3 18.8 L21.15 18.95 M33.6 21.5 Q32.0 22.95 30.15 21.65 L33.95 20.85 33.6 21.5"
       fill="#70d197"
       fill-rule="evenodd"
       stroke="none"
       id="path3" />
    <path
       d="M100.1 7.3 L98.45 8.05 99.1 8.45 Q100.3 8.8 101.45 8.45 L102.4 8.95 Q102.05 8.95 101.8 9.25 101.55 9.45 101.55 9.8 L98.15 10.4 97.6 10.5 95.45 10.65 96.05 10.3 Q95.65 8.35 93.45 9.3 L93.15 9.6 92.95 9.9 94.0 10.7 87.5 10.85 Q89.1 10.4 90.7 9.4 L91.5 8.75 84.15 8.95 82.7 8.55 87.45 6.8 87.75 6.15 75.4 6.8 75.0 7.4 75.3 7.8 Q75.95 8.0 76.6 8.3 L80.55 8.8 77.95 10.35 73.05 8.8 75.3 8.4 73.45 7.9 70.1 7.7 68.95 7.3 76.2 5.9 64.75 6.65 Q59.3 6.55 54.2 5.1 L53.6 5.25 50.95 4.2 Q48.5 6.2 45.6 6.65 40.35 3.5 34.25 7.3 L43.95 6.25 45.05 6.95 35.6 10.5 35.2 10.25 Q31.75 10.4 28.7 12.45 L29.6 13.2 33.35 11.9 33.8 11.05 Q42.55 9.25 50.7 6.3 L50.9 8.8 50.55 9.5 49.95 8.7 48.5 9.5 48.7 8.55 48.55 8.5 41.25 12.0 40.85 12.8 41.3 13.35 43.85 12.5 44.85 12.75 Q48.15 13.25 50.1 10.4 L49.65 11.2 47.75 12.9 44.35 14.3 42.05 14.7 38.35 14.65 27.25 15.15 26.7 14.65 Q24.1 13.25 21.45 13.55 L20.9 13.75 Q17.15 15.2 13.3 14.6 L15.45 15.2 Q18.65 15.75 21.5 14.25 L25.95 15.55 22.45 17.35 20.0 17.65 15.45 17.4 14.85 17.15 6.75 17.55 5.95 17.65 6.4 16.35 Q9.5 15.45 11.8 13.1 L10.8 12.1 17.95 9.3 15.25 8.25 Q25.65 5.5 36.4 3.65 L49.85 3.05 48.35 2.75 48.2 2.65 48.15 2.4 48.2 2.2 50.45 2.0 51.15 2.15 53.4 2.85 52.3 3.1 69.15 1.4 Q73.95 1.0 78.1 2.6 L76.05 3.3 81.8 4.15 81.5 3.45 81.65 3.2 82.2 3.05 82.2 3.0 83.95 3.1 84.7 4.0 87.35 5.4 Q89.0 6.3 90.75 7.0 93.55 8.15 96.8 7.65 L100.1 7.3 M85.6 10.85 L80.55 10.65 81.7 10.1 83.8 10.1 84.15 10.25 85.6 10.85 M59.75 4.05 L59.6 4.8 Q62.3 7.25 64.75 5.55 L59.75 4.05 M30.3 16.35 L25.55 16.95 28.5 15.9 30.3 16.35 M20.8 9.9 L21.75 10.4 Q24.6 11.4 26.45 9.4 L20.8 9.9 M24.05 8.4 L23.85 7.85 23.35 7.65 22.85 7.85 22.65 8.4 22.85 8.95 Q23.05 9.2 23.35 9.2 L23.85 8.95 24.05 8.4 M17.45 12.15 L17.1 11.9 Q14.65 10.55 12.35 12.7 L12.6 13.15 13.9 13.35 Q15.9 13.45 17.45 12.15"
       fill="#2f9557"
       fill-rule="evenodd"
       stroke="none"
       id="path4" />
    <path
       d="m 105.3,11.9 -1.45,-2.45 -1.45,-0.5 -0.95,-0.5 c -0.76667,0.2333333 -1.55,0.2333333 -2.35,0 L 98.45,8.05 100.1,7.3 c 3,0.1333333 5.53333,1.5333333 7.6,4.2 l 0.75,1.1 c -0.9,2.033333 -2.06667,3.883333 -3.5,5.55 l -0.25,0.25 -0.3,0.3 c -1.4,1.466667 -3.03333,2.8 -4.9,4 3.4,3.9 4.23333,8.166667 2.5,12.8 l -0.7,0.7 -15,-0.6 -0.7,-0.85 -0.35,-0.15 -0.5,-0.15 -3.75,3.05 -0.6,0.3 -0.75,1.25 0.1,-2 c 0.733333,-0.833333 1.566667,-1.5 2.5,-2 l 1.8,-1.7 C 87.85,34.516667 91.833333,35 96,34.8 l 2,-0.25 1.7,0.5 1.7,-1.25 0.1,-0.3 -0.1,-2.75 0.1,-0.45 -0.25,-2.25 -0.85,-0.5 -0.15,-0.7 -0.4,-0.35 -1.1,-2.6 -0.6,0.8 -0.35,-0.7 0.1,-2.05 2.35,-2.5 1.4,-1.2 1.65,-1.8 2,-1.75 1.45,-1.45 -0.6,-1.1 -0.85,-0.25 m -94.5,0.2 1,1 c -1.533333,1.566667 -3.3333333,2.65 -5.4,3.25 L 5.95,17.65 5.85,18 4.45,20.2 3.6,21.1 c 3.5333333,0.9 7.041146,2.011979 10.507813,3.445313 l 0.442968,0.231249 C 14.717448,27.643229 13.8875,30.139844 11.7875,32.539844 L 11.637499,32.721881 17.3,31.9 22.1,31.55 c 4.366667,-0.1 8.7,0.333333 13,1.3 l 0.5,0.35 -0.25,3.7 -1.8,3.1 0.25,1.85 4.2,3.5 8.85,0.05 c 1.966667,0.233333 3.7,-0.1 5.2,-1 l 0.85,-0.05 c 0.666667,0 1.083333,-0.316667 1.25,-0.95 l 6.55,-6.35 c 5.066667,0.1 9.883333,1.116667 14.45,3.05 L 78,41.4 79.5,39.1 79.3,41 77.75,42.65 H 76.5 L 75.65,41.6 c -3.133333,-1.066667 -6.133333,-2.35 -9,-3.85 -5.033333,1.4 -9.6,3.95 -13.7,7.65 -1.1,0.966667 -2.35,1.516667 -3.75,1.65 -5.133333,1 -9.8,0.283333 -14,-2.15 l -3.1,-1.7 -0.1,-1.1 -0.8,-0.65 3.55,-6.6 -0.5,-0.8 c -8.1,-1.133333 -16.333333,-1.1 -24.7,0.1 L 9.25,33.3 c 0.6333333,-2.1 1.757031,-3.73125 3.457031,-4.83125 l 0.560938,-2.441406 C 11.801302,25.127344 10.3,24.55 8.6,24.35 L 7,23.05 c -1.8333333,0.4 -3.6166667,0.1 -5.35,-0.9 l 0.65,-1.5 v -0.6 l 2.3,-3.1 0.95,-1.85 5.25,-3 M 10.35,9.3 10.9,8.5 c 0.733333,-0.8666667 1.6,-1.5166667 2.6,-1.95 l 2,0.3 -0.15,0.85 -3.3,1.35 -0.1,0.25 1.7,0.5 -3.05,0.3 -0.25,-0.8"
       fill="#36a964"
       fill-rule="evenodd"
       stroke="none"
       id="path5"
       sodipodi:nodetypes="ccccccccccccccccccccccccccccccccccccccccccccccccccccccccccccccccccccccccccccccccccccccccccccccccccccccccccccc" />
    <path
       d="M79.65 39.05 L80.4 37.8 81.0 37.5 84.75 34.45 85.25 34.6 85.6 34.75 86.3 35.6 101.3 36.2 102.0 35.5 Q104.6 28.55 99.5 22.7 102.3 20.9 104.4 18.7 L102.55 21.0 101.3 22.95 Q102.75 25.3 103.65 28.05 106.6 37.4 97.45 37.75 90.55 38.6 83.7 37.05 L80.75 41.55 80.85 42.35 81.1 43.75 81.15 44.5 80.95 45.2 80.7 45.5 Q76.95 45.15 73.55 43.7 68.3 41.45 62.75 39.95 57.65 46.35 50.15 48.9 39.9 52.5 33.0 46.3 L29.5 42.85 29.5 42.6 29.55 41.8 Q29.75 39.85 30.8 38.15 L31.8 36.25 32.55 34.6 Q24.2 34.35 15.8 36.2 L8.1 35.95 7.1 34.9 7.15 34.4 Q7.25 33.9 7.5 33.55 L8.45 32.1 10.25 29.35 Q11.15 27.8 11.35 26.1 L9.65 25.55 Q6.25 24.55 2.65 24.5 1.05 24.4 0.0 23.7 L0.05 22.85 0.15 22.5 0.65 21.6 2.6 18.95 2.75 17.55 Q2.85 16.85 3.3 16.4 L4.6 14.75 Q5.5 13.5 6.75 12.95 L8.8 12.15 9.05 11.75 9.05 7.85 10.6 5.75 39.85 1.3 Q45.85 0.1 51.9 0.1 L67.4 0.15 Q77.9 -0.75 87.8 3.25 95.55 6.2 103.7 7.8 108.15 8.9 109.1 13.45 L108.45 14.5 107.3 15.95 104.95 18.15 Q107.1 15.65 108.45 12.6 L107.7 11.5 Q104.6 7.5 100.1 7.3 L96.8 7.65 Q93.55 8.15 90.75 7.0 89.0 6.3 87.35 5.4 L84.7 4.0 83.95 3.1 82.2 3.0 82.2 3.05 81.65 3.2 81.5 3.45 81.8 4.15 76.05 3.3 78.1 2.6 Q73.95 1.0 69.15 1.4 L52.3 3.1 53.4 2.85 51.15 2.15 50.45 2.0 48.2 2.2 48.15 2.4 48.2 2.65 48.35 2.75 49.85 3.05 36.4 3.65 Q25.65 5.5 15.25 8.25 L17.95 9.3 10.8 12.1 5.55 15.1 4.6 16.95 2.3 20.05 2.3 20.65 1.65 22.15 Q4.25 23.65 7.0 23.05 L8.6 24.35 Q11.15 24.65 13.35 26.0 L12.75 28.5 Q10.2 30.15 9.25 33.3 L9.55 34.15 Q22.1 32.35 34.25 34.05 L34.75 34.85 31.2 41.45 32.0 42.1 32.1 43.2 35.2 44.9 Q41.5 48.55 49.2 47.05 51.3 46.85 52.95 45.4 59.1 39.85 66.65 37.75 70.95 40.0 75.65 41.6 L76.5 42.65 77.75 42.65 79.3 41.0 79.5 39.1 79.65 39.05 M11.6 32.8 L11.55 32.8 11.6 32.7 11.6 32.8 M10.35 9.3 L10.6 10.1 13.65 9.8 11.95 9.3 12.05 9.05 15.35 7.7 15.5 6.85 13.5 6.55 Q12.0 7.2 10.9 8.5 L10.35 9.3"
       fill="#22693f"
       fill-rule="evenodd"
       stroke="none"
       id="path6" />
    <path
       d="m 100.25,19.45 -2.35,2.5 -0.1,2.05 0.35,0.7 0.1,0.7 0.8,1.55 h 1 l -0.2,-0.45 0.4,0.35 0.15,0.7 0.3,0.95 0.3,0.65 0.4,1.6 0.1,2.75 -0.9,-0.45 -1.15,0.2 -0.45,-0.2 -1.5,0.6 0.5,0.9 -2,0.25 C 91.833333,35 87.85,34.516667 84.05,33.35 l -0.5,-0.8 -1.1,-0.25 -1.95,1.35 1.7,-2.25 2.55,0.35 c 4.033333,1.333333 7.816667,1.166667 11.35,-0.5 l 0.3,0.5 0.7,0.35 0.35,0.1 0.15,-0.15 -0.7,-1.7 0.5,-1.75 c 0.333333,-2 -0.416667,-3.35 -2.25,-4.05 l -2.65,-1.1 -0.35,0.65 -0.85,0.3 -0.9,0.15 C 89.466667,24.616667 88.583333,24.433333 87.75,24 l -0.2,-0.25 0.4,-1.1 1.65,0.1 -3.8,-0.8 -0.25,-0.9 -1.9,-0.2 -0.65,0.7 0.25,0.6 -7.85,0.95 -1.2,-0.05 c -1.566667,-0.3 -3.033333,-0.866667 -4.4,-1.7 l -1.4,-1.45 3.1,0.55 c 5.366667,0.666667 10.616667,0.166667 15.75,-1.5 l 2.8,0.05 1.7,0.65 0.45,-0.25 0.3,0.55 c 1.566667,0.6 3.1,0.466667 4.6,-0.4 l 0.65,-0.3 -5,-0.3 7.5,-0.5 v 1 m -20.5,17.6 -0.1,2 L 79.5,39.1 78,41.4 75.15,40.1 C 70.583333,38.166667 65.766667,37.15 60.7,37.05 l -6.55,6.35 3.7,-5.05 -0.45,-0.65 1.15,-0.8 c 3.266667,-1.866667 6.733333,-2.483333 10.4,-1.85 l 0.1,0.1 0.25,0.05 0.1,-0.05 c 1.7,0.333333 3.45,0.933333 5.25,1.8 l 1.5,1.05 0.9,-0.25 -0.5,-0.8 h 0.5 l 2.5,-2.3 -0.5,1.2 0.7,1.2 m 18.4,-26.65 1.95,0.4 c -1.333333,-0.2 -2.533333,0.183333 -3.6,1.15 l -2.1,2 9.05,-1.4 0.65,0.25 -3.9,2.05 c -2.4,-0.6 -4.783333,-0.483333 -7.15,0.35 -1,0.4 -1.9,0.966667 -2.7,1.7 l -0.8,0.05 3.7,-3.15 c 1.133333,-1.1 2.35,-2.066667 3.65,-2.9 l 0.7,-0.4 0.55,-0.1 m -82.7,7 4.55,0.25 1.6,0.2 0.85,-0.5 3.5,-1.8 1.3,-0.4 11.1,-0.5 3.7,0.05 1.35,-0.05 0.95,-0.35 3.4,-1.4 -2,1.95 0.6,0.05 -6.35,1.6 1.75,-1.15 c -4.533333,-0.466667 -9.083333,-0.366667 -13.65,0.3 l 0.4,0.25 -2.95,1.05 c -2.2,1.966667 -4.666667,2.583333 -7.4,1.85 L 15.2,18.4 13.55,18 l 0.7,-0.5 1.2,-0.1 M 49.65,11.2 50.1,10.4 50.55,9.5 50.9,8.8 51.5,8.45 49.65,11.2 M 64.75,6.65 76.2,5.9 68.95,7.3 70.1,7.7 73.45,7.9 75.3,8.4 73.05,8.8 67.2,7.95 65.9,7.9 C 63.4,7.0333333 60.983333,6.8833333 58.65,7.45 l 2.3,0.8 -2.45,-0.2 c 2.3,2.1 4.816667,3.783333 7.55,5.05 l 1.25,0.45 -2.65,0.8 3.8,0.8 h 2.25 c 2.533333,1.333333 5.2,2.316667 8,2.95 l 2.75,0.45 -2.1,0.45 -3.95,0.4 H 75.25 74.8 L 74.35,19.35 73.7,19.3 71.35,18.85 h -0.1 C 69.45,18.416667 67.716667,17.7 66.05,16.7 L 64.7,15.05 64.5,14.65 64.05,14.5 62.95,13.65 62.2,12.2 C 60.633333,9.7333333 58.433333,8.3 55.6,7.9 L 55.55,7.75 C 55.05,7.3166667 54.916667,7.3 55.15,7.7 L 54.1,7.2 64.75,6.65 m 19.4,2.3 7.35,-0.2 -0.8,0.65 c -1.066667,0.666667 -2.133333,1.15 -3.2,1.45 h -1.9 l -1.45,-0.6 0.5,-0.2 -0.5,-1.1 m -3.6,1.7 -4.05,2.25 4.05,-0.25 2.75,1 -0.85,0.35 -0.35,0.5 -1.05,0.8 c -1.1,0.5 -2.166667,0.6 -3.2,0.3 l -0.3,-0.85 0.2,-0.45 2.55,-0.6 -5.95,0.85 -1,-0.35 2.8,-0.9 0.25,-0.3 0.1,-0.1 c 2.066667,-2.433333 4.5,-3.3666667 7.3,-2.8 h -2.1 l -1.15,0.55 m 6.75,6.1 3.1,-1.35 -2.2,1.45 -0.9,-0.1 m -2.25,-1.4 -0.95,0.25 -0.95,-0.25 c -0.266667,-0.133333 -0.4,-0.316667 -0.4,-0.55 0,-0.2 0.133333,-0.383333 0.4,-0.55 l 0.95,-0.2 0.95,0.2 c 0.266667,0.166667 0.4,0.35 0.4,0.55 0,0.233333 -0.133333,0.416667 -0.4,0.55 m -14.65,8.45 -1.6,0.25 0.05,-1 1.55,0.75 m 18.3,5.3 3.45,0.9 c -0.166667,0.633333 -0.583333,1.033333 -1.25,1.2 -1.366667,0.5 -2.333333,0.08333 -2.9,-1.25 l 0.7,-0.85 m -7.5,1.3 c -2.066667,-0.133333 -4,-0.816667 -5.8,-2.05 l -0.5,-0.45 0.55,-0.55 c 1.133333,0.8 2.316667,1.316667 3.55,1.55 1.066667,-0.03333 1.983333,0.266667 2.75,0.9 L 81.2,30.4 M 71.1,13.7 74.05,13 72.9,14.15 71.1,13.7 M 66.55,12 c -0.5,-0.2 -0.75,-0.4 -0.75,-0.6 0,-0.233333 0.25,-0.416667 0.75,-0.55 l 1.7,-0.3 1.75,0.3 c 0.466667,0.133333 0.7,0.316667 0.7,0.55 L 70,12 68.25,12.2 66.55,12 m -1.15,9.95 -1,2.7 -1.4,0.15 0.7,-2.8 -1.25,-1.6 -0.9,0.3 0.1,1.05 -2.6,3.5 -2.35,0.45 0.5,-0.9 0.6,-0.05 0.85,-0.9 c 0.833333,-0.866667 1.4,-1.933333 1.7,-3.2 l 0.35,-0.6 c 0.633333,-1.366667 0.9,-2.85 0.8,-4.45 l 0.25,-0.2 0.25,0.45 0.45,0.1 2,2.3 V 19 l 0.7,0.85 0.25,2.1 M 38.6,41.65 36.95,43 39.9,42.6 c 5.3,2.433333 10.266667,1.566667 14.9,-2.6 l -2.75,4.4 c -1.5,0.9 -3.233333,1.233333 -5.2,1 L 38,45.35 33.8,41.85 33.55,40 l 1.8,-3.1 0.25,-3.7 -0.5,-0.35 c -4.3,-0.966667 -8.633333,-1.4 -13,-1.3 1.933333,-0.333333 3.816667,-0.916667 5.65,-1.75 l 0.8,-0.4 -1.35,-0.75 -8.65,1.95 5,-3.1 2.1,-0.55 L 37.1,25.4 32.55,28 32.2,28.5 v 0.15 l 0.45,0.4 3.3,-1.6 2.45,-1.6 0.15,-0.9 0.95,-1.15 c 3.8,0.3 7.45,-0.133333 10.95,-1.3 l -0.7,-0.45 0.95,-0.5 0.85,-0.4 c 0.9,-0.466667 1.366667,-1.25 1.4,-2.35 l 4.75,-5.15 0.6,0.55 -0.05,0.5 0.7,1 -0.15,0.65 -0.25,0.65 -0.7,1.25 -0.5,0.65 3.1,-2.5 -0.2,1.25 c -0.4,2.1 -1.366667,3.933333 -2.9,5.5 l -7.3,1.5 -1.1,-0.4 -4.45,1.35 -3.25,0.6 0.7,0.05 -1.55,0.6 -0.2,0.55 -4.15,1.05 -0.35,0.55 -0.2,0.6 v 0.5 l 0.15,0.6 0.15,0.25 2.85,1.05 -0.15,1.85 c -0.6,2.033333 -0.983333,4.033333 -1.15,6 l 1.25,1.8 M 67.05,24.25 V 24.2 l 0.05,0.05 H 67.05 M 52.9,7.7 55,9 l 3.15,1.4 0.75,0.45 0.6,1.25 1.95,1.9 v 0.85 l -1,0.25 -0.15,-1.1 -2.5,-2.05 -0.85,0.1 -1.75,2 1.2,-2.35 -0.7,-0.3 -0.65,0.75 0.75,-1.85 -2,-1.65 -2,1.65 0.65,-2.4 0.45,-0.2 m 2.05,18.2 -5.4,0.75 6.2,-1.6 -0.8,0.85 M 48,26.85 43.15,27.5 43.4,27.15 c 0.4,-0.5 0.316667,-0.816667 -0.25,-0.95 l 6.3,-1 -1.45,1.65 m -9.75,-3 -0.25,0.25 -10,1.65 -3.1,0.6 c -1.433333,0.533333 -2.833333,1.1 -4.2,1.7 l -1.9,1.1 -1.75,1.45 -1.8,-0.1 -0.25,-1.05 0.75,-0.8 c 0.433333,-0.5 0.75,-1.116667 0.95,-1.85 v -0.55 l -0.15,-0.6 -2.45,3.1 -0.1,1.85 0.85,1.05 2.45,0.25 -5.7,0.9 v -0.1 c 2.1,-2.4 3.066667,-5.033333 2.9,-7.9 l -0.413672,-0.209766 z m 1.8,-2 1.35,-0.8 1.25,0.5 -0.25,0.1 -2.35,0.2 m 2,-1.05 0.3,-0.7 c 2.633333,0.333333 5.083333,-0.466667 7.35,-2.4 l 0.8,-0.4 -1.8,1.45 -2.7,1.8 -0.45,-0.45 -3.5,0.7 m 9.15,-4.35 0.25,-0.15 -0.55,0.65 0.3,-0.5 m 2.15,-0.75 c -0.966667,1.566667 -2.183333,2.816667 -3.65,3.75 l -1.25,0.65 4.9,-4.4 m 0.15,-0.15 0.55,-0.8 0.75,-0.35 -1.3,1.15 m -10.6,3.6 -6.75,2.8 -1.05,-1.05 7.6,-2.95 0.2,1.2 m 16.6,7.75 c -1.466667,2.133333 -3.366667,3.7 -5.7,4.7 l -1.85,0.95 -1.2,-0.3 c 3.233333,-1.266667 6.133333,-3.233333 8.7,-5.9 l 0.05,0.55 m -17.15,2.8 -2.9,1 -0.35,-0.7 3.45,-1.05 -0.2,0.75 m 7.45,2.75 c -2.933333,2.133333 -6.166667,3.3 -9.7,3.5 l -0.45,-0.25 8.8,-3.6 1.35,0.35 M 25,21.55 29.85,21.5 27.3,22.85 c -2.333333,0.9 -4.35,0.483333 -6.05,-1.25 l 0.65,-0.75 3.1,0.7 m -3.85,-2.6 0.15,-0.15 c -0.5,-0.866667 -1,-1.016667 -1.5,-0.45 l 0.3,0.5 1.05,0.1"
       fill="#3dbe71"
       fill-rule="evenodd"
       stroke="none"
       id="path7"
       sodipodi:nodetypes="cccccccccccccccccccccccccccccccccccccccccccccccccccccccccccccccccccccccccccccccccccccccccccccccccccccccccccccccccccccccccccccccccccccccccccccccccccccccccccccccccccccccccccccccccccccccccccccccccccccccscccsccccccccccccccccccccccsccccccccccccccccccccccccccccccccccccccccccccccccccccccccccccccccccccccccccccccccccccccccccccccccccccccccccccccccccccccccccccccccccccccccccccccccccccccccccccccccccccccccccccccccccccccccccccccccccccccccccc" />
    <path
       d="M96.9 30.35 L97.6 32.05 97.45 32.2 97.1 32.1 96.4 31.75 96.1 31.25 91.85 27.9 Q90.65 27.2 89.3 26.85 L88.95 26.4 Q84.45 25.25 79.9 25.25 L81.6 26.75 82.3 26.75 83.5 27.75 85.05 27.85 85.45 28.25 87.3 28.55 86.05 28.8 82.3 28.05 81.9 27.4 80.75 27.45 79.5 25.8 70.4 23.8 68.85 23.05 68.8 24.05 68.55 24.9 73.9 30.85 77.05 30.7 77.8 32.15 77.3 32.1 76.7 31.45 72.65 31.4 70.7 29.7 76.55 36.95 77.05 37.75 76.15 38.0 74.65 36.95 71.15 33.15 69.4 35.15 69.3 35.2 69.05 35.15 68.95 35.05 68.75 34.8 70.0 32.45 Q68.05 28.65 67.1 24.25 L67.05 24.2 67.05 24.25 67.05 25.25 Q64.05 30.5 59.45 33.65 L58.9 33.3 Q56.05 36.25 52.9 38.5 50.95 39.9 49.6 42.35 L48.75 42.2 Q49.8 40.95 50.5 39.4 51.55 36.9 53.85 35.8 L43.3 38.25 Q42.4 38.5 41.6 39.1 L41.35 40.35 41.05 41.2 40.55 41.95 39.9 42.6 36.95 43.0 38.6 41.65 39.75 41.25 40.8 38.15 Q53.25 36.75 62.2 27.5 L64.4 24.65 65.4 21.95 66.15 21.85 Q65.7 17.65 63.1 14.7 L62.95 13.65 64.05 14.5 64.7 15.05 66.05 16.7 66.7 18.05 69.15 21.4 69.8 21.35 Q71.85 22.6 74.2 23.05 L75.4 23.1 Q83.55 23.3 91.4 25.1 L95.55 26.0 96.0 27.15 95.2 26.45 92.45 26.45 96.9 30.35 M57.35 23.15 L58.6 22.8 60.1 20.1 60.35 20.65 Q59.9 22.55 58.65 23.85 L57.8 24.75 57.2 24.8 56.7 25.7 Q55.2 28.55 52.35 29.25 L51.85 29.05 54.95 25.9 55.75 25.05 49.55 26.65 Q47.7 31.25 43.35 32.6 41.7 33.2 40.2 34.2 L39.25 34.05 42.95 31.05 Q44.4 31.25 45.6 30.05 L46.45 28.95 46.95 27.85 48.0 26.85 49.45 25.2 43.15 26.2 42.7 25.95 41.95 26.25 41.25 26.2 44.5 25.6 50.05 24.65 57.35 23.15 M75.4 19.4 L76.2 19.45 78.6 19.35 81.3 20.0 70.8 20.1 70.45 19.85 69.3 19.85 67.45 18.1 71.25 18.85 71.35 18.85 73.7 19.3 74.35 19.35 74.8 19.4 75.25 19.4 75.4 19.4 M67.25 21.65 L67.8 21.6 67.25 20.85 67.25 21.65 M55.6 7.9 L55.15 7.7 Q54.8 7.1 55.55 7.75 L55.6 7.9 M24.9 26.35 L28.0 25.75 30.75 25.8 25.65 26.95 23.55 27.5 24.05 26.7 24.9 26.35 M32.2 28.65 L35.95 27.45 32.65 29.05 32.2 28.65"
       fill="#beebd0"
       fill-rule="evenodd"
       stroke="none"
       id="path8" />
    <path
       d="M6.75 17.55 L14.85 17.15 15.45 17.4 14.25 17.5 10.75 18.1 10.35 18.6 Q8.9 19.85 7.05 19.85 L8.15 20.05 4.45 20.2 5.85 18.0 6.75 17.55 M15.2 18.4 Q13.2 19.85 10.75 19.95 L8.95 20.0 9.7 19.45 10.2 19.35 13.55 18.0 15.2 18.4"
       fill="#309458"
       fill-rule="evenodd"
       stroke="none"
       id="path9" />
    <path
       d="M108.45 12.65 L109.15 12.5 109.55 12.95 109.15 17.5 106.65 19.4 Q106.8 20.15 106.45 20.8 L106.15 21.1 105.85 21.45 103.55 21.75 102.95 21.7 102.3 22.25 101.5 22.2 101.45 22.15 101.5 22.0 102.25 21.0 105.15 20.05 105.6 18.2 106.25 17.65 106.7 17.7 107.9 17.3 108.3 16.05 Q108.95 14.35 108.45 12.65 M31.65 38.25 L31.25 38.85 31.2 38.85 31.2 38.9 30.8 39.7 30.6 40.9 31.05 42.7 31.65 43.75 31.6 45.15 31.95 45.6 Q32.75 46.55 34.1 46.4 36.85 47.9 39.45 49.05 L39.5 48.95 40.45 49.3 40.7 49.65 41.8 49.6 43.55 49.55 45.45 49.45 44.25 50.7 43.65 50.9 Q40.85 52.2 38.35 50.0 L37.9 49.4 36.75 49.15 32.9 47.9 31.5 45.65 Q31.3 44.55 30.55 43.8 L28.85 42.15 29.0 39.9 Q29.6 38.9 30.65 38.3 30.85 38.15 31.15 38.15 L31.65 38.25 M47.8 47.95 L53.05 47.8 53.5 47.7 Q55.8 46.9 56.8 44.55 L57.8 43.75 58.3 43.75 61.4 40.3 63.2 39.65 63.3 39.9 64.05 39.5 64.8 39.55 65.65 40.3 Q68.25 42.95 71.8 41.95 L71.75 42.15 73.25 42.1 Q77.3 46.15 81.0 43.4 L81.15 39.1 81.5 38.8 82.45 38.8 81.95 40.85 81.9 40.9 81.5 44.35 81.4 45.0 80.85 45.75 80.45 46.15 80.15 46.35 Q76.8 47.15 74.25 44.15 L73.3 43.35 71.1 43.8 Q69.05 43.2 67.1 42.4 L64.55 41.05 63.35 40.15 Q61.75 41.25 60.65 42.8 L59.85 43.85 58.75 45.05 Q54.95 49.9 48.85 50.05 47.6 50.2 46.55 49.35 L46.5 49.3 47.3 49.05 47.8 47.95 M86.05 36.65 Q86.4 36.8 86.75 37.1 L88.15 38.25 Q91.05 38.65 93.8 37.1 L94.95 36.7 96.55 36.8 97.6 37.25 Q100.65 38.65 102.35 36.3 102.7 35.1 103.35 33.9 L103.65 33.55 Q104.15 33.95 104.1 34.8 L104.05 35.3 103.4 36.35 Q100.5 40.05 95.6 38.3 L94.85 38.35 Q91.4 39.75 87.95 38.8 L86.6 38.35 84.8 37.15 84.7 37.05 84.7 36.85 Q85.3 36.35 86.05 36.65 M2.65 24.9 L-0.5 24.35 -0.65 22.85 0.7 21.4 1.4 21.55 1.0 21.85 0.1 22.85 0.0 23.1 Q0.8 24.8 2.75 24.3 L3.7 24.15 4.6 24.75 7.65 24.9 9.3 25.0 8.4 25.6 4.8 25.9 2.65 24.9 M8.65 34.05 L8.55 35.3 Q11.45 38.25 15.7 35.65 17.9 37.15 20.35 36.35 L22.8 35.95 20.7 36.65 Q17.85 37.55 14.7 36.65 L14.25 37.05 12.6 37.3 Q10.15 37.45 7.95 36.35 L7.4 35.5 7.4 34.55 8.05 33.85 8.65 34.05 M26.45 36.1 Q28.95 35.7 31.05 33.9 31.7 33.7 31.55 34.3 L30.75 35.55 29.2 36.35 26.45 36.1"
       fill="#22693f"
       fill-rule="evenodd"
       stroke="none"
       id="path10" />
    <path
       d="M109.55 12.95 Q110.95 12.8 110.6 14.6 L110.4 15.15 Q110.75 18.6 107.65 19.9 107.1 23.4 103.0 23.15 L102.55 22.75 103.55 21.75 105.85 21.45 106.15 21.1 106.45 20.8 Q106.8 20.15 106.65 19.4 L109.15 17.5 109.55 12.95 M104.05 35.3 L104.25 34.9 105.0 34.7 Q104.35 40.15 98.45 40.0 96.05 39.95 95.6 38.3 100.5 40.05 103.4 36.35 L104.05 35.3 M94.85 38.35 Q95.65 39.55 93.3 40.2 89.2 41.15 85.45 38.9 L85.05 37.85 86.6 38.35 87.95 38.8 Q91.4 39.75 94.85 38.35 M81.95 40.85 Q82.15 40.15 82.7 39.75 L83.15 39.6 Q83.3 43.8 80.8 47.0 79.8 48.25 78.3 47.75 75.35 46.75 73.05 44.7 67.0 45.65 62.9 41.4 L64.55 41.05 67.1 42.4 Q69.05 43.2 71.1 43.8 L72.8 43.75 74.25 44.15 Q76.8 47.15 80.15 46.35 L80.45 46.15 81.35 45.45 81.4 45.0 81.5 44.35 81.9 40.9 81.95 40.85 M59.85 43.85 L60.95 43.75 Q56.6 51.7 47.9 50.3 L48.05 50.15 48.85 50.05 Q54.95 49.9 58.75 45.05 L59.85 43.85 M8.4 25.6 L9.95 25.75 Q6.1 27.7 1.45 25.7 L1.1 25.45 1.25 25.3 2.65 24.9 4.8 25.9 8.4 25.6 M22.8 35.95 L24.0 35.4 26.45 36.1 29.2 36.35 30.75 35.55 Q31.55 36.3 31.1 37.45 L31.0 37.75 24.1 36.5 Q20.4 39.55 15.8 37.9 10.55 40.5 7.45 36.35 L7.7 36.25 7.95 36.35 Q10.15 37.45 12.6 37.3 L14.25 37.05 14.7 36.65 Q17.85 37.55 20.7 36.65 L22.8 35.95 M36.75 49.15 Q33.25 51.1 30.8 46.95 30.2 45.95 30.9 45.0 L31.5 45.65 32.9 47.9 36.75 49.15 M38.35 50.0 Q40.85 52.2 43.65 50.9 L44.25 50.7 46.25 50.65 Q42.9 54.35 38.3 51.25 L38.25 51.15 38.0 50.5 38.0 50.2 38.35 50.0"
       fill="#000000"
       fill-rule="evenodd"
       stroke="none"
       id="path11" />
    <path
       d="M107.35 12.8 L107.45 12.4 107.65 12.1 108.0 12.0 108.35 12.25 108.45 12.65 Q108.95 14.35 108.3 16.05 L107.9 17.3 106.7 17.7 106.25 17.65 105.6 18.2 105.15 20.05 102.25 21.0 101.5 21.25 100.95 20.7 Q101.65 19.75 102.75 19.3 102.7 19.5 102.8 19.5 103.85 20.25 104.65 18.8 L104.2 17.65 105.1 16.6 105.45 16.8 Q106.85 16.55 107.75 15.6 L107.8 14.85 Q107.85 13.7 107.35 12.8 M87.25 35.55 L87.25 36.25 Q89.45 38.8 92.1 36.95 L91.85 36.15 91.7 36.15 Q89.7 37.0 88.2 35.65 91.9 35.6 95.0 36.5 L94.95 36.7 93.8 37.1 Q91.05 38.65 88.15 38.25 L86.75 37.1 Q86.4 36.8 86.05 36.65 L84.2 35.8 81.15 38.4 81.15 39.1 81.0 43.4 Q77.3 46.15 73.25 42.1 L71.8 41.95 Q68.25 42.95 65.65 40.3 L64.8 39.55 64.05 39.5 63.2 39.65 61.4 40.3 58.35 42.9 56.8 44.55 Q55.8 46.9 53.5 47.7 L53.05 47.8 47.8 47.95 43.55 49.55 41.8 49.6 40.45 49.3 39.5 48.95 Q37.5 46.75 34.95 46.35 L34.1 46.4 Q32.75 46.55 31.95 45.6 L31.6 45.15 31.65 43.75 31.05 42.7 30.6 40.9 30.8 39.7 31.2 38.9 31.25 38.85 31.65 38.25 33.85 36.15 34.0 37.15 33.3 38.0 33.7 38.45 32.6 40.95 32.5 40.85 32.4 40.75 32.45 40.1 Q33.65 39.0 32.35 38.4 31.0 39.35 31.25 41.3 L31.85 41.7 Q32.25 42.0 32.6 41.7 L33.3 43.05 33.1 43.3 Q32.9 43.85 32.85 44.4 L34.05 45.35 34.75 45.15 35.05 44.55 37.2 45.0 37.2 45.55 37.65 45.9 40.0 45.65 Q42.8 46.95 45.6 46.75 L46.15 47.05 47.55 46.55 47.95 46.9 49.4 46.6 49.65 46.15 Q53.4 45.6 55.95 42.8 L56.35 43.4 56.95 43.25 Q58.75 42.55 57.45 41.85 L60.8 39.45 61.35 39.6 61.7 39.55 Q62.2 39.6 62.2 38.95 L64.4 38.25 64.65 37.5 67.0 37.85 68.05 38.2 71.05 39.1 71.3 39.75 72.55 39.8 72.8 40.25 77.65 42.0 79.05 40.95 79.3 38.5 81.2 36.45 Q82.1 36.45 82.75 36.0 83.4 35.55 83.4 34.9 L87.05 35.25 87.25 35.55 M53.05 47.8 L53.55 47.55 54.2 46.85 54.45 46.3 53.55 46.0 52.85 46.65 49.65 46.55 49.7 47.0 50.5 47.35 53.05 47.8 M100.8 35.5 Q101.35 35.2 101.95 35.15 L102.3 35.05 102.35 36.3 Q100.65 38.65 97.6 37.25 L96.55 36.8 96.65 36.0 99.4 36.05 98.7 36.45 99.65 37.15 Q101.45 37.0 101.55 35.6 L100.8 35.5 M42.5 47.65 L41.15 47.25 40.75 46.8 39.95 46.4 39.7 46.45 Q39.1 46.9 39.8 47.6 42.8 50.45 44.7 47.35 44.4 46.7 43.6 47.15 L42.5 47.65 M68.3 39.7 L67.75 39.45 67.4 39.45 Q67.95 43.1 70.65 40.85 L68.3 39.7 M76.45 42.5 L76.45 43.15 Q77.3 44.25 78.75 44.15 81.25 43.65 80.2 41.9 L79.7 42.2 77.05 42.1 76.45 42.5 M1.4 21.55 L3.2 20.35 Q4.0 21.45 2.1 22.15 L1.2 22.1 1.1 22.8 2.1 23.65 2.65 23.6 3.15 23.2 3.15 22.75 2.15 22.25 4.4 22.5 4.4 23.35 6.45 24.45 7.2 24.2 7.6 23.7 7.8 23.15 7.75 22.9 5.8 23.0 5.05 22.5 Q7.35 22.15 9.4 23.15 L10.35 23.6 10.8 24.55 8.8 24.5 7.65 24.9 4.6 24.75 3.7 24.15 2.75 24.3 Q0.8 24.8 0.0 23.1 L0.1 22.85 1.0 21.85 1.4 21.55 M10.05 32.45 L9.55 33.75 10.45 34.7 Q12.6 36.35 14.5 34.65 L15.45 34.6 15.45 33.8 14.55 34.1 Q12.15 35.1 10.55 33.6 15.05 32.7 19.7 32.7 L22.7 32.7 22.95 33.15 26.9 32.5 Q29.65 31.8 31.7 33.1 L31.45 33.7 31.05 33.9 Q28.95 35.7 26.45 36.1 L24.0 35.4 22.8 35.95 20.35 36.35 Q17.9 37.15 15.7 35.65 11.45 38.25 8.55 35.3 L8.65 34.05 Q8.65 33.4 9.05 32.95 9.45 32.45 10.05 32.45 M17.25 34.35 L17.35 34.55 Q18.1 35.5 19.35 35.35 21.3 35.7 22.0 33.85 L21.8 33.65 21.4 33.35 21.15 33.4 Q19.2 34.35 17.25 34.35 M28.8 33.75 L28.25 33.15 24.25 33.7 Q26.35 36.6 28.8 33.75"
       fill="#36a964"
       fill-rule="evenodd"
       stroke="none"
       id="path12" />
    <path
       d="M102.75 19.3 L103.75 18.4 103.95 17.9 104.2 17.65 104.65 18.8 Q103.85 20.25 102.8 19.5 102.7 19.5 102.75 19.3 M105.1 16.6 L106.55 14.95 106.5 12.7 106.65 12.55 107.35 12.8 Q107.85 13.7 107.8 14.85 L107.75 15.6 Q106.85 16.55 105.45 16.8 L105.1 16.6 M100.8 27.95 L101.15 28.0 Q102.05 29.45 101.85 31.05 L101.15 31.75 100.6 31.3 100.75 30.35 100.3 28.65 Q100.15 28.0 100.8 27.95 M88.2 35.65 Q89.7 37.0 91.7 36.15 L91.85 36.15 92.1 36.95 Q89.45 38.8 87.25 36.25 L87.25 35.55 88.2 35.65 M83.4 34.9 Q83.4 35.55 82.75 36.0 82.1 36.45 81.2 36.45 L80.7 35.9 Q81.85 35.5 82.65 34.5 L83.05 34.25 83.3 34.4 83.4 34.65 83.4 34.9 M62.2 38.95 Q62.2 39.6 61.7 39.55 L61.35 39.6 60.8 39.45 59.8 38.45 60.3 37.95 Q61.25 38.65 62.2 38.95 M57.45 41.85 Q58.75 42.55 56.95 43.25 L56.35 43.4 55.95 42.8 57.45 41.85 M35.05 44.55 L34.75 45.15 34.05 45.35 32.85 44.4 Q32.9 43.85 33.1 43.3 L33.3 43.05 Q33.9 42.95 34.15 43.65 L34.25 43.95 Q34.75 44.05 35.0 44.4 L35.05 44.55 M32.6 41.7 Q32.25 42.0 31.85 41.7 L31.25 41.3 Q31.0 39.35 32.35 38.4 33.65 39.0 32.45 40.1 L32.4 40.75 32.5 40.85 32.6 40.95 32.6 41.7 M53.05 47.8 L50.5 47.35 49.7 47.0 49.65 46.55 52.85 46.65 53.55 46.0 54.45 46.3 54.2 46.85 53.55 47.55 53.05 47.8 M99.4 36.05 L100.8 35.5 101.55 35.6 Q101.45 37.0 99.65 37.15 L98.7 36.45 99.4 36.05 M42.5 47.65 L43.6 47.15 Q44.4 46.7 44.7 47.35 42.8 50.45 39.8 47.6 39.1 46.9 39.7 46.45 L39.95 46.4 40.75 46.8 41.15 47.25 42.5 47.65 M68.3 39.7 L70.65 40.85 Q67.95 43.1 67.4 39.45 L67.75 39.45 68.3 39.7 M76.45 42.5 L77.05 42.1 79.7 42.2 80.2 41.9 Q81.25 43.65 78.75 44.15 77.3 44.25 76.45 43.15 L76.45 42.5 M2.1 22.15 L2.15 22.25 3.15 22.75 3.15 23.2 2.65 23.6 2.1 23.65 1.1 22.8 1.2 22.1 2.1 22.15 M4.4 22.5 L5.05 22.5 5.8 23.0 7.75 22.9 7.8 23.15 7.6 23.7 7.2 24.2 6.45 24.45 4.4 23.35 4.4 22.5 M10.35 23.6 L10.9 23.05 11.7 23.75 13.75 24.45 13.35 24.95 12.35 24.95 10.8 24.55 10.35 23.6 M10.55 33.6 Q12.15 35.1 14.55 34.1 L15.45 33.8 15.45 34.6 14.5 34.65 Q12.6 36.35 10.45 34.7 L9.55 33.75 10.05 32.45 Q10.35 31.55 11.1 31.0 L11.45 30.9 Q11.85 31.8 10.55 33.6 M17.25 34.35 Q19.2 34.35 21.15 33.4 L21.4 33.35 21.8 33.65 22.0 33.85 Q21.3 35.7 19.35 35.35 18.1 35.5 17.35 34.55 L17.25 34.35 M28.8 33.75 Q26.35 36.6 24.25 33.7 L28.25 33.15 28.8 33.75"
       fill="#70d197"
       fill-rule="evenodd"
       stroke="none"
       id="path13" />
  </g>
</svg>
