<?xml version="1.0" encoding="UTF-8" standalone="no"?>
<svg xmlns:xlink="http://www.w3.org/1999/xlink" height="48.45px" width="100.6px" xmlns="http://www.w3.org/2000/svg">
  <g transform="matrix(1.0, 0.0, 0.0, 1.0, 0.0, 0.0)">
    <path d="M82.6 35.2 Q68.95 40.25 49.65 40.25 30.35 40.25 16.65 35.2 3.0 30.15 3.0 23.0 3.0 15.85 16.65 10.8 30.35 5.75 49.65 5.75 68.95 5.75 82.6 10.8 96.3 15.85 96.3 23.0 96.3 30.15 82.6 35.2" fill="#ff0000" fill-opacity="0.0" fill-rule="evenodd" stroke="none"/>
    <path d="M6.4 17.25 Q9.4 9.8 18.35 7.1 29.45 3.75 41.1 2.85 L63.2 3.55 Q75.55 4.9 87.0 9.8 89.25 10.8 90.85 12.0 84.85 6.55 76.15 4.6 65.45 2.2 54.65 1.9 43.2 1.25 31.8 3.1 20.65 4.95 10.7 10.15 7.9 11.6 6.1 14.25 0.1 23.0 8.0 28.8 L10.65 30.4 10.5 31.5 10.05 31.2 8.0 29.95 Q4.1 27.1 2.15 22.45 L1.75 25.75 Q0.85 33.55 8.0 37.55 L8.2 37.65 14.1 40.6 17.35 41.85 25.8 44.3 27.85 44.75 34.35 45.8 38.1 46.25 46.6 46.7 52.4 46.75 62.1 46.2 66.6 45.65 73.4 44.45 76.0 43.8 82.8 41.7 86.3 40.35 92.4 37.15 94.45 35.6 Q100.75 30.35 97.65 22.4 L97.2 23.6 Q95.45 27.5 92.0 29.85 L90.85 30.6 90.45 30.85 89.9 30.0 92.0 28.65 Q94.3 26.85 95.7 24.3 97.7 20.6 95.45 17.35 L93.55 14.8 Q96.0 18.65 94.1 24.1 93.2 25.65 92.0 26.9 90.7 28.15 89.05 29.1 L87.6 29.9 Q90.35 28.0 92.0 25.25 93.6 22.55 94.15 19.05 L89.9 16.75 Q85.4 14.45 80.7 12.7 L81.55 13.4 Q85.05 19.35 86.1 26.6 86.3 28.2 85.45 29.45 L83.6 31.95 82.05 32.5 82.4 32.15 Q83.6 31.25 84.1 29.75 85.5 25.2 83.2 20.3 L80.8 24.15 80.35 23.65 79.75 23.55 Q81.25 22.45 82.05 20.65 82.95 18.4 81.55 16.35 79.7 13.55 77.25 11.55 L74.85 9.85 73.3 8.95 Q70.85 7.7 67.95 7.0 L63.4 6.1 57.5 5.25 51.8 4.85 49.35 4.8 44.8 4.9 41.15 5.1 38.65 5.3 Q33.8 5.75 29.3 7.25 26.6 8.1 24.1 9.3 22.65 9.95 21.3 10.75 L19.0 12.1 Q17.4 13.1 16.35 14.15 11.25 19.1 18.2 24.95 L17.95 26.15 16.9 25.4 Q14.15 23.3 12.8 20.2 L11.9 23.5 Q10.95 26.6 11.75 29.1 L14.15 30.35 17.05 31.5 20.9 32.9 23.0 33.55 27.95 34.8 29.5 35.15 32.9 35.75 34.5 36.0 36.95 36.3 39.35 36.5 42.3 36.7 48.8 36.95 54.45 36.9 58.25 36.75 60.3 36.65 62.5 36.45 68.65 35.65 70.6 35.35 74.85 34.45 76.9 33.95 81.5 32.65 77.0 34.25 74.95 34.85 70.75 35.85 68.8 36.2 66.0 36.6 62.6 37.1 60.4 37.35 54.5 37.75 48.85 37.9 45.5 37.8 42.2 37.6 39.25 37.35 34.4 36.8 32.85 36.6 29.35 36.0 27.75 35.75 25.1 35.2 22.8 34.7 20.6 34.05 16.8 32.5 Q14.25 31.3 12.0 29.75 L10.65 28.75 8.0 26.45 6.75 25.2 Q4.8 23.1 5.4 20.45 5.75 18.8 6.4 17.3 7.8 16.4 9.3 15.65 13.15 13.55 17.2 12.1 20.65 8.6 25.35 6.7 27.4 5.85 29.65 5.35 L31.1 5.05 29.7 5.25 25.6 6.2 20.85 7.65 Q11.95 10.1 6.4 17.25 M78.1 10.65 Q86.35 12.8 93.65 17.4 L92.8 16.3 Q86.35 8.95 76.65 6.8 L72.7 5.8 67.45 4.75 61.85 4.0 57.2 3.6 51.05 3.4 49.45 3.4 44.95 3.5 38.85 3.9 35.6 4.4 38.85 4.05 44.95 3.6 49.45 3.5 51.85 3.5 57.2 3.75 58.45 3.8 62.2 4.4 Q68.0 5.5 73.15 8.0 L77.55 10.5 78.1 10.65 M83.55 5.9 Q96.65 9.95 99.55 22.9 100.35 26.5 98.8 29.95 96.4 35.35 92.0 38.85 87.85 42.05 82.0 43.6 70.1 46.8 58.05 47.55 L35.35 46.6 Q23.4 45.2 12.0 41.2 9.8 40.4 8.0 39.35 -0.75 34.25 1.1 23.4 3.3 10.4 16.35 6.0 28.25 2.0 40.55 1.2 52.15 0.2 63.95 1.5 73.95 3.0 83.55 5.9 M26.45 27.7 Q23.25 27.15 20.75 25.65 17.6 23.75 15.6 20.4 14.2 18.05 15.8 16.0 16.8 14.65 18.0 13.55 19.75 11.8 21.9 10.55 L24.0 9.45 Q26.4 8.35 29.15 7.8 L29.7 7.65 Q34.1 6.75 38.5 6.35 L44.7 6.0 49.3 6.05 51.7 6.15 52.95 6.2 57.7 6.4 64.0 7.35 Q66.7 7.9 69.35 8.8 L73.95 10.55 77.1 12.1 Q78.8 13.05 79.5 14.85 82.0 21.35 77.5 24.6 76.0 25.65 73.8 26.4 L72.5 26.75 72.05 26.85 70.2 27.5 68.85 27.9 65.9 28.75 64.7 29.05 60.45 29.9 58.9 30.15 54.8 30.6 51.0 30.85 49.8 30.85 46.3 30.85 44.25 30.75 41.05 30.55 40.05 30.45 37.3 30.1 36.25 29.95 34.5 29.65 29.95 28.65 26.75 27.8 26.45 27.7 M65.25 13.3 Q67.75 14.0 70.1 15.15 71.2 15.65 72.3 16.3 L72.25 15.9 72.2 15.8 71.1 14.25 69.6 12.85 Q67.35 11.0 64.1 10.35 L60.65 9.5 56.4 8.9 54.4 8.75 51.05 8.6 49.0 8.65 43.7 9.0 41.75 9.25 37.9 10.0 36.4 10.4 33.65 11.5 33.1 11.7 Q32.05 12.1 31.25 12.65 30.1 13.45 29.35 14.6 L28.45 16.3 35.8 13.2 37.25 12.8 40.35 12.15 43.5 11.75 49.15 11.4 51.6 11.4 54.6 11.55 56.15 11.65 56.35 11.65 60.75 12.25 65.25 13.3 M71.95 19.85 Q73.0 19.1 73.5 17.9 L73.75 16.45 73.2 15.0 73.15 14.95 Q71.25 12.1 68.45 10.4 66.45 9.2 63.95 8.6 L63.15 8.45 61.3 8.05 51.8 7.15 49.7 7.15 46.0 7.35 45.7 7.35 Q41.75 7.5 38.15 8.65 36.15 9.25 34.3 10.1 L30.65 12.1 29.3 13.1 Q28.15 14.0 27.7 15.05 26.45 17.75 30.1 20.8 L29.95 21.6 29.2 21.1 Q27.35 19.7 26.45 17.55 L25.8 19.8 Q24.45 24.45 28.7 27.05 L28.85 27.1 31.55 27.9 33.1 28.3 36.45 28.9 37.5 29.05 40.05 29.3 41.1 29.4 43.25 29.45 44.4 29.5 46.45 29.6 50.95 29.55 54.75 29.35 57.6 29.05 58.75 29.05 60.3 29.0 64.55 28.5 65.8 28.2 68.65 27.4 70.0 26.9 73.5 25.15 74.85 24.25 74.9 24.1 Q75.85 21.0 74.3 17.65 L72.65 20.25 72.35 19.9 71.95 19.85 M35.7 22.7 Q30.8 21.8 28.3 17.7 27.4 16.2 28.4 14.85 L28.45 14.75 30.15 12.9 Q31.95 11.2 34.3 10.2 35.95 9.45 37.95 9.05 L38.1 9.05 46.0 8.05 49.75 7.9 53.75 8.05 53.95 8.05 56.85 8.2 Q60.1 8.45 63.2 9.35 66.3 10.2 69.3 11.7 L70.15 12.1 Q71.3 12.7 71.75 13.95 L72.0 14.55 72.3 15.9 Q73.05 20.65 66.75 22.1 59.45 24.7 51.6 24.8 43.45 25.0 35.7 22.7 M68.15 9.55 L67.85 9.5 68.2 9.65 Q70.8 11.05 73.15 12.95 L74.45 15.5 Q77.4 16.7 80.25 18.3 L80.1 17.6 Q76.15 11.1 68.15 9.55 M69.4 15.75 Q66.2 14.2 62.75 13.45 55.6 12.15 48.65 12.15 38.3 12.55 28.6 17.05 29.0 18.2 30.0 18.8 37.7 23.7 47.15 23.85 52.1 24.15 56.9 23.6 66.55 23.7 72.2 17.1 70.8 16.35 69.4 15.75 M77.5 22.2 L80.15 19.45 76.0 17.45 75.05 17.05 Q75.9 19.35 76.25 21.95 76.35 22.7 76.1 23.35 L76.8 22.8 77.5 22.2 M35.3 7.95 L29.65 9.05 27.5 9.65 22.6 11.5 Q21.2 12.05 20.05 12.8 17.1 14.75 15.75 18.3 L26.55 13.75 28.3 13.3 28.8 12.7 Q31.4 9.8 35.15 8.35 L36.85 7.75 35.3 7.95 M26.9 15.3 L26.95 15.25 Q21.4 16.9 15.95 19.4 16.6 21.1 18.05 22.0 L20.75 23.6 Q23.65 25.2 26.7 26.35 22.65 22.2 26.9 15.3 M13.5 16.8 L14.95 14.7 Q10.3 16.6 5.8 18.95 6.0 22.85 8.0 25.65 L8.1 25.8 9.5 27.4 10.5 28.25 Q9.45 23.35 13.5 16.8" fill="#988770" fill-rule="evenodd" stroke="none"/>
    <path d="M10.65 30.4 L8.0 28.8 Q0.1 23.0 6.1 14.25 7.9 11.6 10.7 10.15 20.65 4.95 31.8 3.1 43.2 1.25 54.65 1.9 65.45 2.2 76.15 4.6 84.85 6.55 90.85 12.0 89.25 10.8 87.0 9.8 75.55 4.9 63.2 3.55 L41.1 2.85 Q29.45 3.75 18.35 7.1 9.4 9.8 6.4 17.25 L6.35 17.3 6.4 17.3 Q5.75 18.8 5.4 20.45 4.8 23.1 6.75 25.2 L8.0 26.45 10.65 28.75 12.0 29.75 Q14.25 31.3 16.8 32.5 L20.6 34.05 22.8 34.7 25.1 35.2 27.75 35.75 29.35 36.0 32.85 36.6 34.4 36.8 39.25 37.35 42.2 37.6 45.5 37.8 48.85 37.9 54.5 37.75 60.4 37.35 62.6 37.1 66.0 36.6 68.8 36.2 70.75 35.85 74.95 34.85 77.0 34.25 81.5 32.65 81.65 32.6 82.05 32.5 83.6 31.95 84.7 31.5 87.6 29.9 89.05 29.1 Q90.7 28.15 92.0 26.9 93.2 25.65 94.1 24.1 96.0 18.65 93.55 14.8 L95.45 17.35 Q97.7 20.6 95.7 24.3 94.3 26.85 92.0 28.65 L89.9 30.0 Q86.0 32.1 81.95 33.7 L78.7 34.85 77.35 35.25 75.3 35.85 70.95 36.9 69.15 37.25 67.4 37.5 62.75 38.05 60.5 38.25 54.55 38.6 48.85 38.65 45.25 38.55 42.15 38.45 39.15 38.2 34.35 37.7 32.8 37.45 29.15 36.85 27.6 36.55 23.85 35.7 22.7 35.4 20.45 34.7 16.6 33.3 13.3 31.8 11.55 30.9 10.65 30.4 M62.5 36.45 L60.3 36.65 59.85 32.15 61.8 31.8 62.5 36.45 M54.45 36.9 L48.8 36.95 48.65 32.8 54.15 32.65 54.45 36.9 M42.3 36.7 L39.35 36.5 39.8 32.45 42.0 32.65 42.7 32.7 42.3 36.7 M34.5 36.0 L32.9 35.75 33.0 35.05 33.15 34.05 33.2 33.75 33.65 31.7 35.05 32.0 Q34.7 33.4 34.6 34.8 L34.5 36.0 M18.2 24.95 Q11.25 19.1 16.35 14.15 17.4 13.1 19.0 12.1 L21.3 10.75 Q22.65 9.95 24.1 9.3 26.6 8.1 29.3 7.25 33.8 5.75 38.65 5.3 L41.15 5.1 44.8 4.9 49.35 4.8 51.8 4.85 57.5 5.25 63.4 6.1 67.95 7.0 Q70.85 7.7 73.3 8.95 L74.85 9.85 77.25 11.55 Q79.7 13.55 81.55 16.35 82.95 18.4 82.05 20.65 81.25 22.45 79.75 23.55 L77.5 25.35 75.6 26.45 74.35 26.95 72.05 26.85 72.5 26.75 73.8 26.4 Q76.0 25.65 77.5 24.6 82.0 21.35 79.5 14.85 78.8 13.05 77.1 12.1 L73.95 10.55 69.35 8.8 Q66.7 7.9 64.0 7.35 L57.7 6.4 52.95 6.2 51.7 6.15 49.3 6.05 44.7 6.0 38.5 6.35 Q34.1 6.75 29.7 7.65 L29.15 7.8 Q26.4 8.35 24.0 9.45 L21.9 10.55 Q19.75 11.8 18.0 13.55 16.8 14.65 15.8 16.0 14.2 18.05 15.6 20.4 17.6 23.75 20.75 25.65 23.25 27.15 26.45 27.7 L25.35 28.35 18.2 24.95 M76.0 43.8 L73.4 44.45 71.55 37.7 72.25 37.55 74.15 37.15 76.0 43.8 M66.6 45.65 L62.1 46.2 60.7 39.25 65.2 38.75 66.6 45.65 M52.4 46.75 L46.6 46.7 47.4 39.7 52.25 39.7 52.4 46.75 M38.1 46.25 L34.35 45.8 35.1 38.85 38.85 39.25 38.95 39.9 39.05 40.8 39.05 42.15 38.6 44.6 38.5 44.95 38.1 46.25 M30.1 20.8 Q26.45 17.75 27.7 15.05 28.15 14.0 29.3 13.1 L30.65 12.1 34.3 10.1 Q36.15 9.25 38.15 8.65 41.75 7.5 45.7 7.35 L46.0 7.35 49.7 7.15 51.8 7.15 61.3 8.05 63.15 8.45 63.95 8.6 Q66.45 9.2 68.45 10.4 71.25 12.1 73.15 14.95 L73.2 15.0 73.75 16.45 73.5 17.9 Q73.0 19.1 71.95 19.85 70.6 21.1 69.1 21.85 L68.3 22.15 66.75 22.1 Q73.05 20.65 72.3 15.9 L72.0 14.55 71.75 13.95 Q71.3 12.7 70.15 12.1 L69.3 11.7 Q66.3 10.2 63.2 9.35 60.1 8.45 56.85 8.2 L53.95 8.05 53.75 8.05 49.75 7.9 46.0 8.05 38.1 9.05 37.95 9.05 Q35.95 9.45 34.3 10.2 31.95 11.2 30.15 12.9 L28.45 14.75 28.4 14.85 Q27.4 16.2 28.3 17.7 30.8 21.8 35.7 22.7 L34.95 23.15 30.1 20.8 M60.3 29.0 L58.75 29.05 58.4 25.7 59.75 25.5 60.3 29.0 M54.75 29.35 L50.95 29.55 50.8 26.15 54.55 26.05 54.75 29.35 M46.45 29.6 L44.4 29.5 44.8 25.95 46.75 26.05 46.45 29.6 M41.1 29.4 L40.05 29.3 40.3 26.8 40.6 25.4 41.6 25.6 41.25 27.5 41.1 29.4" fill="#edeae7" fill-rule="evenodd" stroke="none"/>
    <path d="M83.6 31.95 L85.45 29.45 Q86.3 28.2 86.1 26.6 85.05 19.35 81.55 13.4 L80.7 12.7 Q85.4 14.45 89.9 16.75 L94.15 19.05 Q93.6 22.55 92.0 25.25 90.35 28.0 87.6 29.9 L84.7 31.5 83.6 31.95 M89.6 17.45 L89.55 17.45 Q86.3 15.75 82.95 14.4 85.9 19.9 86.85 26.5 87.1 28.4 86.1 29.9 L86.05 29.95 87.25 29.25 87.2 29.3 Q89.8 27.5 91.35 24.9 92.75 22.5 93.35 19.45 L89.6 17.45 M83.55 5.9 Q73.95 3.0 63.95 1.5 52.15 0.2 40.55 1.2 28.25 2.0 16.35 6.0 3.3 10.4 1.1 23.4 -0.75 34.25 8.0 39.35 9.8 40.4 12.0 41.2 23.4 45.2 35.35 46.6 L58.05 47.55 Q70.1 46.8 82.0 43.6 87.85 42.05 92.0 38.85 96.4 35.35 98.8 29.95 100.35 26.5 99.55 22.9 96.65 9.95 83.55 5.9 M83.8 5.2 Q97.3 9.35 100.3 22.75 101.15 26.55 99.5 30.25 97.0 35.8 92.5 39.45 L92.45 39.45 Q88.2 42.75 82.2 44.35 70.25 47.55 58.1 48.3 L35.25 47.35 Q23.2 45.95 11.75 41.9 9.5 41.1 7.65 40.0 -1.6 34.65 0.35 23.3 2.6 9.85 16.1 5.3 28.1 1.25 40.5 0.45 52.15 -0.55 64.05 0.75 74.1 2.25 83.8 5.2 M69.1 16.45 Q65.95 14.9 62.6 14.2 L62.65 14.2 Q55.55 12.9 48.65 12.9 38.85 13.3 29.6 17.45 L30.4 18.15 30.4 18.2 Q37.9 22.95 47.15 23.1 L47.2 23.1 Q52.1 23.4 56.85 22.85 L56.9 22.85 Q65.65 22.95 71.0 17.3 L69.1 16.45 M69.4 15.75 Q70.8 16.35 72.2 17.1 66.55 23.7 56.9 23.6 52.1 24.15 47.15 23.85 37.7 23.7 30.0 18.8 29.0 18.2 28.6 17.05 38.3 12.55 48.65 12.15 55.6 12.15 62.75 13.45 66.2 14.2 69.4 15.75 M77.5 22.2 L76.8 22.8 76.1 23.35 Q76.35 22.7 76.25 21.95 75.9 19.35 75.05 17.05 L76.0 17.45 80.15 19.45 77.5 22.2 M77.0 21.65 L78.95 19.7 76.3 18.4 77.0 21.65 M26.9 15.3 Q22.65 22.2 26.7 26.35 23.65 25.2 20.75 23.6 L18.05 22.0 Q16.6 21.1 15.95 19.4 21.4 16.9 26.95 15.25 L26.9 15.3 M21.15 22.95 L21.1 22.95 24.6 24.7 Q23.0 21.25 25.35 16.55 21.1 17.9 16.95 19.8 17.5 20.75 18.45 21.4 L21.15 22.95 M12.85 16.4 L6.6 19.4 Q6.85 22.7 8.55 25.15 L8.7 25.3 9.55 26.3 Q9.45 21.9 12.85 16.4 L12.85 16.45 12.9 16.4 12.85 16.4 M13.5 16.8 Q9.45 23.35 10.5 28.25 L9.5 27.4 8.1 25.8 8.0 25.65 Q6.0 22.85 5.8 18.95 10.3 16.6 14.95 14.7 L13.5 16.8" fill="#000000" fill-rule="evenodd" stroke="none"/>
    <path d="M6.4 17.25 Q11.95 10.1 20.85 7.65 L25.6 6.2 25.35 6.7 Q20.65 8.6 17.2 12.1 13.15 13.55 9.3 15.65 7.8 16.4 6.4 17.3 L6.35 17.3 6.4 17.25 M29.7 5.25 L31.1 5.05 29.65 5.35 29.7 5.25 M76.9 33.95 L74.85 34.45 72.95 28.75 68.75 30.15 69.2 31.0 70.6 35.35 68.65 35.65 67.95 33.4 68.25 32.95 66.8 30.75 66.75 30.7 61.8 31.8 59.85 32.15 58.45 32.25 58.35 32.3 54.15 32.65 48.65 32.8 42.0 32.65 39.8 32.45 35.05 32.0 33.65 31.7 30.4 30.95 29.5 35.15 27.95 34.8 28.0 34.5 27.9 33.35 28.65 30.7 23.7 28.95 23.0 33.55 20.9 32.9 22.0 28.25 18.3 26.35 17.05 31.5 14.15 30.35 11.75 29.1 Q10.95 26.6 11.9 23.5 L12.8 20.2 Q14.15 23.3 16.9 25.4 L17.95 26.15 18.2 24.95 25.35 28.35 25.85 28.5 35.9 31.0 36.6 31.1 49.95 32.05 58.55 31.35 59.0 31.3 60.6 31.0 65.9 29.85 72.25 27.8 74.35 26.95 75.6 26.45 77.5 25.35 79.75 23.55 80.35 23.65 80.8 24.15 83.2 20.3 Q85.5 25.2 84.1 29.75 83.6 31.25 82.4 32.15 L79.25 25.4 73.8 28.35 74.65 28.0 76.9 33.95 M89.9 30.0 L90.45 30.85 84.1 33.95 86.3 40.35 82.8 41.7 80.95 35.15 74.15 37.15 72.25 37.55 65.2 38.75 60.7 39.25 52.25 39.7 47.4 39.7 38.85 39.25 35.1 38.85 29.6 37.95 27.85 44.75 25.8 44.3 27.35 37.5 19.3 35.3 17.35 41.85 14.1 40.6 16.15 34.15 10.5 31.5 10.65 30.4 11.55 30.9 13.3 31.8 16.6 33.3 20.45 34.7 22.7 35.4 23.85 35.7 27.6 36.55 29.15 36.85 32.8 37.45 34.35 37.7 39.15 38.2 42.15 38.45 45.25 38.55 48.85 38.65 54.55 38.6 60.5 38.25 62.75 38.05 67.4 37.5 69.15 37.25 70.95 36.9 75.3 35.85 77.35 35.25 78.7 34.85 81.95 33.7 Q86.0 32.1 89.9 30.0 M90.85 30.6 L92.0 29.85 Q95.45 27.5 97.2 23.6 L97.65 22.4 Q100.75 30.35 94.45 35.6 L92.4 37.15 90.85 30.6 M8.2 37.65 L8.0 37.55 Q0.85 33.55 1.75 25.75 L2.15 22.45 Q4.1 27.1 8.0 29.95 L10.05 31.2 8.2 37.65 M76.65 6.8 Q86.35 8.95 92.8 16.3 L93.65 17.4 Q86.35 12.8 78.1 10.65 L76.65 6.8 M73.15 8.0 Q68.0 5.5 62.2 4.4 L61.85 4.0 67.45 4.75 72.7 5.8 73.15 8.0 M57.2 3.75 L51.85 3.5 51.85 3.45 51.05 3.4 57.2 3.6 57.2 3.75 M49.45 3.5 L44.95 3.6 44.95 3.5 49.45 3.4 49.45 3.5 M38.85 4.05 L35.6 4.4 38.85 3.9 38.85 4.05 M65.25 13.3 L64.8 11.55 64.35 11.25 64.1 10.35 Q67.35 11.0 69.6 12.85 L71.1 14.25 72.2 15.8 72.25 15.9 72.3 16.3 Q71.2 15.65 70.1 15.15 67.75 14.0 65.25 13.3 M60.65 9.5 L60.75 12.25 56.35 11.65 56.35 11.6 56.4 8.9 60.65 9.5 M71.95 19.85 L72.35 19.9 72.65 20.25 74.3 17.65 Q75.85 21.0 74.9 24.1 L74.85 24.25 73.5 25.15 71.65 21.1 67.9 23.15 68.5 22.85 70.0 26.9 68.65 27.4 67.3 23.4 64.5 24.35 64.8 24.95 65.8 28.2 64.55 28.5 63.95 26.55 64.15 26.25 63.1 24.7 59.75 25.5 58.4 25.7 54.55 26.05 50.8 26.15 46.75 26.05 44.8 25.95 41.6 25.6 40.6 25.4 38.4 24.9 37.5 29.05 36.45 28.9 36.75 27.3 36.7 26.5 37.2 24.7 33.85 23.55 33.1 28.3 31.55 27.9 32.7 23.05 30.15 21.75 28.85 27.1 28.7 27.05 Q24.45 24.45 25.8 19.8 L26.45 17.55 Q27.35 19.7 29.2 21.1 L29.95 21.6 30.1 20.8 34.95 23.15 Q43.15 25.8 51.7 25.65 60.4 25.5 68.3 22.15 L69.1 21.85 Q70.6 21.1 71.95 19.85 M68.2 9.65 L68.15 9.55 Q76.15 11.1 80.1 17.6 L80.25 18.3 Q77.4 16.7 74.45 15.5 L73.15 12.95 Q70.8 11.05 68.2 9.65 M54.6 11.55 L51.6 11.4 51.5 8.65 51.05 8.6 54.4 8.75 54.6 11.55 M49.15 11.4 L43.5 11.75 43.7 9.0 49.0 8.65 49.15 11.4 M40.35 12.15 L37.25 12.8 37.9 10.0 41.75 9.25 40.35 12.15 M35.8 13.2 L28.45 16.3 29.35 14.6 Q30.1 13.45 31.25 12.65 32.05 12.1 33.1 11.7 L33.65 11.5 36.4 10.4 35.8 13.2 M35.3 7.95 L35.15 8.35 Q31.4 9.8 28.8 12.7 L29.65 9.05 35.3 7.95 M26.55 13.75 L15.75 18.3 Q17.1 14.75 20.05 12.8 21.2 12.05 22.6 11.5 L27.5 9.65 26.55 13.75" fill="#b7a99d" fill-rule="evenodd" stroke="none"/>
    <path d="M81.5 32.65 L76.9 33.95 74.65 28.0 73.8 28.35 79.25 25.4 82.4 32.15 82.05 32.5 81.65 32.6 81.5 32.65 M74.85 34.45 L70.6 35.35 69.2 31.0 68.75 30.15 72.95 28.75 74.85 34.45 M68.65 35.65 L62.5 36.45 61.8 31.8 66.75 30.7 66.8 30.75 68.25 32.95 67.95 33.4 68.65 35.65 M60.3 36.65 L58.25 36.75 54.45 36.9 54.15 32.65 58.35 32.3 58.45 32.25 59.85 32.15 60.3 36.65 M48.8 36.95 L42.3 36.7 42.7 32.7 42.0 32.65 48.65 32.8 48.8 36.95 M39.35 36.5 L36.95 36.3 34.5 36.0 34.6 34.8 Q34.7 33.4 35.05 32.0 L39.8 32.45 39.35 36.5 M32.9 35.75 L29.5 35.15 30.4 30.95 33.65 31.7 33.2 33.75 33.15 34.05 33.0 35.05 32.9 35.75 M27.95 34.8 L23.0 33.55 23.7 28.95 28.65 30.7 27.9 33.35 28.0 34.5 27.95 34.8 M20.9 32.9 L17.05 31.5 18.3 26.35 22.0 28.25 20.9 32.9 M90.45 30.85 L90.85 30.6 92.4 37.15 86.3 40.35 84.1 33.95 90.45 30.85 M82.8 41.7 L76.0 43.8 74.15 37.15 80.95 35.15 82.8 41.7 M73.4 44.45 L66.6 45.65 65.2 38.75 72.25 37.55 71.55 37.7 73.4 44.45 M62.1 46.2 L52.4 46.75 52.25 39.7 60.7 39.25 62.1 46.2 M46.6 46.7 L38.1 46.25 38.5 44.95 38.6 44.6 39.05 42.15 39.05 40.8 38.95 39.9 38.85 39.25 47.4 39.7 46.6 46.7 M34.35 45.8 L27.85 44.75 29.6 37.95 35.1 38.85 34.35 45.8 M25.8 44.3 L17.35 41.85 19.3 35.3 27.35 37.5 25.8 44.3 M14.1 40.6 L8.2 37.65 10.05 31.2 10.5 31.5 16.15 34.15 14.1 40.6 M73.5 25.15 L70.0 26.9 68.5 22.85 67.9 23.15 71.65 21.1 73.5 25.15 M68.65 27.4 L65.8 28.2 64.8 24.95 64.5 24.35 67.3 23.4 68.65 27.4 M64.55 28.5 L60.3 29.0 59.75 25.5 63.1 24.7 64.15 26.25 63.95 26.55 64.55 28.5 M58.75 29.05 L57.6 29.05 54.75 29.35 54.55 26.05 58.4 25.7 58.75 29.05 M50.95 29.55 L46.45 29.6 46.75 26.05 50.8 26.15 50.95 29.55 M44.4 29.5 L43.25 29.45 41.1 29.4 41.25 27.5 41.6 25.6 44.8 25.95 44.4 29.5 M40.05 29.3 L37.5 29.05 38.4 24.9 40.6 25.4 40.3 26.8 40.05 29.3 M36.45 28.9 L33.1 28.3 33.85 23.55 37.2 24.7 36.7 26.5 36.75 27.3 36.45 28.9 M31.55 27.9 L28.85 27.1 30.15 21.75 32.7 23.05 31.55 27.9 M56.15 11.65 L56.35 11.6 56.35 11.65 56.15 11.65" fill="#d7d0c8" fill-rule="evenodd" stroke="none"/>
    <path d="M25.6 6.2 L29.7 5.25 29.65 5.35 Q27.4 5.85 25.35 6.7 L25.6 6.2 M78.1 10.65 L77.55 10.5 73.15 8.0 72.7 5.8 76.65 6.8 78.1 10.65 M62.2 4.4 L58.45 3.8 57.2 3.75 57.2 3.6 61.85 4.0 62.2 4.4 M51.85 3.5 L49.45 3.5 49.45 3.4 51.05 3.4 51.85 3.45 51.85 3.5 M44.95 3.6 L38.85 4.05 38.85 3.9 44.95 3.5 44.95 3.6 M64.1 10.35 L64.35 11.25 64.8 11.55 65.25 13.3 60.75 12.25 60.65 9.5 64.1 10.35 M68.15 9.55 L68.2 9.65 67.85 9.5 68.15 9.55 M51.6 11.4 L49.15 11.4 49.0 8.65 51.05 8.6 51.5 8.65 51.6 11.4 M43.5 11.75 L40.35 12.15 41.75 9.25 43.7 9.0 43.5 11.75 M37.25 12.8 L35.8 13.2 36.4 10.4 37.9 10.0 37.25 12.8 M54.4 8.75 L56.4 8.9 56.35 11.6 56.15 11.65 54.6 11.55 54.4 8.75 M35.15 8.35 L35.3 7.95 36.85 7.75 35.15 8.35 M29.65 9.05 L28.8 12.7 28.3 13.3 26.55 13.75 27.5 9.65 29.65 9.05" fill="#cec5bb" fill-rule="evenodd" stroke="none"/>
    <path d="M72.05 26.85 L74.35 26.95 72.25 27.8 65.9 29.85 60.6 31.0 59.0 31.3 58.55 31.35 49.95 32.05 36.6 31.1 35.9 31.0 25.85 28.5 25.35 28.35 26.45 27.7 26.75 27.8 29.95 28.65 34.5 29.65 36.25 29.95 37.3 30.1 40.05 30.45 41.05 30.55 44.25 30.75 46.3 30.85 49.8 30.85 51.0 30.85 54.8 30.6 58.9 30.15 60.45 29.9 64.7 29.05 65.9 28.75 68.85 27.9 70.2 27.5 72.05 26.85 M34.95 23.15 L35.7 22.7 Q43.45 25.0 51.6 24.8 59.45 24.7 66.75 22.1 L68.3 22.15 Q60.4 25.5 51.7 25.65 43.15 25.8 34.95 23.15" fill="#ffffff" fill-rule="evenodd" stroke="none"/>
  </g>
</svg>
