<?xml version="1.0" encoding="UTF-8" standalone="no"?>
<svg
   height="107.8px"
   width="202.9px"
   version="1.1"
   id="svg5"
   sodipodi:docname="Pattie3.svg"
   inkscape:version="1.4.2 (f4327f4, 2025-05-13)"
   xmlns:inkscape="http://www.inkscape.org/namespaces/inkscape"
   xmlns:sodipodi="http://sodipodi.sourceforge.net/DTD/sodipodi-0.dtd"
   xmlns="http://www.w3.org/2000/svg"
   xmlns:svg="http://www.w3.org/2000/svg">
  <defs
     id="defs5" />
  <sodipodi:namedview
     id="namedview5"
     pagecolor="#ffffff"
     bordercolor="#000000"
     borderopacity="0.25"
     inkscape:showpageshadow="2"
     inkscape:pageopacity="0.0"
     inkscape:pagecheckerboard="0"
     inkscape:deskcolor="#d1d1d1"
     inkscape:zoom="4"
     inkscape:cx="87.5"
     inkscape:cy="58.375"
     inkscape:window-width="1920"
     inkscape:window-height="1001"
     inkscape:window-x="-9"
     inkscape:window-y="-9"
     inkscape:window-maximized="1"
     inkscape:current-layer="g5" />
  <g
     transform="matrix(2.0, 0.0, 0.0, 2.0, 0.4, 0.8)"
     id="g5">
    <path
       d="m 86.508058,21.703553 -1.45,-1.32097 C 80.991391,17.74925 76.62978,16.825275 71.796447,16.991942 L 57.85,16.075 43.65,16.1875 30.055806,17.047748 c -4.933333,0.466667 -9.22978,1.529779 -13.596447,3.896446 -3.798315,1.989593 -6.105643,4.86078 -0.684835,13.28033 L 13.3,33.153553 C 9.5666667,30.72022 6.924725,27.304304 6.2580583,23.170971 l -0.146768,-2.193788 c -0.066667,-1.533334 0.7336547,-3.086542 1.8003214,-4.286542 3.0333333,-3.3 6.7162913,-5.827528 10.9162913,-7.4941944 3.9,-1.5666667 8.038764,-2.43989 12.372097,-2.9732233 L 45.6,5.0953204 C 49.566291,4.8065566 53.4,4.7674175 57.3,4.8674175 L 70.6,6.05 c 4.633333,0.7 9.526401,1.5511262 14.193068,2.9511262 4.666667,1.4333328 8.205806,4.3546798 10.705806,8.4546798 1.3,2.133333 1.859359,4.598498 1.059359,6.865165 -0.933333,2.566667 -2.140265,4.313864 -4.106932,6.213864 l -1.880651,1.081004 c 0.586458,-4.119531 -0.962592,-7.312286 -4.062592,-9.912286 z m 6.58501,11.898699 c 1.533333,0.266667 2.255806,0.981081 2.255806,1.347748 0,0.366667 -0.111236,0.904304 -0.377903,1.170971 -0.266667,0.266667 -0.804304,0.444194 -1.170971,0.444194 -0.366667,0 -0.904304,-0.133333 -1.170971,-0.4 -0.266667,-0.266667 -0.510485,-0.561236 -0.532582,-1.303553 -0.0221,-0.742318 0.464789,-1.147372 0.996621,-1.25936 z m 1.239515,4.25468 0.710485,1.960485 -0.383709,0.931457 L 92.5,41.447748 91.090641,40.570971 91.756369,38.240078 Z M 76.6,20.2 l 3.2,-1.5 2.1,2.4 -1.5,2.15 C 79.033333,23.516667 78,23 77.3,21.7 l -0.7,-1.5 m -35.3,-3.55 2.65,1.55 c -0.566667,1.133333 -1.333333,1.433333 -2.3,0.9 -0.533333,-0.266667 -0.783333,-0.716667 -0.75,-1.35 l 0.4,-1.1 m 12.2,4.25 -0.95,-1.3 1.05,-2.25 c 1.333333,0.3 2.1,0.666667 2.3,1.1 L 54.3,21 53.5,20.9 M 34.65,52.15 25.4125,50.30625 22.371875,49.34375 19.21967,48.3 C 17.753003,45.833333 17.318919,43.536886 17.652252,40.703553 L 17.808058,38.076777 18.85,37.552252 24.131185,37.824175 32.9,39.35 55.089512,39.813592 C 59.564519,38.92042 71.183333,38.50625 75.25,37.40625 c 4.033333,-0.933333 7.877083,-2.075 11.84375,-3.675 l 3.4375,-1.35 c 0,3.133333 0.185417,4.70625 -0.38125,7.90625 l -0.63125,2.56875 -0.91875,2.95 C 84.8,47.572917 80.766667,48.9125 76.5,50.0125 62.710264,53.637053 48.696022,52.717085 34.65,52.15 Z m -6.6,-33.4 0.2,-0.7 2,1.1 -0.75,0.5 -0.45,-0.05 -1,-0.85 M 20.75,23 c -0.666667,1.366667 -1.766667,2.116667 -3.3,2.25 l -0.5,-0.1 c -0.466667,-1.866667 -0.03333,-3.5 1.3,-4.9 l 1.85,0.3 0.55,1.65 0.1,0.8 M 8.15,21.1 c 0,0.333333 0.1,0.633333 0.3,0.9 0.2,0.233333 0.45,0.35 0.75,0.35 0.3,0 0.55,-0.116667 0.75,-0.35 l 0.3,-0.9 c 0,-0.333333 -0.6,-0.616667 -1.8,-0.85 -0.2,0.233333 -0.3,0.516667 -0.3,0.85 m 3.718718,13.742893 c 1.533333,0.2 1.592894,0.45 1.813865,1.191942 0.08563,0.287519 0.441191,1.052803 0.174524,1.286136 l -1.170971,0.565165 -1.524524,-0.476777 c -0.266667,-0.233333 -0.134835,-0.367417 -0.70936,-1.418718 0.662913,-1.051301 0.707858,-1.478078 1.416466,-1.147748 z m 3.27903,4.653554 0.355805,3.657106 -3.109359,0.06161 -1.033883,-0.938388 0.441941,-1.432583 0.696622,-1.482757 z"
       fill="#6e4f3a"
       fill-rule="evenodd"
       stroke="none"
       id="path2"
       sodipodi:nodetypes="ccccccccccccccccccccccccsssscccccccccccccccccccccccccccccccccccccccccccccccccccccccccccscccccscccccccccccc"
       style="display:inline;fill:#c29c83;fill-opacity:1" />
    <path
       d="m 88.05,13.8 c 0,-0.366667 0.116667,-0.683333 0.35,-0.95 1.366667,0.266667 2.05,0.583333 2.05,0.95 l -0.35,0.95 c -0.233333,0.266667 -0.516667,0.4 -0.85,0.4 -0.333333,0 -0.616667,-0.133333 -0.85,-0.4 -0.233333,-0.266667 -0.35,-0.583333 -0.35,-0.95 m 8,10.3 C 96.85,21.833333 96.6,19.633333 95.3,17.5 92.8,13.4 89.216667,10.633333 84.55,9.2 79.883333,7.8 75.233333,6.75 70.6,6.05 L 57.3,5 C 53.4,4.9 49.5,4.9833333 45.6,5.25 L 31.2,6.4 C 26.866667,6.9333333 22.75,7.9833333 18.85,9.55 14.65,11.216667 11.033333,13.7 8,17 6.9333333,18.2 6.4333333,19.566667 6.5,21.1 l 0.2,1.85 c 0.6666667,4.133333 2.8666667,7.416667 6.6,9.85 L 13.80625,33.21875 10.975,32 9.19375,31.021875 6.8735304,29.513639 C 5.5068637,28.814163 4.2530281,27.693396 3.459375,26.617209 L 1.265625,20.978125 C 1.2312061,20.044792 1.4145833,18.8125 1.68125,17.8125 2.48125,14.845833 4.1958333,12.385417 6.7625,10.61875 10.529167,7.9854167 14.703125,6.0166667 19.003125,4.65 23.036458,3.45 27.2,2.4989583 31.4,1.765625 L 45.48125,0.31875 C 50.447917,0.21875 55.4,0.35 60.4,0.65 c 4.6,0.3666667 9.271875,0.8760417 13.671875,1.809375 4.566667,0.9666667 9.052083,2.459375 13.51875,4.259375 4.733333,1.9333333 8.414583,5.051042 10.98125,9.384375 2.000005,3.333333 1.736455,6.858333 -0.696875,9.825 -1.666667,2.066667 -3.886458,4.013542 -6.3,5.10625 C 93.494792,28.99375 95.116667,26.666667 96.05,24.1 Z m -1.8,-6.4 0.95,1.95 -1.85,0.2 -0.3,-0.65 1.2,-1.5 m -1.8,17.25 c 0,0.366667 0.133333,0.683333 0.4,0.95 0.266667,0.266667 0.583333,0.4 0.95,0.4 0.366667,0 0.683333,-0.133333 0.95,-0.4 0.266667,-0.266667 0.4,-0.583333 0.4,-0.95 0,-0.366667 -0.766667,-0.683333 -2.3,-0.95 -0.266667,0.266667 -0.4,0.583333 -0.4,0.95 m -3.066666,6.1 c 0.333333,-1.9 0.569791,-5.332292 0.569791,-8.465625 3.1,-1.566667 5.796875,-3.652083 7.996875,-6.31875 l 2.4875,-2.975 c -0.0333,4.266667 -0.594792,8.982292 -1.528125,13.115625 -0.5,2.266667 -1.876042,4.222917 -3.909375,5.55625 -2.033333,1.333333 -4.260417,2.786458 -6.446875,3.695313 z M 88.4,41.8 c -0.433333,0.7 -0.916667,1.2 -1.45,1.5 L 86,43.85 85.5,43.55 c 0,-0.666667 0.05,-1.3 0.15,-1.9 l 2.1,-0.75 0.65,0.9 m -5.7,-4.4 2.15,1.3 -1.35,0.85 -1.05,-0.7 0.25,-1.45 m -1.45,9.05 -1.65,-1.05 -0.15,-1.3 1.5,-1.05 2.05,-0.45 0.75,2.25 -2.5,1.6 m 10.65,-8 -0.5,1.9 1.1,0.7 1.85,-0.5 0.45,-0.6 -0.6,-1.85 -2.3,0.35 M 78.95,12.1 c -0.466667,0.666667 -1.083333,1.15 -1.85,1.45 -1.766667,-0.2 -2.65,-1.216667 -2.65,-3.05 L 76,8.95 78.95,12.1 M 54.7,9.35 c 0.7,-0.9666667 1.55,-1.65 2.55,-2.05 3.3,1.4 3.366667,2.833333 0.2,4.3 -1.166667,0.5 -2.1,0.25 -2.8,-0.75 l 0.05,-1.5 m -35.85,28.6 -0.6,-0.05 -0.2,2.45 c -0.333333,2.833333 0.343818,5.726401 1.810485,8.193068 -4.033333,-1 -8.142692,-2.65 -11.7093588,-4.95 C 3.8511262,40.893068 1.44375,36.766667 0.84375,31.7 0.54166667,28.982292 0.29895833,25.967708 0.521875,23.171875 c 2.3,3.466667 5.4375,6.405208 9.0375,8.471875 3.133333,1.8 6.340625,3.173958 9.840625,4.340625 4,1.166667 8.238542,2.258333 12.2625,3.134375 z m 18.2,-30.7 c 2.1,-1.1 3.983333,-0.8166667 5.65,0.85 -1.4,2.1 -3.15,2.7 -5.25,1.8 -0.566667,-0.8333333 -0.7,-1.7166667 -0.4,-2.65 M 26.2,10 c 0,-0.3 0.1,-0.55 0.3,-0.75 1.2,0.2 1.8,0.45 1.8,0.75 L 28,10.8 C 27.2,11 26.7,11 26.5,10.8 26.3,10.566667 26.2,10.3 26.2,10 M 8.15,21.1 c 0,-0.333333 0.1,-0.616667 0.3,-0.85 1.2,0.233333 1.8,0.516667 1.8,0.85 L 9.95,22 C 9.75,22.233333 9.5,22.35 9.2,22.35 8.9,22.35 8.65,22.233333 8.45,22 8.25,21.733333 8.15,21.433333 8.15,21.1 M 13,14.65 c 0.8,-1.066667 1.85,-1.533333 3.15,-1.4 0.8,2.966667 -0.116667,4.066667 -2.75,3.3 L 12.85,16.35 13,14.65 M 10.85,36.3 c 0,0.3 0.133333,0.566667 0.4,0.8 l 0.95,0.3 0.95,-0.3 c 0.266667,-0.233333 0.4,-0.5 0.4,-0.8 0,-0.3 -0.766667,-0.55 -2.3,-0.75 -0.266667,0.2 -0.4,0.45 -0.4,0.75 m 8.45,3.75 0.95,-1.1 1.1,2.25 -2.05,-0.6 v -0.55 m -7,0.35 -0.1,0.4 v 1.3 l 0.15,0.85 2.8,-0.15 -0.4,-2.95 -2.45,0.55 m 15.45,1.3 -0.9,1.75 -1.55,-0.3 0.3,-2.4 2.15,0.95 m -3.85,3.35 -0.75,2.2 c -1.3,-0.633333 -2.1,-1.333333 -2.4,-2.1 l -0.35,-1.1 c 1.4,-0.566667 2.566667,-0.233333 3.5,1 m 8.15,1.25 1.85,0.5 -0.2,1.25 -1.2,0.6 -0.6,-0.3 0.15,-2.05"
       fill="#5d4025"
       fill-rule="evenodd"
       stroke="none"
       id="path3"
       sodipodi:nodetypes="ccccsscccccccccccccccccccccccccccccccccccccsssscccccccscccccccccccccccccccccccccccccccccccccccccccccccccccccccccccccccscccccccccccscccccccccccccccccccccccccccccc"
       style="display:inline;fill:#b68869;fill-opacity:1" />
    <path
       d="m 84.15,15.15 -0.75,1.4 -2.95,-1.8 0.25,-1.5 2.15,-0.15 1.3,2.05 m 2.95,4.95 0.55,-1.5 2.5,-0.4 c -0.233333,1.466667 -0.85,2.383333 -1.85,2.75 L 87.35,20.6 87.1,20.1 M 15.2,33.65 c -1.566667,-2.433333 -2.766667,-5.033333 -3.6,-7.8 0.933333,-2.2 2.45,-3.85 4.55,-4.95 4.366667,-2.366667 9.016667,-3.783333 13.95,-4.25 l 13.55,-0.9 14.2,-0.05 14.3,0.85 c 4.833333,-0.166667 9.283333,1.066667 13.35,3.7 l 1.45,1.1 c 3.1,2.6 4.333333,5.95 3.7,10.05 -1.966667,1.133333 -4,2.1 -6.1,2.9 L 78,36.25 c -4.2,1.033333 -8.5,1.883333 -12.9,2.55 L 50.45,39.7 35.9,38.75 C 31.566667,38.183333 27.283333,37.3 23.05,36.1 L 15.2,33.65 m 47.6,6.3 0.1,0.65 0.75,6.6 0.05,4.65 -14.55,0.65 -2,-8.6 -0.3,1.55 0.15,-5 15.8,-0.5 m 3.65,-28.8 0.75,-1 1.85,0.75 -0.9,1.05 L 67,11.9 66.45,11.15 m 10.15,9.05 0.7,1.5 c 0.7,1.3 1.733333,1.816667 3.1,1.55 l 1.5,-2.15 -2.1,-2.4 -3.2,1.5 M 47.15,9.8 c 1.8,-0.2 2.933333,0.733333 3.4,2.8 -2.6,1.5 -4.333333,0.833333 -5.2,-2 l 1.8,-0.8 m 6.35,11.1 0.8,0.1 1.6,-2.55 c -0.2,-0.433333 -0.966667,-0.8 -2.3,-1.1 l -1.05,2.25 0.95,1.3 m -12.2,-4.25 -0.4,1.1 c -0.03333,0.633333 0.216667,1.083333 0.75,1.35 0.966667,0.533333 1.733333,0.233333 2.3,-0.9 L 41.3,16.65 m 0.1,30.25 2.65,-0.5 0.3,2.05 -0.85,1.25 -2.35,-0.65 -0.1,-1.7 0.35,-0.45 m 16.15,-2.1 c 0.3,0.6 0.816667,0.95 1.55,1.05 1.3,-0.2 1.983333,-1.15 2.05,-2.85 l -3.2,-0.25 -0.4,2.05 m -4.1,3.4 c 0,0.433333 0.133333,0.8 0.4,1.1 0.266667,0.3 0.6,0.45 1,0.45 0.4,0 0.733333,-0.15 1,-0.45 0.266667,-0.3 0.4,-0.666667 0.4,-1.1 0,-0.433333 -0.8,-0.8 -2.4,-1.1 -0.266667,0.3 -0.4,0.666667 -0.4,1.1 m -1.95,-2.85 1,-1.05 c 0,-0.3 -0.566667,-0.55 -1.7,-0.75 -0.2,0.2 -0.3,0.45 -0.3,0.75 0,0.3 0.1,0.55 0.3,0.75 l 0.7,0.3 m 16.1,3.5 c -0.366667,0.666667 -0.683333,1 -0.95,1 -0.266667,0 -0.483333,-0.1 -0.65,-0.3 -0.2,-0.2 -0.3,-0.433333 -0.3,-0.7 0,-0.266667 0.1,-0.5 0.3,-0.7 1.066667,0.2 1.6,0.433333 1.6,0.7 M 67,42.8 c 3,-1.466667 4.733333,-0.783333 5.2,2.05 -0.533333,1 -1.283333,1.45 -2.25,1.35 -1.266667,-0.06667 -2.266667,-0.583333 -3,-1.55 L 67,42.8 m 9.05,2.25 c 1.2,0.233333 1.8,0.516667 1.8,0.85 l -0.3,0.85 -0.75,0.35 c -0.3,0 -0.55,-0.116667 -0.75,-0.35 -0.2,-0.233333 -0.3,-0.516667 -0.3,-0.85 0,-0.333333 0.1,-0.616667 0.3,-0.85 M 34.8,11.15 35.2,13 l -1,2.1 -1.7,0.05 -1.45,-1.5 1,-1.6 2.75,-0.9 m -14.1,5.6 -1.1,-0.55 0.45,-2.15 1.55,2 -0.9,0.7 m 0.05,6.25 -0.1,-0.8 -0.55,-1.65 -1.85,-0.3 c -1.333333,1.4 -1.766667,3.033333 -1.3,4.9 l 0.5,0.1 c 1.533333,-0.133333 2.633333,-0.883333 3.3,-2.25 m 7.3,-4.25 1,0.85 0.45,0.05 0.75,-0.5 -2,-1.1 -0.2,0.7 m 9,24.55 3.2,-1.2 0.95,1.1 c -1.2,2.9 -2.75,3.516667 -4.65,1.85 -0.03333,-0.7 0.133333,-1.283333 0.5,-1.75"
       fill="#886451"
       fill-rule="evenodd"
       stroke="none"
       id="path4"
       style="display:inline;fill:#caa993;fill-opacity:1"
       sodipodi:nodetypes="ccccccccccccccccccccccccccccccccccccccccccccccccccccccccccccccccccccccccccccccsssscccccscccscscccccccccccssccccccccccccccccccccccccccccccc" />
    <path
       d="m 67.5,23.95 -1.25,-0.6 q 0.55,-2.3 2.75,-3.4 1.95,3.65 -1.5,4 m -6.25,-1.3 -1.3,-0.15 -1.65,-1.05 0.1,-1.35 2.55,-0.1 0.3,2.65 m -13,0 q 2.65,0.9 3.25,1.85 l 0.95,1.85 q -2.3,2.3 -4,0.25 -1.15,-1.45 -1.05,-3.15 l 0.85,-0.8 m 10.95,9 q 0.75,-1.6 2.45,-2.45 1.95,1.25 1.05,2.25 -0.9,1 -2.35,0.85 L 59.2,31.65 m -16.5,-2.35 -3.1,0.9 -1.6,0.05 -0.7,-2.8 1.35,-0.3 4,-0.65 0.05,2.8 m 14.15,5.3 9.85,-0.85 Q 73.3,33 79.65,30.85 L 84,29.25 Q 77.8,34.05 70.35,35.8 62.1,37.6 53.7,37.5 L 39.35,36.35 Q 33.4,35.65 27.6,34.2 21.7,32.7 16.35,29.7 q 8.45,-0.25 16.7,2.1 6.3,1.95 12.6,2.55 5.65,0.4 11.2,0.25 m 19.8,-6.75 -2.65,0.1 -0.25,-0.75 0.65,-0.8 2.25,0.3 v 1.15 M 70.5,27.2 71.3,30 69.8,30.1 v -1.15 q 0.05,-1.05 0.7,-1.75 m -34.95,-4.75 0.75,-2.65 1,3.35 -1.05,0.05 -0.7,-0.75 m -12.35,2.5 1.3,-1.6 q 3.1,0.9 3.05,2.15 -1.95,2.7 -3.8,0.5 L 23.2,24.95"
       fill="#a97c66"
       fill-rule="evenodd"
       stroke="none"
       id="path5"
       style="display:inline;fill:#d7bdac;fill-opacity:1" />
    <path
       d="m 55.6,-0.3 14.2,1.4 q 6.7,1.05 13.4,3.3 7.15,2.4 13.1,6.8 3.55,2.7 4.2,6.9 1.15,7.2 0.5,14.5 -0.4,4.3 -3.15,7.35 Q 93,45.4 86.05,47.8 79.15,50.4 71.95,51.65 65.1,53 58.1,53.35 L 45.35,53.45 31.2,52.05 Q 23.8,50.9 16.9,48.35 10.45,46.05 5.1,41.85 1.6,39.15 0.7,35.05 -0.85,27.8 0.2,20.35 1.3,12.55 8.55,8.6 14.4,5.4 20.8,3.65 27.05,1.75 33.5,0.7 l 14.4,-1.1 7.7,0.1 M 90.65,31.4 91.7,30.8 Q 95.25,28.95 97.75,25.85 101.4,21.4 98.4,16.4 94.55,9.9 87.45,7 80.75,4.3 73.9,2.85 67.3,1.45 60.4,0.9 52.9,0.45 45.45,0.6 L 31.4,2 Q 25.1,3.1 19.05,4.9 12.6,6.95 6.95,10.9 3.1,13.55 1.9,18 1.5,19.5 1.5,20.9 l 2.1,5.7 q 1.25,1.55 3.35,2.8 l 2.4,1.45 1.75,0.9 2.55,1.25 -0.35,-0.2 1.9,0.85 7.85,2.45 q 6.35,1.8 12.85,2.65 L 50.45,39.7 65.1,38.8 q 6.6,-1 12.9,-2.55 l 6.55,-1.95 q 3.15,-1.2 6.1,-2.9 m -0.65,1.45 -2.75,1.1 q -5.95,2.4 -12,3.8 -6.1,1.65 -12.45,2.2 L 47,40.45 32.9,39.35 31.6,39.15 Q 25.4,38 19.4,36.25 14.15,34.5 9.45,31.8 4.05,28.7 0.6,23.5 0.5,27.6 1,31.7 q 0.9,7.6 7.35,11.65 5.35,3.45 11.4,4.95 l 2.3,0.65 0.3,0.1 3,0.85 9.3,2 14.5,0.6 14.55,-0.65 q 6.5,-0.55 12.8,-2.15 6.4,-1.65 12.1,-4.3 3.35,-1.75 6.4,-3.75 3.05,-2 3.8,-5.4 1.4,-6.2 1.45,-12.6 l -2.3,2.85 q -3.3,4 -7.95,6.35"
       fill="#372514"
       fill-rule="evenodd"
       stroke="none"
       id="path1"
       style="display:inline;fill:#714f37;fill-opacity:1" />
  </g>
</svg>
