<?xml version="1.0" encoding="UTF-8" standalone="no"?>
<svg xmlns:xlink="http://www.w3.org/1999/xlink" height="49.35px" width="101.45px" xmlns="http://www.w3.org/2000/svg">
  <g transform="matrix(1.0, 0.0, 0.0, 1.0, 3.3, 0.95)">
    <path d="M64.6 7.45 L67.75 4.2 Q78.25 6.0 87.45 10.95 L86.8 11.8 87.2 12.05 86.7 11.75 80.15 13.35 Q72.15 16.15 65.1 12.25 L65.0 12.2 65.05 12.4 Q64.55 13.4 63.5 13.9 61.75 14.5 60.55 13.3 L60.55 13.2 Q60.5 12.7 60.6 12.2 60.8 11.35 61.25 10.95 62.0 10.15 63.35 10.45 L63.35 10.2 63.45 9.2 63.2 9.45 61.75 9.9 Q60.95 9.9 60.4 9.45 59.75 8.9 59.75 8.2 L59.75 8.1 57.6 9.9 Q58.15 9.95 58.55 10.35 59.0 10.75 59.05 11.35 L59.05 11.5 58.95 12.1 58.55 12.7 Q58.05 13.15 57.3 13.15 L56.15 12.7 Q55.6 12.15 55.6 11.5 L55.7 11.0 Q50.35 13.65 44.0 11.05 43.25 10.95 42.6 10.5 L42.2 10.2 41.4 9.75 Q39.85 8.85 38.8 7.35 L37.45 5.2 37.2 2.9 Q49.95 2.1 62.75 3.5 L62.25 4.75 61.05 6.6 61.75 6.5 Q62.6 6.5 63.2 7.0 L63.6 7.4 63.8 8.2 63.8 8.4 64.6 7.45 M85.55 31.9 Q91.15 29.65 94.45 24.45 95.9 22.15 95.1 19.35 92.45 9.65 81.9 6.35 69.75 2.65 56.95 1.35 44.85 0.6 33.0 1.95 20.2 3.55 8.55 8.5 L6.35 9.65 Q16.35 3.15 28.25 1.4 40.1 -0.5 52.15 0.15 63.4 0.6 74.55 3.15 85.9 5.75 94.15 13.4 98.75 20.1 96.6 28.7 L96.0 30.45 Q91.75 38.95 82.05 42.05 69.85 45.85 57.0 46.85 44.8 48.2 32.75 46.6 20.4 45.15 9.0 40.5 2.95 37.9 0.0 32.2 -6.6 19.25 3.6 11.5 -1.95 16.05 -0.7 23.65 2.15 28.75 7.25 31.2 18.45 36.4 30.6 38.2 L22.75 37.5 Q7.7 35.8 -1.4 24.55 -1.25 28.85 1.05 32.45 3.75 36.7 8.4 38.75 21.9 45.05 36.65 46.55 61.65 48.6 84.9 39.45 95.45 35.4 95.75 24.75 L92.95 27.7 Q83.45 36.3 70.5 37.0 L72.8 36.6 Q79.4 35.05 85.55 31.9 M16.1 14.0 L4.4 14.95 3.1 14.05 Q5.65 12.15 8.45 10.65 18.5 5.25 29.8 3.75 L33.0 5.7 33.05 5.7 Q34.35 6.95 34.1 8.8 L34.0 9.55 33.5 10.1 26.15 12.15 20.3 13.35 16.1 14.0 M83.7 10.15 L83.4 9.8 68.7 6.55 67.2 7.3 67.45 8.3 Q69.75 9.65 72.05 10.4 L72.3 10.4 Q73.4 10.4 74.25 11.0 L74.4 11.1 Q78.95 12.05 83.6 10.95 L83.7 10.15 M81.4 20.55 L86.9 21.45 91.95 21.7 93.0 22.85 Q90.85 26.4 87.15 28.4 83.5 30.45 79.65 31.95 L71.95 34.1 67.95 32.15 64.9 28.45 Q61.5 24.45 64.95 21.8 L64.3 21.9 64.25 21.9 Q63.6 21.9 63.05 21.4 L62.75 21.0 62.5 20.1 Q62.5 19.35 63.05 18.85 63.6 18.3 64.3 18.3 65.05 18.3 65.6 18.85 66.1 19.35 66.1 20.1 L65.65 21.3 Q66.6 20.7 67.95 20.2 69.6 19.55 71.25 19.4 73.35 18.25 74.5 19.55 L74.6 19.55 81.4 20.55 M35.05 33.8 L37.0 29.25 38.1 27.25 38.15 27.2 41.3 23.25 46.85 23.7 Q47.9 23.4 49.25 24.45 51.35 25.2 53.35 26.6 L57.05 29.6 59.6 34.3 59.9 35.95 Q46.9 38.55 34.75 35.0 L35.05 33.8 M36.25 28.35 L36.05 28.55 33.85 29.0 31.65 28.55 Q30.7 28.0 30.7 27.35 L30.75 27.25 30.75 27.2 Q30.9 26.6 31.65 26.2 32.55 25.7 33.85 25.7 35.1 25.7 36.05 26.2 36.95 26.65 36.95 27.35 36.95 27.9 36.25 28.35 M27.45 27.6 L27.0 27.75 Q21.95 31.2 15.4 32.15 5.25 29.95 1.2 21.4 4.15 18.75 8.35 19.2 18.1 16.85 26.5 19.6 L25.25 19.5 21.0 19.6 21.05 20.1 Q21.05 20.8 20.4 21.35 19.8 21.8 18.9 21.8 L17.4 21.35 Q16.8 20.8 16.8 20.1 L16.8 19.95 Q9.8 20.5 3.0 22.05 L3.05 22.7 Q13.35 23.65 23.9 22.95 L23.85 22.55 Q23.85 21.75 24.65 21.2 25.5 20.6 26.65 20.6 27.75 20.6 28.6 21.2 L29.25 21.9 29.45 21.7 29.35 21.1 28.6 20.75 27.85 20.0 27.7 19.3 Q27.7 18.5 28.6 17.9 29.45 17.3 30.6 17.3 L32.15 17.6 32.7 17.9 Q33.35 18.4 33.5 19.0 L33.5 19.3 Q33.5 20.15 32.7 20.75 31.8 21.35 30.6 21.35 L30.55 21.35 31.4 21.9 32.3 21.65 Q33.05 21.65 33.55 22.1 34.05 22.55 34.05 23.2 34.05 23.8 33.55 24.3 L32.3 24.75 31.55 24.6 31.05 25.1 29.85 25.95 27.45 27.6 M21.5 16.35 L20.9 16.0 Q20.4 15.55 20.4 14.9 20.4 14.4 20.8 14.05 L20.9 13.9 Q21.35 13.4 21.95 13.4 22.6 13.4 23.05 13.9 L23.55 14.8 23.55 14.9 Q23.55 15.55 23.05 16.0 L22.3 16.4 21.95 16.4 21.5 16.35 M89.05 23.75 L88.7 22.85 Q81.5 19.95 75.1 20.8 L75.1 21.35 74.6 22.05 Q75.8 22.75 75.9 23.95 L75.9 24.05 Q82.75 25.15 89.05 23.75 M73.9 11.35 L72.3 10.95 70.75 11.35 Q70.05 11.7 70.05 12.2 70.05 12.75 70.75 13.15 71.35 13.5 72.3 13.5 L73.9 13.15 Q74.5 12.75 74.5 12.2 74.5 11.7 73.9 11.35 M69.0 15.4 Q69.0 14.85 68.55 14.55 68.05 14.2 67.3 14.2 66.6 14.2 66.1 14.55 65.6 14.85 65.6 15.4 65.6 15.9 66.1 16.25 L67.3 16.55 68.55 16.25 68.85 15.95 68.9 15.8 69.0 15.4 M64.55 12.0 L64.15 11.25 61.35 11.25 60.95 13.0 61.35 13.3 61.4 13.35 61.85 13.3 63.0 13.05 63.15 13.05 Q64.15 12.85 64.55 12.0 M61.0 7.2 L60.75 7.35 Q60.25 7.65 60.25 8.2 60.25 8.7 60.75 9.05 L61.75 9.4 Q62.4 9.4 62.85 9.05 L63.3 8.2 Q63.3 7.65 62.85 7.35 62.4 7.0 61.75 7.0 L61.0 7.2 M69.0 16.5 L68.9 16.6 67.3 17.1 Q66.4 17.1 65.75 16.6 65.1 16.1 65.1 15.4 65.1 14.65 65.75 14.2 66.4 13.65 67.3 13.65 68.25 13.65 68.9 14.2 69.5 14.6 69.55 15.3 L69.55 15.4 Q69.55 16.05 69.0 16.5 M76.0 15.45 L76.35 15.4 76.95 15.45 77.85 15.85 Q78.45 16.3 78.45 16.95 L78.45 17.1 Q78.35 17.6 77.85 18.0 77.25 18.5 76.35 18.5 L75.6 18.4 74.9 18.0 Q74.3 17.55 74.3 16.95 74.3 16.3 74.9 15.85 75.4 15.5 76.0 15.45 M65.6 20.05 Q65.6 19.5 65.25 19.15 64.85 18.75 64.3 18.75 63.8 18.75 63.45 19.15 63.0 19.5 63.0 20.05 63.0 20.55 63.45 20.95 L63.5 21.0 64.05 21.35 64.3 21.35 Q64.85 21.35 65.25 20.95 L65.6 20.05 M77.9 16.95 Q77.9 16.5 77.45 16.2 77.0 15.9 76.35 15.9 L75.3 16.2 Q74.8 16.5 74.8 16.95 74.8 17.35 75.3 17.65 L75.75 17.9 76.35 17.95 77.45 17.65 77.9 17.1 77.9 16.95 M74.65 20.75 Q74.65 20.2 74.1 19.85 73.5 19.4 72.7 19.4 71.85 19.4 71.3 19.85 70.75 20.2 70.75 20.75 70.75 21.3 71.25 21.7 L71.3 21.75 Q71.85 22.1 72.7 22.1 73.5 22.1 74.1 21.75 74.6 21.4 74.65 20.85 L74.65 20.75 M71.35 23.05 L71.45 23.1 71.55 22.7 70.9 21.8 70.1 22.05 70.95 22.95 71.35 23.05 M72.0 23.25 Q71.85 23.4 71.85 23.65 71.85 24.15 72.4 24.5 L73.65 24.8 74.85 24.5 75.35 23.95 75.4 23.65 Q75.4 23.2 74.85 22.9 74.35 22.5 73.65 22.5 72.9 22.5 72.4 22.9 L72.0 23.25 M58.65 5.7 L58.35 4.7 48.4 4.05 39.85 4.45 39.5 5.65 40.05 6.3 Q49.0 7.55 57.9 6.8 L58.65 5.7 M57.3 10.35 Q56.8 10.35 56.5 10.7 56.15 11.05 56.15 11.5 56.15 11.95 56.5 12.35 56.8 12.65 57.3 12.65 L58.2 12.35 58.5 11.5 58.2 10.7 Q57.85 10.35 57.3 10.35 M52.2 9.6 L53.6 9.9 55.05 9.6 55.6 8.75 Q55.6 8.3 55.05 8.0 54.4 7.6 53.6 7.6 52.75 7.6 52.2 8.0 51.6 8.3 51.6 8.75 51.6 9.2 52.2 9.6 M43.0 8.1 Q42.25 8.5 42.25 9.1 42.25 9.75 43.0 10.15 43.7 10.55 44.7 10.55 45.7 10.55 46.4 10.15 47.15 9.75 47.15 9.1 47.15 8.5 46.4 8.1 45.7 7.65 44.7 7.65 43.7 7.65 43.0 8.1 M35.05 13.95 L34.8 13.1 Q34.8 12.4 35.45 11.85 35.75 11.6 36.1 11.5 L36.95 11.35 37.65 11.45 38.45 11.85 Q39.05 12.4 39.05 13.1 L38.9 13.75 38.45 14.35 Q37.8 14.85 36.95 14.85 36.05 14.85 35.45 14.35 L35.05 13.95 M47.5 24.05 Q46.6 24.05 46.05 24.5 45.9 24.55 45.8 24.65 45.4 24.95 45.4 25.35 45.4 25.9 46.05 26.3 L47.5 26.65 49.0 26.3 Q49.55 25.9 49.55 25.35 L49.55 25.2 49.0 24.5 Q48.35 24.05 47.5 24.05 M59.75 24.25 L55.25 24.5 55.1 24.35 54.8 23.95 Q53.95 22.85 54.65 21.8 57.15 19.85 60.3 21.7 L60.65 22.7 60.25 23.9 59.75 24.25 M55.65 21.7 Q54.9 22.1 54.9 22.75 54.9 23.35 55.65 23.75 L56.1 23.95 57.55 24.2 59.0 23.95 59.4 23.75 Q60.15 23.35 60.15 22.75 60.15 22.1 59.4 21.7 L57.55 21.3 55.65 21.7 M58.95 27.25 Q58.95 26.6 59.55 26.15 60.1 25.7 60.95 25.7 61.75 25.7 62.4 26.15 62.95 26.6 62.95 27.25 62.95 27.85 62.4 28.3 61.75 28.8 60.95 28.8 60.1 28.8 59.55 28.3 58.95 27.85 58.95 27.25 M51.05 27.85 L50.75 27.15 Q50.45 26.8 50.05 26.8 49.6 26.8 49.3 27.15 49.0 27.45 49.0 27.85 L49.05 28.15 49.3 28.6 50.05 28.9 50.75 28.6 50.9 28.4 51.05 27.85 M59.9 26.5 Q59.45 26.8 59.45 27.25 59.45 27.65 59.9 27.95 L60.95 28.25 62.05 27.95 62.45 27.25 Q62.45 26.8 62.05 26.5 61.55 26.2 60.95 26.2 L59.9 26.5 M51.4 28.45 L54.2 28.95 Q54.2 27.5 53.0 26.75 51.45 25.9 50.1 25.4 L49.8 26.35 50.35 26.55 Q52.0 27.4 51.4 28.45 M39.85 26.75 L39.05 27.4 39.15 27.8 39.85 26.75 44.95 25.85 45.15 25.3 45.65 24.65 Q42.5 24.75 39.85 26.75 M45.8 26.65 L45.95 27.9 48.75 28.15 48.4 27.3 45.8 26.65 M44.3 28.95 Q44.8 28.35 45.4 27.9 L45.4 27.85 44.85 26.35 40.15 27.15 39.55 28.05 39.6 28.2 39.75 29.2 Q41.6 30.2 42.95 29.75 L44.3 28.95 M68.95 26.85 Q69.65 26.45 69.65 25.9 69.65 25.3 68.95 24.95 L67.35 24.55 Q66.45 24.55 65.75 24.95 65.1 25.3 65.1 25.9 65.1 26.45 65.75 26.85 66.45 27.25 67.35 27.25 L68.95 26.85 M27.0 12.45 Q28.8 11.25 30.95 12.15 L31.55 13.25 31.25 14.2 30.15 14.75 30.1 14.8 28.8 15.1 26.7 14.85 26.65 14.6 26.3 12.9 Q26.65 12.6 27.0 12.45 M31.45 8.85 Q31.45 8.35 31.1 8.05 L30.65 7.75 30.1 7.65 Q29.55 7.65 29.15 8.05 L28.95 8.25 28.75 8.85 Q28.75 9.4 29.15 9.75 29.55 10.05 30.1 10.05 L31.1 9.75 Q31.45 9.4 31.45 8.85 M30.7 7.7 L31.05 6.95 30.7 5.95 29.75 5.6 Q16.35 5.35 6.95 13.6 L9.1 13.55 Q15.05 11.7 21.1 10.15 L21.35 9.9 Q21.9 9.45 22.75 9.45 L23.45 9.55 28.4 8.4 Q28.55 7.8 29.0 7.45 L29.35 7.3 30.7 7.7 M35.05 8.75 Q34.5 8.25 34.5 7.5 34.5 6.8 35.05 6.25 35.65 5.75 36.45 5.75 37.3 5.75 37.85 6.25 38.45 6.8 38.45 7.5 38.45 8.25 37.85 8.75 37.3 9.25 36.45 9.25 35.65 9.25 35.05 8.75 M36.45 6.25 Q35.85 6.25 35.45 6.65 35.0 7.0 35.0 7.5 35.0 8.05 35.45 8.4 L36.45 8.75 37.5 8.4 Q37.9 8.05 37.9 7.5 37.9 7.0 37.5 6.65 L36.45 6.25 M21.3 10.95 Q21.3 11.35 21.7 11.65 L22.75 11.9 23.8 11.65 Q24.2 11.35 24.2 10.95 24.2 10.5 23.8 10.25 23.35 9.95 22.75 9.95 22.15 9.95 21.7 10.25 21.3 10.5 21.3 10.95 M36.95 11.85 Q36.25 11.85 35.8 12.2 35.35 12.6 35.35 13.1 35.35 13.5 35.65 13.9 L35.8 14.0 36.95 14.35 Q37.6 14.35 38.05 14.0 L38.35 13.75 38.55 13.1 Q38.55 12.6 38.05 12.2 37.6 11.85 36.95 11.85 M23.0 14.9 L23.0 14.75 22.7 14.25 21.95 13.95 Q21.55 13.95 21.25 14.25 20.95 14.5 20.95 14.9 20.95 15.35 21.25 15.65 L21.95 15.9 22.7 15.65 23.0 14.9 M27.5 12.55 L27.35 12.65 Q26.7 12.95 26.7 13.45 26.7 14.0 27.35 14.35 L27.4 14.35 28.85 14.65 30.4 14.35 Q31.05 14.0 31.05 13.45 31.05 12.95 30.4 12.65 L28.85 12.25 27.5 12.55 M24.4 22.9 Q24.5 23.3 25.05 23.6 25.7 24.0 26.65 24.0 27.55 24.0 28.25 23.6 28.9 23.2 28.9 22.55 L28.9 22.3 28.25 21.55 Q27.55 21.1 26.65 21.1 25.7 21.1 25.05 21.55 24.35 21.95 24.35 22.55 L24.4 22.9 M20.5 20.05 L20.45 19.7 20.05 19.2 Q19.6 18.85 18.9 18.85 18.25 18.85 17.8 19.2 17.4 19.45 17.35 19.9 L17.3 20.05 Q17.3 20.55 17.8 20.9 L18.9 21.25 Q19.6 21.25 20.05 20.9 20.5 20.55 20.5 20.05 M28.5 18.55 L28.5 20.1 32.9 20.0 32.75 18.55 32.05 18.3 31.65 18.15 Q29.8 17.45 28.5 18.55 M31.8 24.15 L32.3 24.25 Q32.85 24.25 33.2 23.9 L33.5 23.2 33.2 22.45 Q32.85 22.15 32.3 22.15 L31.8 22.25 31.5 22.45 Q31.15 22.8 31.15 23.2 31.15 23.6 31.5 23.9 L31.8 24.15 M36.4 27.3 Q36.4 26.8 35.7 26.5 L33.85 26.15 32.0 26.5 Q31.3 26.75 31.25 27.2 L31.25 27.3 Q31.25 27.75 32.0 28.1 L33.85 28.4 35.7 28.1 35.9 28.0 36.4 27.3" fill="#8d1212" fill-rule="evenodd" stroke="none"/>
    <path d="M80.15 13.35 L86.7 11.75 87.2 12.05 86.8 11.8 87.45 10.95 Q78.25 6.0 67.75 4.2 L64.6 7.45 63.6 7.4 63.2 7.0 Q62.6 6.5 61.75 6.5 L61.05 6.6 62.25 4.75 62.75 3.5 Q49.95 2.1 37.2 2.9 L37.45 5.2 33.0 5.55 32.95 5.6 33.0 5.7 29.8 3.75 Q18.5 5.25 8.45 10.65 5.65 12.15 3.1 14.05 L4.4 14.95 16.1 14.0 16.0 15.85 Q8.35 15.75 0.95 17.15 0.75 17.3 0.7 17.5 L-0.7 23.65 Q-1.95 16.05 3.6 11.5 4.0 11.15 4.55 10.75 L6.05 9.8 6.35 9.65 8.55 8.5 Q20.2 3.55 33.0 1.95 44.85 0.6 56.95 1.35 69.75 2.65 81.9 6.35 92.45 9.65 95.1 19.35 95.9 22.15 94.45 24.45 91.15 29.65 85.55 31.9 90.8 28.65 93.0 22.85 L93.45 21.45 Q93.75 20.35 93.65 19.2 88.8 15.3 81.7 17.25 L81.6 16.6 80.15 13.35 M83.7 10.15 L83.6 10.95 Q78.95 12.05 74.4 11.1 L74.25 11.0 Q73.4 10.4 72.3 10.4 L72.05 10.4 Q69.75 9.65 67.45 8.3 L67.2 7.3 68.7 6.55 83.4 9.8 83.7 10.15 M89.05 23.75 Q82.75 25.15 75.9 24.05 L75.9 23.95 Q75.8 22.75 74.6 22.05 L75.1 21.35 75.1 20.8 Q81.5 19.95 88.7 22.85 L89.05 23.75 M70.5 37.0 Q83.45 36.3 92.95 27.7 L95.75 24.75 Q95.45 35.4 84.9 39.45 61.65 48.6 36.65 46.55 21.9 45.05 8.4 38.75 3.75 36.7 1.05 32.45 -1.25 28.85 -1.4 24.55 7.7 35.8 22.75 37.5 L30.6 38.2 47.2 39.45 Q59.0 39.45 70.5 37.0 M86.05 33.8 Q85.7 34.1 85.7 34.6 85.7 35.05 86.05 35.35 86.35 35.65 86.8 35.65 L87.65 35.35 87.95 34.6 87.65 33.8 Q87.3 33.5 86.8 33.5 86.35 33.5 86.05 33.8 M84.2 36.7 L82.85 36.2 Q80.45 36.85 78.65 38.6 L78.9 39.4 82.8 39.25 84.0 37.7 84.2 36.7 M71.35 23.05 L70.95 22.95 70.1 22.05 70.9 21.8 71.55 22.7 71.45 23.1 71.35 23.05 M58.65 5.7 L57.9 6.8 Q49.0 7.55 40.05 6.3 L39.5 5.65 39.85 4.45 48.4 4.05 58.35 4.7 58.65 5.7 M51.4 28.45 Q52.0 27.4 50.35 26.55 L49.8 26.35 50.1 25.4 Q51.45 25.9 53.0 26.75 54.2 27.5 54.2 28.95 L51.4 28.45 M45.8 26.65 L48.4 27.3 48.75 28.15 45.95 27.9 45.8 26.65 M39.85 26.75 Q42.5 24.75 45.65 24.65 L45.15 25.3 44.95 25.85 39.85 26.75 39.15 27.8 39.05 27.4 39.85 26.75 M59.05 40.6 Q52.4 41.0 45.85 40.85 41.25 40.75 36.85 39.7 29.5 38.0 23.25 41.05 40.05 45.7 57.55 44.0 L66.45 43.15 Q72.75 44.05 76.15 39.65 L75.85 38.75 75.3 38.3 74.8 38.3 59.05 40.6 M30.7 7.7 L29.35 7.3 29.0 7.45 Q28.55 7.8 28.4 8.4 L23.45 9.55 22.75 9.45 Q21.9 9.45 21.35 9.9 L21.1 10.15 Q15.05 11.7 9.1 13.55 L6.95 13.6 Q16.35 5.35 29.75 5.6 L30.7 5.95 31.05 6.95 30.7 7.7 M27.85 20.0 L28.6 20.75 29.35 21.1 29.45 21.7 29.25 21.9 28.6 21.2 Q27.75 20.6 26.65 20.6 25.5 20.6 24.65 21.2 23.85 21.75 23.85 22.55 L23.9 22.95 Q13.35 23.65 3.05 22.7 L3.0 22.05 Q9.8 20.5 16.8 19.95 L16.8 20.1 Q16.8 20.8 17.4 21.35 L18.9 21.8 Q19.8 21.8 20.4 21.35 21.05 20.8 21.05 20.1 L21.0 19.6 25.25 19.5 26.5 19.6 27.85 20.0 M14.55 37.25 L13.85 37.75 Q14.3 39.7 16.45 40.0 18.15 40.4 19.45 39.7 L19.55 38.75 Q17.3 37.15 14.55 37.25 M10.65 36.05 L10.95 35.4 10.65 34.8 9.9 34.55 Q9.5 34.55 9.2 34.8 8.9 35.05 8.9 35.4 8.9 35.75 9.2 36.05 L9.9 36.3 10.65 36.05" fill="#d21a1a" fill-rule="evenodd" stroke="none"/>
    <path d="M58.95 12.1 L59.05 11.5 59.05 11.35 59.7 10.75 61.25 10.95 Q60.8 11.35 60.6 12.2 60.5 12.7 60.55 13.2 59.75 13.0 59.05 12.5 L58.95 12.1 M81.6 16.6 L81.7 17.25 81.4 20.55 74.6 19.55 74.5 19.55 Q73.35 18.25 71.25 19.4 69.6 19.55 67.95 20.2 66.6 20.7 65.65 21.3 L66.1 20.1 Q66.1 19.35 65.6 18.85 65.05 18.3 64.3 18.3 63.6 18.3 63.05 18.85 62.5 19.35 62.5 20.1 L62.75 21.0 Q62.5 21.05 62.35 21.25 62.0 21.45 62.0 21.8 62.0 22.15 62.35 22.4 L63.1 22.65 63.95 22.4 64.25 21.9 64.3 21.9 64.95 21.8 Q61.5 24.45 64.9 28.45 L57.05 29.6 53.35 26.6 Q51.35 25.2 49.25 24.45 47.9 23.4 46.85 23.7 L41.3 23.25 38.15 27.2 38.1 27.2 38.1 27.25 37.0 29.25 36.25 28.35 Q36.95 27.9 36.95 27.35 36.95 26.65 36.05 26.2 35.1 25.7 33.85 25.7 32.55 25.7 31.65 26.2 30.9 26.6 30.75 27.2 L30.75 27.25 30.3 27.85 27.45 27.6 29.85 25.95 31.05 25.1 31.55 24.6 32.3 24.75 33.55 24.3 Q34.05 23.8 34.05 23.2 34.05 22.55 33.55 22.1 33.05 21.65 32.3 21.65 L31.4 21.9 30.55 21.35 30.6 21.35 Q31.8 21.35 32.7 20.75 33.5 20.15 33.5 19.3 L33.5 19.0 33.6 19.0 34.75 18.75 35.2 18.0 Q35.2 17.6 34.75 17.35 34.3 17.05 33.6 17.05 32.95 17.05 32.5 17.35 L32.15 17.6 30.6 17.3 Q29.45 17.3 28.6 17.9 27.7 18.5 27.7 19.3 L27.85 20.0 26.5 19.6 Q18.1 16.85 8.35 19.2 10.95 17.05 14.15 17.1 L16.3 17.2 16.0 16.0 21.5 16.35 21.95 16.4 22.3 16.4 28.65 16.8 28.3 15.6 28.8 15.1 30.1 14.8 Q33.6 15.1 37.15 16.0 L37.6 16.95 45.2 17.25 45.95 15.85 48.7 15.7 48.65 17.1 51.75 17.2 51.95 16.05 56.5 14.85 59.1 15.55 Q59.4 14.8 59.95 14.75 L61.0 14.85 Q61.4 14.95 61.7 15.3 L61.9 15.55 61.35 16.05 60.5 16.45 59.95 16.4 59.5 16.2 60.15 17.3 70.0 17.1 69.0 16.5 Q69.55 16.05 69.55 15.4 L69.55 15.3 69.65 15.15 76.0 15.45 Q75.4 15.5 74.9 15.85 74.3 16.3 74.3 16.95 74.3 17.55 74.9 18.0 L75.6 18.4 Q75.65 18.85 76.35 19.2 L78.2 19.55 80.05 19.2 Q80.75 18.85 80.75 18.35 80.75 17.8 80.05 17.45 L78.45 17.1 78.45 16.95 Q78.45 16.3 77.85 15.85 L76.95 15.45 78.45 15.5 79.0 16.4 81.6 16.6 M33.0 5.7 L32.95 5.6 33.0 5.55 33.05 5.7 33.0 5.7 M79.65 31.95 Q68.0 37.25 54.7 37.5 41.9 38.1 29.5 35.3 25.25 34.5 21.45 32.45 L21.8 31.1 35.2 33.35 35.05 33.8 34.75 35.0 Q46.9 38.55 59.9 35.95 L59.6 34.3 59.45 33.75 67.95 32.15 71.95 34.1 79.65 31.95 M20.8 14.05 L20.3 13.75 Q19.8 13.55 20.3 13.35 L26.15 12.15 27.0 12.45 Q26.65 12.6 26.3 12.9 L26.65 14.6 23.55 14.8 23.05 13.9 Q22.6 13.4 21.95 13.4 21.35 13.4 20.9 13.9 L20.8 14.05 M49.1 14.95 Q48.4 14.6 48.4 14.15 48.4 13.65 49.1 13.35 49.7 13.0 50.6 13.0 L52.15 13.35 Q52.75 13.65 52.75 14.15 52.75 14.6 52.15 14.95 L50.6 15.3 49.1 14.95 M38.9 13.75 L44.45 14.35 44.7 14.5 44.8 15.15 Q40.6 16.5 36.15 15.6 35.05 15.45 34.1 14.75 L34.0 14.3 34.1 14.15 34.3 14.0 35.05 13.95 35.45 14.35 Q36.05 14.85 36.95 14.85 37.8 14.85 38.45 14.35 L38.9 13.75 M36.1 11.5 L35.75 11.35 Q35.25 11.05 35.25 10.6 35.25 10.2 35.75 9.95 L36.85 9.65 37.9 9.95 Q38.4 10.2 38.4 10.6 38.4 11.05 37.9 11.35 L37.65 11.45 36.95 11.35 36.1 11.5 M48.65 20.45 L46.25 20.8 Q45.25 21.2 45.25 21.7 45.25 22.2 46.25 22.55 L48.65 22.95 51.0 22.55 Q52.0 22.2 52.0 21.7 52.0 21.2 51.0 20.8 L48.65 20.45 M59.85 18.5 L59.2 17.4 55.7 17.2 55.0 17.35 55.05 18.7 59.45 18.8 59.85 18.5 M55.1 24.35 L54.65 24.6 55.35 25.05 Q59.7 26.95 59.75 24.25 L60.25 23.9 60.65 22.7 60.3 21.7 Q57.15 19.85 54.65 21.8 53.95 22.85 54.8 23.95 L55.1 24.35 M58.95 27.25 Q58.95 27.85 59.55 28.3 60.1 28.8 60.95 28.8 61.75 28.8 62.4 28.3 62.95 27.85 62.95 27.25 62.95 26.6 62.4 26.15 61.75 25.7 60.95 25.7 60.1 25.7 59.55 26.15 58.95 26.6 58.95 27.25 M62.75 34.65 L64.6 35.6 66.7 35.15 66.95 34.6 Q66.95 34.1 66.4 33.9 64.7 33.2 62.75 34.65 M35.2 20.2 L34.4 20.4 Q34.05 20.6 34.05 20.85 34.05 21.1 34.4 21.35 L35.2 21.55 36.1 21.35 36.4 20.85 36.1 20.4 35.2 20.2 M36.95 24.7 L36.25 24.5 Q35.9 24.5 35.65 24.7 35.35 24.85 35.35 25.1 L35.65 25.6 36.25 25.75 36.95 25.6 37.2 25.1 36.95 24.7" fill="#ee7373" fill-rule="evenodd" stroke="none"/>
    <path d="M64.6 7.45 L63.8 8.4 63.8 8.2 63.6 7.4 64.6 7.45 M37.45 5.2 L38.8 7.35 Q39.85 8.85 41.4 9.75 L42.2 10.2 42.6 10.5 Q43.25 10.95 44.0 11.05 50.35 13.65 55.7 11.0 L55.6 11.5 Q55.6 12.15 56.15 12.7 L57.3 13.15 Q58.05 13.15 58.55 12.7 L58.95 12.1 59.05 12.5 Q59.75 13.0 60.55 13.2 L60.55 13.3 Q61.75 14.5 63.5 13.9 64.55 13.4 65.05 12.4 L65.0 12.2 65.1 12.25 Q72.15 16.15 80.15 13.35 L81.6 16.6 79.0 16.4 78.45 15.5 76.95 15.45 76.35 15.4 76.0 15.45 69.65 15.15 69.55 15.3 Q69.5 14.6 68.9 14.2 68.25 13.65 67.3 13.65 66.4 13.65 65.75 14.2 65.1 14.65 65.1 15.4 65.1 16.1 65.75 16.6 66.4 17.1 67.3 17.1 L68.9 16.6 69.0 16.5 70.0 17.1 60.15 17.3 59.5 16.2 59.95 16.4 60.5 16.45 61.35 16.05 61.9 15.55 61.7 15.3 Q61.4 14.95 61.0 14.85 L59.95 14.75 Q59.4 14.8 59.1 15.55 L56.5 14.85 51.95 16.05 51.75 17.2 48.65 17.1 48.7 15.7 45.95 15.85 45.2 17.25 37.6 16.95 37.15 16.0 Q33.6 15.1 30.1 14.8 L30.15 14.75 31.25 14.2 31.55 13.25 30.95 12.15 Q28.8 11.25 27.0 12.45 L26.15 12.15 33.5 10.1 34.0 9.55 34.1 8.8 Q34.35 6.95 33.05 5.7 L33.0 5.55 37.45 5.2 M59.05 11.35 Q59.0 10.75 58.55 10.35 58.15 9.95 57.6 9.9 L59.75 8.1 59.75 8.2 Q59.75 8.9 60.4 9.45 60.95 9.9 61.75 9.9 L63.2 9.45 63.45 9.2 63.35 10.2 63.35 10.45 Q62.0 10.15 61.25 10.95 L59.7 10.75 59.05 11.35 M81.7 17.25 Q88.8 15.3 93.65 19.2 93.75 20.35 93.45 21.45 L93.0 22.85 Q90.8 28.65 85.55 31.9 79.4 35.05 72.8 36.6 L70.5 37.0 Q59.0 39.45 47.2 39.45 L30.6 38.2 Q18.45 36.4 7.25 31.2 2.15 28.75 -0.7 23.65 L0.7 17.5 Q0.75 17.3 0.95 17.15 8.35 15.75 16.0 15.85 L16.1 14.0 20.3 13.35 Q19.8 13.55 20.3 13.75 L20.8 14.05 Q20.4 14.4 20.4 14.9 20.4 15.55 20.9 16.0 L21.5 16.35 16.0 16.0 16.3 17.2 14.15 17.1 Q10.95 17.05 8.35 19.2 4.15 18.75 1.2 21.4 5.25 29.95 15.4 32.15 21.95 31.2 27.0 27.75 L27.45 27.6 30.3 27.85 30.75 27.25 30.7 27.35 Q30.7 28.0 31.65 28.55 L33.85 29.0 36.05 28.55 36.25 28.35 37.0 29.25 35.05 33.8 35.2 33.35 21.8 31.1 21.45 32.45 Q25.25 34.5 29.5 35.3 41.9 38.1 54.7 37.5 68.0 37.25 79.65 31.95 83.5 30.45 87.15 28.4 90.85 26.4 93.0 22.85 L91.95 21.7 86.9 21.45 81.4 20.55 81.7 17.25 M84.2 36.7 L84.0 37.7 82.8 39.25 78.9 39.4 78.65 38.6 Q80.45 36.85 82.85 36.2 L84.2 36.7 M86.05 33.8 Q86.35 33.5 86.8 33.5 87.3 33.5 87.65 33.8 L87.95 34.6 87.65 35.35 86.8 35.65 Q86.35 35.65 86.05 35.35 85.7 35.05 85.7 34.6 85.7 34.1 86.05 33.8 M62.75 21.0 L63.05 21.4 Q63.6 21.9 64.25 21.9 L63.95 22.4 63.1 22.65 62.35 22.4 Q62.0 22.15 62.0 21.8 62.0 21.45 62.35 21.25 62.5 21.05 62.75 21.0 M64.9 28.45 L67.95 32.15 59.45 33.75 59.6 34.3 57.05 29.6 64.9 28.45 M75.6 18.4 L76.35 18.5 Q77.25 18.5 77.85 18.0 78.35 17.6 78.45 17.1 L80.05 17.45 Q80.75 17.8 80.75 18.35 80.75 18.85 80.05 19.2 L78.2 19.55 76.35 19.2 Q75.65 18.85 75.6 18.4 M35.05 13.95 L34.3 14.0 34.1 14.15 34.0 14.3 34.1 14.75 Q35.05 15.45 36.15 15.6 40.6 16.5 44.8 15.15 L44.7 14.5 44.45 14.35 38.9 13.75 39.05 13.1 Q39.05 12.4 38.45 11.85 L37.65 11.45 37.9 11.35 Q38.4 11.05 38.4 10.6 38.4 10.2 37.9 9.95 L36.85 9.65 35.75 9.95 Q35.25 10.2 35.25 10.6 35.25 11.05 35.75 11.35 L36.1 11.5 Q35.75 11.6 35.45 11.85 34.8 12.4 34.8 13.1 L35.05 13.95 M49.1 14.95 L50.6 15.3 52.15 14.95 Q52.75 14.6 52.75 14.15 52.75 13.65 52.15 13.35 L50.6 13.0 Q49.7 13.0 49.1 13.35 48.4 13.65 48.4 14.15 48.4 14.6 49.1 14.95 M48.65 20.45 L51.0 20.8 Q52.0 21.2 52.0 21.7 52.0 22.2 51.0 22.55 L48.65 22.95 46.25 22.55 Q45.25 22.2 45.25 21.7 45.25 21.2 46.25 20.8 L48.65 20.45 M38.15 27.2 L38.1 27.25 38.1 27.2 38.15 27.2 M59.85 18.5 L59.45 18.8 55.05 18.7 55.0 17.35 55.7 17.2 59.2 17.4 59.85 18.5 M55.1 24.35 L55.25 24.5 59.75 24.25 Q59.7 26.95 55.35 25.05 L54.65 24.6 55.1 24.35 M59.05 40.6 L74.8 38.3 75.3 38.3 75.85 38.75 76.15 39.65 Q72.75 44.05 66.45 43.15 L57.55 44.0 Q40.05 45.7 23.25 41.05 29.5 38.0 36.85 39.7 41.25 40.75 45.85 40.85 52.4 41.0 59.05 40.6 M62.75 34.65 Q64.7 33.2 66.4 33.9 66.95 34.1 66.95 34.6 L66.7 35.15 64.6 35.6 62.75 34.65 M28.8 15.1 L28.3 15.6 28.65 16.8 22.3 16.4 23.05 16.0 Q23.55 15.55 23.55 14.9 L23.55 14.8 26.65 14.6 26.7 14.85 28.8 15.1 M35.05 8.75 Q35.65 9.25 36.45 9.25 37.3 9.25 37.85 8.75 38.45 8.25 38.45 7.5 38.45 6.8 37.85 6.25 37.3 5.75 36.45 5.75 35.65 5.75 35.05 6.25 34.5 6.8 34.5 7.5 34.5 8.25 35.05 8.75 M33.5 19.0 Q33.35 18.4 32.7 17.9 L32.15 17.6 32.5 17.35 Q32.95 17.05 33.6 17.05 34.3 17.05 34.75 17.35 35.2 17.6 35.2 18.0 L34.75 18.75 33.6 19.0 33.5 19.0 M35.2 20.2 L36.1 20.4 36.4 20.85 36.1 21.35 35.2 21.55 34.4 21.35 Q34.05 21.1 34.05 20.85 34.05 20.6 34.4 20.4 L35.2 20.2 M36.95 24.7 L37.2 25.1 36.95 25.6 36.25 25.75 35.65 25.6 35.35 25.1 Q35.35 24.85 35.65 24.7 35.9 24.5 36.25 24.5 L36.95 24.7 M10.65 36.05 L9.9 36.3 9.2 36.05 Q8.9 35.75 8.9 35.4 8.9 35.05 9.2 34.8 9.5 34.55 9.9 34.55 L10.65 34.8 10.95 35.4 10.65 36.05 M14.55 37.25 Q17.3 37.15 19.55 38.75 L19.45 39.7 Q18.15 40.4 16.45 40.0 14.3 39.7 13.85 37.75 L14.55 37.25" fill="#e83c3c" fill-rule="evenodd" stroke="none"/>
    <path d="M73.9 11.35 Q74.5 11.7 74.5 12.2 74.5 12.75 73.9 13.15 L72.3 13.5 Q71.35 13.5 70.75 13.15 70.05 12.75 70.05 12.2 70.05 11.7 70.75 11.35 L72.3 10.95 73.9 11.35 M61.0 7.2 L61.75 7.0 Q62.4 7.0 62.85 7.35 63.3 7.65 63.3 8.2 L62.85 9.05 Q62.4 9.4 61.75 9.4 L60.75 9.05 Q60.25 8.7 60.25 8.2 60.25 7.65 60.75 7.35 L61.0 7.2 M64.55 12.0 Q64.15 12.85 63.15 13.05 L63.0 13.05 61.85 13.3 61.4 13.35 61.35 13.3 60.95 13.0 61.35 11.25 64.15 11.25 64.55 12.0 M69.0 15.4 L68.9 15.8 68.85 15.95 68.55 16.25 67.3 16.55 66.1 16.25 Q65.6 15.9 65.6 15.4 65.6 14.85 66.1 14.55 66.6 14.2 67.3 14.2 68.05 14.2 68.55 14.55 69.0 14.85 69.0 15.4 M77.9 16.95 L77.9 17.1 77.45 17.65 76.35 17.95 75.75 17.9 75.3 17.65 Q74.8 17.35 74.8 16.95 74.8 16.5 75.3 16.2 L76.35 15.9 Q77.0 15.9 77.45 16.2 77.9 16.5 77.9 16.95 M52.2 9.6 Q51.6 9.2 51.6 8.75 51.6 8.3 52.2 8.0 52.75 7.6 53.6 7.6 54.4 7.6 55.05 8.0 55.6 8.3 55.6 8.75 L55.05 9.6 53.6 9.9 52.2 9.6 M57.3 10.35 Q57.85 10.35 58.2 10.7 L58.5 11.5 58.2 12.35 57.3 12.65 Q56.8 12.65 56.5 12.35 56.15 11.95 56.15 11.5 56.15 11.05 56.5 10.7 56.8 10.35 57.3 10.35 M43.0 8.1 Q43.7 7.65 44.7 7.65 45.7 7.65 46.4 8.1 47.15 8.5 47.15 9.1 47.15 9.75 46.4 10.15 45.7 10.55 44.7 10.55 43.7 10.55 43.0 10.15 42.25 9.75 42.25 9.1 42.25 8.5 43.0 8.1 M31.45 8.85 Q31.45 9.4 31.1 9.75 L30.1 10.05 Q29.55 10.05 29.15 9.75 28.75 9.4 28.75 8.85 L28.95 8.25 29.15 8.05 Q29.55 7.65 30.1 7.65 L30.65 7.75 31.1 8.05 Q31.45 8.35 31.45 8.85 M36.45 6.25 L37.5 6.65 Q37.9 7.0 37.9 7.5 37.9 8.05 37.5 8.4 L36.45 8.75 35.45 8.4 Q35.0 8.05 35.0 7.5 35.0 7.0 35.45 6.65 35.85 6.25 36.45 6.25 M36.95 11.85 Q37.6 11.85 38.05 12.2 38.55 12.6 38.55 13.1 L38.35 13.75 38.05 14.0 Q37.6 14.35 36.95 14.35 L35.8 14.0 35.65 13.9 Q35.35 13.5 35.35 13.1 35.35 12.6 35.8 12.2 36.25 11.85 36.95 11.85 M21.3 10.95 Q21.3 10.5 21.7 10.25 22.15 9.95 22.75 9.95 23.35 9.95 23.8 10.25 24.2 10.5 24.2 10.95 24.2 11.35 23.8 11.65 L22.75 11.9 21.7 11.65 Q21.3 11.35 21.3 10.95 M27.5 12.55 L28.85 12.25 30.4 12.65 Q31.05 12.95 31.05 13.45 31.05 14.0 30.4 14.35 L28.85 14.65 27.4 14.35 27.35 14.35 Q26.7 14.0 26.7 13.45 26.7 12.95 27.35 12.65 L27.5 12.55 M23.0 14.9 L22.7 15.65 21.95 15.9 21.25 15.65 Q20.95 15.35 20.95 14.9 20.95 14.5 21.25 14.25 21.55 13.95 21.95 13.95 L22.7 14.25 23.0 14.75 23.0 14.9 M28.5 18.55 Q29.8 17.45 31.65 18.15 L32.05 18.3 32.75 18.55 28.5 18.55" fill="#d9a442" fill-rule="evenodd" stroke="none"/>
    <path d="M65.6 20.05 L65.25 20.95 Q64.85 21.35 64.3 21.35 L64.05 21.35 63.5 21.0 63.45 20.95 Q63.0 20.55 63.0 20.05 63.0 19.5 63.45 19.15 63.8 18.75 64.3 18.75 64.85 18.75 65.25 19.15 65.6 19.5 65.6 20.05 M74.65 20.75 L74.65 20.85 Q74.6 21.4 74.1 21.75 73.5 22.1 72.7 22.1 71.85 22.1 71.3 21.75 L71.25 21.7 Q70.75 21.3 70.75 20.75 70.75 20.2 71.3 19.85 71.85 19.4 72.7 19.4 73.5 19.4 74.1 19.85 74.65 20.2 74.65 20.75 M72.0 23.25 L72.4 22.9 Q72.9 22.5 73.65 22.5 74.35 22.5 74.85 22.9 75.4 23.2 75.4 23.65 L75.35 23.95 74.85 24.5 73.65 24.8 72.4 24.5 Q71.85 24.15 71.85 23.65 71.85 23.4 72.0 23.25 M47.5 24.05 Q48.35 24.05 49.0 24.5 L49.55 25.2 49.55 25.35 Q49.55 25.9 49.0 26.3 L47.5 26.65 46.05 26.3 Q45.4 25.9 45.4 25.35 45.4 24.95 45.8 24.65 45.9 24.55 46.05 24.5 46.6 24.05 47.5 24.05 M55.65 21.7 L57.55 21.3 59.4 21.7 Q60.15 22.1 60.15 22.75 60.15 23.35 59.4 23.75 L59.0 23.95 57.55 24.2 56.1 23.95 55.65 23.75 Q54.9 23.35 54.9 22.75 54.9 22.1 55.65 21.7 M59.9 26.5 L60.95 26.2 Q61.55 26.2 62.05 26.5 62.45 26.8 62.45 27.25 L62.05 27.95 60.95 28.25 59.9 27.95 Q59.45 27.65 59.45 27.25 59.45 26.8 59.9 26.5 M51.05 27.85 L50.9 28.4 50.75 28.6 50.05 28.9 49.3 28.6 49.05 28.15 49.0 27.85 Q49.0 27.45 49.3 27.15 49.6 26.8 50.05 26.8 50.45 26.8 50.75 27.15 L51.05 27.85 M44.3 28.95 L42.95 29.75 Q41.6 30.2 39.75 29.2 L39.6 28.2 39.55 28.05 40.15 27.15 44.85 26.35 45.4 27.85 45.4 27.9 Q44.8 28.35 44.3 28.95 M68.95 26.85 L67.35 27.25 Q66.45 27.25 65.75 26.85 65.1 26.45 65.1 25.9 65.1 25.3 65.75 24.95 66.45 24.55 67.35 24.55 L68.95 24.95 Q69.65 25.3 69.65 25.9 69.65 26.45 68.95 26.85 M20.5 20.05 Q20.5 20.55 20.05 20.9 19.6 21.25 18.9 21.25 L17.8 20.9 Q17.3 20.55 17.3 20.05 L17.35 19.9 Q17.4 19.45 17.8 19.2 18.25 18.85 18.9 18.85 19.6 18.85 20.05 19.2 L20.45 19.7 20.5 20.05 M24.4 22.9 L24.35 22.55 Q24.35 21.95 25.05 21.55 25.7 21.1 26.65 21.1 27.55 21.1 28.25 21.55 L28.9 22.3 28.9 22.55 Q28.9 23.2 28.25 23.6 27.55 24.0 26.65 24.0 25.7 24.0 25.05 23.6 24.5 23.3 24.4 22.9 M32.75 18.55 L32.9 20.0 28.5 20.1 28.5 18.55 32.75 18.55 M31.8 24.15 L31.5 23.9 Q31.15 23.6 31.15 23.2 31.15 22.8 31.5 22.45 L31.8 22.25 32.3 22.15 Q32.85 22.15 33.2 22.45 L33.5 23.2 33.2 23.9 Q32.85 24.25 32.3 24.25 L31.8 24.15 M36.4 27.3 L35.9 28.0 35.7 28.1 33.85 28.4 32.0 28.1 Q31.25 27.75 31.25 27.3 L31.25 27.2 Q31.3 26.75 32.0 26.5 L33.85 26.15 35.7 26.5 Q36.4 26.8 36.4 27.3" fill="#f3cc83" fill-rule="evenodd" stroke="none"/>
    <path d="M6.35 9.65 L6.05 9.8 4.55 10.75 Q4.0 11.15 3.6 11.5 -6.6 19.25 0.0 32.2 2.95 37.9 9.0 40.5 20.4 45.15 32.75 46.6 44.8 48.2 57.0 46.85 69.85 45.85 82.05 42.05 91.75 38.95 96.0 30.45 L96.6 28.7 Q98.75 20.1 94.15 13.4 85.9 5.75 74.55 3.15 63.4 0.6 52.15 0.15 40.1 -0.5 28.25 1.4 16.35 3.15 6.35 9.65 M97.45 28.9 L96.8 30.7 Q92.5 39.55 82.7 42.75 70.25 46.75 57.25 47.75 44.8 49.15 32.6 47.5 20.05 45.95 8.4 41.15 2.3 38.45 -0.7 32.55 -7.35 19.1 3.0 11.0 L3.9 10.25 5.45 9.2 Q15.75 2.35 28.0 0.5 40.05 -1.45 52.3 -0.8 63.7 -0.35 75.05 2.35 86.6 5.0 94.95 13.0 99.6 19.95 97.45 28.9" fill="#000000" fill-rule="evenodd" stroke="none"/>
  </g>
</svg>
