<?xml version="1.0" encoding="UTF-8" standalone="no"?>
<svg
   height="86.7px"
   width="195.0px"
   version="1.1"
   id="svg7"
   sodipodi:docname="BBQ.svg"
   inkscape:version="1.4.2 (f4327f4, 2025-05-13)"
   xmlns:inkscape="http://www.inkscape.org/namespaces/inkscape"
   xmlns:sodipodi="http://sodipodi.sourceforge.net/DTD/sodipodi-0.dtd"
   xmlns="http://www.w3.org/2000/svg"
   xmlns:svg="http://www.w3.org/2000/svg">
  <defs
     id="defs7" />
  <sodipodi:namedview
     id="namedview7"
     pagecolor="#ffffff"
     bordercolor="#000000"
     borderopacity="0.25"
     inkscape:showpageshadow="2"
     inkscape:pageopacity="0.0"
     inkscape:pagecheckerboard="0"
     inkscape:deskcolor="#d1d1d1"
     inkscape:zoom="4"
     inkscape:cx="105.25"
     inkscape:cy="33.625"
     inkscape:window-width="1920"
     inkscape:window-height="1001"
     inkscape:window-x="-9"
     inkscape:window-y="-9"
     inkscape:window-maximized="1"
     inkscape:current-layer="svg7" />
  <g
     transform="matrix(2.0, 0.0, 0.0, 2.0, -2.7, -0.4)"
     id="g7">
    <path
       d="M85.1 11.85 L85.2 11.9 91.2 14.6 91.4 14.75 93.15 16.25 Q96.3 17.85 98.4 20.75 L98.55 21.25 98.55 22.15 98.65 22.3 98.8 22.75 98.85 24.65 98.7 25.15 98.0 26.25 97.6 26.55 Q90.8 29.35 83.3 28.45 83.2 28.45 83.15 28.55 L83.0 28.65 Q81.6 29.35 80.75 30.6 L82.4 34.35 Q83.95 37.8 81.15 39.95 72.45 46.8 62.8 40.6 L62.6 40.45 Q60.5 38.1 57.25 38.1 L55.35 38.3 55.15 38.35 45.0 38.35 44.8 38.3 42.9 38.1 Q39.65 38.1 37.55 40.45 L37.4 40.6 Q27.7 46.8 19.0 39.95 L19.05 39.95 Q16.2 37.8 17.75 34.35 L19.4 30.6 Q18.55 29.35 17.15 28.65 L17.0 28.55 16.85 28.45 Q9.35 29.35 2.6 26.55 L2.15 26.25 1.45 25.15 1.35 24.65 1.35 22.0 Q1.35 21.75 1.5 21.55 3.8 17.9 8.85 14.7 L9.15 14.55 Q16.95 12.95 17.7 9.6 17.5 6.55 20.5 4.05 L20.55 4.0 Q24.8 0.7 31.75 2.85 L31.75 2.8 Q34.35 3.4 37.95 1.05 40.7 -0.85 44.75 1.45 47.15 2.7 52.5 1.4 L52.45 1.4 53.95 1.0 Q57.5 -0.55 63.8 1.45 L64.1 1.65 Q65.95 3.45 68.45 2.8 L68.4 2.85 Q75.3 0.7 80.95 5.55 L81.2 6.05 82.25 11.1 85.1 11.85"
       fill="#000000"
       fill-rule="evenodd"
       stroke="none"
       id="path1" />
    <path
       d="M 88.069574,16.415315 81.65,14.874038 C 79.716667,14.407371 77.928092,13.145741 77.028092,11.245741 L 77.230221,8.65 75.549795,6.6544636 C 70.783128,7.0211303 66.458518,6.6647422 62.458518,4.9980755 L 58.060852,4.7110566 c -1.6,-0.1333333 -3.282556,0.091278 -5.499222,0.8579443 -2.216667,0.7666666 -5.000778,0.9341114 -8.200778,0.3007781 l -7.00213,-0.9304259 c -4,1.6666667 -8.285462,2.218796 -13.052129,1.8521294 l -1.504259,1.9759622 0.339148,2.5565933 c -0.9,1.9 -2.786445,3.200778 -4.719778,3.667444 L 12.1,16.395741 10.523833,16.934889 9.3,15.4 c 5.766667,-1.166667 8.866667,-3.083333 9.3,-5.75 -0.166667,-1.8 0.65,-3.45 2.45,-4.95 2.666667,-2 6.15,-2.35 10.45,-1.05 1.966667,0.5 4.266667,-0.1333333 6.9,-1.9 1.6,-1.03333333 3.566667,-0.88333333 5.9,0.45 1.733333,0.9666667 4.533333,0.9833333 8.4,0.05 l 1.45,-0.4 c 2.233333,-1 5.35,-0.86666667 9.35,0.4 1.466667,1.4333333 3.183333,1.9 5.15,1.4 4.3,-1.3 8.2,-0.45 11.7,2.55 l 1.15,5.6 3.35,0.9 6,2.7 1.8,1.55 -3.102129,-0.112981 z"
       fill="#83220a"
       fill-rule="evenodd"
       stroke="none"
       id="path2"
       sodipodi:nodetypes="ccccccccccccccccccccccccccccccccc"
       style="display:inline;fill:#2b0d00;fill-opacity:1" />
    <path
       d="M 88.158108,16.151925 C 89.743612,16.465111 96.15,21.190996 96.15,21.190996 L 96.914368,24.25 95.205364,25.45364 c -5.3,0 -10.222031,0.955364 -14.655364,2.755364 -1.933333,0.733333 -1.99636,1.058812 -1.29636,2.858812 0.8,2.133333 1.338697,4.388697 1.505364,6.655364 l -1.92682,2.25364 c -6.066667,2.1 -12.35249,1.233333 -17.085824,-2.6 C 60.413027,36.27682 59.5,35.826245 57.9,35.692912 l -5.2,0.07682 -10.007088,0.2 c -1.6,0.133333 -3.066667,0.307088 -4.4,1.407088 -4.733333,3.833333 -10.354789,5.198276 -16.421456,3.098276 L 20,38 c 0.166667,-2.266667 0.09636,-4.743487 0.89636,-6.87682 0.7,-1.8 0.621348,-2.430472 -1.311985,-3.163805 C 15.151042,26.159375 10.26875,25.15 4.96875,25.15 L 3.728125,24.25 3.875,21.6125 10.45,16.746875 12.1,16.2 v 0.2 c -2.1666667,0.766667 -3.5795922,2.270971 -4.8795922,4.070971 l -0.3546796,1.984835 0.4337087,0.455806 c 1.9333333,1.633333 3.7762811,1.617507 6.1429481,0.55084 l 8.740661,1.635297 1.432184,0.386159 1.916954,2.262979 -0.747749,0.324569 0.592385,0.57318 L 25.237548,30.75 c -3.9,4.633333 -2.894061,6.735057 3.239272,7.301724 1.5,-0.06667 2.700575,-0.455364 3.933908,-1.055364 2.833333,-1.466666 5.409339,-2.473467 8.309339,-3.740134 l 0.78841,-1.113841 0.824569,-0.163841 1.186925,0.107352 1.351485,0.128807 5.05,0.844205 2.86159,-0.341954 2.053113,-0.355364 0.510728,0.241523 0.953113,-0.105364 0.319205,-0.341523 1.391523,-0.122318 0.879933,0.177682 0.553113,1.086159 c 2.9,1.266667 5.697462,2.619492 8.530795,4.086159 1.233333,0.6 2.378544,0.587308 3.878544,0.653975 6.133333,-0.566667 7.166954,-2.571504 3.266954,-7.204837 l -0.236159,-2.077682 0.66159,-0.808477 -0.9,-0.269205 2.304502,-2.152251 1.127682,-0.496887 8.45,-1.4 c 2.366667,1.066667 4.392098,0.783333 6.325431,-0.85 l 0.292385,-0.430795 -0.255364,-2.070067 c -1.3,-1.8 -3.965359,-3.385053 -5.048693,-3.868386 z M 54.05,24.9 l 0.9,0.05 -0.9,0.1 V 24.9"
       fill="#eb3c10"
       fill-rule="evenodd"
       stroke="none"
       id="path3"
       sodipodi:nodetypes="ccccccccccccccccccccccccccccccccccccccccccccccccccccccccccccccccccc"
       style="display:inline;fill:#6d3702;fill-opacity:1" />
    <path
       d="m 89.45,16.7 3.2,0.25 c 2.033333,1.033333 3.7,2.466667 5,4.3 v 1.15 l 0.25,0.35 0.05,1.9 -0.7,1.1 c -4.466667,1.833333 -9.183333,2.416667 -14.15,1.75 l -0.5,0.35 c -1.2,0.633333 -2.15,1.516667 -2.85,2.65 l 1.85,4.2 c 0.833333,1.866667 0.5,3.383333 -1,4.55 -5.466667,4.3 -11.25,4.5 -17.35,0.6 -1.566667,-1.733333 -3.566667,-2.616667 -6,-2.65 l -2.1,0.25 H 45 L 42.9,37.2 c -2.433333,0.03333 -4.433333,0.916667 -6,2.65 -6.1,3.9 -11.883333,3.7 -17.35,-0.6 -1.5,-1.166667 -1.833333,-2.683333 -1,-4.55 L 20.4,30.5 C 19.7,29.366667 18.75,28.483333 17.55,27.85 L 17.05,27.5 C 12.083333,28.166667 7.3666667,27.583333 2.9,25.75 L 2.2,24.65 V 22 C 3.7,19.666667 6.0666667,17.466667 9.3,15.4 L 10.7,16.7 4,21.8 3.9,24.25 5,24.9 c 5.3,0 10.166667,0.9 14.6,2.7 1.933333,0.733333 2.55,2 1.85,3.8 -0.8,2.133333 -0.563602,4.388697 -0.730268,6.655364 L 21.65,39.7 c 6.066667,2.1 11.466667,1.233333 16.2,-2.6 1.333333,-1.1 2.8,-1.716667 4.4,-1.85 l 10.45,-0.2 5.2,0.2 c 1.6,0.133333 3.066667,0.75 4.4,1.85 4.733333,3.833333 10.133333,4.7 16.2,2.6 L 80.15,38 C 79.983333,35.733333 79.5,33.533333 78.7,31.4 78,29.6 78.61667,28.333333 80.55,27.6 c 4.433333,-1.8 9.3,-2.7 14.6,-2.7 l 1.1,-0.65 -0.1,-2.45 -6.7,-5.1 M 18.5,14.6 c 1.933333,-0.466667 3.35,-1.65 4.25,-3.55 l -0.3,-2.4 1.7,-2.25 C 28.916667,6.7666667 33.3,6.1166667 37.3,4.45 l 7.1,0.95 c 3.2,0.6333333 5.866667,0.5833333 8,-0.15 l 0.3,-0.1 c 2,-0.7 3.8,-0.9833333 5.4,-0.85 l 4.75,0.15 c 4,1.6666667 8.383333,2.3166667 13.15,1.95 l 1.7,2.25 -0.3,2.4 c 0.9,1.9 2.316667,3.083333 4.25,3.55 l 6.4,1.6 v 0.2 c -1,-0.133333 -1.556745,0.14401 -2.090078,0.67734 l -0.332582,0.532582 -7.370971,-0.543631 0.05637,-1.044757 -5.52435,-0.266291 -0.377903,1.038388 -4.987262,-1.271534 -0.161048,-0.55 -0.844758,-0.455806 -0.633145,-0.677903 -0.411612,-0.205805 c -2.066667,-0.133333 -3.551313,0.116667 -4.91798,0.75 l -0.166855,1.183145 c -2.4,0.5 -4.909735,1.39457 -7.043068,2.727903 l -0.421534,-0.212175 -3.123223,-0.03492 -2.428466,-0.285485 -0.410485,0.587825 c -2.133334,-1.333333 -4.576778,-2.40468 -6.976778,-2.90468 L 39.739515,14.459922 39.228466,14.12734 39.217981,13.822097 38.977903,13.709922 38.4,13.926777 l -3.7,-0.25 -0.42266,0.261048 -0.566855,0.633709 -0.9,0.444757 -0.161048,0.583146 -4.810486,1.271534 -0.499436,-1.016291 -5.60169,0.244194 0.177903,1.02266 -7.382019,0.411049 L 14.278466,17 C 13.745133,16.466667 13.088951,16.355055 12.088951,16.488388 L 12.1,16.2 Z m 47.111049,5.384272 4.922097,-0.133709 0.249437,1.311049 -0.761049,1.126776 -5.482019,-0.15 c 0,-0.533333 0.0779,-1.115915 0.277902,-1.482582 0.166667,-0.366667 0.526965,-0.671534 0.793632,-0.671534 z m -4.751127,0.187262 -2.714602,0.05581 0.03315,-1.293631 0.65468,-0.594194 2.605242,0.361048 L 61.871534,19.35 Z M 79.082583,18.32266 c 0,0.3 -0.07809,0.759923 -0.344758,0.959923 l -0.988388,0.255805 -0.743631,-0.113951 -0.588952,-0.430806 -0.177339,-0.582582 c 0,-0.3 0.05038,-0.649437 0.283708,-0.849437 0.266667,-0.2 0.782207,-0.37734 1.148874,-0.37734 0.366667,0 0.744007,0.155243 0.97734,0.355243 0.266667,0.2 0.433146,0.483145 0.433146,0.783145 z m -38.549437,0.309359 -1.538389,-0.305242 c -0.4,-0.2 -0.754679,-0.54925 -0.754679,-0.782583 0,-0.233333 0.420971,-0.61011 0.820971,-0.776777 0.4,-0.2 0.960672,-0.3 1.527339,-0.3 l 1.483146,0.333146 c 0.4,0.166667 0.655243,0.543444 0.655243,0.776777 l -0.727058,0.661049 z m 2.7,2.228466 -1.038389,0.321534 -1.137825,-0.376776 c -0.266667,-0.166667 -0.355806,-0.554493 -0.355806,-0.787826 0,-0.233333 0.354304,-0.505055 0.620971,-0.638388 l 1.093631,-0.194757 0.972097,0.283145 c 0.266667,0.133333 0.4,0.482396 0.333709,0.809641 z M 41.20468,23.461049 39.9,23.726777 c -0.666667,-0.1 -1.343444,-0.577153 -1.676777,-1.210486 0.2,-0.7 0.89925,-1.281456 1.832583,-1.081456 l 1.060485,0.276777 0.466573,1.094194 z m 9.488951,-4.072098 -1.093068,0.221535 0.08885,-0.502741 z M 49.90625,21.85 47.08125,22.1375 46.4875,20.6 c 0.8,-0.6 1.45,-1.064583 2.45,-0.83125 L 50.09375,20.1 50.5125,20.53125 Z m 1.05,-1.13125 1.49375,-0.39375 2.3,-0.33125 1.04375,0.975 -0.03125,2.2625 c -0.866667,0.7 -1.689583,1.047917 -2.65625,0.98125 L 51.6875,24.10625 50.65,23.85 50.04375,22.75625 49.75625,22.25 50.309375,21.21875 Z M 22.5,17.129029 c 0.366667,0 0.749624,0.122097 1.016291,0.322097 0.233333,0.2 0.548874,0.60468 0.548874,0.90468 L 23.693068,19.348874 22.5,19.670971 21.467417,19.30468 c -0.266667,-0.2 -0.598873,-0.538389 -0.598873,-0.838389 0,-0.3 0.177527,-0.704679 0.444194,-0.904679 0.233333,-0.2 0.820595,-0.432583 1.187262,-0.432583 z m 5.351126,0.877903 c 1.766667,-0.9 3.782207,-1.327527 5.648874,-1.194194 l 0.466291,0.194194 0.4,0.477903 0.8,0.166291 L 36.109359,18.5 c -2.4,2.166667 -5.676026,3.17022 -9.209359,2.303553 l -0.681456,-1.12565 z"
       fill="#af2d0c"
       fill-rule="evenodd"
       stroke="none"
       id="path4"
       style="display:inline;fill:#471f00;fill-opacity:1"
       sodipodi:nodetypes="ccccccccccccccccccccccccccccccccccccccccccccccccccccccccccccccccccccccccccccccccccccccccccccccccccccccccccccccccccccsccccccscsccscccccccccscccccccccccccccccccccccccccccccccccscccccscsccccccccc" />
    <path
       d="M 49.88861,33.097157 44.526563,32.620312 42.25,32.2 41.55,32.35 40.74375,32.025 39.025,31.575 c -1.6,0.566667 -3.047917,1.158333 -4.78125,2.025 L 32.55,34.05 c -0.633333,0.1 -1.16875,0.20625 -1.66875,0.50625 -1.866667,1.133333 -3.886774,1.318422 -5.986774,1.251755 L 24.425141,35.530383 25.8,31.4 25.65,28.3875 25.2,27.65 l -2,-2 0.16875,-0.73125 0.01875,-1 L 22.75,23.45 c -1,-0.4 -0.8875,-0.566667 -1.7875,0 L 20.66875,24.1375 22.1,25.25 l -8.740661,-1.455364 0.505364,-0.61159 -0.313841,-0.427682 c -1.2,-0.666667 -2.489272,-0.808764 -4.089272,-0.675431 0.1,-1.033333 0.8966,-1.865517 2.029933,-1.832184 l 3.463841,0.04464 0.516858,0.897606 c 0.875,0.208333 3.000096,0.152394 4.200096,-0.547606 1.633333,0.4 3.233333,0.938985 4.8,1.672318 l 0.553113,-0.41159 5.479933,0.166954 0.546887,0.805364 -0.478113,1.00182 L 28.46887,24.041523 32.6,24.85 c 2.233333,0.233333 5.939464,-0.06552 7.422078,-0.0042 l 6.23865,-0.0726 3.217816,0.228113 3.211669,0.07146 0.995119,-0.08362 -0.882134,-0.278298 7.324034,-0.329365 -0.271704,0.380425 c 2.3,0.233333 4.370926,0.217732 6.604259,0.05107 l 1.996806,0.04894 -0.8,0.897871 0.230426,0.822768 c 2,0.766667 3.735749,0.71851 5.735749,-0.28149 L 73.773833,25.45 C 73.1405,24.85 72.501065,24.574325 71.601065,24.407658 L 70.98362,24.369578 72.862981,23.81192 C 73.000287,23.615888 73.35,23.509009 73.55,23.442342 L 74.184685,23.120639 73.592342,22.7 73.562981,21.642342 74.081491,21.18362 75.019574,20.064046 77,20.25 l 1.25,0.5 0.353829,0.517342 1.934255,-0.573935 c 1.2,0.7 3.31339,0.759009 4.18839,0.550676 L 85.259787,20.323833 88.7,20.292342 c 1.133333,-0.03333 1.828296,0.69177 1.928296,1.725103 -1.6,-0.133333 -2.337087,-0.106913 -3.537087,0.559759 l -0.472035,0.640241 -0.01641,0.676597 L 77.5,25.45 c -0.810222,0.461147 -2.55,2.2 -2.55,2.2 l -0.535938,0.7375 -0.36875,2.996875 1.771875,4.115625 -0.590624,0.414062 c -2.1,0.06667 -4.153646,-0.536979 -6.020313,-1.670312 -0.5,-0.3 -1.004167,-0.460938 -1.6375,-0.560938 l -1.592187,-0.2 c -1.733333,-0.866667 -3.384375,-1.458333 -4.984375,-2.025 L 59.15625,31.540625 58.6,32.35 57.9,32.2 55.920312,32.648437 Z m 18.696687,-15.122588 -3.386159,1.686159 -1.771025,-0.08616 -0.533477,-0.477682 c -0.166667,-0.3 -0.367718,-0.869119 -0.405746,-1.357141 l 1.16111,-1.286632 3.203113,-0.08305 1.03841,0.324569 z M 60.261049,24.088388 59.439515,23.455524 60.3,22.745039 l 0.794194,0.09419 0.149719,0.110767 -0.05609,0.749718 z m -16.091475,-2.26562 3.377232,0.239148 -0.71851,1.295742 -3.01638,-0.07936 C 43.578583,23.044963 43.47674,22.618796 43.643407,22.352129 Z m -9.328051,0.583458 0.535297,0.377682 -0.146887,1.082184 -2.477682,0.958477 -1.246025,-0.583046 0.0692,-1.321456 c 1,-1 2.199425,-1.180508 3.266092,-0.513841 z"
       fill="#f04920"
       fill-rule="evenodd"
       stroke="none"
       id="path6"
       sodipodi:nodetypes="ccccccccccccccccccccccccccccccccccccccccccccccccccccccccccccccccccccccccccccccccccccccccccccccccccccccccccccccccccc"
       style="display:inline;fill:#764310;fill-opacity:1" />
    <path
       d="m 85.55,17.4 c 1.560417,-0.10625 3.123958,1.533333 4.690625,2.7 L 91.48125,21.41875 90.55,22.040625 C 90.45,21.007292 89.833333,20.366667 88.7,20.4 l -3.45,0.1 -0.564602,-0.562175 c -1.533333,-0.966667 -2.66424,-1.18277 -4.497573,-0.449437 l 0.05412,0.839515 L 80.45,20.85 78.55,21.4 v -0.05 l -0.3,-0.6 -1.25,-0.5 h -2 l -0.85,1.1 -0.45,0.4 v 0.95 l 0.7,0.45 -0.85,0.4 c -0.2,0.06667 -0.383333,0.183333 -0.55,0.35 l -1.85,0.45 0.5,-0.05 c 0.9,0.166667 1.666667,0.55 2.3,1.15 l -0.2,0.9 c -2,1 -4,1.116667 -6,0.35 l -0.25,-0.95 0.8,-0.8 h -1.85 c -2.233333,0.166667 -4.5,0.133333 -6.8,-0.1 l 0.35,-0.4 -7.05,0.3 1.1,0.15 v 0.15 l -1.35,0.15 -3,0.2 v -0.05 l -3.5,-0.3 h -0.1 l -6.45,0.3 -0.25,-0.4 c -2.3,0.166667 -4.566667,0.133333 -6.8,-0.1 L 27.5,24 30.2,23.75 30.45,23.7 30.9,23 30.45,22.25 25.15,22 24.5,22.55 c -1.566667,-0.733333 -3.166667,-1.3 -4.8,-1.7 l 0.07188,-0.8125 0.01875,-0.5125 c -1.833333,-0.733333 -2.735417,-0.522917 -4.26875,0.44375 L 14.9,20.5 11.45,20.4 c -1.133333,-0.03333 -1.875,0.669792 -1.975,1.703125 l -0.665625,-0.434375 0.85,-1.725 C 11.226042,18.777083 12.727083,17.153125 14.6,17.4 l 7.15,-0.4 -0.2,-1.1 5.9,-0.2 0.4,0.95 4.7,-1.15 0.15,-0.55 0.9,-0.5 0.6,-0.7 0.5,-0.25 3.7,0.25 0.6,-0.25 0.45,0.3 -0.1,0.25 0.5,0.2 0.2,1.15 c 2.4,0.5 4.666667,1.416667 6.8,2.75 l 0.3,-0.4 2.55,0.15 v 0.05 l 3.3,-0.2 0.3,0.4 c 2.133333,-1.333333 4.4,-2.25 6.8,-2.75 l 0.2,-1.15 c 1.366667,-0.633333 3.083333,-0.883333 5.15,-0.75 l 0.5,0.25 0.6,0.7 0.9,0.5 0.15,0.55 4.7,1.15 0.4,-0.95 5.9,0.2 -0.2,1.1 7.15,0.4 M 72.3,8.85 l 1.8,0.3 c 0.5,0.1666667 0.75,0.3666667 0.75,0.6 L 74.1,10.4 72.3,10.65 70.5,10.4 C 70,10.2 69.75,9.9833333 69.75,9.75 69.75,9.5166667 70,9.3166667 70.5,9.15 l 1.8,-0.3 m -7.35,1.65 -0.2,0.45 -0.45,0.2 c -0.166667,0 -0.316667,-0.06667 -0.45,-0.2 l -0.2,-0.45 0.2,-0.45 c 0.133333,-0.1333333 0.283333,-0.2 0.45,-0.2 l 0.45,0.2 0.2,0.45 m 4.55,3.5 0.15,-1.25 2.9,-0.1 0.4,0.9 -0.3,0.6 -1.9,0.4 L 69.5,14 m -1.65,2.75 -0.9,-0.2 h -3.3 l -0.95,1.2 v 0.15 c 0,0.433333 0.08333,0.8 0.25,1.1 l 0.55,0.45 h 0.05 l 1.4,0.1 3.4,-1.7 -0.5,-1.1 m -2.9,3.95 c -0.2,0.366667 -0.3,0.816667 -0.3,1.35 l 5.25,0.15 0.75,-0.95 -0.15,-1.3 -4.9,0.2 c -0.266667,0 -0.483333,0.183333 -0.65,0.55 M 61,23.65 61.15,22.95 61.05,22.9 60.3,22.85 59.55,23.45 60.25,24 61,23.65 M 61.75,19.35 61.35,18.8 58.8,18.45 58.3,19 v 1.15 l 2.35,-0.1 1.1,-0.7 m 16.8,-1.7 c -0.233333,-0.2 -0.533333,-0.3 -0.9,-0.3 -0.366667,0 -0.683333,0.1 -0.95,0.3 -0.233333,0.2 -0.35,0.45 -0.35,0.75 l 0.1,0.45 0.6,0.45 v 0.05 l 0.6,0.1 0.9,-0.3 c 0.266667,-0.2 0.4,-0.45 0.4,-0.75 0,-0.3 -0.133333,-0.55 -0.4,-0.75 M 53.45,7.7 c 0.466667,-0.2 1.033333,-0.3 1.7,-0.3 l 1.7,0.3 c 0.466667,0.1666667 0.7,0.3666667 0.7,0.6 v 0.15 l 1,0.2 0.2,0.55 -1.25,1.8 c -1.633333,0.666667 -3.233333,0.633333 -4.8,-0.1 L 52.25,9.95 52.15,9.4 52.7,9.1 53.25,8.85 C 52.916667,8.6833333 52.75,8.5 52.75,8.3 c 0,-0.2333333 0.233333,-0.4333333 0.7,-0.6 M 45,7.4 46.7,7.7 47.3,8.05 47.35,8 c 0.133333,-0.1666667 0.3,-0.25 0.5,-0.25 0.2,0 0.383333,0.083333 0.55,0.25 l 0.2,0.5 -0.2,0.55 -0.55,0.2 c -0.2,0 -0.366667,-0.066667 -0.5,-0.2 L 47.15,8.75 46.7,8.95 45,9.2 43.3,8.95 C 42.833333,8.75 42.6,8.5333333 42.6,8.3 42.6,8.0666667 42.833333,7.8666667 43.3,7.7 L 45,7.4 m 5.6,5.4 1.3,0.1 0.8,0.25 0.3,0.05 0.15,1.3 -0.45,0.35 -1.1,0.7 h 0.1 l 0.95,0.2 0.05,0.05 c 0.233333,0.1 0.35,0.25 0.35,0.45 l -0.35,0.5 h -0.05 l -0.95,0.2 -0.95,-0.2 -0.4,-0.5 0.1,-0.25 -0.75,0.15 v 0.4 l -0.3,0.2 -0.95,0.2 -0.95,-0.2 -0.4,-0.5 0.15,-0.3 -1.65,-0.65 c -0.266667,-0.1 -0.45,-0.333333 -0.55,-0.7 l 0.4,-0.8 0.6,-0.3 c 1.133333,-0.366667 2.283333,-0.583333 3.45,-0.65 l 0.2,-0.1 V 12.5 l 0.9,0.3 M 44.1,13.35 43.5,13.5 42.9,13.35 42.65,13 42.9,12.65 43.5,12.5 44.1,12.65 44.35,13 44.1,13.35 m -2.6,9.5 -0.45,-1.05 -0.95,-0.1 c -0.933333,-0.2 -1.5,0.05 -1.7,0.75 0.333333,0.633333 0.833333,1 1.5,1.1 l 1.15,-0.1 0.45,-0.6 m 2.1,-2.7 c 0,-0.233333 -0.133333,-0.416667 -0.4,-0.55 L 42.25,19.35 41.3,19.6 c -0.266667,0.133333 -0.4,0.316667 -0.4,0.55 0,0.233333 0.133333,0.433333 0.4,0.6 l 0.95,0.2 0.95,-0.2 0.4,-0.6 m -1.65,-2 0.6,-0.65 c 0,-0.233333 -0.2,-0.433333 -0.6,-0.6 L 40.5,16.6 c -0.566667,0 -1.05,0.1 -1.45,0.3 -0.4,0.166667 -0.6,0.366667 -0.6,0.6 0,0.233333 0.2,0.45 0.6,0.65 l 1.45,0.25 1.45,-0.25 m 1.85,4.3 c -0.166667,0.266667 -0.133333,0.516667 0.1,0.75 l 2.85,0.05 0.65,-1.1 -3.25,-0.2 -0.35,0.5 m 12,-9.45 0.25,-0.35 0.6,-0.15 0.6,0.15 0.25,0.35 -0.25,0.35 -0.6,0.15 -0.6,-0.15 L 55.8,13 m -5.6,8.75 -0.1,0.5 0.1,0.35 0.45,0.75 0.9,0.35 h 0.15 l 1,0.2 c 0.966667,0.06667 1.883333,-0.25 2.75,-0.95 v -1.7 l -0.7,-0.6 -2.3,0.05 -1.4,0.3 -0.85,0.75 m 0,-1 -0.2,-0.4 -0.5,-0.3 C 48.5,19.816667 47.6,20 46.8,20.6 l 0.25,1.1 2.7,-0.1 0.45,-0.85 m -0.5,-1.4 v 0.15 l 0.85,-0.1 -0.85,-0.05 m 6.7,7.7 c -1.2,0.666667 -2.433333,1.033333 -3.7,1.1 l -3.4,-0.55 -0.15,-0.15 0.1,-1.25 c 1.133333,-0.533333 2.283333,-0.8 3.45,-0.8 1.2,-0.03333 2.4,0.216667 3.6,0.75 l 0.1,0.9 m 7.65,-0.55 -0.25,0.55 -0.65,0.2 -0.6,-0.2 -0.3,-0.55 c 0,-0.2 0.1,-0.366667 0.3,-0.5 l 0.6,-0.25 0.65,0.25 0.25,0.5 M 35.5,8.2 35.7,9.3 35.4,9.9 c -1.6,1.033333 -3.366667,1.383333 -5.3,1.05 L 28.9,9.8 29.65,8.75 C 31.283333,7.5833333 33.05,7.3 34.95,7.9 L 35.5,8.2 M 25.3,9.75 26,9.95 25.95,10.1 h -0.7 l -0.2,-0.4 0.25,0.05 m 0.4,4.2 v -1.1 l 4.95,0.05 -0.05,0.75 c -0.966667,0.866667 -2.2,1.116667 -3.7,0.75 l -1.2,-0.45 m -4.1,3.7 c -0.266667,0.2 -0.4,0.45 -0.4,0.75 0,0.3 0.133333,0.55 0.4,0.75 l 0.9,0.3 0.95,-0.3 0.35,-0.75 c 0,-0.3 -0.116667,-0.55 -0.35,-0.75 -0.266667,-0.2 -0.583333,-0.3 -0.95,-0.3 -0.366667,0 -0.666667,0.1 -0.9,0.3 m 4.95,2.05 0.35,0.75 c 3.533333,0.866667 6.5,0.216667 8.9,-1.95 l -0.7,-0.65 -0.8,-0.1 -0.4,-0.5 -0.4,-0.15 c -1.866667,-0.133333 -3.683333,0.25 -5.45,1.15 l -1.5,1.45 m 5.15,3.4 v 1.1 l 0.9,0.5 2.45,-1 0.05,-0.75 -0.3,-0.35 c -1.066667,-0.666667 -2.1,-0.5 -3.1,0.5 m 4.65,5.35 -0.8,0.25 H 35.4 l -0.95,-0.25 -0.4,-0.65 0.15,-0.4 0.25,-0.2 c 0.266667,-0.2 0.583333,-0.3 0.95,-0.3 l 0.95,0.3 0.4,0.6 -0.4,0.65 m -9.85,-2.2 0.55,-1.6 2.65,0.15 c -0.5,1.033333 -1.25,1.683333 -2.25,1.95 l -0.95,-0.5"
       fill="#d2360f"
       fill-rule="evenodd"
       stroke="none"
       id="path7"
       sodipodi:nodetypes="ccccccccccccccccccccccccccccccccccccccccccccccccccccccccccccccccccccccccccccccccccccccccccccccccccsccccccccccccccccccccccsccccccccccccccccccccccccccccscccccccsccccscccccccccscccccscccccccccsccccccccccccccccccccccccccccccccccccccccccccccccccccccscccccccccsccccccccccccccccccccccccccccccccccccccccccccccccccccccccccccccccccccccccccccccccscccccsccccccccccccccccccccccccccccccccc"
       style="display:inline;fill:#5d2d00;fill-opacity:1" />
    <path
       d="m 88.05,16.4 q 3.25,1.15 5.2,3.85 l 0.2,2.25 -0.5,0.5 q -2.9,2.45 -6.45,0.85 l -0.45,-0.75 0.3,-0.4 q 1.8,-1 4.2,-0.8 l 0.65,-0.45 -1.1,-1.1 Q 87.75,18.6 85.55,17.4 l 0.2,-0.4 q 0.8,-0.8 2.3,-0.6 m -10,8.85 -1.1,0.4 -0.7,-0.7 0.45,-1.5 0.3,-0.15 0.35,-0.15 q 1.4,-0.5 2.65,0.3 l -0.05,0.75 -1.9,1.05 m -3.1,2.4 0.9,0.2 -0.8,0.85 0.25,2.05 q 5.85,6.95 -3.35,7.8 -2.25,-0.1 -4.1,-1 -4.25,-2.2 -8.6,-4.1 L 58.6,32.35 59,31.4 61,31.2 q 2.4,0.85 5,2.15 l 1.6,0.2 q 0.95,0.15 1.7,0.6 2.8,1.7 5.95,1.6 l 0.45,-0.25 -1.85,-4.1 0.4,-3.2 0.7,-0.55 m -18.4,4.7 -0.25,0.3 -1.05,0.05 -0.4,-0.2 -2.15,-0.75 Q 49.55,30.95 46,32.1 l -1.35,0.35 H 44.5 l -0.05,-0.05 -0.8,-0.45 -0.2,-0.05 0.2,-0.2 v -0.9 l 0.6,-0.65 q 4.25,-1.35 8.45,-0.6 l 1.65,0.35 1.8,0.65 0.8,1.15 -0.4,0.65 m -15,0 -0.65,1.1 q -4.35,1.9 -8.6,4.1 -1.85,0.9 -4.1,1 -9.2,-0.85 -3.35,-7.8 l 0.25,-2.05 -0.8,-0.85 0.9,-0.2 0.7,0.55 0.4,3.2 -1.85,4.1 0.45,0.25 q 3.15,0.1 5.95,-1.6 0.75,-0.45 1.7,-0.6 l 1.6,-0.2 q 2.6,-1.3 5,-2.15 l 2,0.2 0.4,0.95 M 23.2,25.65 22.1,25.25 20.2,24.2 20.15,23.45 Q 21.5,22.6 23,23.2 l 0.45,0.25 0.45,1.5 -0.7,0.7 m -9.55,-1.8 Q 10.1,25.45 7.2,23 L 6.7,22.5 6.9,20.25 q 1.95,-2.7 5.2,-3.85 1.5,-0.2 2.3,0.6 l 0.2,0.4 q -2.2,1.2 -4.55,2.95 l -1.1,1.1 0.65,0.45 q 2.4,-0.2 4.2,0.8 l 0.3,0.4 -0.45,0.75 m 66.8,-3 -0.65,-0.5 0.2,-0.95 q 2.75,-1.1 5.05,0.35 l 0.2,0.75 -0.5,0.8 -0.25,0.05 q -2.25,0.55 -4.05,-0.5 m -60.75,0 q -1.8,1.05 -4.05,0.5 L 15.4,21.3 14.9,20.5 15.1,19.75 q 2.3,-1.45 5.05,-0.35 l 0.2,0.95 -0.65,0.5 m 40.6,7.1 q 0.4,0.3 0.4,0.7 0,0.4 -0.4,0.7 l -0.95,0.3 -0.95,-0.3 q -0.4,-0.3 -0.4,-0.7 0,-0.4 0.4,-0.7 0.4,-0.3 0.95,-0.3 l 0.95,0.3 m -18.1,1.6 -4,-0.1 -0.3,-0.25 -0.15,-0.3 v -0.4 l 0.4,-0.9 q 2.4,-1.25 5,-0.9 l 1.65,0.3 0.35,0.75 -0.05,0.45 -2.9,1.35 m 24.6,-2.35 2.3,0.3 1.35,1.25 0.25,2.25 q -1.4,0.95 -2.9,0.3 l -1.95,-0.8 -1.25,-1.65 0.2,-1.15 2,-0.5 m -35.35,3.45 q -0.55,0 -0.9,-0.3 -0.4,-0.3 -0.4,-0.7 0,-0.4 0.4,-0.7 0.35,-0.3 0.9,-0.3 l 0.95,0.3 0.35,0.7 -0.35,0.7 -0.95,0.3"
       fill="#f37454"
       fill-rule="evenodd"
       stroke="none"
       id="path5"
       style="display:inline;fill:#8c653e;fill-opacity:1" />
  </g>
</svg>
