<?xml version="1.0" encoding="UTF-8" standalone="no"?>
<svg xmlns:xlink="http://www.w3.org/1999/xlink" height="59.75px" width="108.35px" xmlns="http://www.w3.org/2000/svg">
  <g transform="matrix(1.0, 0.0, 0.0, 1.0, 1.2, 0.9)">
    <path d="M61.2 -0.5 L68.85 0.85 Q73.7 2.05 78.4 3.6 80.7 4.35 82.85 5.5 L91.1 10.2 94.9 12.95 Q98.25 15.65 100.95 18.9 104.0 22.6 105.65 27.25 107.35 31.95 107.15 37.05 106.9 42.2 103.15 45.55 99.45 48.9 94.9 50.95 91.1 52.65 87.1 53.95 L78.4 56.25 68.9 58.05 63.8 58.55 58.5 58.85 52.95 58.85 47.55 58.85 42.2 58.55 32.35 57.05 23.25 55.15 14.9 52.45 11.25 50.85 Q6.7 48.9 2.9 45.5 -1.1 41.8 -1.2 36.45 -1.25 31.6 0.4 27.25 2.1 22.6 5.15 18.9 7.85 15.65 11.1 12.85 L14.75 10.05 Q18.95 7.65 23.25 5.5 25.4 4.35 27.7 3.6 32.4 2.05 37.2 0.85 L44.9 -0.5 52.95 -0.9 61.2 -0.5" fill="#000000" fill-rule="evenodd" stroke="none"/>
    <path d="M96.05 26.2 L96.15 26.15 97.05 25.7 97.3 25.5 97.35 25.35 97.85 25.7 99.65 25.15 100.65 25.95 96.15 19.6 96.5 18.2 Q95.85 17.6 94.85 17.2 93.5 16.6 93.0 15.1 L86.9 11.65 86.35 10.7 85.85 10.55 84.95 11.1 83.65 11.3 85.85 12.7 86.35 12.5 Q90.35 13.55 92.95 16.65 L94.65 17.8 94.85 19.3 97.95 23.6 97.35 23.7 97.15 23.95 94.55 22.9 94.35 22.85 94.25 22.9 94.05 22.95 91.2 19.25 91.25 19.35 91.35 19.85 Q91.35 20.4 90.95 20.8 90.55 21.2 90.0 21.2 89.45 21.2 89.05 20.8 L88.8 20.45 89.6 19.35 89.65 19.35 89.95 18.5 90.0 18.5 90.8 18.75 90.05 17.95 90.2 16.85 90.15 16.6 90.0 16.4 89.15 15.9 88.9 15.8 88.85 15.8 88.65 15.85 88.15 16.1 Q84.1 12.4 78.95 9.9 L79.05 10.35 78.7 11.2 Q78.35 11.55 77.85 11.55 77.35 11.55 77.0 11.2 76.65 10.85 76.65 10.35 76.65 9.85 77.0 9.5 L77.55 9.2 77.85 9.15 78.3 9.25 Q75.5 7.9 72.4 7.0 66.1 5.2 59.75 4.85 L59.7 4.85 59.65 4.8 59.35 4.7 59.1 4.8 59.05 4.8 47.25 5.35 Q47.25 4.85 46.9 4.5 46.5 4.1 46.0 4.1 45.5 4.1 45.15 4.5 44.75 4.85 44.75 5.35 L44.85 5.75 43.25 6.05 43.2 6.05 Q42.8 5.25 42.15 5.3 41.55 5.25 41.2 6.05 L41.2 6.1 41.15 6.15 40.95 6.6 Q37.35 7.5 33.95 8.9 L33.85 7.85 33.7 7.6 Q33.55 7.45 33.35 7.45 L32.6 7.45 32.4 7.5 32.25 7.65 31.15 8.8 30.85 8.1 Q30.55 7.75 30.1 7.75 29.65 7.75 29.35 8.1 29.05 8.4 29.05 8.85 29.05 9.3 29.35 9.65 29.65 9.95 30.1 9.95 L30.25 9.95 30.3 10.2 30.45 10.5 Q29.05 11.15 27.7 11.95 L27.55 11.9 27.45 11.9 27.4 11.95 26.75 12.1 26.75 12.15 26.65 12.15 Q26.45 12.15 26.35 12.3 L26.25 12.6 26.25 12.85 Q22.75 15.05 19.55 17.85 L18.1 16.25 17.8 16.05 17.3 15.95 16.95 16.05 16.4 16.35 16.25 16.5 16.15 16.75 16.1 18.05 16.2 18.3 Q16.7 19.3 17.65 19.5 15.95 21.15 14.7 23.05 L14.45 22.7 14.2 22.5 12.3 21.65 12.1 21.6 11.95 21.65 11.65 21.9 11.2 22.75 11.15 23.05 11.1 23.05 Q10.7 23.05 10.4 23.35 10.1 23.65 10.1 24.1 10.1 24.55 10.4 24.85 L11.1 25.15 Q11.5 25.15 11.8 24.85 L12.1 24.2 13.25 25.5 Q11.85 28.35 11.3 31.75 L11.2 32.5 10.65 32.4 10.6 32.4 10.35 32.5 9.7 32.9 9.5 33.1 9.45 33.3 9.45 34.0 9.55 34.3 Q10.2 35.35 11.2 35.85 11.4 37.65 12.15 39.3 L11.95 39.15 11.7 39.0 11.6 39.0 11.4 39.05 10.65 39.35 10.4 39.6 8.75 42.85 8.7 43.15 8.75 43.65 9.0 44.0 9.6 44.35 9.85 44.4 10.3 44.35 10.5 44.3 10.7 44.2 12.0 42.25 Q11.55 44.55 12.45 47.05 L12.85 47.2 13.6 46.6 Q12.85 43.95 13.1 41.0 L13.8 42.0 13.75 41.75 13.8 41.55 14.0 41.05 Q14.25 40.75 14.6 40.75 14.95 40.75 15.2 41.05 L15.45 41.75 15.2 42.45 14.65 42.75 14.6 42.75 14.45 42.75 17.5 45.75 16.45 47.75 15.8 47.7 15.45 47.95 15.5 48.85 15.85 49.1 16.65 48.95 17.8 51.4 16.05 50.85 Q12.6 49.6 9.65 47.8 6.95 46.2 4.7 44.0 L6.55 43.9 5.8 43.5 4.35 38.55 6.45 32.6 Q7.5 32.1 8.0 31.0 L8.3 30.1 9.0 30.4 9.05 30.45 9.6 30.65 9.5 30.75 Q9.2 31.0 9.2 31.35 L9.5 32.0 10.1 32.25 10.75 32.0 11.0 31.35 10.75 30.75 Q10.55 30.55 10.35 30.5 L10.4 30.3 10.55 28.95 10.55 28.7 10.4 28.5 8.3 26.7 8.1 26.6 8.0 26.6 7.95 26.55 7.9 26.6 7.85 26.6 7.4 26.75 6.7 26.85 6.6 26.9 6.45 26.95 Q9.3 21.85 13.5 17.8 L14.6 18.3 15.8 17.7 16.05 16.85 15.75 16.1 Q18.1 13.5 20.95 11.7 L22.6 10.75 23.4 11.65 24.4 11.2 24.5 10.3 37.55 4.0 37.15 2.7 37.1 2.7 42.55 1.65 47.65 1.15 52.95 1.0 60.9 1.4 68.3 2.55 73.0 3.6 Q77.5 4.95 81.8 6.85 85.95 8.75 89.8 11.4 93.3 13.95 96.35 16.9 99.85 20.25 102.0 24.4 104.15 28.45 104.65 32.7 L105.0 36.2 Q105.15 38.0 104.3 39.75 102.15 44.4 97.75 47.0 93.95 49.3 89.9 50.85 L81.85 53.35 73.0 55.15 63.45 56.6 58.35 56.9 52.95 56.9 47.65 56.9 42.55 56.6 37.25 55.85 37.45 55.05 37.05 54.05 40.1 54.25 41.4 54.35 48.65 54.65 50.65 54.7 50.35 55.9 51.1 56.45 51.75 56.0 51.9 54.7 54.45 54.7 62.1 54.4 61.5 55.5 62.4 54.9 63.2 54.4 Q68.85 54.15 74.25 52.85 L73.85 53.4 73.3 54.1 74.45 52.8 80.25 51.1 79.5 53.0 80.35 53.35 81.3 50.8 81.25 50.7 83.4 49.85 85.3 49.05 88.45 47.6 88.65 48.25 87.0 50.55 87.05 51.5 87.9 51.25 Q89.35 49.15 89.55 47.0 93.0 45.15 95.05 42.9 93.9 45.15 95.45 46.8 L95.7 46.25 Q96.15 44.45 95.6 42.65 L95.15 42.8 95.1 42.8 93.8 42.25 93.5 41.7 93.7 40.7 94.25 40.2 95.1 39.95 95.35 40.05 95.5 40.1 95.6 40.1 96.0 40.25 96.4 41.1 97.4 39.25 100.45 37.6 100.65 37.4 100.7 37.15 100.65 36.9 100.3 36.4 101.15 36.4 100.65 38.4 100.65 40.05 Q100.6 41.35 99.65 42.2 L98.85 41.9 98.05 42.2 97.6 43.15 98.25 44.2 97.4 44.95 97.35 45.7 97.8 46.15 Q103.45 42.5 102.4 35.85 L102.05 33.7 102.6 33.95 103.35 33.6 103.65 33.05 103.1 31.95 102.6 31.8 102.1 31.95 101.7 32.4 101.0 29.55 100.4 29.55 99.85 29.0 99.55 29.75 100.75 34.3 99.7 34.65 99.5 35.45 99.7 35.8 99.6 35.75 99.4 35.8 98.1 36.4 98.2 34.5 Q98.25 32.35 97.6 30.05 L98.3 29.05 98.4 28.7 98.25 28.4 97.45 27.7 Q97.3 27.55 97.1 27.55 96.9 27.55 96.75 27.7 L96.05 26.2 M82.65 23.1 L82.9 22.95 83.05 22.8 83.1 22.6 83.2 22.1 83.3 22.05 83.85 21.9 Q84.35 21.9 84.7 22.25 85.05 22.6 85.05 23.1 L84.8 23.85 84.8 23.9 84.7 23.95 83.85 24.3 Q83.35 24.3 83.0 23.95 82.65 23.6 82.65 23.1 M89.35 32.8 L89.4 32.8 89.65 32.75 Q90.25 32.75 90.65 33.15 91.05 33.55 91.05 34.1 91.05 34.65 90.65 35.05 90.25 35.45 89.65 35.45 L89.6 35.45 89.5 35.45 Q89.0 35.4 88.65 35.05 88.25 34.65 88.25 34.1 88.25 33.55 88.65 33.15 88.95 32.85 89.35 32.8 M86.25 41.0 L86.35 41.55 86.35 41.75 86.0 42.5 85.1 42.85 84.95 42.85 Q84.55 42.8 84.25 42.5 L84.2 42.45 Q83.85 42.05 83.85 41.55 83.85 41.0 84.25 40.65 84.6 40.25 85.1 40.25 85.6 40.25 86.0 40.65 L86.25 41.0 M64.3 49.55 L64.35 49.6 65.0 50.5 64.75 51.45 64.35 51.8 63.5 52.0 Q62.7 51.95 62.2 51.55 61.7 51.1 61.75 50.55 61.8 50.15 62.15 49.85 L62.4 49.65 Q62.95 49.25 63.7 49.3 L64.2 49.45 64.3 49.55 M94.1 30.1 L94.0 30.25 Q93.6 30.6 93.1 30.6 92.6 30.6 92.25 30.25 L91.85 29.35 Q91.85 28.85 92.25 28.5 92.6 28.1 93.1 28.1 L94.0 28.5 Q94.35 28.85 94.35 29.35 L94.2 29.95 94.1 30.1 M73.75 5.8 Q73.75 6.25 74.1 6.6 74.4 6.9 74.9 6.9 L75.75 6.6 76.05 5.8 75.75 5.05 Q75.4 4.7 74.9 4.7 74.4 4.7 74.1 5.05 73.75 5.35 73.75 5.8 M71.25 9.8 Q71.75 9.8 72.1 10.15 72.45 10.5 72.45 11.0 L72.1 11.85 71.25 12.2 Q70.75 12.2 70.4 11.85 70.05 11.5 70.05 11.0 70.05 10.5 70.4 10.15 70.75 9.8 71.25 9.8 M69.55 4.7 Q55.95 -0.9 41.85 4.0 L56.25 2.9 56.55 4.0 57.85 4.55 58.75 4.25 59.2 3.5 68.1 4.5 68.4 4.85 69.55 4.7 M61.0 6.25 L61.1 6.1 Q61.4 5.75 61.85 5.75 62.3 5.75 62.6 6.1 62.9 6.4 62.9 6.85 L62.6 7.65 Q62.3 7.95 61.85 7.95 61.4 7.95 61.1 7.65 60.8 7.3 60.8 6.85 60.8 6.55 60.95 6.3 L61.0 6.25 M53.25 10.25 L52.6 10.45 52.1 10.3 52.0 10.25 51.9 10.15 51.75 9.95 51.9 9.9 52.1 9.75 52.45 9.15 52.5 8.9 52.45 8.65 52.35 8.4 52.6 8.35 Q53.0 8.35 53.3 8.65 L53.6 9.4 53.3 10.15 53.3 10.2 53.25 10.25 M48.85 5.65 L48.8 5.7 47.8 6.45 47.65 6.7 47.65 7.0 47.8 7.55 47.4 7.3 Q47.05 6.95 47.05 6.5 47.05 6.05 47.4 5.75 L47.6 5.6 48.15 5.4 48.45 5.45 48.85 5.65 M77.05 48.95 L77.5 48.35 77.55 47.4 78.1 47.2 78.6 47.3 79.25 48.45 78.7 49.35 78.1 49.55 77.05 48.95 M35.3 3.15 L35.1 3.45 35.8 4.75 Q26.0 6.85 18.15 13.15 L15.1 15.6 14.6 15.45 13.35 16.1 13.2 17.25 Q7.35 23.0 3.6 30.25 L3.75 31.45 4.45 31.7 5.8 30.5 5.0 29.65 6.2 27.35 6.25 27.55 7.0 28.9 6.85 29.05 6.9 31.3 5.65 32.0 Q2.85 36.85 4.1 42.15 L4.65 43.95 3.35 42.6 Q1.5 40.55 1.1 37.8 0.75 35.15 1.15 32.7 1.8 28.25 3.95 24.35 6.25 20.15 9.6 16.85 12.5 13.95 16.15 11.4 18.1 10.2 20.15 9.2 24.25 7.05 28.5 5.2 30.7 4.35 33.0 3.75 L35.3 3.15 M34.5 11.35 Q34.5 10.85 34.9 10.5 35.25 10.1 35.75 10.1 36.25 10.1 36.65 10.5 37.0 10.85 37.0 11.35 L36.65 12.25 35.75 12.6 Q35.25 12.6 34.9 12.25 34.5 11.85 34.5 11.35 M29.5 16.2 L30.45 16.0 30.7 15.9 30.85 15.65 30.9 15.45 31.45 15.75 31.7 16.1 31.8 16.35 31.8 16.6 31.45 17.45 Q31.1 17.8 30.6 17.8 30.15 17.8 29.8 17.5 L29.75 17.45 29.6 17.3 29.4 16.6 29.5 16.2 M16.75 34.95 L16.85 34.85 Q17.15 34.5 17.6 34.5 18.05 34.5 18.35 34.85 L18.65 35.6 18.35 36.4 17.6 36.7 Q17.15 36.7 16.85 36.4 L16.7 36.2 16.55 35.6 16.75 34.95 M16.45 29.9 Q16.1 30.2 15.6 30.2 L14.8 29.9 Q14.45 29.55 14.45 29.1 14.45 28.65 14.8 28.35 15.1 28.0 15.6 28.0 16.1 28.0 16.45 28.35 L16.75 29.1 16.45 29.9 M6.85 36.65 L7.55 36.35 7.85 35.65 7.55 34.95 Q7.25 34.65 6.85 34.65 6.45 34.65 6.15 34.95 5.85 35.25 5.85 35.65 5.85 36.05 6.15 36.35 6.45 36.65 6.85 36.65 M18.05 46.2 L20.5 48.05 20.35 48.6 Q20.35 49.1 20.7 49.45 L21.5 49.75 22.35 49.45 22.45 49.3 Q24.4 50.45 26.55 51.35 L31.05 52.95 Q30.95 53.85 31.25 54.9 L26.1 53.85 26.6 53.55 26.9 52.8 Q26.9 52.35 26.6 52.05 26.3 51.75 25.85 51.75 25.4 51.75 25.1 52.05 24.8 52.35 24.8 52.8 24.8 53.25 25.1 53.55 L25.15 53.6 24.2 53.35 18.55 51.65 18.95 51.3 17.35 47.75 Q17.95 47.0 18.05 46.2 M32.65 53.35 L35.3 53.85 35.3 54.25 36.25 55.7 33.0 55.15 32.85 55.15 32.65 53.35 M23.5 25.0 Q23.85 25.35 23.85 25.85 L23.5 26.75 Q23.1 27.1 22.6 27.1 22.1 27.1 21.75 26.75 21.35 26.35 21.35 25.85 21.35 25.35 21.75 25.0 22.1 24.6 22.6 24.6 23.1 24.6 23.5 25.0" fill="#cd8b35" fill-rule="evenodd" stroke="none"/>
    <path d="M94.05 22.95 L94.25 22.9 94.35 22.85 94.55 22.9 97.15 23.95 97.35 23.7 97.95 23.6 94.85 19.3 94.65 17.8 92.95 16.65 Q90.35 13.55 86.35 12.5 L85.85 12.7 83.65 11.3 84.95 11.1 85.85 10.55 86.35 10.7 86.9 11.65 93.0 15.1 Q93.5 16.6 94.85 17.2 95.85 17.6 96.5 18.2 L96.15 19.6 100.65 25.95 99.65 25.15 97.85 25.7 97.35 25.35 97.3 25.5 97.05 25.7 96.15 26.15 96.05 26.2 95.95 26.2 95.75 26.15 95.7 26.15 93.3 24.7 93.1 24.45 93.05 24.2 Q93.05 24.05 93.2 23.95 L94.0 23.05 94.05 22.95 M96.75 27.7 Q96.9 27.55 97.1 27.55 97.3 27.55 97.45 27.7 L98.25 28.4 98.4 28.7 98.3 29.05 97.6 30.05 96.25 32.05 96.1 32.2 95.85 32.25 94.95 32.3 94.65 32.2 94.5 31.95 94.1 30.45 94.1 30.15 94.1 30.1 94.2 29.95 96.75 27.7 M98.1 36.4 L99.4 35.8 99.6 35.75 99.7 35.8 99.5 35.45 99.7 34.65 100.75 34.3 99.55 29.75 99.85 29.0 100.4 29.55 101.0 29.55 101.7 32.4 102.1 31.95 102.6 31.8 103.1 31.95 103.65 33.05 103.35 33.6 102.6 33.95 102.05 33.7 102.4 35.85 Q103.45 42.5 97.8 46.15 L97.35 45.7 97.4 44.95 98.25 44.2 97.6 43.15 98.05 42.2 98.85 41.9 99.65 42.2 Q100.6 41.35 100.65 40.05 L100.65 38.4 101.15 36.4 100.3 36.4 100.65 36.9 100.7 37.15 100.65 37.4 100.45 37.6 97.4 39.25 95.85 40.05 95.6 40.1 95.5 40.1 95.35 40.05 95.1 39.95 94.25 40.2 93.9 38.95 95.1 39.75 94.6 39.0 94.5 38.75 94.55 38.5 94.75 38.1 Q94.8 37.9 95.0 37.85 L98.1 36.4 M95.1 42.8 L95.15 42.8 95.6 42.65 Q96.15 44.45 95.7 46.25 L95.45 46.8 Q93.9 45.15 95.05 42.9 L95.1 42.8 M89.55 47.0 Q89.35 49.15 87.9 51.25 L87.05 51.5 87.0 50.55 88.65 48.25 88.45 47.6 88.45 47.55 88.45 47.4 Q88.1 45.15 88.1 42.8 L87.7 41.85 88.55 42.3 88.85 42.95 88.95 42.8 89.65 41.75 89.95 41.5 90.35 41.6 93.1 43.35 93.3 43.65 93.25 43.95 93.25 44.05 92.75 44.85 92.55 45.0 91.8 45.4 91.45 45.45 91.4 45.45 91.0 45.35 Q89.75 45.1 89.25 44.05 89.65 45.4 89.6 46.7 L89.55 47.0 M81.25 50.7 L81.3 50.8 80.35 53.35 79.5 53.0 80.25 51.1 80.25 51.0 80.75 49.7 81.25 50.7 M74.45 52.8 L73.3 54.1 73.85 53.4 74.25 52.85 74.35 52.7 Q75.5 50.75 75.2 48.45 L76.05 49.15 Q75.7 51.05 74.6 52.65 L74.45 52.8 M63.2 54.4 L62.4 54.9 61.5 55.5 62.1 54.4 63.5 52.0 64.35 51.8 Q64.35 53.35 63.25 54.35 L63.2 54.4 M51.9 54.7 L51.75 56.0 51.1 56.45 50.35 55.9 50.65 54.7 51.3 50.25 51.3 50.2 51.35 48.65 Q51.4 46.45 51.1 44.25 L51.45 43.3 52.65 45.9 52.4 48.65 52.3 50.2 52.3 50.3 51.9 54.7 M37.05 54.05 L37.45 55.05 37.25 55.85 37.2 55.9 36.4 55.95 36.25 55.7 35.3 54.25 35.3 53.85 35.3 52.95 35.7 52.4 35.9 48.75 35.95 47.9 36.35 48.7 36.4 48.8 36.45 48.95 Q37.15 50.7 36.95 52.5 L36.65 53.2 37.05 54.05 M37.1 2.7 L37.15 2.7 37.55 4.0 24.5 10.3 24.4 11.2 23.4 11.65 22.6 10.75 20.95 11.7 Q18.1 13.5 15.75 16.1 L16.05 16.85 15.8 17.7 14.6 18.3 13.5 17.8 Q9.3 21.85 6.45 26.95 L6.6 26.9 6.7 26.85 Q7.45 28.75 9.2 29.45 L9.9 29.7 10.05 28.35 8.0 26.6 8.1 26.6 8.3 26.7 10.4 28.5 10.55 28.7 10.55 28.95 10.4 30.3 10.35 30.5 Q10.55 30.55 10.75 30.75 L11.0 31.35 10.75 32.0 10.1 32.25 9.5 32.0 9.2 31.35 Q9.2 31.0 9.5 30.75 L9.6 30.65 9.05 30.45 9.0 30.4 8.3 30.1 8.0 31.0 Q7.5 32.1 6.45 32.6 L4.35 38.55 5.8 43.5 6.55 43.9 4.7 44.0 4.65 44.0 4.65 43.95 4.1 42.15 Q2.85 36.85 5.65 32.0 L6.9 31.3 6.85 29.05 7.0 28.9 6.25 27.55 6.2 27.35 5.0 29.65 5.8 30.5 4.45 31.7 3.75 31.45 3.6 30.25 Q7.35 23.0 13.2 17.25 L13.35 16.1 14.6 15.45 15.1 15.6 18.15 13.15 Q26.0 6.85 35.8 4.75 L35.1 3.45 35.3 3.15 35.55 2.7 36.35 2.35 37.1 2.7 M7.4 26.75 L7.85 26.6 7.9 26.6 7.4 26.75 M17.8 51.4 L16.65 48.95 15.85 49.1 15.5 48.85 15.45 47.95 15.8 47.7 16.45 47.75 17.5 45.75 17.55 45.7 17.65 45.45 17.05 44.65 17.55 42.25 17.9 41.75 17.7 43.45 18.05 42.9 18.7 42.1 18.8 42.0 Q19.35 41.45 20.2 41.35 19.45 41.5 18.9 42.1 L18.8 42.2 18.45 42.65 18.1 43.3 18.35 44.05 19.1 44.4 20.2 43.8 20.35 43.65 Q21.05 43.0 21.35 42.0 L20.8 41.25 21.05 41.3 21.2 41.45 21.75 42.2 21.85 42.45 21.85 42.65 21.0 44.2 20.8 44.4 19.3 45.4 19.1 45.4 18.9 45.35 18.15 45.0 17.9 44.75 17.8 44.5 18.0 45.55 18.05 46.1 18.05 46.2 Q17.95 47.0 17.35 47.75 L18.95 51.3 18.55 51.65 18.35 51.8 17.9 51.7 17.8 51.4 M13.1 41.0 Q12.85 43.95 13.6 46.6 L12.85 47.2 12.45 47.05 Q11.55 44.55 12.0 42.25 L10.7 44.2 10.5 44.3 10.3 44.35 9.85 44.4 9.6 44.35 9.0 44.0 8.75 43.65 8.7 43.15 8.75 42.85 10.4 39.6 10.65 39.35 11.4 39.05 11.6 39.0 11.7 39.0 11.95 39.15 12.15 39.3 12.55 39.65 12.7 39.85 12.7 40.1 12.7 40.15 12.8 39.95 13.35 38.95 13.1 40.5 13.1 40.55 13.1 41.0 M11.2 35.85 Q10.2 35.35 9.55 34.3 L9.45 34.0 9.45 33.3 9.5 33.1 9.7 32.9 10.35 32.5 10.6 32.4 9.95 32.8 9.95 33.5 11.1 34.7 11.45 34.9 12.75 35.25 13.9 35.15 14.15 34.25 Q13.25 32.85 11.5 32.5 13.5 32.85 14.6 34.5 L14.65 34.7 14.65 34.9 14.4 35.8 14.2 36.05 13.95 36.15 12.8 36.25 12.7 36.25 11.55 36.0 11.2 35.85 M13.25 25.5 L12.1 24.2 11.8 24.85 Q11.5 25.15 11.1 25.15 L10.4 24.85 Q10.1 24.55 10.1 24.1 10.1 23.65 10.4 23.35 10.7 23.05 11.1 23.05 L11.15 23.05 11.2 22.75 11.65 21.9 11.95 21.65 12.1 21.6 12.3 21.65 14.2 22.5 14.45 22.7 14.7 23.05 15.4 24.1 15.45 24.35 15.4 24.65 14.85 25.55 14.6 25.7 14.35 25.75 13.6 25.7 13.3 25.55 13.25 25.5 M17.65 19.5 Q16.7 19.3 16.2 18.3 L16.1 18.05 16.15 16.75 16.25 16.5 16.4 16.35 16.95 16.05 17.3 15.95 17.8 16.05 18.1 16.25 19.55 17.85 19.7 18.05 19.8 18.25 19.8 18.5 19.55 19.4 19.35 19.65 19.05 19.75 18.15 19.65 17.9 19.55 17.65 19.5 M26.25 12.85 L26.25 12.6 26.35 12.3 Q26.45 12.15 26.65 12.15 L26.75 12.15 26.8 12.5 26.8 12.65 Q27.0 14.8 29.3 15.2 L30.35 15.0 30.6 14.05 27.75 12.1 27.65 12.0 27.45 11.9 27.55 11.9 27.7 11.95 27.75 12.0 27.85 12.05 30.9 14.15 31.1 14.4 31.1 14.7 30.9 15.45 30.85 15.65 30.7 15.9 30.45 16.0 29.5 16.2 29.4 16.2 29.25 16.2 Q26.45 15.7 26.25 12.95 L26.25 12.85 M30.45 10.5 L30.3 10.2 30.25 9.95 30.1 9.95 Q29.65 9.95 29.35 9.65 29.05 9.3 29.05 8.85 29.05 8.4 29.35 8.1 29.65 7.75 30.1 7.75 30.55 7.75 30.85 8.1 L31.15 8.8 32.25 7.65 32.4 7.5 32.6 7.45 30.75 9.45 31.4 10.75 Q32.2 10.8 32.75 10.1 L33.05 9.7 33.3 9.2 Q33.55 8.4 33.35 7.45 33.55 7.45 33.7 7.6 L33.85 7.85 33.95 8.9 33.9 9.35 Q33.7 10.2 33.15 10.9 L33.15 10.95 Q32.4 11.8 31.4 11.75 L31.15 11.7 30.95 11.5 30.45 10.5 M40.95 6.6 L41.15 6.15 41.2 6.1 41.2 6.05 Q41.55 5.25 42.15 5.3 42.8 5.25 43.2 6.05 L43.2 6.1 43.35 6.4 43.45 7.45 43.25 8.85 43.2 8.9 Q42.75 9.65 42.15 9.6 41.5 9.65 41.15 8.85 L41.15 8.9 Q40.85 8.3 40.85 7.45 L40.9 7.05 40.95 6.6 M44.85 5.75 L44.75 5.35 Q44.75 4.85 45.15 4.5 45.5 4.1 46.0 4.1 46.5 4.1 46.9 4.5 47.25 4.85 47.25 5.35 L47.25 5.65 46.9 6.25 46.0 6.6 Q45.5 6.6 45.15 6.25 L45.0 6.05 44.85 5.75 M59.05 4.8 L59.1 4.8 59.35 4.7 59.65 4.8 59.7 4.85 59.75 4.85 60.8 5.65 61.0 6.0 61.0 6.25 60.95 6.3 60.9 6.35 59.5 8.0 59.5 7.95 57.85 9.25 57.55 9.3 57.25 9.15 56.35 8.3 56.2 8.0 Q56.2 7.8 56.35 7.65 L58.3 5.35 58.35 5.25 59.05 4.85 59.05 4.8 M88.15 16.1 L88.65 15.85 88.85 15.8 88.9 15.8 89.15 15.9 90.0 16.4 90.15 16.6 90.2 16.85 90.05 17.95 89.95 18.5 89.65 19.35 89.6 19.35 88.8 20.45 88.6 20.65 88.4 20.8 88.15 20.85 87.4 20.8 87.15 20.7 87.0 20.55 86.55 19.6 86.5 19.35 86.55 19.15 87.95 16.3 88.15 16.1 M88.85 15.8 L88.4 16.0 88.35 16.15 87.0 18.85 87.45 19.8 88.2 19.85 89.2 18.55 89.45 17.9 89.55 17.45 89.55 17.35 89.7 16.3 88.85 15.8 M84.2 14.15 L84.35 14.45 Q84.5 15.75 83.2 16.7 L83.2 16.75 81.5 17.55 81.3 17.55 81.05 17.45 80.35 16.95 80.2 16.7 80.2 16.4 80.5 15.5 Q81.15 13.7 82.7 13.15 L82.95 13.1 83.2 13.25 84.2 14.15 M82.9 15.8 Q83.95 15.05 83.85 14.0 L82.85 13.1 Q81.55 13.6 80.95 15.15 L80.65 16.05 81.35 16.55 Q82.05 16.35 82.9 15.8 M79.85 19.25 L79.0 20.0 Q79.6 21.45 81.05 22.15 L81.85 22.5 82.6 22.0 82.7 21.45 82.7 21.4 Q82.05 20.0 80.7 19.45 L80.8 19.45 80.9 19.5 Q82.4 20.1 83.15 21.7 L83.2 22.0 83.2 22.1 83.1 22.6 83.05 22.8 82.9 22.95 82.65 23.1 82.15 23.45 81.9 23.5 81.65 23.45 80.9 23.15 80.85 23.1 Q79.2 22.3 78.55 20.7 L78.5 20.4 78.65 20.15 79.5 19.4 79.75 19.3 79.85 19.25 M87.15 27.55 L87.5 25.65 87.6 25.45 88.35 24.55 88.55 24.4 88.6 24.4 88.75 24.35 88.8 24.35 89.85 24.5 90.15 24.65 90.3 24.9 90.5 26.0 90.5 26.05 Q90.7 27.9 89.4 29.25 L89.15 29.4 88.7 29.55 88.4 29.5 88.1 29.35 87.3 29.0 87.05 28.8 87.0 28.45 87.15 27.55 M83.35 43.0 L82.6 46.75 82.5 47.0 82.3 47.15 81.55 47.45 81.2 47.45 80.45 47.15 80.25 47.0 80.15 46.85 80.0 46.35 79.95 46.25 79.9 45.55 79.95 44.95 Q80.0 43.7 80.55 42.5 L80.75 42.3 81.6 41.8 81.85 41.7 82.1 41.75 83.15 42.25 83.35 42.5 83.4 42.8 83.35 43.0 M76.05 46.65 L75.55 46.8 75.15 47.35 75.1 47.1 74.45 43.35 74.4 43.15 74.0 42.95 73.8 42.75 73.75 42.5 74.0 41.15 73.9 40.6 74.15 40.8 Q74.7 39.45 76.1 38.5 L76.25 38.4 76.35 38.4 Q74.4 39.75 74.25 42.0 L75.1 42.45 Q76.3 42.2 76.85 41.35 77.5 40.35 77.35 39.25 L76.8 38.5 76.95 38.55 77.2 38.7 77.75 39.45 77.85 39.7 77.7 41.35 77.3 42.15 75.75 43.3 Q76.35 44.95 76.05 46.65 M71.35 48.25 L71.3 48.3 71.3 48.35 71.1 48.5 70.8 48.55 70.1 48.5 69.65 48.45 69.4 48.35 67.55 46.8 67.35 46.5 67.35 46.45 67.4 46.2 67.7 45.6 67.85 45.4 68.05 45.3 69.5 45.0 69.6 45.0 69.8 45.05 70.4 45.3 71.0 45.55 71.25 45.8 71.75 46.95 71.8 47.2 71.75 47.4 71.35 48.25 M88.75 24.35 L88.0 25.25 87.5 28.05 88.6 28.55 89.05 28.4 Q90.2 27.2 90.0 25.6 L89.8 24.5 88.75 24.35 M93.0 22.0 L93.25 22.65 93.0 23.35 92.35 23.6 91.75 23.35 Q91.45 23.05 91.45 22.65 91.45 22.25 91.75 22.0 92.0 21.7 92.35 21.7 92.7 21.7 93.0 22.0 M94.35 22.85 L93.55 23.75 95.95 25.2 96.85 24.75 97.2 24.0 94.35 22.85 M97.1 27.55 L94.55 29.8 94.95 31.3 95.85 31.25 97.9 28.25 97.1 27.55 M99.6 35.75 L95.2 37.8 95.0 38.2 95.6 39.1 100.2 36.65 99.6 35.75 M79.25 29.7 Q79.95 28.9 81.0 28.55 L81.25 28.5 81.5 28.65 82.35 29.5 82.5 29.75 82.45 30.05 Q81.55 31.95 79.85 32.9 L79.65 32.95 79.45 32.95 79.0 32.8 78.7 32.5 78.3 31.6 78.25 31.4 78.3 31.2 78.4 31.0 78.95 30.1 78.95 30.05 79.25 29.7 M81.15 28.5 Q80.05 28.9 79.35 29.85 L78.75 30.9 79.15 31.8 79.6 31.95 Q81.2 31.1 82.0 29.35 L81.15 28.5 M83.1 35.2 L82.35 35.65 82.2 36.75 86.0 38.25 87.0 37.25 85.8 36.15 85.0 35.6 83.25 35.25 83.1 35.2 83.2 35.2 83.25 35.2 85.1 35.6 85.25 35.65 86.15 36.3 87.35 37.4 87.5 37.75 87.35 38.1 86.35 39.1 86.1 39.25 85.85 39.25 82.05 37.75 81.85 37.6 81.8 37.5 81.7 37.2 81.85 36.1 81.95 35.9 82.05 35.75 82.8 35.3 83.0 35.2 83.1 35.2 M89.35 42.55 L89.65 43.25 Q90.05 44.15 91.1 44.35 L91.55 44.45 92.3 44.05 92.8 43.25 90.05 41.5 89.35 42.55 M81.85 41.7 L81.0 42.2 Q80.45 43.4 80.4 44.7 L80.45 45.35 80.45 45.7 80.6 46.15 81.35 46.45 82.1 46.15 82.9 42.2 81.85 41.7 M73.75 5.8 Q73.75 5.35 74.1 5.05 74.4 4.7 74.9 4.7 75.4 4.7 75.75 5.05 L76.05 5.8 75.75 6.6 74.9 6.9 Q74.4 6.9 74.1 6.6 73.75 6.25 73.75 5.8 M73.6 11.55 L73.65 11.55 73.9 11.65 77.8 14.5 78.0 14.8 77.95 15.1 77.75 15.35 76.85 15.9 76.6 15.95 76.4 15.9 72.8 14.15 72.55 13.85 72.35 13.25 72.35 12.9 72.75 12.05 73.0 11.8 73.4 11.6 73.6 11.55 73.2 11.75 72.8 12.6 73.0 13.2 76.6 14.95 77.5 14.4 73.6 11.55 M69.55 4.7 L68.4 4.85 68.1 4.5 59.2 3.5 58.75 4.25 57.85 4.55 56.55 4.0 56.25 2.9 41.85 4.0 Q55.95 -0.9 69.55 4.7 M65.8 11.75 L65.8 12.0 65.5 13.3 65.45 13.35 Q65.0 13.95 64.35 13.95 63.7 13.95 63.3 13.35 62.9 12.75 62.9 12.0 L63.1 11.1 63.1 11.05 63.3 10.7 Q63.7 10.0 64.35 10.05 65.0 10.0 65.5 10.75 L65.8 11.75 M64.35 10.05 Q63.95 10.05 63.7 10.5 63.5 10.75 63.45 11.15 L63.45 11.2 63.4 11.5 Q63.4 12.1 63.7 12.55 63.95 12.95 64.35 12.95 L65.05 12.55 65.3 11.65 65.3 11.6 65.3 11.5 65.05 10.5 Q64.75 10.05 64.35 10.05 M43.85 14.05 Q45.0 12.35 46.9 11.35 L47.1 11.3 47.15 11.3 47.4 11.4 48.15 11.9 48.3 12.1 48.35 12.35 48.1 13.45 47.05 14.85 Q46.0 15.75 44.65 15.85 L44.3 15.75 43.6 15.2 43.4 14.9 43.5 14.55 43.85 14.05 M50.6 13.3 L50.9 12.4 51.0 12.25 51.15 12.1 51.9 11.8 52.1 11.75 52.2 11.75 52.7 11.9 52.95 12.05 53.1 12.25 53.4 13.3 53.5 13.95 Q53.65 14.7 53.25 15.35 L52.7 16.2 52.35 16.35 51.2 16.45 50.95 16.4 50.75 16.2 50.15 15.25 50.05 15.05 50.1 14.85 50.6 13.3 M58.15 13.75 L58.75 13.15 58.95 13.05 59.1 13.0 57.15 14.95 57.5 16.05 58.4 16.3 60.05 14.25 59.55 13.1 59.7 13.15 59.9 13.25 60.0 13.4 60.35 14.15 60.5 14.55 60.55 14.85 60.45 15.1 58.9 17.0 58.8 17.15 Q58.65 17.25 58.55 17.3 L58.25 17.3 57.35 17.05 57.15 16.9 57.05 16.75 56.7 15.75 56.7 15.65 Q56.6 15.5 56.65 15.35 L56.8 15.1 58.15 13.75 M66.8 16.15 Q67.35 15.25 68.45 14.9 L68.6 14.85 Q67.55 15.25 67.1 16.25 66.85 16.7 66.75 17.3 L67.4 17.8 68.85 17.0 69.35 16.35 69.6 15.75 69.05 15.0 69.2 15.05 Q69.35 15.05 69.45 15.2 L70.0 15.95 70.1 16.2 70.1 16.4 69.8 17.1 69.8 17.15 69.6 17.4 Q68.8 18.4 67.55 18.8 L67.35 18.8 67.1 18.7 66.45 18.2 66.3 18.0 66.25 17.75 Q66.4 16.8 66.8 16.15 M67.35 6.5 L67.55 6.55 68.3 6.95 Q69.9 7.9 69.75 9.8 L69.65 10.05 69.45 10.2 68.8 10.55 68.55 10.6 67.9 10.5 67.75 10.45 Q66.1 9.7 65.85 7.7 L65.9 7.45 66.1 7.25 67.1 6.6 67.3 6.5 67.35 6.5 66.35 7.15 Q66.55 8.85 67.95 9.5 L68.6 9.6 69.25 9.25 Q69.4 7.65 68.05 6.85 L67.35 6.5 M65.85 21.6 L67.75 22.2 Q69.6 23.2 69.4 25.1 L69.25 25.4 69.0 25.55 Q65.45 26.05 63.95 22.7 L63.9 22.45 64.0 22.2 64.4 21.7 64.6 21.55 64.8 21.5 64.4 22.0 Q65.75 25.0 68.9 24.55 69.05 23.0 67.5 22.15 L65.85 21.6 M74.8 20.8 L75.05 20.9 75.25 21.1 76.45 23.55 76.5 23.9 76.3 24.15 75.2 24.95 74.95 25.05 74.65 25.0 Q72.85 23.85 72.65 21.85 L72.75 21.5 73.15 21.05 73.35 20.9 73.5 20.85 73.55 20.85 73.15 21.3 Q73.35 23.05 74.9 24.05 L76.0 23.25 74.8 20.8 M49.1 5.6 L48.1 6.35 48.35 7.3 50.6 9.0 51.65 8.95 52.0 8.35 Q51.05 6.5 49.1 5.6 L49.3 5.65 Q51.3 6.55 52.35 8.4 L52.45 8.65 52.5 8.9 52.45 9.15 52.1 9.75 51.9 9.9 51.75 9.95 51.65 9.95 50.6 10.0 50.3 9.9 48.05 8.2 47.9 7.95 47.8 7.55 47.65 7.0 47.65 6.7 47.8 6.45 48.8 5.7 48.85 5.65 49.05 5.6 49.1 5.6 M59.35 4.7 L58.65 5.15 56.7 7.45 57.6 8.3 59.15 7.1 60.5 5.55 59.35 4.7 M52.1 11.75 L51.35 12.05 50.55 14.5 51.15 15.45 52.3 15.35 52.8 14.6 Q53.1 14.1 53.0 13.55 L53.0 13.3 52.6 11.9 52.1 11.75 M42.15 5.3 Q41.8 5.3 41.6 5.8 L41.4 6.5 41.35 6.9 41.35 6.95 Q41.35 7.65 41.6 8.15 41.8 8.6 42.15 8.6 L42.75 8.15 42.95 6.95 42.95 6.5 42.85 6.15 42.75 5.8 Q42.5 5.3 42.15 5.3 M47.1 11.3 Q45.25 12.3 44.1 14.0 L43.9 14.3 44.6 14.85 Q45.8 14.75 46.7 13.95 L47.15 13.55 Q47.75 12.8 47.85 11.8 L47.1 11.3 M40.75 15.5 L40.7 15.65 40.6 15.9 40.4 16.05 39.9 16.25 39.5 16.2 38.8 15.85 38.75 15.8 38.5 15.55 Q37.6 14.75 37.35 13.65 L37.3 13.45 Q37.1 12.6 37.25 11.65 L37.35 11.45 37.5 11.3 38.35 10.85 38.55 10.75 38.6 10.75 37.75 11.2 Q37.6 12.3 37.9 13.25 L37.95 13.4 Q38.3 14.25 39.05 14.9 L39.55 15.2 39.7 15.25 40.2 15.05 40.25 14.95 Q40.45 13.7 40.1 12.65 L40.05 12.5 39.05 10.85 39.2 10.9 Q39.3 10.9 39.45 11.05 L40.35 12.4 40.4 12.55 Q40.85 13.6 40.8 14.8 L40.75 15.5 M32.1 20.1 L32.1 19.85 32.3 19.55 35.1 17.65 35.35 17.55 35.65 17.65 36.4 18.15 36.6 18.4 36.6 18.7 36.3 19.95 36.2 20.15 36.0 20.3 33.2 21.4 32.85 21.4 32.55 21.15 32.5 21.05 32.1 20.2 32.1 20.1 M22.95 27.9 L23.45 28.15 23.7 28.45 23.95 28.95 23.95 29.15 23.9 29.4 22.25 32.05 22.0 32.2 21.3 32.5 21.05 32.55 20.95 32.55 20.8 32.45 19.7 31.7 19.55 31.5 19.5 31.25 19.65 31.0 22.25 27.95 22.5 27.75 22.85 27.8 22.95 27.9 M25.6 42.5 Q25.95 42.0 26.45 42.05 27.15 41.95 27.6 43.05 L27.85 43.8 27.95 44.85 Q27.95 45.9 27.6 46.7 L27.45 47.0 26.95 47.55 26.45 47.65 Q25.85 47.7 25.45 46.95 L25.3 46.7 25.2 46.35 Q24.95 45.7 24.95 44.85 24.95 43.8 25.3 43.05 L25.6 42.5 M32.1 45.3 L32.45 44.95 32.7 44.8 33.25 44.7 33.35 44.7 33.55 44.75 34.25 45.05 34.45 45.2 34.55 45.4 34.7 46.1 35.3 48.7 35.3 48.8 35.3 49.1 35.1 49.3 34.4 49.8 34.1 49.9 33.85 49.8 Q33.05 49.25 32.55 48.5 L32.35 48.2 Q31.8 47.1 31.85 45.7 L32.0 45.35 32.1 45.3 M45.2 48.15 L45.2 47.95 46.0 43.65 46.1 43.45 46.3 43.3 46.7 43.15 46.9 43.05 47.1 43.0 46.5 43.25 45.7 47.55 46.65 47.8 47.25 46.9 47.65 45.95 47.95 43.7 47.55 43.15 47.7 43.2 47.95 43.35 48.05 43.5 48.35 43.9 48.45 44.25 48.15 46.55 47.7 47.7 47.7 47.65 47.25 48.4 47.05 48.6 46.8 48.8 46.5 48.8 45.55 48.55 45.3 48.3 45.2 48.15 M63.85 47.45 L63.9 46.0 64.05 47.4 64.2 49.45 63.7 49.3 63.85 47.45 M47.35 19.2 L47.6 19.3 49.0 20.15 49.2 20.35 49.25 20.6 49.15 20.9 48.1 22.1 48.05 22.15 Q46.95 23.15 45.5 23.6 L45.25 23.6 45.05 23.5 44.25 22.85 44.1 22.6 44.1 22.3 Q44.3 21.65 44.8 21.25 L44.85 21.25 47.05 19.3 Q47.15 19.2 47.35 19.2 L45.15 21.1 44.55 21.95 45.35 22.6 Q46.7 22.2 47.7 21.25 L48.75 20.05 47.35 19.2 M40.05 18.85 L40.2 18.9 40.45 19.05 42.55 21.75 42.65 22.05 42.6 22.35 42.1 23.15 41.85 23.3 41.6 23.35 40.95 23.15 Q39.15 22.55 38.3 20.75 L38.25 20.55 38.3 19.8 38.4 19.5 38.75 19.1 38.95 18.95 39.4 18.8 39.6 18.75 39.15 18.9 38.8 19.3 38.75 20.05 Q39.5 21.65 41.1 22.15 L41.65 22.35 42.15 21.55 40.05 18.85 M57.3 19.3 L57.45 19.35 57.65 19.45 Q58.55 20.35 58.8 21.55 L58.8 21.6 58.8 22.35 58.8 22.8 58.75 23.05 58.6 23.25 57.75 23.85 57.5 23.9 57.25 23.85 56.4 23.5 56.2 23.4 56.1 23.15 55.5 20.25 55.55 19.95 55.75 19.75 56.6 19.3 Q56.65 19.2 56.8 19.2 L56.85 19.2 56.0 19.65 56.6 22.55 57.45 22.9 58.3 22.3 58.3 21.75 58.3 21.15 Q58.1 20.1 57.3 19.3 M51.4 28.1 L52.0 28.3 Q53.0 28.6 53.65 29.65 L53.65 29.7 53.95 30.45 53.95 30.4 Q54.3 31.7 53.45 32.55 L53.2 32.7 51.95 32.9 51.75 32.9 51.55 32.8 Q49.85 31.5 49.45 29.5 L49.5 29.3 49.55 29.1 50.2 28.35 50.45 28.2 50.6 28.15 49.95 28.9 Q50.3 30.7 51.85 31.9 L53.1 31.7 Q53.75 31.05 53.45 30.05 L53.2 29.4 Q52.65 28.55 51.8 28.25 L51.4 28.1 M50.35 36.35 L50.0 36.75 Q50.2 39.25 52.65 39.65 L53.1 39.15 53.05 38.6 Q53.0 37.25 51.75 36.55 L51.0 36.25 51.95 36.6 52.0 36.65 Q53.5 37.45 53.55 39.1 L53.6 39.65 53.45 40.0 53.0 40.5 52.8 40.65 52.6 40.65 Q49.75 40.2 49.5 37.3 L49.6 36.95 49.95 36.55 50.2 36.4 50.35 36.35 M58.1 33.4 L58.35 33.45 59.5 34.1 59.7 34.3 59.75 34.55 59.8 35.0 59.7 35.3 57.75 38.05 57.5 38.25 57.2 38.25 55.95 37.9 55.75 37.75 55.6 37.5 55.4 36.6 55.45 36.35 55.95 35.05 56.1 34.8 57.8 33.5 58.05 33.4 58.1 33.4 56.4 34.7 55.9 36.0 56.1 36.9 57.35 37.25 59.3 34.5 59.25 34.05 58.1 33.4 M43.9 26.95 L44.0 26.95 45.0 27.35 45.05 27.4 46.6 28.4 46.8 28.7 46.75 29.05 46.25 29.95 46.05 30.15 45.8 30.2 44.65 30.2 44.55 30.2 44.45 30.15 44.3 30.05 43.05 28.55 43.0 28.45 42.9 28.25 43.0 27.95 43.5 27.2 43.7 27.0 43.9 26.95 43.4 27.7 44.65 29.2 45.8 29.2 46.3 28.3 44.75 27.3 43.9 26.95 M39.85 31.5 L39.9 31.5 Q40.05 31.5 40.2 31.65 L42.0 33.25 42.15 33.45 42.15 33.75 41.9 35.05 41.75 35.3 41.45 35.4 40.15 35.5 39.8 35.4 39.2 34.8 39.2 34.85 Q38.25 33.95 38.4 32.6 L38.45 32.4 38.6 32.25 39.55 31.6 39.85 31.5 38.9 32.15 Q38.8 33.25 39.55 33.95 L40.1 34.5 41.4 34.4 41.65 33.1 39.85 31.5 M40.5 38.65 Q41.15 38.6 41.65 39.45 L41.65 39.5 Q41.95 40.05 41.95 40.9 L41.65 42.35 41.65 42.4 Q41.15 43.2 40.5 43.15 39.8 43.2 39.4 42.4 39.05 41.75 39.05 40.9 39.05 40.1 39.4 39.5 L39.45 39.45 Q39.85 38.6 40.5 38.65 40.1 38.65 39.85 39.2 39.55 39.7 39.55 40.4 39.55 41.1 39.85 41.65 40.1 42.15 40.5 42.15 40.9 42.15 41.2 41.65 L41.45 40.4 41.2 39.2 Q40.9 38.65 40.5 38.65 M57.2 48.7 Q55.75 49.1 54.85 50.2 L54.8 50.3 54.3 51.0 54.85 51.75 57.25 51.4 58.6 50.15 58.65 50.1 58.85 49.25 58.3 48.5 58.5 48.55 58.7 48.7 59.25 49.45 59.35 49.8 59.35 50.05 59.35 50.1 Q59.05 51.55 57.5 52.35 56.25 52.95 54.8 52.75 L54.45 52.55 53.9 51.8 53.8 51.55 53.9 51.25 54.55 50.3 54.65 50.2 Q55.65 49.1 57.2 48.7 M71.55 28.1 L71.7 28.15 71.85 28.2 72.0 28.4 73.2 30.85 73.25 31.05 73.25 31.25 72.9 32.4 72.7 32.6 72.4 32.7 71.4 32.75 71.1 32.65 70.95 32.4 69.95 29.05 69.95 28.75 70.15 28.5 70.85 28.1 71.1 28.05 70.4 28.4 71.4 31.75 72.4 31.7 72.75 30.55 71.55 28.1 M69.4 34.9 L68.95 35.95 69.6 36.55 70.25 37.1 72.6 37.25 73.05 36.2 72.75 35.65 69.4 34.9 69.5 34.9 72.85 35.65 73.05 35.75 73.2 35.9 73.5 36.45 73.55 36.7 73.5 36.95 73.05 38.0 72.8 38.2 70.0 38.05 69.95 38.0 69.3 37.45 69.25 37.4 68.6 36.8 68.45 36.55 Q68.4 36.4 68.5 36.3 L68.95 35.25 69.15 35.0 69.4 34.9 M65.8 26.6 L65.95 26.65 66.1 26.7 66.25 26.9 66.6 27.5 66.65 27.7 66.65 27.9 66.25 29.0 66.15 29.15 65.95 29.25 Q65.7 29.4 65.4 29.5 L64.05 31.45 63.9 31.6 63.65 31.65 63.2 31.7 62.9 31.6 62.3 31.1 62.15 30.9 62.1 30.7 62.15 30.05 62.15 30.0 Q62.7 27.3 65.2 26.55 63.15 27.3 62.65 29.6 L62.6 30.2 63.2 30.7 63.65 30.65 65.05 28.6 65.75 28.3 66.15 27.2 65.8 26.6 M64.6 40.25 L64.65 40.25 64.85 40.3 66.2 41.05 66.45 41.35 66.45 41.7 Q65.55 43.95 63.3 44.95 L63.05 45.0 62.8 44.9 62.15 44.45 62.05 44.3 61.95 44.1 61.95 43.15 61.95 43.1 Q62.35 40.95 64.45 40.3 62.8 40.95 62.45 42.7 L62.45 43.55 63.1 44.0 Q65.15 43.1 65.95 41.0 L64.6 40.25 M69.6 45.0 L68.15 45.3 67.85 45.9 69.7 47.45 70.85 47.55 71.3 46.65 70.8 45.5 69.6 45.0 M25.6 17.3 L22.7 19.2 23.25 20.45 26.4 18.85 26.9 18.0 25.6 17.3 25.85 17.35 27.15 18.05 27.35 18.25 27.4 18.5 27.35 18.8 27.3 18.8 27.25 18.9 26.85 19.65 26.65 19.8 24.65 20.8 23.5 21.4 23.25 21.45 23.0 21.35 22.8 21.15 22.25 19.9 22.25 19.55 22.45 19.3 25.35 17.4 25.6 17.3 M30.6 23.95 L28.5 25.7 28.2 26.05 28.2 26.8 28.9 27.3 29.7 27.15 31.45 24.65 30.6 23.95 Q30.8 23.95 30.95 24.1 L31.8 24.8 31.95 25.1 31.85 25.45 30.1 27.95 29.95 28.1 29.75 28.15 28.95 28.3 28.6 28.2 27.9 27.7 27.75 27.55 27.7 27.3 27.7 26.55 27.8 26.25 28.1 25.9 28.2 25.85 30.3 24.1 Q30.4 23.95 30.6 23.95 M35.35 17.55 L32.55 19.45 33.0 20.4 35.8 19.3 36.1 18.05 35.35 17.55 M16.65 16.25 L16.6 17.55 Q17.1 18.45 18.0 18.55 L18.55 18.7 18.95 18.75 19.05 18.75 19.3 17.85 17.7 16.05 17.2 15.95 16.65 16.25 M12.1 21.6 L11.65 22.45 13.65 24.7 14.4 24.75 14.95 23.85 14.0 22.45 12.1 21.6 M6.85 36.65 Q6.45 36.65 6.15 36.35 5.85 36.05 5.85 35.65 5.85 35.25 6.15 34.95 6.45 34.65 6.85 34.65 7.25 34.65 7.55 34.95 L7.85 35.65 7.55 36.35 6.85 36.65 M11.6 39.0 L10.85 39.3 9.2 42.55 9.25 43.05 9.85 43.4 10.3 43.35 Q11.7 41.85 12.2 39.5 L11.6 39.0 M20.5 48.05 L20.55 48.0 20.7 47.8 Q21.0 47.45 21.5 47.45 22.0 47.45 22.35 47.8 L22.65 48.6 22.5 49.25 22.45 49.3 22.35 49.45 21.5 49.75 20.7 49.45 Q20.35 49.1 20.35 48.6 L20.5 48.05 M31.05 52.95 L31.05 52.85 Q31.15 51.75 31.65 50.75 L31.9 51.7 32.5 52.3 32.65 53.25 32.65 53.35 32.85 55.15 32.85 55.2 32.55 55.55 32.1 55.7 31.3 55.15 31.25 54.9 Q30.95 53.85 31.05 52.95 M25.15 53.6 L25.1 53.55 Q24.8 53.25 24.8 52.8 24.8 52.35 25.1 52.05 25.4 51.75 25.85 51.75 26.3 51.75 26.6 52.05 26.9 52.35 26.9 52.8 L26.6 53.55 26.1 53.85 25.85 53.85 25.15 53.6 M32.7 31.35 L31.7 32.2 32.15 33.3 34.55 32.75 34.8 32.0 34.65 31.45 33.85 30.95 33.9 30.95 34.15 31.05 34.95 31.55 35.05 31.7 35.15 31.85 35.3 32.4 35.25 32.7 35.0 33.45 34.9 33.65 34.65 33.75 32.25 34.3 31.95 34.25 31.7 34.0 31.25 32.9 31.2 32.6 31.4 32.35 32.4 31.5 32.55 31.4 32.7 31.35 M23.2 28.1 L22.6 27.75 20.0 30.8 21.1 31.55 21.2 31.55 21.8 31.25 23.45 28.6 23.2 28.1 M25.8 35.25 L26.85 35.6 Q27.65 36.05 27.6 36.7 27.65 37.35 26.85 37.85 L25.4 38.2 23.95 37.85 Q23.15 37.35 23.2 36.7 23.15 36.05 23.95 35.6 24.4 35.3 25.0 35.25 L24.2 35.5 Q23.7 35.8 23.7 36.2 23.7 36.6 24.2 36.9 L25.4 37.2 26.6 36.9 27.1 36.2 Q27.1 35.8 26.6 35.5 L25.8 35.25 M26.45 42.05 Q26.1 42.05 25.8 42.65 L25.75 42.75 Q25.45 43.4 25.45 44.35 25.45 45.3 25.75 46.0 26.05 46.65 26.45 46.65 L27.15 46.0 27.45 44.35 27.4 43.6 27.15 42.75 Q26.85 42.05 26.45 42.05 M33.35 44.7 L32.8 44.8 32.35 45.2 32.35 45.4 Q32.3 47.2 33.5 48.4 L33.65 48.55 34.1 48.9 34.8 48.4 34.05 45.0 33.35 44.7 M41.65 49.95 Q41.2 50.0 40.9 50.2 40.4 50.5 40.4 50.95 40.4 51.4 40.9 51.75 L42.05 52.05 43.25 51.75 43.7 50.95 43.25 50.2 42.75 49.95 43.55 50.3 Q44.2 50.75 44.2 51.45 44.2 52.15 43.55 52.65 L43.5 52.7 42.05 53.05 40.65 52.7 40.65 52.65 Q39.85 52.15 39.9 51.45 39.85 50.75 40.6 50.3 L40.75 50.25 Q41.1 50.0 41.65 49.95" fill="#ac752b" fill-rule="evenodd" stroke="none"/>
    <path d="M37.25 55.85 L42.55 56.6 47.65 56.9 52.95 56.9 58.35 56.9 63.45 56.6 73.0 55.15 81.85 53.35 89.9 50.85 Q93.95 49.3 97.75 47.0 102.15 44.4 104.3 39.75 105.15 38.0 105.0 36.2 L104.65 32.7 Q104.15 28.45 102.0 24.4 99.85 20.25 96.35 16.9 93.3 13.95 89.8 11.4 85.95 8.75 81.8 6.85 77.5 4.95 73.0 3.6 L68.3 2.55 60.9 1.4 52.95 1.0 47.65 1.15 42.55 1.65 37.1 2.7 36.35 2.35 35.55 2.7 35.3 3.15 33.0 3.75 Q30.7 4.35 28.5 5.2 24.25 7.05 20.15 9.2 18.1 10.2 16.15 11.4 12.5 13.95 9.6 16.85 6.25 20.15 3.95 24.35 1.8 28.25 1.15 32.7 0.75 35.15 1.1 37.8 1.5 40.55 3.35 42.6 L4.65 43.95 4.65 44.0 4.7 44.0 Q6.95 46.2 9.65 47.8 12.6 49.6 16.05 50.85 L17.8 51.4 17.9 51.7 18.35 51.8 18.55 51.65 24.2 53.35 25.15 53.6 25.85 53.85 26.1 53.85 31.25 54.9 31.3 55.15 32.1 55.7 32.55 55.55 32.85 55.2 32.85 55.15 33.0 55.15 36.25 55.7 36.4 55.95 37.2 55.9 37.25 55.85 M90.25 10.75 Q92.15 11.95 93.95 13.4 97.2 16.05 99.85 19.2 102.85 22.8 104.45 27.3 106.1 31.85 105.9 36.8 105.7 41.75 102.0 45.0 98.4 48.25 93.95 50.25 90.25 51.9 86.3 53.15 L77.8 55.4 68.55 57.15 63.55 57.6 58.35 57.9 52.95 57.9 47.65 57.9 42.45 57.6 32.8 56.15 Q28.3 55.5 23.9 54.35 L15.75 51.7 Q13.9 51.0 12.15 50.15 7.7 48.25 4.0 44.95 0.1 41.4 0.0 36.2 -0.05 31.5 1.55 27.3 3.25 22.8 6.2 19.2 8.85 16.05 12.0 13.35 L15.6 10.6 23.9 6.2 Q26.0 5.1 28.25 4.35 32.85 2.85 37.55 1.7 L45.05 0.4 52.95 0.0 61.0 0.4 68.5 1.7 Q73.2 2.85 77.8 4.35 80.05 5.1 82.15 6.2 86.3 8.3 90.25 10.75" fill="#6d4a1b" fill-rule="evenodd" stroke="none"/>
    <path d="M6.7 26.85 L7.4 26.75 7.9 26.6 7.95 26.55 8.0 26.6 10.05 28.35 9.9 29.7 9.2 29.45 Q7.45 28.75 6.7 26.85 M10.6 32.4 L10.65 32.4 11.2 32.5 11.5 32.5 Q13.25 32.85 14.15 34.25 L13.9 35.15 12.75 35.25 11.45 34.9 11.1 34.7 9.95 33.5 9.95 32.8 10.6 32.4 M26.75 12.15 L26.75 12.1 27.4 11.95 27.45 11.9 27.65 12.0 27.75 12.1 30.6 14.05 30.35 15.0 29.3 15.2 Q27.0 14.8 26.8 12.65 L26.8 12.5 26.75 12.15 M32.6 7.45 L33.35 7.45 Q33.55 8.4 33.3 9.2 L33.05 9.7 32.75 10.1 Q32.2 10.8 31.4 10.75 L30.75 9.45 32.6 7.45 M88.85 15.8 L89.7 16.3 89.55 17.35 89.55 17.45 89.45 17.9 89.2 18.55 88.2 19.85 87.45 19.8 87.0 18.85 88.35 16.15 88.4 16.0 88.85 15.8 M82.9 15.8 Q82.05 16.35 81.35 16.55 L80.65 16.05 80.95 15.15 Q81.55 13.6 82.85 13.1 L83.85 14.0 Q83.95 15.05 82.9 15.8 M80.7 19.45 Q82.05 20.0 82.7 21.4 L82.7 21.45 82.6 22.0 81.85 22.5 81.05 22.15 Q79.6 21.45 79.0 20.0 L79.85 19.25 79.9 19.25 80.0 19.3 80.5 19.4 80.55 19.4 80.65 19.45 80.7 19.45 M88.75 24.35 L89.8 24.5 90.0 25.6 Q90.2 27.2 89.05 28.4 L88.6 28.55 87.5 28.05 88.0 25.25 88.75 24.35 M94.35 22.85 L97.2 24.0 96.85 24.75 95.95 25.2 93.55 23.75 94.35 22.85 M97.1 27.55 L97.9 28.25 95.85 31.25 94.95 31.3 94.55 29.8 97.1 27.55 M99.6 35.75 L100.2 36.65 95.6 39.1 95.0 38.2 95.2 37.8 99.6 35.75 M81.15 28.5 L82.0 29.35 Q81.2 31.1 79.6 31.95 L79.15 31.8 78.75 30.9 79.35 29.85 Q80.05 28.9 81.15 28.5 M83.1 35.2 L83.25 35.25 85.0 35.6 85.8 36.15 87.0 37.25 86.0 38.25 82.2 36.75 82.35 35.65 83.1 35.2 M89.35 42.55 L90.05 41.5 92.8 43.25 92.3 44.05 91.55 44.45 91.1 44.35 Q90.05 44.15 89.65 43.25 L89.35 42.55 M81.85 41.7 L82.9 42.2 82.1 46.15 81.35 46.45 80.6 46.15 80.45 45.7 80.45 45.35 80.4 44.7 Q80.45 43.4 81.0 42.2 L81.85 41.7 M73.6 11.55 L77.5 14.4 76.6 14.95 73.0 13.2 72.8 12.6 73.2 11.75 73.6 11.55 M64.35 10.05 Q64.75 10.05 65.05 10.5 L65.3 11.5 65.3 11.6 65.3 11.65 65.05 12.55 64.35 12.95 Q63.95 12.95 63.7 12.55 63.4 12.1 63.4 11.5 L63.45 11.2 63.45 11.15 Q63.5 10.75 63.7 10.5 63.95 10.05 64.35 10.05 M59.1 13.0 L59.2 13.05 59.25 13.05 59.55 13.1 60.05 14.25 58.4 16.3 57.5 16.05 57.15 14.95 59.1 13.0 M68.6 14.85 L69.05 15.0 69.6 15.75 69.35 16.35 68.85 17.0 67.4 17.8 66.75 17.3 Q66.85 16.7 67.1 16.25 67.55 15.25 68.6 14.85 M67.35 6.5 L68.05 6.85 Q69.4 7.65 69.25 9.25 L68.6 9.6 67.95 9.5 Q66.55 8.85 66.35 7.15 L67.35 6.5 M65.85 21.6 L67.5 22.15 Q69.05 23.0 68.9 24.55 65.75 25.0 64.4 22.0 L64.8 21.5 65.85 21.6 M73.55 20.85 L74.8 20.8 76.0 23.25 74.9 24.05 Q73.35 23.05 73.15 21.3 L73.55 20.85 M59.35 4.7 L60.5 5.55 59.15 7.1 57.6 8.3 56.7 7.45 58.65 5.15 59.35 4.7 M49.1 5.6 Q51.05 6.5 52.0 8.35 L51.65 8.95 50.6 9.0 48.35 7.3 48.1 6.35 49.1 5.6 M52.1 11.75 L52.6 11.9 53.0 13.3 53.0 13.55 Q53.1 14.1 52.8 14.6 L52.3 15.35 51.15 15.45 50.55 14.5 51.35 12.05 52.1 11.75 M42.15 5.3 Q42.5 5.3 42.75 5.8 L42.85 6.15 42.95 6.5 42.95 6.95 42.75 8.15 42.15 8.6 Q41.8 8.6 41.6 8.15 41.35 7.65 41.35 6.95 L41.35 6.9 41.4 6.5 41.6 5.8 Q41.8 5.3 42.15 5.3 M47.1 11.3 L47.85 11.8 Q47.75 12.8 47.15 13.55 L46.7 13.95 Q45.8 14.75 44.6 14.85 L43.9 14.3 44.1 14.0 Q45.25 12.3 47.1 11.3 M39.05 10.85 L40.05 12.5 40.1 12.65 Q40.45 13.7 40.25 14.95 L40.2 15.05 39.7 15.25 39.55 15.2 39.05 14.9 Q38.3 14.25 37.95 13.4 L37.9 13.25 Q37.6 12.3 37.75 11.2 L38.6 10.75 38.75 10.8 39.05 10.85 M76.35 38.4 L76.5 38.45 76.8 38.5 77.35 39.25 Q77.5 40.35 76.85 41.35 76.3 42.2 75.1 42.45 L74.25 42.0 Q74.4 39.75 76.35 38.4 M47.35 19.2 L48.75 20.05 47.7 21.25 Q46.7 22.2 45.35 22.6 L44.55 21.95 45.15 21.1 47.35 19.2 M40.05 18.85 L42.15 21.55 41.65 22.35 41.1 22.15 Q39.5 21.65 38.75 20.05 L38.8 19.3 39.15 18.9 39.6 18.75 39.75 18.8 40.05 18.85 M57.3 19.3 Q58.1 20.1 58.3 21.15 L58.3 21.75 58.3 22.3 57.45 22.9 56.6 22.55 56.0 19.65 56.85 19.2 57.0 19.25 57.3 19.3 M50.6 28.15 L51.1 28.0 51.25 28.05 51.4 28.1 51.8 28.25 Q52.65 28.55 53.2 29.4 L53.45 30.05 Q53.75 31.05 53.1 31.7 L51.85 31.9 Q50.3 30.7 49.95 28.9 L50.6 28.15 M50.35 36.35 L50.85 36.2 51.0 36.25 51.75 36.55 Q53.0 37.25 53.05 38.6 L53.1 39.15 52.65 39.65 Q50.2 39.25 50.0 36.75 L50.35 36.35 M58.1 33.4 L59.25 34.05 59.3 34.5 57.35 37.25 56.1 36.9 55.9 36.0 56.4 34.7 58.1 33.4 M43.9 26.95 L44.75 27.3 46.3 28.3 45.8 29.2 44.65 29.2 43.4 27.7 43.9 26.95 M39.85 31.5 L41.65 33.1 41.4 34.4 40.1 34.5 39.55 33.95 Q38.8 33.25 38.9 32.15 L39.85 31.5 M47.55 43.15 L47.95 43.7 47.65 45.95 47.25 46.9 46.65 47.8 45.7 47.55 46.5 43.25 47.1 43.0 47.25 43.05 47.55 43.15 M40.5 38.65 Q40.9 38.65 41.2 39.2 L41.45 40.4 41.2 41.65 Q40.9 42.15 40.5 42.15 40.1 42.15 39.85 41.65 39.55 41.1 39.55 40.4 39.55 39.7 39.85 39.2 40.1 38.65 40.5 38.65 M57.2 48.7 L58.25 48.5 58.3 48.5 58.85 49.25 58.65 50.1 58.6 50.15 57.25 51.4 54.85 51.75 54.3 51.0 54.8 50.3 54.85 50.2 Q55.75 49.1 57.2 48.7 M71.1 28.05 L71.1 28.0 71.2 28.05 71.25 28.05 71.55 28.1 72.75 30.55 72.4 31.7 71.4 31.75 70.4 28.4 71.1 28.05 M69.4 34.9 L72.75 35.65 73.05 36.2 72.6 37.25 70.25 37.1 69.6 36.55 68.95 35.95 69.4 34.9 M65.8 26.6 L66.15 27.2 65.75 28.3 65.05 28.6 63.65 30.65 63.2 30.7 62.6 30.2 62.65 29.6 Q63.15 27.3 65.2 26.55 L65.35 26.5 65.5 26.55 65.8 26.6 M64.6 40.25 L65.95 41.0 Q65.15 43.1 63.1 44.0 L62.45 43.55 62.45 42.7 Q62.8 40.95 64.45 40.3 L64.6 40.25 M69.6 45.0 L70.8 45.5 71.3 46.65 70.85 47.55 69.7 47.45 67.85 45.9 68.15 45.3 69.6 45.0 M25.6 17.3 L26.9 18.0 26.4 18.85 23.25 20.45 22.7 19.2 25.6 17.3 M20.2 41.35 L20.8 41.25 21.35 42.0 Q21.05 43.0 20.35 43.65 L20.2 43.8 19.1 44.4 18.35 44.05 18.1 43.3 18.45 42.65 18.8 42.2 18.9 42.1 Q19.45 41.5 20.2 41.35 M30.6 23.95 L31.45 24.65 29.7 27.15 28.9 27.3 28.2 26.8 28.2 26.05 28.5 25.7 30.6 23.95 M35.35 17.55 L36.1 18.05 35.8 19.3 33.0 20.4 32.55 19.45 35.35 17.55 M16.65 16.25 L17.2 15.95 17.7 16.05 19.3 17.85 19.05 18.75 18.95 18.75 18.55 18.7 18.0 18.55 Q17.1 18.45 16.6 17.55 L16.65 16.25 M12.1 21.6 L14.0 22.45 14.95 23.85 14.4 24.75 13.65 24.7 11.65 22.45 12.1 21.6 M11.6 39.0 L12.2 39.5 Q11.7 41.85 10.3 43.35 L9.85 43.4 9.25 43.05 9.2 42.55 10.85 39.3 11.6 39.0 M33.85 30.95 L34.65 31.45 34.8 32.0 34.55 32.75 32.15 33.3 31.7 32.2 32.7 31.35 33.85 30.95 M23.2 28.1 L23.45 28.6 21.8 31.25 21.2 31.55 21.1 31.55 20.0 30.8 22.6 27.75 23.2 28.1 M25.8 35.25 L26.6 35.5 Q27.1 35.8 27.1 36.2 L26.6 36.9 25.4 37.2 24.2 36.9 Q23.7 36.6 23.7 36.2 23.7 35.8 24.2 35.5 L25.0 35.25 25.3 35.2 25.45 35.2 25.8 35.25 M26.45 42.05 Q26.85 42.05 27.15 42.75 L27.4 43.6 27.45 44.35 27.15 46.0 26.45 46.65 Q26.05 46.65 25.75 46.0 25.45 45.3 25.45 44.35 25.45 43.4 25.75 42.75 L25.8 42.65 Q26.1 42.05 26.45 42.05 M33.35 44.7 L34.05 45.0 34.8 48.4 34.1 48.9 33.65 48.55 33.5 48.4 Q32.3 47.2 32.35 45.4 L32.35 45.2 32.8 44.8 33.35 44.7 M42.75 49.95 L43.25 50.2 43.7 50.95 43.25 51.75 42.05 52.05 40.9 51.75 Q40.4 51.4 40.4 50.95 40.4 50.5 40.9 50.2 41.2 50.0 41.65 49.95 L42.05 49.85 42.35 49.9 42.55 49.9 42.75 49.95" fill="#e4d3c3" fill-rule="evenodd" stroke="none"/>
    <path d="M96.05 26.2 L96.75 27.7 94.2 29.95 94.35 29.35 Q94.35 28.85 94.0 28.5 L93.1 28.1 Q92.6 28.1 92.25 28.5 91.85 28.85 91.85 29.35 L92.25 30.25 Q92.6 30.6 93.1 30.6 93.6 30.6 94.0 30.25 L94.1 30.1 94.1 30.15 94.1 30.45 94.5 31.95 94.65 32.2 94.95 32.3 95.85 32.25 96.1 32.2 96.25 32.05 97.6 30.05 Q98.25 32.35 98.2 34.5 L98.1 36.4 95.0 37.85 Q94.8 37.9 94.75 38.1 L94.55 38.5 94.5 38.75 94.6 39.0 95.1 39.75 93.9 38.95 94.25 40.2 93.7 40.7 93.5 41.7 93.8 42.25 95.1 42.8 95.05 42.9 Q93.0 45.15 89.55 47.0 L89.6 46.7 Q89.65 45.4 89.25 44.05 89.75 45.1 91.0 45.35 L91.4 45.45 91.45 45.45 91.8 45.4 92.55 45.0 92.75 44.85 93.25 44.05 93.25 43.95 93.3 43.65 93.1 43.35 90.35 41.6 89.95 41.5 89.65 41.75 88.95 42.8 88.85 42.95 88.55 42.3 87.7 41.85 88.1 42.8 Q88.1 45.15 88.45 47.4 L88.45 47.55 88.45 47.6 85.3 49.05 83.4 49.85 81.25 50.7 80.75 49.7 80.25 51.0 80.25 51.1 74.45 52.8 74.6 52.65 Q75.7 51.05 76.05 49.15 L75.2 48.45 Q75.5 50.75 74.35 52.7 L74.25 52.85 Q68.85 54.15 63.2 54.4 L63.25 54.35 Q64.35 53.35 64.35 51.8 L64.75 51.45 65.0 50.5 64.35 49.6 64.3 49.55 70.1 48.5 70.8 48.55 71.1 48.5 71.3 48.35 71.3 48.3 71.35 48.25 73.5 47.65 75.1 47.1 75.15 47.35 75.55 46.8 76.05 46.65 76.15 46.7 79.95 44.95 79.9 45.55 79.95 46.25 80.0 46.35 80.15 46.85 80.25 47.0 80.45 47.15 81.2 47.45 81.55 47.45 82.3 47.15 82.5 47.0 82.6 46.75 83.35 43.0 84.2 42.45 84.25 42.5 Q84.55 42.8 84.95 42.85 L85.1 42.85 86.0 42.5 86.35 41.75 86.35 41.55 86.25 41.0 Q89.15 38.55 89.5 35.45 L89.6 35.45 89.65 35.45 Q90.25 35.45 90.65 35.05 91.05 34.65 91.05 34.1 91.05 33.55 90.65 33.15 90.25 32.75 89.65 32.75 L89.4 32.8 89.35 32.8 Q89.05 31.4 88.35 29.9 L88.1 29.35 88.4 29.5 88.7 29.55 89.15 29.4 89.4 29.25 Q90.7 27.9 90.5 26.05 L90.5 26.0 90.3 24.9 90.15 24.65 89.85 24.5 88.8 24.35 88.75 24.35 88.6 24.4 88.55 24.4 88.35 24.55 87.6 25.45 87.5 25.65 87.15 27.55 84.8 23.9 84.8 23.85 85.05 23.1 Q85.05 22.6 84.7 22.25 84.35 21.9 83.85 21.9 L83.3 22.05 83.2 22.0 83.15 21.7 Q82.4 20.1 80.9 19.5 L80.8 19.45 80.7 19.45 80.65 19.45 80.55 19.4 80.5 19.4 Q78.4 17.6 75.95 16.15 72.75 14.25 69.4 12.95 L67.0 12.1 65.8 11.75 65.5 10.75 Q65.0 10.0 64.35 10.05 63.7 10.0 63.3 10.7 L63.1 11.05 63.1 11.1 Q58.2 10.1 53.25 10.25 L53.3 10.2 53.3 10.15 53.6 9.4 53.3 8.65 Q53.0 8.35 52.6 8.35 L52.35 8.4 Q51.3 6.55 49.3 5.65 L49.1 5.6 49.05 5.6 48.85 5.65 48.45 5.45 48.15 5.4 47.6 5.6 47.4 5.75 Q47.05 6.05 47.05 6.5 47.05 6.95 47.4 7.3 L47.8 7.55 47.9 7.95 48.05 8.2 50.3 9.9 50.6 10.0 51.65 9.95 51.75 9.95 51.9 10.15 52.0 10.25 52.1 10.3 50.55 10.4 50.65 10.85 50.35 11.65 49.6 11.95 Q49.15 11.95 48.85 11.65 48.55 11.3 48.55 10.85 L48.6 10.65 Q44.35 11.25 40.4 12.55 L41.0 12.95 Q41.45 13.4 41.45 14.1 L41.4 14.6 41.0 15.3 40.75 15.5 40.8 14.8 Q40.85 13.6 40.4 12.55 L40.35 12.4 39.45 11.05 Q39.3 10.9 39.2 10.9 L39.05 10.85 38.75 10.8 38.6 10.75 38.55 10.75 38.35 10.85 37.5 11.3 37.35 11.45 37.25 11.65 Q37.1 12.6 37.3 13.45 L37.35 13.65 Q34.5 14.8 31.8 16.35 L31.7 16.1 31.45 15.75 30.9 15.45 31.1 14.7 31.1 14.4 30.9 14.15 27.85 12.05 27.75 12.0 27.7 11.95 Q29.05 11.15 30.45 10.5 L30.95 11.5 31.15 11.7 31.4 11.75 Q32.4 11.8 33.15 10.95 L33.15 10.9 Q33.7 10.2 33.9 9.35 L33.95 8.9 Q37.35 7.5 40.95 6.6 L40.9 7.05 40.85 7.45 Q40.85 8.3 41.15 8.9 L41.15 8.85 Q41.5 9.65 42.15 9.6 42.75 9.65 43.2 8.9 L43.25 8.85 43.45 7.45 43.35 6.4 43.2 6.1 43.2 6.05 43.25 6.05 44.85 5.75 45.0 6.05 45.15 6.25 Q45.5 6.6 46.0 6.6 L46.9 6.25 47.25 5.65 47.25 5.35 59.05 4.8 59.05 4.85 58.35 5.25 58.3 5.35 56.35 7.65 Q56.2 7.8 56.2 8.0 L56.35 8.3 57.25 9.15 57.55 9.3 57.85 9.25 59.5 7.95 59.5 8.0 60.9 6.35 60.95 6.3 Q60.8 6.55 60.8 6.85 60.8 7.3 61.1 7.65 61.4 7.95 61.85 7.95 62.3 7.95 62.6 7.65 L62.9 6.85 Q62.9 6.4 62.6 6.1 62.3 5.75 61.85 5.75 61.4 5.75 61.1 6.1 L61.0 6.25 61.0 6.0 60.8 5.65 59.75 4.85 Q66.1 5.2 72.4 7.0 75.5 7.9 78.3 9.25 L77.85 9.15 77.55 9.2 77.0 9.5 Q76.65 9.85 76.65 10.35 76.65 10.85 77.0 11.2 77.35 11.55 77.85 11.55 78.35 11.55 78.7 11.2 L79.05 10.35 78.95 9.9 Q84.1 12.4 88.15 16.1 L87.95 16.3 86.55 19.15 86.5 19.35 86.55 19.6 87.0 20.55 87.15 20.7 87.4 20.8 88.15 20.85 88.4 20.8 88.6 20.65 88.8 20.45 89.05 20.8 Q89.45 21.2 90.0 21.2 90.55 21.2 90.95 20.8 91.35 20.4 91.35 19.85 L91.25 19.35 91.2 19.25 94.05 22.95 94.0 23.05 93.2 23.95 Q93.05 24.05 93.05 24.2 L93.1 24.45 93.3 24.7 95.7 26.15 95.75 26.15 95.95 26.2 96.05 26.2 M97.4 39.25 L96.4 41.1 96.0 40.25 95.6 40.1 95.85 40.05 97.4 39.25 M62.1 54.4 L54.45 54.7 51.9 54.7 52.3 50.3 52.3 50.2 54.65 50.2 54.55 50.3 53.9 51.25 53.8 51.55 53.9 51.8 54.45 52.55 54.8 52.75 Q56.25 52.95 57.5 52.35 59.05 51.55 59.35 50.1 L59.35 50.05 62.15 49.85 Q61.8 50.15 61.75 50.55 61.7 51.1 62.2 51.55 62.7 51.95 63.5 52.0 L62.1 54.4 M50.65 54.7 L48.65 54.65 41.4 54.35 40.1 54.25 37.05 54.05 36.65 53.2 36.95 52.5 Q37.15 50.7 36.45 48.95 L36.4 48.8 38.2 49.1 40.2 49.4 40.2 49.2 Q40.2 48.7 40.55 48.35 40.85 48.0 41.35 48.0 41.85 48.0 42.2 48.35 42.5 48.7 42.5 49.2 L42.45 49.65 45.15 49.95 47.9 50.1 48.4 50.1 48.85 50.15 51.3 50.2 51.3 50.25 50.65 54.7 M17.5 45.75 L14.45 42.75 14.6 42.75 14.65 42.75 15.2 42.45 15.45 41.75 15.2 41.05 Q14.95 40.75 14.6 40.75 14.25 40.75 14.0 41.05 L13.8 41.55 13.75 41.75 13.8 42.0 13.1 41.0 13.1 40.55 13.1 40.5 13.35 38.95 12.8 39.95 12.7 40.15 12.7 40.1 12.7 39.85 12.55 39.65 12.15 39.3 Q11.4 37.65 11.2 35.85 L11.55 36.0 12.7 36.25 12.8 36.25 13.95 36.15 14.2 36.05 14.4 35.8 14.65 34.9 14.65 34.7 14.6 34.5 Q13.5 32.85 11.5 32.5 L11.2 32.5 11.3 31.75 Q11.85 28.35 13.25 25.5 L13.3 25.55 13.6 25.7 14.35 25.75 14.6 25.7 14.85 25.55 15.4 24.65 15.45 24.35 15.4 24.1 14.7 23.05 Q15.95 21.15 17.65 19.5 L17.9 19.55 18.15 19.65 19.05 19.75 19.35 19.65 19.55 19.4 19.8 18.5 19.8 18.25 19.7 18.05 19.55 17.85 Q22.75 15.05 26.25 12.85 L26.25 12.95 Q26.45 15.7 29.25 16.2 L29.4 16.2 29.5 16.2 29.4 16.6 29.6 17.3 29.75 17.45 29.8 17.5 29.15 17.9 27.25 18.9 27.3 18.8 27.35 18.8 27.4 18.5 27.35 18.25 27.15 18.05 25.85 17.35 25.6 17.3 25.35 17.4 22.45 19.3 22.25 19.55 22.25 19.9 22.8 21.15 23.0 21.35 23.25 21.45 23.5 21.4 24.65 20.8 23.1 22.1 21.5 23.6 21.2 24.1 20.75 24.35 Q17.2 28.8 16.75 34.95 L16.55 35.6 16.7 36.2 16.7 37.05 Q16.75 39.15 18.05 41.0 L18.8 42.0 18.7 42.1 18.05 42.9 17.7 43.45 17.9 41.75 17.55 42.25 17.05 44.65 17.65 45.45 17.55 45.7 17.5 45.75 M90.05 17.95 L90.8 18.75 90.0 18.5 89.95 18.5 90.05 17.95 M84.2 14.15 L83.2 13.25 82.95 13.1 82.7 13.15 Q81.15 13.7 80.5 15.5 L80.2 16.4 80.2 16.7 80.35 16.95 81.05 17.45 81.3 17.55 81.5 17.55 83.2 16.75 83.2 16.7 Q84.5 15.75 84.35 14.45 L84.2 14.15 M82.35 24.1 Q82.85 24.1 83.25 24.5 83.6 24.85 83.6 25.35 83.6 25.85 83.25 26.25 82.85 26.6 82.35 26.6 81.85 26.6 81.5 26.25 81.1 25.85 81.1 25.35 81.1 24.85 81.5 24.5 81.85 24.1 82.35 24.1 M93.0 22.0 Q92.7 21.7 92.35 21.7 92.0 21.7 91.75 22.0 91.45 22.25 91.45 22.65 91.45 23.05 91.75 23.35 L92.35 23.6 93.0 23.35 93.25 22.65 93.0 22.0 M79.25 29.7 L78.95 30.05 78.95 30.1 78.4 31.0 77.55 31.25 Q76.85 31.25 76.35 30.7 75.85 30.15 75.85 29.35 75.85 28.55 76.35 28.0 76.85 27.45 77.55 27.45 78.25 27.45 78.75 28.0 79.25 28.55 79.25 29.35 L79.25 29.7 M71.25 9.8 Q70.75 9.8 70.4 10.15 70.05 10.5 70.05 11.0 70.05 11.5 70.4 11.85 70.75 12.2 71.25 12.2 L72.1 11.85 72.45 11.0 Q72.45 10.5 72.1 10.15 71.75 9.8 71.25 9.8 M73.6 11.55 L73.4 11.6 73.0 11.8 72.75 12.05 72.35 12.9 72.35 13.25 72.55 13.85 72.8 14.15 76.4 15.9 76.6 15.95 76.85 15.9 77.75 15.35 77.95 15.1 78.0 14.8 77.8 14.5 73.9 11.65 73.65 11.55 73.6 11.55 M67.35 6.5 L67.3 6.5 67.1 6.6 66.1 7.25 65.9 7.45 65.85 7.7 Q66.1 9.7 67.75 10.45 L67.9 10.5 68.55 10.6 68.8 10.55 69.45 10.2 69.65 10.05 69.75 9.8 Q69.9 7.9 68.3 6.95 L67.55 6.55 67.35 6.5 M70.55 16.4 Q70.55 15.95 70.85 15.65 71.15 15.3 71.6 15.3 72.05 15.3 72.35 15.65 L72.65 16.4 72.35 17.2 71.6 17.5 Q71.15 17.5 70.85 17.2 70.55 16.85 70.55 16.4 M68.9 21.3 Q68.9 20.75 69.3 20.35 69.7 19.95 70.25 19.95 70.8 19.95 71.2 20.35 71.6 20.75 71.6 21.3 71.6 21.85 71.2 22.25 70.8 22.65 70.25 22.65 69.7 22.65 69.3 22.25 68.9 21.85 68.9 21.3 M76.5 17.8 Q77.1 17.8 77.55 18.2 77.95 18.55 77.95 19.1 77.95 19.65 77.55 20.05 L76.5 20.4 Q75.9 20.4 75.5 20.05 75.05 19.65 75.05 19.1 75.05 18.55 75.5 18.2 75.9 17.8 76.5 17.8 M47.1 17.35 Q47.1 16.85 47.5 16.5 47.85 16.1 48.35 16.1 48.85 16.1 49.25 16.5 49.6 16.85 49.6 17.35 L49.25 18.25 48.35 18.6 Q47.85 18.6 47.5 18.25 47.1 17.85 47.1 17.35 M30.85 19.75 L31.1 19.7 Q31.65 19.7 32.1 20.1 L32.1 20.2 32.5 21.05 Q32.5 21.6 32.1 22.0 31.7 22.4 31.1 22.4 30.5 22.4 30.1 22.0 29.7 21.6 29.7 21.05 L29.8 20.55 30.1 20.1 Q30.4 19.8 30.85 19.75 M46.7 43.15 Q46.45 42.85 46.45 42.4 46.45 41.9 46.8 41.6 47.1 41.25 47.6 41.25 48.1 41.25 48.45 41.6 L48.75 42.4 48.45 43.25 48.05 43.5 47.95 43.35 47.7 43.2 47.55 43.15 47.25 43.05 47.1 43.0 46.9 43.05 46.7 43.15 M64.65 47.25 Q64.5 47.0 64.5 46.65 64.5 46.15 64.85 45.85 65.15 45.5 65.65 45.5 66.15 45.5 66.5 45.85 L66.8 46.6 66.8 46.65 66.5 47.5 65.65 47.8 64.85 47.5 64.65 47.25 M41.85 17.45 Q42.35 17.45 42.7 17.8 L43.0 18.55 42.7 19.35 41.85 19.65 41.05 19.35 Q40.7 19.0 40.7 18.55 40.7 18.1 41.05 17.8 41.35 17.45 41.85 17.45 M49.9 23.85 Q50.2 23.45 50.6 23.45 51.0 23.45 51.3 23.85 L51.6 24.7 51.3 25.6 Q51.0 25.95 50.6 25.95 50.2 25.95 49.9 25.6 49.6 25.2 49.6 24.7 49.6 24.2 49.9 23.85 M58.9 17.0 L59.1 17.45 Q58.75 18.35 57.75 18.7 L56.85 18.8 55.8 18.75 55.1 17.05 56.7 15.75 57.05 16.75 57.15 16.9 57.35 17.05 58.25 17.3 58.55 17.3 Q58.65 17.25 58.8 17.15 L58.9 17.0 M58.35 30.25 Q58.9 30.25 59.3 30.65 59.7 31.0 59.7 31.55 59.7 32.1 59.3 32.5 L58.35 32.85 Q57.8 32.85 57.4 32.5 57.0 32.1 57.0 31.55 57.0 31.0 57.4 30.65 57.8 30.25 58.35 30.25 M58.2 26.0 Q58.2 25.4 58.6 25.0 59.0 24.6 59.6 24.6 60.2 24.6 60.6 25.0 61.0 25.4 61.0 26.0 61.0 26.6 60.6 27.0 60.2 27.4 59.6 27.4 59.0 27.4 58.6 27.0 58.2 26.6 58.2 26.0 M43.0 28.45 L43.05 28.55 44.3 30.05 44.45 30.15 44.55 30.2 43.7 30.45 42.85 30.15 Q42.45 29.8 42.45 29.35 42.45 28.9 42.85 28.6 L43.0 28.45 M46.75 33.45 Q47.1 33.05 47.6 33.05 48.1 33.05 48.5 33.45 48.85 33.8 48.85 34.35 48.85 34.9 48.5 35.3 48.1 35.65 47.6 35.65 47.1 35.65 46.75 35.3 46.35 34.9 46.35 34.35 46.35 33.8 46.75 33.45 M43.55 38.55 Q44.0 38.55 44.35 38.9 L44.65 39.65 44.35 40.45 43.55 40.75 42.8 40.45 Q42.45 40.1 42.45 39.65 42.45 39.2 42.8 38.9 43.1 38.55 43.55 38.55 M56.6 40.1 L57.15 40.45 Q59.1 42.0 57.35 44.4 L55.35 44.5 Q54.1 42.6 54.65 40.55 L56.6 40.1 M77.85 36.65 Q77.85 36.05 78.25 35.6 78.6 35.15 79.1 35.15 79.6 35.15 80.0 35.6 80.35 36.05 80.35 36.65 L80.0 37.7 Q79.6 38.15 79.1 38.15 78.6 38.15 78.25 37.7 77.85 37.25 77.85 36.65 M67.65 42.75 Q67.25 42.35 67.25 41.8 67.25 41.25 67.65 40.85 68.05 40.45 68.65 40.45 69.25 40.45 69.65 40.85 70.05 41.25 70.05 41.8 70.05 42.35 69.65 42.75 69.25 43.15 68.65 43.15 68.05 43.15 67.65 42.75 M64.35 36.6 Q64.65 36.25 65.1 36.25 65.55 36.25 65.85 36.6 L66.15 37.35 65.85 38.15 65.1 38.45 Q64.65 38.45 64.35 38.15 64.05 37.8 64.05 37.35 64.05 36.9 64.35 36.6 M66.55 30.65 Q66.15 29.85 66.6 29.05 67.85 28.15 69.35 28.2 L69.85 28.95 69.9 30.25 68.1 31.7 Q67.0 31.6 66.55 30.65 M77.05 48.95 L78.1 49.55 78.7 49.35 79.25 48.45 78.6 47.3 78.1 47.2 77.55 47.4 77.5 48.35 77.05 48.95 M34.5 11.35 Q34.5 11.85 34.9 12.25 35.25 12.6 35.75 12.6 L36.65 12.25 37.0 11.35 Q37.0 10.85 36.65 10.5 36.25 10.1 35.75 10.1 35.25 10.1 34.9 10.5 34.5 10.85 34.5 11.35 M21.0 44.2 L22.95 45.65 25.2 46.35 25.3 46.7 25.45 46.95 Q25.85 47.7 26.45 47.65 L26.95 47.55 27.45 47.0 32.35 48.2 32.55 48.5 Q33.05 49.25 33.85 49.8 L34.1 49.9 34.4 49.8 35.1 49.3 35.3 49.1 35.3 48.8 35.3 48.7 35.9 48.75 35.7 52.4 35.3 52.95 35.3 53.85 32.65 53.35 32.65 53.25 32.5 52.3 31.9 51.7 31.65 50.75 Q31.15 51.75 31.05 52.85 L31.05 52.95 26.55 51.35 Q24.4 50.45 22.45 49.3 L22.5 49.25 22.65 48.6 22.35 47.8 Q22.0 47.45 21.5 47.45 21.0 47.45 20.7 47.8 L20.55 48.0 20.5 48.05 18.05 46.2 18.05 46.1 18.0 45.55 17.8 44.5 17.9 44.75 18.15 45.0 18.9 45.35 19.1 45.4 19.3 45.4 20.8 44.4 21.0 44.2 M16.45 29.9 L16.75 29.1 16.45 28.35 Q16.1 28.0 15.6 28.0 15.1 28.0 14.8 28.35 14.45 28.65 14.45 29.1 14.45 29.55 14.8 29.9 L15.6 30.2 Q16.1 30.2 16.45 29.9 M36.2 27.15 L36.5 27.85 36.2 28.55 35.45 28.85 Q35.0 28.85 34.7 28.55 L34.4 27.85 Q34.4 27.45 34.7 27.15 35.0 26.85 35.45 26.85 L36.2 27.15 M25.65 28.35 Q26.0 27.95 26.55 27.95 27.1 27.95 27.5 28.35 27.85 28.7 27.85 29.25 27.85 29.8 27.5 30.2 27.1 30.55 26.55 30.55 26.0 30.55 25.65 30.2 25.25 29.8 25.25 29.25 25.25 28.7 25.65 28.35 M25.85 39.25 Q26.35 39.25 26.7 39.6 L27.0 40.4 26.7 41.25 Q26.35 41.55 25.85 41.55 25.35 41.55 25.05 41.25 24.7 40.9 24.7 40.4 24.7 39.9 25.05 39.6 25.35 39.25 25.85 39.25 M28.6 32.8 Q29.1 32.8 29.45 33.2 L29.75 34.15 29.45 35.1 Q29.1 35.5 28.6 35.5 28.1 35.5 27.8 35.1 27.45 34.7 27.45 34.15 27.45 33.6 27.8 33.2 28.1 32.8 28.6 32.8 M34.85 41.7 Q33.55 41.95 32.35 41.3 L32.3 40.45 Q32.25 38.75 33.85 38.0 L34.95 38.3 Q35.55 40.1 34.85 41.7 M35.85 42.5 Q36.3 42.5 36.6 42.85 36.9 43.15 36.9 43.6 L36.6 44.4 Q36.3 44.7 35.85 44.7 35.4 44.7 35.1 44.4 34.8 44.05 34.8 43.6 34.8 43.15 35.1 42.85 35.4 42.5 35.85 42.5 M41.65 49.95 Q41.1 50.0 40.75 50.25 L40.6 50.3 Q39.85 50.75 39.9 51.45 39.85 52.15 40.65 52.65 L40.65 52.7 42.05 53.05 43.5 52.7 43.55 52.65 Q44.2 52.15 44.2 51.45 44.2 50.75 43.55 50.3 L42.75 49.95 42.55 49.9 42.35 49.9 42.05 49.85 41.65 49.95" fill="#d8a663" fill-rule="evenodd" stroke="none"/>
    <path d="M79.85 19.25 L79.75 19.3 79.5 19.4 78.65 20.15 78.5 20.4 78.55 20.7 Q79.2 22.3 80.85 23.1 L80.9 23.15 81.65 23.45 81.9 23.5 82.15 23.45 82.65 23.1 Q82.65 23.6 83.0 23.95 83.35 24.3 83.85 24.3 L84.7 23.95 84.8 23.9 87.15 27.55 87.0 28.45 87.05 28.8 87.3 29.0 88.1 29.35 88.35 29.9 Q89.05 31.4 89.35 32.8 88.95 32.85 88.65 33.15 88.25 33.55 88.25 34.1 88.25 34.65 88.65 35.05 89.0 35.4 89.5 35.45 89.15 38.55 86.25 41.0 L86.0 40.65 Q85.6 40.25 85.1 40.25 84.6 40.25 84.25 40.65 83.85 41.0 83.85 41.55 83.85 42.05 84.2 42.45 L83.35 43.0 83.4 42.8 83.35 42.5 83.15 42.25 82.1 41.75 81.85 41.7 81.6 41.8 80.75 42.3 80.55 42.5 Q80.0 43.7 79.95 44.95 L76.15 46.7 76.05 46.65 Q76.35 44.95 75.75 43.3 L77.3 42.15 77.7 41.35 Q80.3 39.5 81.85 37.6 L82.05 37.75 85.85 39.25 86.1 39.25 86.35 39.1 87.35 38.1 87.5 37.75 87.35 37.4 86.15 36.3 85.25 35.65 85.1 35.6 83.25 35.2 Q85.9 28.7 76.05 21.35 72.95 19.0 69.6 17.4 L69.8 17.15 69.8 17.1 70.1 16.4 70.1 16.2 70.0 15.95 69.45 15.2 Q69.35 15.05 69.2 15.05 L69.05 15.0 68.6 14.85 68.45 14.9 Q67.35 15.25 66.8 16.15 63.65 14.85 60.35 14.15 L60.0 13.4 59.9 13.25 59.7 13.15 59.55 13.1 59.25 13.05 59.2 13.05 59.1 13.0 58.95 13.05 58.75 13.15 58.15 13.75 53.4 13.3 53.1 12.25 52.95 12.05 52.7 11.9 52.2 11.75 52.1 11.75 51.9 11.8 51.15 12.1 51.0 12.25 50.9 12.4 50.6 13.3 49.35 13.35 48.1 13.45 48.35 12.35 48.3 12.1 48.15 11.9 47.4 11.4 47.15 11.3 47.1 11.3 46.9 11.35 Q45.0 12.35 43.85 14.05 L41.4 14.6 41.45 14.1 Q41.45 13.4 41.0 12.95 L40.4 12.55 Q44.35 11.25 48.6 10.65 L48.55 10.85 Q48.55 11.3 48.85 11.65 49.15 11.95 49.6 11.95 L50.35 11.65 50.65 10.85 50.55 10.4 52.1 10.3 52.6 10.45 53.25 10.25 Q58.2 10.1 63.1 11.1 L62.9 12.0 Q62.9 12.75 63.3 13.35 63.7 13.95 64.35 13.95 65.0 13.95 65.45 13.35 L65.5 13.3 65.8 12.0 65.8 11.75 67.0 12.1 69.4 12.95 Q72.75 14.25 75.95 16.15 78.4 17.6 80.5 19.4 L80.0 19.3 79.9 19.25 79.85 19.25 M83.2 22.1 L83.2 22.0 83.3 22.05 83.2 22.1 M75.1 47.1 L73.5 47.65 71.35 48.25 71.75 47.4 71.8 47.2 71.75 46.95 71.25 45.8 71.0 45.55 70.4 45.3 74.45 43.35 75.1 47.1 M70.1 48.5 L64.3 49.55 64.2 49.45 64.05 47.4 64.65 47.25 64.85 47.5 65.65 47.8 66.5 47.5 66.8 46.65 66.8 46.6 67.35 46.45 67.35 46.5 67.55 46.8 69.4 48.35 69.65 48.45 70.1 48.5 M82.35 24.1 Q81.85 24.1 81.5 24.5 81.1 24.85 81.1 25.35 81.1 25.85 81.5 26.25 81.85 26.6 82.35 26.6 82.85 26.6 83.25 26.25 83.6 25.85 83.6 25.35 83.6 24.85 83.25 24.5 82.85 24.1 82.35 24.1 M70.55 16.4 Q70.55 16.85 70.85 17.2 71.15 17.5 71.6 17.5 L72.35 17.2 72.65 16.4 72.35 15.65 Q72.05 15.3 71.6 15.3 71.15 15.3 70.85 15.65 70.55 15.95 70.55 16.4 M76.5 17.8 Q75.9 17.8 75.5 18.2 75.05 18.55 75.05 19.1 75.05 19.65 75.5 20.05 75.9 20.4 76.5 20.4 L77.55 20.05 Q77.95 19.65 77.95 19.1 77.95 18.55 77.55 18.2 77.1 17.8 76.5 17.8 M37.35 13.65 Q37.6 14.75 38.5 15.55 34.4 17.1 30.85 19.75 30.4 19.8 30.1 20.1 L29.8 20.55 Q27.55 22.3 25.55 24.55 24.0 26.25 22.95 27.9 L22.85 27.8 22.5 27.75 22.25 27.95 19.65 31.0 19.5 31.25 19.55 31.5 19.7 31.7 20.8 32.45 20.95 32.55 Q19.8 38.1 25.6 42.5 L25.3 43.05 Q24.95 43.8 24.95 44.85 24.95 45.7 25.2 46.35 L22.95 45.65 21.0 44.2 21.85 42.65 21.85 42.45 21.75 42.2 21.2 41.45 21.05 41.3 20.8 41.25 20.2 41.35 Q19.35 41.45 18.8 42.0 L18.05 41.0 Q16.75 39.15 16.7 37.05 L16.7 36.2 16.85 36.4 Q17.15 36.7 17.6 36.7 L18.35 36.4 18.65 35.6 18.35 34.85 Q18.05 34.5 17.6 34.5 17.15 34.5 16.85 34.85 L16.75 34.95 Q17.2 28.8 20.75 24.35 L21.2 24.1 21.5 23.6 23.1 22.1 24.65 20.8 26.65 19.8 26.85 19.65 27.25 18.9 29.15 17.9 29.8 17.5 Q30.15 17.8 30.6 17.8 31.1 17.8 31.45 17.45 L31.8 16.6 31.8 16.35 Q34.5 14.8 37.35 13.65 M27.85 43.8 L32.1 45.3 32.0 45.35 31.85 45.7 Q31.8 47.1 32.35 48.2 L27.45 47.0 27.6 46.7 Q27.95 45.9 27.95 44.85 L27.85 43.8 M34.7 46.1 Q39.85 47.5 45.2 48.15 L45.3 48.3 45.55 48.55 46.5 48.8 46.8 48.8 47.05 48.6 47.25 48.4 51.35 48.65 51.3 50.2 48.85 50.15 48.4 50.1 47.9 50.1 45.15 49.95 42.45 49.65 42.5 49.2 Q42.5 48.7 42.2 48.35 41.85 48.0 41.35 48.0 40.85 48.0 40.55 48.35 40.2 48.7 40.2 49.2 L40.2 49.4 38.2 49.1 36.4 48.8 36.35 48.7 35.95 47.9 35.9 48.75 35.3 48.7 34.7 46.1 M52.4 48.65 Q58.35 48.75 63.85 47.45 L63.7 49.3 Q62.95 49.25 62.4 49.65 L62.15 49.85 59.35 50.05 59.35 49.8 59.25 49.45 58.7 48.7 58.5 48.55 58.3 48.5 58.25 48.5 57.2 48.7 Q55.65 49.1 54.65 50.2 L52.3 50.2 52.4 48.65 M23.5 25.0 Q23.1 24.6 22.6 24.6 22.1 24.6 21.75 25.0 21.35 25.35 21.35 25.85 21.35 26.35 21.75 26.75 22.1 27.1 22.6 27.1 23.1 27.1 23.5 26.75 L23.85 25.85 Q23.85 25.35 23.5 25.0" fill="#e2b97a" fill-rule="evenodd" stroke="none"/>
    <path d="M78.4 31.0 L78.3 31.2 78.25 31.4 78.3 31.6 78.7 32.5 79.0 32.8 79.45 32.95 79.65 32.95 79.85 32.9 Q81.55 31.95 82.45 30.05 L82.5 29.75 82.35 29.5 81.5 28.65 81.25 28.5 81.0 28.55 Q79.95 28.9 79.25 29.7 L79.25 29.35 Q79.25 28.55 78.75 28.0 78.25 27.45 77.55 27.45 76.85 27.45 76.35 28.0 75.85 28.55 75.85 29.35 75.85 30.15 76.35 30.7 76.85 31.25 77.55 31.25 L78.4 31.0 M83.1 35.2 L83.0 35.2 82.8 35.3 82.05 35.75 81.95 35.9 81.85 36.1 81.7 37.2 81.8 37.5 81.85 37.6 Q80.3 39.5 77.7 41.35 L77.85 39.7 77.75 39.45 77.2 38.7 76.95 38.55 76.8 38.5 76.5 38.45 76.35 38.4 76.25 38.4 76.1 38.5 Q74.7 39.45 74.15 40.8 L73.9 40.6 74.0 41.15 73.75 42.5 73.8 42.75 74.0 42.95 74.4 43.15 74.45 43.35 70.4 45.3 69.8 45.05 69.6 45.0 69.5 45.0 68.05 45.3 67.85 45.4 67.7 45.6 67.4 46.2 67.35 46.45 66.8 46.6 66.5 45.85 Q66.15 45.5 65.65 45.5 65.15 45.5 64.85 45.85 64.5 46.15 64.5 46.65 64.5 47.0 64.65 47.25 L64.05 47.4 63.9 46.0 63.85 47.45 Q58.35 48.75 52.4 48.65 L52.65 45.9 51.45 43.3 51.1 44.25 Q51.4 46.45 51.35 48.65 L47.25 48.4 47.7 47.65 47.7 47.7 48.15 46.55 48.45 44.25 48.35 43.9 48.05 43.5 48.45 43.25 48.75 42.4 48.45 41.6 Q48.1 41.25 47.6 41.25 47.1 41.25 46.8 41.6 46.45 41.9 46.45 42.4 46.45 42.85 46.7 43.15 L46.3 43.3 46.1 43.45 46.0 43.65 45.2 47.95 45.2 48.15 Q39.85 47.5 34.7 46.1 L34.55 45.4 34.45 45.2 34.25 45.05 33.55 44.75 33.35 44.7 33.25 44.7 32.7 44.8 32.45 44.95 32.1 45.3 27.85 43.8 27.6 43.05 Q27.15 41.95 26.45 42.05 25.95 42.0 25.6 42.5 19.8 38.1 20.95 32.55 L21.05 32.55 21.3 32.5 22.0 32.2 22.25 32.05 23.9 29.4 23.95 29.15 23.95 28.95 23.7 28.45 23.45 28.15 22.95 27.9 Q24.0 26.25 25.55 24.55 27.55 22.3 29.8 20.55 L29.7 21.05 Q29.7 21.6 30.1 22.0 30.5 22.4 31.1 22.4 31.7 22.4 32.1 22.0 32.5 21.6 32.5 21.05 L32.55 21.15 32.85 21.4 33.2 21.4 36.0 20.3 36.2 20.15 36.3 19.95 36.6 18.7 36.6 18.4 36.4 18.15 35.65 17.65 35.35 17.55 35.1 17.65 32.3 19.55 32.1 19.85 32.1 20.1 Q31.65 19.7 31.1 19.7 L30.85 19.75 Q34.4 17.1 38.5 15.55 L38.75 15.8 38.8 15.85 39.5 16.2 39.9 16.25 40.4 16.05 40.6 15.9 40.7 15.65 40.75 15.5 41.0 15.3 41.4 14.6 43.85 14.05 43.5 14.55 43.4 14.9 43.6 15.2 44.3 15.75 44.65 15.85 Q46.0 15.75 47.05 14.85 L48.1 13.45 49.35 13.35 50.6 13.3 50.1 14.85 50.05 15.05 50.15 15.25 50.75 16.2 50.95 16.4 51.2 16.45 52.35 16.35 52.7 16.2 53.25 15.35 Q53.65 14.7 53.5 13.95 L53.4 13.3 58.15 13.75 56.8 15.1 56.65 15.35 Q56.6 15.5 56.7 15.65 L56.7 15.75 55.1 17.05 55.8 18.75 56.85 18.8 57.75 18.7 Q58.75 18.35 59.1 17.45 L58.9 17.0 60.45 15.1 60.55 14.85 60.5 14.55 60.35 14.15 Q63.65 14.85 66.8 16.15 66.4 16.8 66.25 17.75 L66.3 18.0 66.45 18.2 67.1 18.7 67.35 18.8 67.55 18.8 Q68.8 18.4 69.6 17.4 72.95 19.0 76.05 21.35 85.9 28.7 83.25 35.2 L83.2 35.2 83.1 35.2 M64.8 21.5 L64.6 21.55 64.4 21.7 64.0 22.2 63.9 22.45 63.95 22.7 Q65.45 26.05 69.0 25.55 L69.25 25.4 69.4 25.1 Q69.6 23.2 67.75 22.2 L65.85 21.6 64.8 21.5 M68.9 21.3 Q68.9 21.85 69.3 22.25 69.7 22.65 70.25 22.65 70.8 22.65 71.2 22.25 71.6 21.85 71.6 21.3 71.6 20.75 71.2 20.35 70.8 19.95 70.25 19.95 69.7 19.95 69.3 20.35 68.9 20.75 68.9 21.3 M73.55 20.85 L73.5 20.85 73.35 20.9 73.15 21.05 72.75 21.5 72.65 21.85 Q72.85 23.85 74.65 25.0 L74.95 25.05 75.2 24.95 76.3 24.15 76.5 23.9 76.45 23.55 75.25 21.1 75.05 20.9 74.8 20.8 73.55 20.85 M47.1 17.35 Q47.1 17.85 47.5 18.25 47.85 18.6 48.35 18.6 L49.25 18.25 49.6 17.35 Q49.6 16.85 49.25 16.5 48.85 16.1 48.35 16.1 47.85 16.1 47.5 16.5 47.1 16.85 47.1 17.35 M41.85 17.45 Q41.35 17.45 41.05 17.8 40.7 18.1 40.7 18.55 40.7 19.0 41.05 19.35 L41.85 19.65 42.7 19.35 43.0 18.55 42.7 17.8 Q42.35 17.45 41.85 17.45 M47.35 19.2 Q47.15 19.2 47.05 19.3 L44.85 21.25 44.8 21.25 Q44.3 21.65 44.1 22.3 L44.1 22.6 44.25 22.85 45.05 23.5 45.25 23.6 45.5 23.6 Q46.95 23.15 48.05 22.15 L48.1 22.1 49.15 20.9 49.25 20.6 49.2 20.35 49.0 20.15 47.6 19.3 47.35 19.2 M39.6 18.75 L39.4 18.8 38.95 18.95 38.75 19.1 38.4 19.5 38.3 19.8 38.25 20.55 38.3 20.75 Q39.15 22.55 40.95 23.15 L41.6 23.35 41.85 23.3 42.1 23.15 42.6 22.35 42.65 22.05 42.55 21.75 40.45 19.05 40.2 18.9 40.05 18.85 39.75 18.8 39.6 18.75 M49.9 23.85 Q49.6 24.2 49.6 24.7 49.6 25.2 49.9 25.6 50.2 25.95 50.6 25.95 51.0 25.95 51.3 25.6 L51.6 24.7 51.3 23.85 Q51.0 23.45 50.6 23.45 50.2 23.45 49.9 23.85 M56.85 19.2 L56.8 19.2 Q56.65 19.2 56.6 19.3 L55.75 19.75 55.55 19.95 55.5 20.25 56.1 23.15 56.2 23.4 56.4 23.5 57.25 23.85 57.5 23.9 57.75 23.85 58.6 23.25 58.75 23.05 58.8 22.8 58.8 22.35 58.8 21.6 58.8 21.55 Q58.55 20.35 57.65 19.45 L57.45 19.35 57.3 19.3 57.0 19.25 56.85 19.2 M58.2 26.0 Q58.2 26.6 58.6 27.0 59.0 27.4 59.6 27.4 60.2 27.4 60.6 27.0 61.0 26.6 61.0 26.0 61.0 25.4 60.6 25.0 60.2 24.6 59.6 24.6 59.0 24.6 58.6 25.0 58.2 25.4 58.2 26.0 M58.35 30.25 Q57.8 30.25 57.4 30.65 57.0 31.0 57.0 31.55 57.0 32.1 57.4 32.5 57.8 32.85 58.35 32.85 L59.3 32.5 Q59.7 32.1 59.7 31.55 59.7 31.0 59.3 30.65 58.9 30.25 58.35 30.25 M51.4 28.1 L51.25 28.05 51.1 28.0 50.6 28.15 50.45 28.2 50.2 28.35 49.55 29.1 49.5 29.3 49.45 29.5 Q49.85 31.5 51.55 32.8 L51.75 32.9 51.95 32.9 53.2 32.7 53.45 32.55 Q54.3 31.7 53.95 30.4 L53.95 30.45 53.65 29.7 53.65 29.65 Q53.0 28.6 52.0 28.3 L51.4 28.1 M51.0 36.25 L50.85 36.2 50.35 36.35 50.2 36.4 49.95 36.55 49.6 36.95 49.5 37.3 Q49.75 40.2 52.6 40.65 L52.8 40.65 53.0 40.5 53.45 40.0 53.6 39.65 53.55 39.1 Q53.5 37.45 52.0 36.65 L51.95 36.6 51.0 36.25 M58.1 33.4 L58.05 33.4 57.8 33.5 56.1 34.8 55.95 35.05 55.45 36.35 55.4 36.6 55.6 37.5 55.75 37.75 55.95 37.9 57.2 38.25 57.5 38.25 57.75 38.05 59.7 35.3 59.8 35.0 59.75 34.55 59.7 34.3 59.5 34.1 58.35 33.45 58.1 33.4 M44.55 30.2 L44.65 30.2 45.8 30.2 46.05 30.15 46.25 29.95 46.75 29.05 46.8 28.7 46.6 28.4 45.05 27.4 45.0 27.35 44.0 26.95 43.9 26.95 43.7 27.0 43.5 27.2 43.0 27.95 42.9 28.25 43.0 28.45 42.85 28.6 Q42.45 28.9 42.45 29.35 42.45 29.8 42.85 30.15 L43.7 30.45 44.55 30.2 M39.85 31.5 L39.55 31.6 38.6 32.25 38.45 32.4 38.4 32.6 Q38.25 33.95 39.2 34.85 L39.2 34.8 39.8 35.4 40.15 35.5 41.45 35.4 41.75 35.3 41.9 35.05 42.15 33.75 42.15 33.45 42.0 33.25 40.2 31.65 Q40.05 31.5 39.9 31.5 L39.85 31.5 M46.75 33.45 Q46.35 33.8 46.35 34.35 46.35 34.9 46.75 35.3 47.1 35.65 47.6 35.65 48.1 35.65 48.5 35.3 48.85 34.9 48.85 34.35 48.85 33.8 48.5 33.45 48.1 33.05 47.6 33.05 47.1 33.05 46.75 33.45 M43.55 38.55 Q43.1 38.55 42.8 38.9 42.45 39.2 42.45 39.65 42.45 40.1 42.8 40.45 L43.55 40.75 44.35 40.45 44.65 39.65 44.35 38.9 Q44.0 38.55 43.55 38.55 M40.5 38.65 Q39.85 38.6 39.45 39.45 L39.4 39.5 Q39.05 40.1 39.05 40.9 39.05 41.75 39.4 42.4 39.8 43.2 40.5 43.15 41.15 43.2 41.65 42.4 L41.65 42.35 41.95 40.9 Q41.95 40.05 41.65 39.5 L41.65 39.45 Q41.15 38.6 40.5 38.65 M56.6 40.1 L54.65 40.55 Q54.1 42.6 55.35 44.5 L57.35 44.4 Q59.1 42.0 57.15 40.45 L56.6 40.1 M71.1 28.05 L70.85 28.1 70.15 28.5 69.95 28.75 69.95 29.05 70.95 32.4 71.1 32.65 71.4 32.75 72.4 32.7 72.7 32.6 72.9 32.4 73.25 31.25 73.25 31.05 73.2 30.85 72.0 28.4 71.85 28.2 71.7 28.15 71.55 28.1 71.25 28.05 71.2 28.05 71.1 28.0 71.1 28.05 M69.4 34.9 L69.15 35.0 68.95 35.25 68.5 36.3 Q68.4 36.4 68.45 36.55 L68.6 36.8 69.25 37.4 69.3 37.45 69.95 38.0 70.0 38.05 72.8 38.2 73.05 38.0 73.5 36.95 73.55 36.7 73.5 36.45 73.2 35.9 73.05 35.75 72.85 35.65 69.5 34.9 69.4 34.9 M77.85 36.65 Q77.85 37.25 78.25 37.7 78.6 38.15 79.1 38.15 79.6 38.15 80.0 37.7 L80.35 36.65 Q80.35 36.05 80.0 35.6 79.6 35.15 79.1 35.15 78.6 35.15 78.25 35.6 77.85 36.05 77.85 36.65 M65.2 26.55 Q62.7 27.3 62.15 30.0 L62.15 30.05 62.1 30.7 62.15 30.9 62.3 31.1 62.9 31.6 63.2 31.7 63.65 31.65 63.9 31.6 64.05 31.45 65.4 29.5 Q65.7 29.4 65.95 29.25 L66.15 29.15 66.25 29.0 66.65 27.9 66.65 27.7 66.6 27.5 66.25 26.9 66.1 26.7 65.95 26.65 65.8 26.6 65.5 26.55 65.35 26.5 65.2 26.55 M66.55 30.65 Q67.0 31.6 68.1 31.7 L69.9 30.25 69.85 28.95 69.35 28.2 Q67.85 28.15 66.6 29.05 66.15 29.85 66.55 30.65 M64.35 36.6 Q64.05 36.9 64.05 37.35 64.05 37.8 64.35 38.15 64.65 38.45 65.1 38.45 L65.85 38.15 66.15 37.35 65.85 36.6 Q65.55 36.25 65.1 36.25 64.65 36.25 64.35 36.6 M67.65 42.75 Q68.05 43.15 68.65 43.15 69.25 43.15 69.65 42.75 70.05 42.35 70.05 41.8 70.05 41.25 69.65 40.85 69.25 40.45 68.65 40.45 68.05 40.45 67.65 40.85 67.25 41.25 67.25 41.8 67.25 42.35 67.65 42.75 M64.45 40.3 Q62.35 40.95 61.95 43.1 L61.95 43.15 61.95 44.1 62.05 44.3 62.15 44.45 62.8 44.9 63.05 45.0 63.3 44.95 Q65.55 43.95 66.45 41.7 L66.45 41.35 66.2 41.05 64.85 40.3 64.65 40.25 64.6 40.25 64.45 40.3 M30.6 23.95 Q30.4 23.95 30.3 24.1 L28.2 25.85 28.1 25.9 27.8 26.25 27.7 26.55 27.7 27.3 27.75 27.55 27.9 27.7 28.6 28.2 28.95 28.3 29.75 28.15 29.95 28.1 30.1 27.95 31.85 25.45 31.95 25.1 31.8 24.8 30.95 24.1 Q30.8 23.95 30.6 23.95 M36.2 27.15 L35.45 26.85 Q35.0 26.85 34.7 27.15 34.4 27.45 34.4 27.85 L34.7 28.55 Q35.0 28.85 35.45 28.85 L36.2 28.55 36.5 27.85 36.2 27.15 M32.7 31.35 L32.55 31.4 32.4 31.5 31.4 32.35 31.2 32.6 31.25 32.9 31.7 34.0 31.95 34.25 32.25 34.3 34.65 33.75 34.9 33.65 35.0 33.45 35.25 32.7 35.3 32.4 35.15 31.85 35.05 31.7 34.95 31.55 34.15 31.05 33.9 30.95 33.85 30.95 32.7 31.35 M25.65 28.35 Q25.25 28.7 25.25 29.25 25.25 29.8 25.65 30.2 26.0 30.55 26.55 30.55 27.1 30.55 27.5 30.2 27.85 29.8 27.85 29.25 27.85 28.7 27.5 28.35 27.1 27.95 26.55 27.95 26.0 27.95 25.65 28.35 M25.0 35.25 Q24.4 35.3 23.95 35.6 23.15 36.05 23.2 36.7 23.15 37.35 23.95 37.85 L25.4 38.2 26.85 37.85 Q27.65 37.35 27.6 36.7 27.65 36.05 26.85 35.6 L25.8 35.25 25.45 35.2 25.3 35.2 25.0 35.25 M28.6 32.8 Q28.1 32.8 27.8 33.2 27.45 33.6 27.45 34.15 27.45 34.7 27.8 35.1 28.1 35.5 28.6 35.5 29.1 35.5 29.45 35.1 L29.75 34.15 29.45 33.2 Q29.1 32.8 28.6 32.8 M25.85 39.25 Q25.35 39.25 25.05 39.6 24.7 39.9 24.7 40.4 24.7 40.9 25.05 41.25 25.35 41.55 25.85 41.55 26.35 41.55 26.7 41.25 L27.0 40.4 26.7 39.6 Q26.35 39.25 25.85 39.25 M35.85 42.5 Q35.4 42.5 35.1 42.85 34.8 43.15 34.8 43.6 34.8 44.05 35.1 44.4 35.4 44.7 35.85 44.7 36.3 44.7 36.6 44.4 L36.9 43.6 Q36.9 43.15 36.6 42.85 36.3 42.5 35.85 42.5 M34.85 41.7 Q35.55 40.1 34.95 38.3 L33.85 38.0 Q32.25 38.75 32.3 40.45 L32.35 41.3 Q33.55 41.95 34.85 41.7" fill="#eaca8d" fill-rule="evenodd" stroke="none"/>
  </g>
</svg>
