<?xml version="1.0" encoding="UTF-8" standalone="no"?>
<svg xmlns:xlink="http://www.w3.org/1999/xlink" height="53.65px" width="106.05px" xmlns="http://www.w3.org/2000/svg">
  <g transform="matrix(1.0, 0.0, 0.0, 1.0, 0.0, 0.0)">
    <path d="M99.3 27.5 Q101.5 25.6 102.0 22.75 L102.25 21.35 105.0 21.25 105.0 21.45 Q104.85 26.1 101.3 29.2 L96.9 29.35 99.3 27.5 M4.3 21.4 L4.2 22.6 Q5.2 29.2 11.7 31.55 L14.6 32.85 10.15 33.05 Q6.2 30.95 3.45 27.65 1.1 24.85 1.0 21.4 L4.3 21.4 M61.85 41.7 L62.35 42.45 70.45 41.85 69.2 47.05 Q50.75 53.5 33.5 44.85 L33.1 41.5 36.25 41.45 36.9 41.0 41.05 41.45 41.6 40.8 42.75 41.3 49.3 41.95 48.3 41.9 48.85 42.55 54.95 42.8 55.65 41.95 61.85 41.7" fill="#e2b97a" fill-rule="evenodd" stroke="none"/>
    <path d="M101.3 29.2 Q104.85 26.1 105.0 21.45 L105.0 21.25 104.2 17.8 Q102.2 13.7 98.25 11.3 94.3 8.8 89.9 7.2 85.95 5.75 81.9 4.65 77.5 3.45 73.05 2.8 L63.5 1.35 58.4 1.05 53.0 1.0 47.7 1.05 42.6 1.35 33.05 2.8 Q28.6 3.45 24.25 4.6 20.15 5.75 16.15 7.2 12.55 8.55 9.05 10.5 5.65 12.45 3.1 15.6 1.65 17.5 1.2 20.0 L1.0 21.4 Q1.1 24.85 3.45 27.65 6.2 30.95 10.15 33.05 L10.85 33.4 11.0 34.65 9.1 33.6 Q6.15 31.8 3.7 29.4 L2.25 27.85 4.25 35.55 Q4.7 37.25 5.65 38.8 L6.85 40.35 10.25 42.85 Q13.75 45.35 17.85 46.9 22.3 48.6 27.1 49.85 L34.9 51.4 44.25 52.45 53.0 52.6 58.15 52.65 64.1 52.25 67.75 51.85 75.05 50.45 81.85 49.05 88.2 46.9 Q92.4 45.25 96.2 42.85 98.0 41.65 99.4 40.1 L102.4 33.8 102.6 33.1 Q103.05 30.55 103.65 28.05 L102.05 29.9 99.7 31.8 98.4 32.7 98.2 32.15 97.5 32.1 101.3 29.2 M105.5 18.3 Q106.55 21.45 105.65 25.0 L103.35 34.4 102.4 37.4 101.35 39.35 Q99.9 41.45 97.7 42.95 94.15 45.5 90.35 47.0 L84.8 49.05 76.65 51.2 67.8 52.95 58.15 53.65 53.0 53.65 47.9 53.65 38.35 52.55 29.5 51.2 21.3 49.25 Q16.9 47.85 12.7 45.7 8.35 43.5 5.15 39.85 3.65 38.15 3.05 36.15 L2.55 34.1 0.35 24.1 Q-0.9 19.0 2.25 15.1 5.05 11.65 8.9 9.6 12.3 7.8 15.85 6.45 19.8 4.8 23.95 3.65 28.35 2.45 32.85 1.8 L42.5 0.35 47.7 0.1 53.0 0.0 58.4 0.05 63.6 0.35 73.25 1.8 Q77.75 2.45 82.15 3.6 L90.25 6.25 Q92.15 6.95 94.05 7.8 98.6 9.9 102.15 13.15 104.45 15.2 105.5 18.3" fill="#734e1c" fill-rule="evenodd" stroke="none"/>
    <path d="M105.0 21.25 L102.25 21.35 101.8 17.85 104.2 17.8 105.0 21.25 M6.5 15.55 Q4.9 17.45 4.45 20.1 L4.3 21.4 1.0 21.4 1.2 20.0 Q1.65 17.5 3.1 15.6 L6.5 15.55 M64.1 52.25 L58.15 52.65 53.0 52.6 44.25 52.45 42.5 51.85 35.8 50.6 Q30.55 49.6 25.8 46.8 L19.75 42.4 18.6 37.85 20.65 38.55 32.25 41.25 32.2 40.3 36.9 41.0 36.25 41.45 33.1 41.5 33.5 44.85 Q50.75 53.5 69.2 47.05 L70.45 41.85 62.35 42.45 61.85 41.7 71.75 40.65 71.75 41.6 76.85 40.8 Q81.3 39.95 85.5 38.5 L88.35 37.55 87.35 40.55 86.6 41.1 Q86.05 42.25 85.0 42.95 78.0 47.35 70.2 50.15 L67.8 50.85 Q66.2 50.9 64.85 51.75 L64.1 52.25 M55.65 41.95 L54.95 42.8 48.85 42.55 48.3 41.9 49.3 41.95 55.65 41.95" fill="#d8a663" fill-rule="evenodd" stroke="none"/>
    <path d="M102.25 21.35 L102.0 22.75 Q101.5 25.6 99.3 27.5 99.2 26.15 99.9 25.15 102.5 21.55 100.4 17.3 92.9 9.5 82.1 6.8 57.55 0.65 33.2 5.6 L33.25 5.6 33.8 5.7 34.2 5.95 34.45 6.25 34.55 7.0 33.75 7.4 32.7 7.55 32.3 7.25 31.85 6.6 32.75 5.65 23.6 7.55 Q9.9 10.0 4.7 22.35 L4.2 22.6 4.3 21.4 4.45 20.1 Q4.9 17.45 6.5 15.55 10.75 11.15 16.5 9.0 27.3 4.75 38.8 3.4 50.25 1.9 61.85 2.85 72.75 3.45 83.25 5.65 95.45 8.15 101.8 17.85 L102.25 21.35 M83.5 10.35 L83.95 11.2 83.55 11.7 Q80.5 14.7 78.05 11.5 L78.15 11.35 Q80.75 9.95 83.5 10.35 M89.75 22.4 L89.45 23.6 88.7 24.0 Q88.3 23.9 88.05 23.35 87.75 22.8 87.8 22.2 L89.75 22.4 M78.9 23.55 Q79.25 23.55 79.55 23.85 L79.85 24.55 79.55 25.25 78.85 25.55 Q78.45 25.55 78.15 25.25 77.85 24.95 77.85 24.55 77.85 24.15 78.15 23.85 78.35 23.65 78.55 23.6 L78.85 23.55 78.9 23.55 M64.0 10.2 Q64.35 9.9 64.85 9.9 65.35 9.9 65.75 10.2 66.1 10.5 66.1 10.95 L65.75 11.7 64.85 12.0 64.0 11.7 Q63.6 11.4 63.6 10.95 63.6 10.5 64.0 10.2 M66.8 5.0 L67.35 5.75 66.95 6.85 61.15 7.0 61.0 6.05 63.6 4.45 66.8 5.0 M42.15 9.45 L42.3 10.35 Q41.95 11.3 41.05 11.65 L39.9 12.05 39.4 11.75 39.25 10.8 41.35 8.95 42.15 9.45 M43.15 4.75 Q43.9 5.15 43.9 5.75 43.9 6.35 43.15 6.75 L41.25 7.15 Q40.15 7.15 39.4 6.75 38.6 6.35 38.6 5.75 38.6 5.15 39.4 4.75 L41.25 4.35 43.15 4.75 M56.1 12.45 L56.65 13.2 56.05 14.9 55.55 15.1 Q52.9 16.2 50.7 14.45 L50.8 13.15 Q53.2 11.75 56.1 12.45 M52.5 23.0 Q52.9 22.65 53.5 22.65 54.1 22.65 54.5 23.0 54.9 23.3 54.9 23.75 54.9 24.2 54.5 24.55 L53.5 24.85 52.5 24.55 Q52.1 24.2 52.1 23.75 52.1 23.3 52.5 23.0 M66.45 30.25 Q65.95 29.9 65.95 29.4 65.95 28.9 66.45 28.6 66.9 28.25 67.55 28.25 68.2 28.25 68.7 28.6 69.15 28.9 69.15 29.4 L68.7 30.25 67.55 30.55 66.45 30.25 M20.45 11.15 L20.75 11.8 18.15 11.6 20.45 11.15 M19.25 22.15 L19.75 23.35 Q18.05 24.75 17.2 22.95 L17.7 22.2 18.5 21.95 19.25 22.15 M34.15 13.8 L34.45 14.5 34.15 15.2 Q33.8 15.5 33.3 15.5 32.8 15.5 32.5 15.2 32.15 14.9 32.15 14.5 32.15 14.1 32.5 13.8 32.8 13.5 33.3 13.5 33.8 13.5 34.15 13.8 M38.75 32.45 L39.2 33.35 38.75 34.3 Q38.25 34.65 37.6 34.65 36.95 34.65 36.5 34.3 36.0 33.9 36.0 33.35 36.0 32.8 36.5 32.45 36.95 32.05 37.6 32.05 L38.75 32.45" fill="#ccae91" fill-rule="evenodd" stroke="none"/>
    <path d="M101.8 17.85 Q95.45 8.15 83.25 5.65 72.75 3.45 61.85 2.85 50.25 1.9 38.8 3.4 27.3 4.75 16.5 9.0 10.75 11.15 6.5 15.55 L3.1 15.6 Q5.65 12.45 9.05 10.5 12.55 8.55 16.15 7.2 20.15 5.75 24.25 4.6 28.6 3.45 33.05 2.8 L42.6 1.35 47.7 1.05 53.0 1.0 58.4 1.05 63.5 1.35 73.05 2.8 Q77.5 3.45 81.9 4.65 85.95 5.75 89.9 7.2 94.3 8.8 98.25 11.3 102.2 13.7 104.2 17.8 L101.8 17.85 M98.4 32.7 L99.7 31.8 98.8 40.7 99.4 40.1 Q98.0 41.65 96.2 42.85 92.4 45.25 88.2 46.9 L81.85 49.05 75.05 50.45 67.75 51.85 64.1 52.25 64.85 51.75 Q66.2 50.9 67.8 50.85 L70.2 50.15 Q78.0 47.35 85.0 42.95 86.05 42.25 86.6 41.1 L87.35 40.55 88.35 37.55 90.15 36.8 Q94.45 35.2 98.4 32.7 M44.25 52.45 L34.9 51.4 27.1 49.85 Q22.3 48.6 17.85 46.9 13.75 45.35 10.25 42.85 L6.85 40.35 Q6.75 37.4 8.35 34.85 L9.1 33.6 11.0 34.65 18.6 37.85 19.75 42.4 25.8 46.8 Q30.55 49.6 35.8 50.6 L42.5 51.85 44.25 52.45 M85.5 38.5 Q81.3 39.95 76.85 40.8 L71.75 41.6 71.75 40.65 84.45 37.8 84.9 37.35 85.35 37.5 85.5 38.5 M32.2 40.3 L32.25 41.25 20.65 38.55 20.2 37.35 32.2 40.3" fill="#cd8b35" fill-rule="evenodd" stroke="none"/>
    <path d="M99.3 27.5 L96.9 29.35 Q90.4 33.45 82.8 35.6 70.65 38.9 58.15 39.05 L35.45 38.25 Q24.7 37.1 14.6 32.85 L11.7 31.55 Q5.2 29.2 4.2 22.6 L4.7 22.35 Q9.9 10.0 23.6 7.55 L32.75 5.65 31.85 6.6 32.3 7.25 32.7 7.55 33.75 7.4 34.55 7.0 34.45 6.25 34.2 5.95 33.8 5.7 33.25 5.6 33.2 5.6 Q57.55 0.65 82.1 6.8 92.9 9.5 100.4 17.3 102.5 21.55 99.9 25.15 99.2 26.15 99.3 27.5 M83.5 10.35 Q80.75 9.95 78.15 11.35 L78.05 11.5 Q80.5 14.7 83.55 11.7 L83.95 11.2 83.5 10.35 M86.9 11.8 Q86.0 12.2 86.0 12.75 86.0 13.3 86.9 13.7 L89.05 14.1 Q90.3 14.1 91.2 13.7 92.1 13.3 92.1 12.75 92.1 12.2 91.2 11.8 L89.05 11.4 86.9 11.8 M82.8 17.6 Q83.3 17.25 83.3 16.75 83.3 16.25 82.8 15.95 82.25 15.6 81.5 15.6 80.75 15.6 80.25 15.95 79.7 16.25 79.7 16.75 79.7 17.25 80.25 17.6 L81.5 17.9 82.8 17.6 M89.75 22.4 L90.3 22.55 90.85 23.3 90.4 24.25 85.9 24.5 85.5 24.2 85.35 23.65 87.8 22.2 Q87.75 22.8 88.05 23.35 88.3 23.9 88.7 24.0 L89.45 23.6 89.75 22.4 M100.05 19.9 L97.05 19.9 97.35 19.05 96.8 18.3 95.1 18.05 94.05 19.4 96.15 19.9 81.1 19.75 80.75 19.0 75.25 19.15 74.65 19.65 74.9 20.45 73.0 21.25 72.35 21.5 71.75 21.65 71.1 21.6 70.55 20.15 70.8 19.8 71.3 19.8 Q68.05 19.65 65.3 18.55 L64.55 18.15 56.2 18.45 55.65 19.4 56.45 19.55 Q47.2 19.3 37.95 17.7 L36.55 17.3 35.15 17.35 32.85 18.05 32.75 18.55 Q20.05 18.0 7.7 20.25 7.05 20.45 6.45 21.0 7.7 26.15 12.1 28.9 17.15 32.0 23.05 33.7 54.85 42.65 86.5 32.0 91.15 30.5 95.15 27.7 97.6 26.0 98.65 23.45 L100.05 19.9 M83.4 28.7 Q83.05 28.4 83.05 27.95 83.05 27.5 83.4 27.2 83.75 26.9 84.25 26.9 L85.1 27.2 Q85.45 27.5 85.45 27.95 L85.1 28.7 84.25 29.0 Q83.75 29.0 83.4 28.7 M78.9 23.55 L80.75 23.3 81.9 24.65 81.6 25.75 Q80.9 26.45 79.85 26.5 L76.6 26.2 76.0 23.95 78.55 23.6 Q78.35 23.65 78.15 23.85 77.85 24.15 77.85 24.55 77.85 24.95 78.15 25.25 78.45 25.55 78.85 25.55 L79.55 25.25 79.85 24.55 79.55 23.85 Q79.25 23.55 78.9 23.55 M73.8 7.8 L70.6 7.95 69.6 9.25 69.4 9.95 69.85 10.7 Q72.3 11.6 74.3 10.05 L74.65 9.1 73.8 7.8 M66.8 5.0 L63.6 4.45 61.0 6.05 61.15 7.0 66.95 6.85 67.35 5.75 66.8 5.0 M64.0 10.2 Q63.6 10.5 63.6 10.95 63.6 11.4 64.0 11.7 L64.85 12.0 65.75 11.7 66.1 10.95 Q66.1 10.5 65.75 10.2 65.35 9.9 64.85 9.9 64.35 9.9 64.0 10.2 M69.2 15.95 Q69.2 15.35 68.5 14.95 67.8 14.55 66.85 14.55 65.9 14.55 65.2 14.95 64.5 15.35 64.5 15.95 64.5 16.55 65.2 16.95 65.9 17.35 66.85 17.35 67.8 17.35 68.5 16.95 69.2 16.55 69.2 15.95 M69.35 23.15 Q69.85 23.15 70.25 23.45 70.6 23.75 70.6 24.15 L70.25 24.85 69.35 25.15 68.5 24.85 Q68.1 24.55 68.1 24.15 68.1 23.75 68.5 23.45 68.85 23.15 69.35 23.15 M61.65 22.15 L60.85 23.7 58.5 23.8 57.9 23.2 58.25 22.0 61.65 22.15 M72.75 13.0 Q72.4 13.3 72.4 13.75 72.4 14.2 72.75 14.55 73.05 14.85 73.5 14.85 73.95 14.85 74.3 14.55 L74.6 13.75 74.3 13.0 Q73.95 12.65 73.5 12.65 73.05 12.65 72.75 13.0 M57.2 10.6 Q56.8 10.9 56.8 11.3 L57.2 12.0 58.15 12.3 59.1 12.0 Q59.5 11.7 59.5 11.3 59.5 10.9 59.1 10.6 58.7 10.3 58.15 10.3 57.6 10.3 57.2 10.6 M57.95 6.15 L51.1 5.35 50.1 6.3 50.35 7.05 Q54.5 9.15 58.15 6.55 L57.95 6.15 M43.15 4.75 L41.25 4.35 39.4 4.75 Q38.6 5.15 38.6 5.75 38.6 6.35 39.4 6.75 40.15 7.15 41.25 7.15 L43.15 6.75 Q43.9 6.35 43.9 5.75 43.9 5.15 43.15 4.75 M42.15 9.45 L41.35 8.95 39.25 10.8 39.4 11.75 39.9 12.05 41.05 11.65 Q41.95 11.3 42.3 10.35 L42.15 9.45 M47.2 10.15 L47.5 9.65 47.2 9.15 46.45 8.95 45.7 9.15 Q45.4 9.35 45.4 9.65 L45.7 10.15 46.45 10.35 47.2 10.15 M45.95 15.8 L46.8 15.55 46.65 14.5 Q44.0 13.0 41.0 13.4 L39.65 13.7 39.15 14.2 39.05 15.15 39.95 15.95 45.65 16.15 45.95 15.8 M45.05 23.8 L42.9 23.15 42.8 22.1 47.2 21.55 47.6 22.15 47.1 23.65 45.05 23.8 M56.1 12.45 Q53.2 11.75 50.8 13.15 L50.7 14.45 Q52.9 16.2 55.55 15.1 L56.05 14.9 56.65 13.2 56.1 12.45 M52.9 18.3 L53.9 18.05 Q54.3 17.75 54.3 17.35 54.3 16.95 53.9 16.7 53.5 16.4 52.9 16.4 52.3 16.4 51.9 16.7 51.5 16.95 51.5 17.35 51.5 17.75 51.9 18.05 L52.9 18.3 M52.5 23.0 Q52.1 23.3 52.1 23.75 52.1 24.2 52.5 24.55 L53.5 24.85 54.5 24.55 Q54.9 24.2 54.9 23.75 54.9 23.3 54.5 23.0 54.1 22.65 53.5 22.65 52.9 22.65 52.5 23.0 M45.2 31.3 L46.1 30.4 47.6 30.5 47.85 31.05 46.1 31.75 45.2 31.3 M55.05 33.85 Q54.45 33.85 54.0 33.55 53.55 33.25 53.55 32.8 53.55 32.35 54.0 32.05 54.45 31.75 55.05 31.75 L56.1 32.05 Q56.55 32.35 56.55 32.8 L56.1 33.55 55.05 33.85 M56.6 28.3 L55.8 27.8 55.85 26.7 Q57.55 25.65 59.15 26.75 L58.6 27.85 56.6 28.3 M50.75 22.15 Q53.75 20.85 55.85 23.15 L55.8 25.05 54.9 25.65 Q53.1 26.5 51.75 26.0 L51.25 26.85 50.0 26.5 50.85 25.5 49.9 22.6 50.75 22.15 M71.25 29.05 L71.1 30.0 69.75 30.65 Q67.15 31.8 64.55 30.4 L64.55 29.05 65.85 28.2 Q68.95 26.65 71.25 29.05 M72.9 30.1 Q73.45 30.1 73.85 30.4 74.2 30.7 74.2 31.1 L73.85 31.8 72.9 32.1 72.0 31.8 71.6 31.1 Q71.6 30.7 72.0 30.4 72.35 30.1 72.9 30.1 M66.45 30.25 L67.55 30.55 68.7 30.25 69.15 29.4 Q69.15 28.9 68.7 28.6 68.2 28.25 67.55 28.25 66.9 28.25 66.45 28.6 65.95 28.9 65.95 29.4 65.95 29.9 66.45 30.25 M61.65 31.95 Q61.65 31.55 61.95 31.3 62.2 31.0 62.6 31.0 L63.3 31.3 63.55 31.95 63.3 32.65 62.6 32.9 61.95 32.65 Q61.65 32.35 61.65 31.95 M35.1 10.3 Q35.4 10.6 35.85 10.6 36.3 10.6 36.6 10.3 L36.9 9.55 Q36.9 9.1 36.6 8.8 36.3 8.5 35.85 8.5 35.4 8.5 35.1 8.8 34.8 9.1 34.8 9.55 34.8 10.0 35.1 10.3 M31.05 10.3 Q30.7 9.55 29.95 9.4 L23.7 9.95 23.2 10.3 23.05 10.8 23.2 11.4 Q26.8 12.6 30.6 11.45 L31.05 10.3 M20.45 11.15 L18.15 11.6 20.75 11.8 20.45 11.15 M29.6 14.95 L28.15 14.65 26.7 14.95 Q26.1 15.2 26.1 15.6 26.1 16.0 26.7 16.3 L28.15 16.55 29.6 16.3 Q30.2 16.0 30.2 15.6 30.2 15.2 29.6 14.95 M21.6 15.75 L21.9 15.2 21.6 14.7 20.75 14.45 Q20.25 14.45 19.95 14.7 19.6 14.9 19.6 15.2 19.6 15.5 19.95 15.75 L20.75 15.95 21.6 15.75 M19.25 22.15 L21.25 22.05 21.75 23.0 21.4 24.25 20.2 24.65 Q16.9 25.65 14.45 23.55 L14.5 22.8 14.95 22.25 17.7 22.2 17.2 22.95 Q18.05 24.75 19.75 23.35 L19.25 22.15 M29.9 20.15 Q29.9 20.65 29.3 21.0 L27.75 21.3 26.25 21.0 Q25.6 20.65 25.6 20.15 25.6 19.65 26.25 19.35 26.85 19.0 27.75 19.0 28.65 19.0 29.3 19.35 29.9 19.65 29.9 20.15 M34.15 13.8 Q33.8 13.5 33.3 13.5 32.8 13.5 32.5 13.8 32.15 14.1 32.15 14.5 32.15 14.9 32.5 15.2 32.8 15.5 33.3 15.5 33.8 15.5 34.15 15.2 L34.45 14.5 34.15 13.8 M34.25 23.0 L33.85 22.45 34.25 21.95 35.15 21.7 36.1 21.95 Q36.45 22.15 36.45 22.45 L36.1 23.0 35.15 23.2 34.25 23.0 M9.1 22.7 Q8.5 22.25 8.5 21.65 8.5 21.05 9.1 20.65 9.7 20.2 10.55 20.2 11.4 20.2 12.0 20.65 12.6 21.05 12.6 21.65 12.6 22.25 12.0 22.7 11.4 23.1 10.55 23.1 9.7 23.1 9.1 22.7 M16.05 16.15 L15.65 15.55 Q15.2 15.25 14.6 15.25 14.0 15.25 13.6 15.55 13.15 15.8 13.15 16.15 L13.6 16.8 14.6 17.05 15.65 16.8 16.05 16.15 M16.7 28.45 Q16.7 28.0 17.0 27.7 17.3 27.4 17.75 27.4 18.2 27.4 18.5 27.7 L18.8 28.45 18.5 29.2 Q18.2 29.5 17.75 29.5 17.3 29.5 17.0 29.2 16.7 28.9 16.7 28.45 M34.85 35.05 L33.9 34.5 33.8 33.4 Q35.85 31.75 38.4 31.8 L40.4 32.25 40.35 33.25 38.8 34.75 34.85 35.05 M30.95 31.15 Q30.95 31.65 30.6 32.0 L29.75 32.3 28.9 32.0 Q28.55 31.65 28.55 31.15 28.55 30.65 28.9 30.35 29.25 30.0 29.75 30.0 30.25 30.0 30.6 30.35 30.95 30.65 30.95 31.15 M36.65 27.4 L35.85 27.9 35.2 27.75 Q34.8 28.0 34.35 28.2 L33.6 27.9 33.35 26.75 33.85 26.05 36.35 26.35 36.65 27.4 M38.75 32.45 L37.6 32.05 Q36.95 32.05 36.5 32.45 36.0 32.8 36.0 33.35 36.0 33.9 36.5 34.3 36.95 34.65 37.6 34.65 38.25 34.65 38.75 34.3 L39.2 33.35 38.75 32.45 M26.1 27.15 Q26.5 27.35 26.5 27.7 L26.1 28.3 25.15 28.5 24.2 28.3 Q23.8 28.05 23.8 27.7 23.8 27.35 24.2 27.15 L25.15 26.9 Q25.7 26.9 26.1 27.15" fill="#dac2ad" fill-rule="evenodd" stroke="none"/>
    <path d="M82.8 17.6 L81.5 17.9 80.25 17.6 Q79.7 17.25 79.7 16.75 79.7 16.25 80.25 15.95 80.75 15.6 81.5 15.6 82.25 15.6 82.8 15.95 83.3 16.25 83.3 16.75 83.3 17.25 82.8 17.6 M86.9 11.8 L89.05 11.4 91.2 11.8 Q92.1 12.2 92.1 12.75 92.1 13.3 91.2 13.7 90.3 14.1 89.05 14.1 L86.9 13.7 Q86.0 13.3 86.0 12.75 86.0 12.2 86.9 11.8 M87.8 22.2 L85.35 23.65 85.5 24.2 85.9 24.5 90.4 24.25 90.85 23.3 90.3 22.55 89.75 22.4 87.8 22.2 M100.05 19.9 L98.65 23.45 Q97.6 26.0 95.15 27.7 91.15 30.5 86.5 32.0 54.85 42.65 23.05 33.7 17.15 32.0 12.1 28.9 7.7 26.15 6.45 21.0 7.05 20.45 7.7 20.25 20.05 18.0 32.75 18.55 L32.85 18.05 35.15 17.35 36.55 17.3 37.95 17.7 Q47.2 19.3 56.45 19.55 L55.65 19.4 56.2 18.45 64.55 18.15 65.3 18.55 Q68.05 19.65 71.3 19.8 L70.8 19.8 70.55 20.15 71.1 21.6 71.75 21.65 72.35 21.5 73.0 21.25 74.9 20.45 74.65 19.65 75.25 19.15 80.75 19.0 81.1 19.75 96.15 19.9 94.05 19.4 95.1 18.05 96.8 18.3 97.35 19.05 97.05 19.9 100.05 19.9 M83.4 28.7 Q83.75 29.0 84.25 29.0 L85.1 28.7 85.45 27.95 Q85.45 27.5 85.1 27.2 L84.25 26.9 Q83.75 26.9 83.4 27.2 83.05 27.5 83.05 27.95 83.05 28.4 83.4 28.7 M78.55 23.6 L76.0 23.95 76.6 26.2 79.85 26.5 Q80.9 26.45 81.6 25.75 L81.9 24.65 80.75 23.3 78.9 23.55 78.85 23.55 78.55 23.6 M73.8 7.8 L74.65 9.1 74.3 10.05 Q72.3 11.6 69.85 10.7 L69.4 9.95 69.6 9.25 70.6 7.95 73.8 7.8 M69.2 15.95 Q69.2 16.55 68.5 16.95 67.8 17.35 66.85 17.35 65.9 17.35 65.2 16.95 64.5 16.55 64.5 15.95 64.5 15.35 65.2 14.95 65.9 14.55 66.85 14.55 67.8 14.55 68.5 14.95 69.2 15.35 69.2 15.95 M61.65 22.15 L58.25 22.0 57.9 23.2 58.5 23.8 60.85 23.7 61.65 22.15 M69.35 23.15 Q68.85 23.15 68.5 23.45 68.1 23.75 68.1 24.15 68.1 24.55 68.5 24.85 L69.35 25.15 70.25 24.85 70.6 24.15 Q70.6 23.75 70.25 23.45 69.85 23.15 69.35 23.15 M57.95 6.15 L58.15 6.55 Q54.5 9.15 50.35 7.05 L50.1 6.3 51.1 5.35 57.95 6.15 M57.2 10.6 Q57.6 10.3 58.15 10.3 58.7 10.3 59.1 10.6 59.5 10.9 59.5 11.3 59.5 11.7 59.1 12.0 L58.15 12.3 57.2 12.0 56.8 11.3 Q56.8 10.9 57.2 10.6 M72.75 13.0 Q73.05 12.65 73.5 12.65 73.95 12.65 74.3 13.0 L74.6 13.75 74.3 14.55 Q73.95 14.85 73.5 14.85 73.05 14.85 72.75 14.55 72.4 14.2 72.4 13.75 72.4 13.3 72.75 13.0 M45.95 15.8 L45.65 16.15 39.95 15.95 39.05 15.15 39.15 14.2 39.65 13.7 41.0 13.4 Q44.0 13.0 46.65 14.5 L46.8 15.55 45.95 15.8 M47.2 10.15 L46.45 10.35 45.7 10.15 45.4 9.65 Q45.4 9.35 45.7 9.15 L46.45 8.95 47.2 9.15 47.5 9.65 47.2 10.15 M45.05 23.8 L47.1 23.65 47.6 22.15 47.2 21.55 42.8 22.1 42.9 23.15 45.05 23.8 M52.9 18.3 L51.9 18.05 Q51.5 17.75 51.5 17.35 51.5 16.95 51.9 16.7 52.3 16.4 52.9 16.4 53.5 16.4 53.9 16.7 54.3 16.95 54.3 17.35 54.3 17.75 53.9 18.05 L52.9 18.3 M50.75 22.15 L49.9 22.6 50.85 25.5 50.0 26.5 51.25 26.85 51.75 26.0 Q53.1 26.5 54.9 25.65 L55.8 25.05 55.85 23.15 Q53.75 20.85 50.75 22.15 M56.6 28.3 L58.6 27.85 59.15 26.75 Q57.55 25.65 55.85 26.7 L55.8 27.8 56.6 28.3 M55.05 33.85 L56.1 33.55 56.55 32.8 Q56.55 32.35 56.1 32.05 L55.05 31.75 Q54.45 31.75 54.0 32.05 53.55 32.35 53.55 32.8 53.55 33.25 54.0 33.55 54.45 33.85 55.05 33.85 M45.2 31.3 L46.1 31.75 47.85 31.05 47.6 30.5 46.1 30.4 45.2 31.3 M72.9 30.1 Q72.35 30.1 72.0 30.4 71.6 30.7 71.6 31.1 L72.0 31.8 72.9 32.1 73.85 31.8 74.2 31.1 Q74.2 30.7 73.85 30.4 73.45 30.1 72.9 30.1 M71.25 29.05 Q68.95 26.65 65.85 28.2 L64.55 29.05 64.55 30.4 Q67.15 31.8 69.75 30.65 L71.1 30.0 71.25 29.05 M61.65 31.95 Q61.65 32.35 61.95 32.65 L62.6 32.9 63.3 32.65 63.55 31.95 63.3 31.3 62.6 31.0 Q62.2 31.0 61.95 31.3 61.65 31.55 61.65 31.95 M31.05 10.3 L30.6 11.45 Q26.8 12.6 23.2 11.4 L23.05 10.8 23.2 10.3 23.7 9.95 29.95 9.4 Q30.7 9.55 31.05 10.3 M35.1 10.3 Q34.8 10.0 34.8 9.55 34.8 9.1 35.1 8.8 35.4 8.5 35.85 8.5 36.3 8.5 36.6 8.8 36.9 9.1 36.9 9.55 L36.6 10.3 Q36.3 10.6 35.85 10.6 35.4 10.6 35.1 10.3 M21.6 15.75 L20.75 15.95 19.95 15.75 Q19.6 15.5 19.6 15.2 19.6 14.9 19.95 14.7 20.25 14.45 20.75 14.45 L21.6 14.7 21.9 15.2 21.6 15.75 M29.6 14.95 Q30.2 15.2 30.2 15.6 30.2 16.0 29.6 16.3 L28.15 16.55 26.7 16.3 Q26.1 16.0 26.1 15.6 26.1 15.2 26.7 14.95 L28.15 14.65 29.6 14.95 M17.7 22.2 L14.95 22.25 14.5 22.8 14.45 23.55 Q16.9 25.65 20.2 24.65 L21.4 24.25 21.75 23.0 21.25 22.05 19.25 22.15 18.5 21.95 17.7 22.2 M29.9 20.15 Q29.9 19.65 29.3 19.35 28.65 19.0 27.75 19.0 26.85 19.0 26.25 19.35 25.6 19.65 25.6 20.15 25.6 20.65 26.25 21.0 L27.75 21.3 29.3 21.0 Q29.9 20.65 29.9 20.15 M34.25 23.0 L35.15 23.2 36.1 23.0 36.45 22.45 Q36.45 22.15 36.1 21.95 L35.15 21.7 34.25 21.95 33.85 22.45 34.25 23.0 M9.1 22.7 Q9.7 23.1 10.55 23.1 11.4 23.1 12.0 22.7 12.6 22.25 12.6 21.65 12.6 21.05 12.0 20.65 11.4 20.2 10.55 20.2 9.7 20.2 9.1 20.65 8.5 21.05 8.5 21.65 8.5 22.25 9.1 22.7 M16.05 16.15 L15.65 16.8 14.6 17.05 13.6 16.8 13.15 16.15 Q13.15 15.8 13.6 15.55 14.0 15.25 14.6 15.25 15.2 15.25 15.65 15.55 L16.05 16.15 M16.7 28.45 Q16.7 28.9 17.0 29.2 17.3 29.5 17.75 29.5 18.2 29.5 18.5 29.2 L18.8 28.45 18.5 27.7 Q18.2 27.4 17.75 27.4 17.3 27.4 17.0 27.7 16.7 28.0 16.7 28.45 M36.65 27.4 L36.35 26.35 33.85 26.05 33.35 26.75 33.6 27.9 34.35 28.2 Q34.8 28.0 35.2 27.75 L35.85 27.9 36.65 27.4 M30.95 31.15 Q30.95 30.65 30.6 30.35 30.25 30.0 29.75 30.0 29.25 30.0 28.9 30.35 28.55 30.65 28.55 31.15 28.55 31.65 28.9 32.0 L29.75 32.3 30.6 32.0 Q30.95 31.65 30.95 31.15 M34.85 35.05 L38.8 34.75 40.35 33.25 40.4 32.25 38.4 31.8 Q35.85 31.75 33.8 33.4 L33.9 34.5 34.85 35.05 M26.1 27.15 Q25.7 26.9 25.15 26.9 L24.2 27.15 Q23.8 27.35 23.8 27.7 23.8 28.05 24.2 28.3 L25.15 28.5 26.1 28.3 26.5 27.7 Q26.5 27.35 26.1 27.15" fill="#e4d3c3" fill-rule="evenodd" stroke="none"/>
    <path d="M97.5 32.1 L98.2 32.15 98.4 32.7 Q94.45 35.2 90.15 36.8 L88.35 37.55 85.5 38.5 85.35 37.5 97.5 32.1 M99.7 31.8 L102.05 29.9 103.65 28.05 Q103.05 30.55 102.6 33.1 L102.4 33.8 99.4 40.1 98.8 40.7 99.7 31.8 M6.85 40.35 L5.65 38.8 Q4.7 37.25 4.25 35.55 L2.25 27.85 3.7 29.4 Q6.15 31.8 9.1 33.6 L8.35 34.85 Q6.75 37.4 6.85 40.35 M11.0 34.65 L10.85 33.4 20.2 37.35 20.65 38.55 18.6 37.85 11.0 34.65" fill="#ac752b" fill-rule="evenodd" stroke="none"/>
    <path d="M96.9 29.35 L101.3 29.2 97.5 32.1 85.35 37.5 84.9 37.35 84.45 37.8 71.75 40.65 61.85 41.7 55.65 41.95 49.3 41.95 42.75 41.3 41.6 40.8 41.05 41.45 36.9 41.0 32.2 40.3 20.2 37.35 10.85 33.4 10.15 33.05 14.6 32.85 Q24.7 37.1 35.45 38.25 L58.15 39.05 Q70.65 38.9 82.8 35.6 90.4 33.45 96.9 29.35" fill="#eaca8d" fill-rule="evenodd" stroke="none"/>
  </g>
</svg>
