<?xml version="1.0" encoding="UTF-8" standalone="no"?>
<svg
   height="48.301517"
   width="89.138031"
   version="1.1"
   id="svg4"
   sodipodi:docname="Chicken.svg"
   inkscape:version="1.4.4 (dcaf3e7, 2026-05-05)"
   xmlns:inkscape="http://www.inkscape.org/namespaces/inkscape"
   xmlns:sodipodi="http://sodipodi.sourceforge.net/DTD/sodipodi-0.dtd"
   xmlns:xlink="http://www.w3.org/1999/xlink"
   xmlns="http://www.w3.org/2000/svg"
   xmlns:svg="http://www.w3.org/2000/svg">
  <sodipodi:namedview
     id="namedview4"
     pagecolor="#ffffff"
     bordercolor="#000000"
     borderopacity="0.25"
     inkscape:showpageshadow="2"
     inkscape:pageopacity="0.0"
     inkscape:pagecheckerboard="0"
     inkscape:deskcolor="#d1d1d1"
     inkscape:zoom="7.8139979"
     inkscape:cx="47.286934"
     inkscape:cy="8.8942947"
     inkscape:window-width="1920"
     inkscape:window-height="1017"
     inkscape:window-x="-8"
     inkscape:window-y="-8"
     inkscape:window-maximized="1"
     inkscape:current-layer="svg4" />
  <g
     transform="translate(0.01422414,5.0007246)"
     id="g1">
    <use
       height="48.299999"
       id="inside"
       transform="translate(0,-5)"
       width="89.099998"
       xlink:href="#sprite0" />
  </g>
  <defs
     id="defs4">
    <g
       id="sprite0">
      <use
         height="48.299999"
         width="89.099998"
         xlink:href="#shape0"
         id="use1" />
    </g>
    <g
       id="shape0">
      <path
         d="m 77.1,5.55 4.75,3.5 0.1,0.1 q 2,2.25 3.05,5.3 4.5,12.65 -4.25,21.75 l 0.65,0.3 1.15,-0.85 q 5.3,-6.6 4.05,-15 L 87,23.7 q 0.5,6.15 -2.3,11.8 l -1.15,1.2 q -12.35,6 -26.15,5.95 l 9.25,0.25 Q 56,45.7 45,46.95 29.05,48.5 19.7,36 31.2,47.85 46.85,45.35 L 46.4,45.05 39.7,45 Q 31.85,44.55 25.55,39.55 22.05,36.8 18,35 l -1.8,-0.8 -2.55,-1.7 3.15,1.25 3,1.25 0.25,-0.05 L 20,34.9 V 34.85 Q 17.05,33 12.2,31.45 L 7.7,30.2 5.8,29.35 5,29.05 1.4,27.4 Q 0.75,25.65 1.1,23.6 1.5,21.35 2.25,19.45 6.9,14.75 12.7,11.4 24.55,4.5 37.85,2.15 55.7,-0.95 72.8,4.7 65.75,1.8 58.4,0.75 l 2.3,0.05 3,0.6 q 5.4,1.25 10.7,3.05 1.45,0.45 2.7,1.1 m 5.5,9.2 0.5,1.7 0.05,0.45 -0.05,0.4 v 0.4 Q 82.2,15.5 80.2,12.6 75.9,6.35 68.3,4.2 L 61.4,3.5 64.25,5.7 Q 54.05,1.55 42.7,2.6 30.05,3.7 18.95,8.5 8.75,12.8 4.15,22.2 2.1,26.45 6.95,27.6 L 9.3,28.1 6.75,25.95 5.95,24.9 Q 5.35,23.75 5.05,22.5 4.9,21.75 5.05,21 L 5.3,20.2 6.05,20.3 5.5,20.9 5.55,23 5.6,22.25 q 1.5,2.8 4.55,4.15 6,2.7 12,4.9 1.4,0.4 2.65,1.45 l -5.65,-2.4 5.95,4.15 8.7,5.35 q -5.85,-1.65 -11.05,-5 l -1.65,-1 q 13.1,9 28.55,9.6 -5.15,-0.8 -10.15,-2.05 -4.9,-1.2 -9,-4.1 l 1.15,0.4 -2.35,-1.4 -2.15,-1.65 -0.35,-0.5 -0.2,-0.6 q 7.3,4.4 15.65,5.75 9.05,1.15 17.95,-0.35 13.5,-1.85 20.55,-13.35 1.4,-2.3 2,-4.8 0.3,3.15 -1.4,6 -5.35,8.8 -15.6,11.45 -9.7,2.6 -19.8,2.45 6.15,0.6 12.4,-0.1 11.65,-0.9 20.15,-8.45 3.95,-3.45 5.45,-8.4 -0.1,3.65 -1.35,7.1 -0.65,1.7 -1.9,3.3 -1.35,1.75 -3.4,2.35 l 0.05,0.45 q 2.4,-0.5 3.75,-2.8 Q 86,25.6 83.65,16.05 83.2,14.2 81.95,13 l 0.65,1.75"
         fill="#cc985e"
         fill-rule="evenodd"
         stroke="none"
         id="path1" />
      <path
         d="M 77.1,5.55 Q 75.85,4.9 74.4,4.45 69.1,2.65 63.7,1.4 L 60.7,0.8 58.4,0.75 Q 65.75,1.8 72.8,4.7 55.7,-0.95 37.85,2.15 24.55,4.5 12.7,11.4 6.9,14.75 2.25,19.45 1.5,21.35 1.1,23.6 0.75,25.65 1.4,27.4 l 3.6,1.65 0.8,0.3 1.9,0.85 4.5,1.25 Q 17.05,33 20,34.85 V 34.9 L 20.05,34.95 19.8,35 16.8,33.75 13.65,32.5 16.2,34.2 18,35 q 4.05,1.8 7.55,4.55 6.3,5 14.15,5.45 l 6.7,0.05 0.45,0.3 Q 31.2,47.85 19.7,36 29.05,48.5 45,46.95 56,45.7 66.65,42.9 L 57.4,42.65 Q 71.2,42.7 83.55,36.7 L 84.7,35.5 Q 87.5,29.85 87,23.7 l -0.4,-3.05 q 1.25,8.4 -4.05,15 L 81.4,36.5 80.75,36.2 Q 89.5,27.1 85,14.45 83.95,11.4 81.95,9.15 q 6.6,5.8 7.15,17.1 0.5,11.25 -9.5,14.1 L 60.7,45.9 q -8.9,2.75 -20.95,2.35 -12.1,-0.45 -17.9,-7.2 l -1.1,-1.25 -1,-0.8 -2.9,-2.2 -4.95,-3.55 Q 9.35,31.75 6.35,31.1 5,30.75 3.75,29.9 L 3.4,29.65 q -4.45,-1.4 -3.1,-6.5 1.8,-7 8.65,-10.9 9.7,-5.6 20.45,-8.9 Q 40.45,-0.05 52.05,0 l 9.55,0.1 q 8.5,1.05 15.5,5.45"
         fill="#b87c3a"
         fill-rule="evenodd"
         stroke="none"
         id="path2" />
      <path
         d="M 82.6,14.75 81.95,13 q 1.25,1.2 1.7,3.05 2.35,9.55 -2.55,18.1 -1.35,2.3 -3.75,2.8 L 77.3,36.5 q 2.05,-0.6 3.4,-2.35 1.25,-1.6 1.9,-3.3 1.25,-3.45 1.35,-7.1 -1.5,4.95 -5.45,8.4 -8.5,7.55 -20.15,8.45 -6.25,0.7 -12.4,0.1 10.1,0.15 19.8,-2.45 Q 76,35.6 81.35,26.8 q 1.7,-2.85 1.4,-6 -0.6,2.5 -2,4.8 Q 73.7,37.1 60.2,38.95 51.3,40.45 42.25,39.3 33.9,37.95 26.6,33.55 l 0.2,0.6 0.35,0.5 2.15,1.65 2.35,1.4 -1.15,-0.4 q 4.1,2.9 9,4.1 5,1.25 10.15,2.05 -15.45,-0.6 -28.55,-9.6 l 1.65,1 q 5.2,3.35 11.05,5 l -8.7,-5.35 -5.95,-4.15 5.65,2.4 q -1.25,-1.05 -2.65,-1.45 -6,-2.2 -12,-4.9 Q 7.1,25.05 5.6,22.25 L 5.55,23 5.5,20.9 6.05,20.3 5.3,20.2 5.05,21 q -0.15,0.75 0,1.5 0.3,1.25 0.9,2.4 L 6.75,25.95 9.3,28.1 6.95,27.6 Q 2.1,26.45 4.15,22.2 8.75,12.8 18.95,8.5 30.05,3.7 42.7,2.6 54.05,1.55 64.25,5.7 L 61.4,3.5 68.3,4.2 q 7.6,2.15 11.9,8.4 2,2.9 2.9,5.1 v -0.4 l 0.05,-0.4 -0.05,-0.45 -0.5,-1.7 m -10.25,-2.7 0.45,0.5 -0.45,0.5 -1.05,0.2 -1.05,-0.2 -0.45,-0.5 q 0,-0.3 0.45,-0.5 l 1.05,-0.2 1.05,0.2 m -4,-3.9 2.15,1.9 L 60.15,5.7 q -12,-3.25 -24.3,-0.85 l -5.3,1.2 Q 45.2,3.8 59.9,7 l 2.7,0.95 Q 45.8,3.85 28.8,7.05 l -0.55,-0.3 -4,1.35 q 6.3,0.45 12.35,2.05 -8.7,-1.9 -17.35,0.95 -2.05,0.8 -3.2,2.9 l -0.45,0.9 h -0.3 q 0.1,-1.45 0.55,-2.85 l -1,0.65 -2.2,4.05 q -1.1,2 0.5,3.35 1.6,1.4 3.75,2.1 0.55,0.15 1.1,0.45 -3.6,0.15 -5.55,-3.15 -0.7,-1.15 -0.4,-2.55 0.3,-1.55 1,-2.95 -3.8,1.95 -5.4,5.75 l -0.7,2.15 q 1.45,2.65 4.65,3.35 l 2.95,0.35 Q 10.8,24.1 9.45,20.65 8.85,19 9.95,17.65 L 10.7,16.7 q -3.15,5.45 2.85,7.1 6.2,1.5 10.75,6.05 -3.4,-1.95 -7.15,-2.6 9.7,5.95 20.25,8.75 10.2,2.6 20.25,0.25 -13.6,1.35 -26.3,-3.75 -5.15,-2 -9.4,-5.3 Q 31,31 41.15,33.65 46,34.95 51,34.75 51.4,33.5 48.5,33.9 L 47.35,33.75 45.1,33.2 45.85,33.15 q -9.1,-1.2 -17.5,-4.55 -1.15,-0.4 -2.05,-1.55 13.6,6.45 28.5,5.2 4.55,-0.35 8.55,-2.85 0.45,1.4 -1.45,1.95 l -6.3,1.85 q 8,-0.55 15.1,-4.15 l 1,-0.75 q -5.4,-6.35 -13.1,-9.8 -4.15,-1.95 -8.3,-3.75 10.05,2.85 18.3,9.6 l 3.1,2.55 1.45,-2.1 h 0.15 l -0.2,2.55 q 1.75,-2.5 2,-5.4 l 0.1,-0.35 q 0.75,0.6 0.15,3.2 L 75,25.9 q 3.7,-4.4 2.45,-10.05 -0.55,-2.65 -2.95,-4.4 4.8,2.6 4.3,7.95 -0.25,2.65 -1.7,4.95 l -1.2,1.8 3,-2.3 q -2.2,5.4 -7.6,7.8 l -8.4,3.05 q 8.6,-0.2 14.25,-6.65 3.55,-4.1 3.85,-9.6 0.25,-5.4 -4.45,-7.7 Q 71.1,8.05 65.3,5.95 h -0.25 q 0.85,1.05 2,1.45 l 1.3,0.75 M 66,15.9 q 3.85,-2 7.1,0.25 -2.05,2.45 -6.45,1.3 L 65.75,16.4 66,15.9 M 50.85,9.6 Q 50.3,9.35 50.3,9 50.3,8.65 50.85,8.45 L 52.2,8.2 53.55,8.45 q 0.55,0.2 0.55,0.55 0,0.35 -0.55,0.6 L 52.2,9.8 50.85,9.6 M 42.5,7.8 42.25,8.15 41.6,8.3 41,8.15 40.7,7.8 Q 40.7,7.6 41,7.45 L 41.6,7.3 42.25,7.45 42.5,7.8 M 42,18.9 q -1.2,1.15 -3,1.4 -1.15,0 -2.25,-0.55 L 36.35,19 q 1.6,-1.55 3.9,-1.7 l 1.45,0.25 0.45,0.75 -0.15,0.6 m 16,-5.05 1,-0.2 1.05,0.2 0.4,0.4 -0.4,0.45 L 59,14.85 58,14.7 57.55,14.25 58,13.85 m -0.3,10.35 -0.95,0.2 -0.95,-0.2 -0.4,-0.45 0.4,-0.45 0.95,-0.2 0.95,0.2 q 0.4,0.2 0.4,0.45 l -0.4,0.45 m -8.8,4.1 q 0.4,0.25 0.4,0.6 l -0.4,0.6 -1,0.25 -1,-0.25 -0.4,-0.6 q 0,-0.35 0.4,-0.6 l 1,-0.25 1,0.25 M 25.5,14.8 25.25,14.25 q 0,-0.3 0.25,-0.5 0.2,-0.25 0.5,-0.25 0.3,0 0.55,0.25 l 0.2,0.5 -0.2,0.55 L 26,15 25.5,14.8 m 3.65,7.9 -0.3,0.55 -0.7,0.2 q -0.4,0 -0.7,-0.2 l -0.3,-0.55 q 0,-0.3 0.3,-0.5 0.3,-0.25 0.7,-0.25 l 0.7,0.25 0.3,0.5"
         fill="#e6cb9d"
         fill-rule="evenodd"
         stroke="none"
         id="path3" />
      <path
         d="m 29.15,22.7 -0.3,-0.5 -0.7,-0.25 q -0.4,0 -0.7,0.25 -0.3,0.2 -0.3,0.5 l 0.3,0.55 q 0.3,0.2 0.7,0.2 l 0.7,-0.2 0.3,-0.55 M 25.5,14.8 26,15 l 0.55,-0.2 0.2,-0.55 -0.2,-0.5 Q 26.3,13.5 26,13.5 q -0.3,0 -0.5,0.25 -0.25,0.2 -0.25,0.5 l 0.25,0.55 m 23.4,13.5 -1,-0.25 -1,0.25 q -0.4,0.25 -0.4,0.6 l 0.4,0.6 1,0.25 1,-0.25 0.4,-0.6 q 0,-0.35 -0.4,-0.6 m 8.8,-4.1 0.4,-0.45 q 0,-0.25 -0.4,-0.45 l -0.95,-0.2 -0.95,0.2 -0.4,0.45 0.4,0.45 0.95,0.2 0.95,-0.2 m 0.3,-10.35 -0.45,0.4 0.45,0.45 1,0.15 1.05,-0.15 0.4,-0.45 -0.4,-0.4 -1.05,-0.2 -1,0.2 M 42,18.9 42.15,18.3 41.7,17.55 40.25,17.3 q -2.3,0.15 -3.9,1.7 l 0.4,0.75 q 1.1,0.55 2.25,0.55 1.8,-0.25 3,-1.4 M 42.5,7.8 42.25,7.45 41.6,7.3 41,7.45 Q 40.7,7.6 40.7,7.8 L 41,8.15 41.6,8.3 42.25,8.15 42.5,7.8 m 8.35,1.8 1.35,0.2 1.35,-0.2 Q 54.1,9.35 54.1,9 54.1,8.65 53.55,8.45 L 52.2,8.2 50.85,8.45 Q 50.3,8.65 50.3,9 q 0,0.35 0.55,0.6 m 15.15,6.3 -0.25,0.5 0.9,1.05 q 4.4,1.15 6.45,-1.3 Q 69.85,13.9 66,15.9 M 68.35,8.15 67.05,7.4 Q 65.9,7 65.05,5.95 h 0.25 q 5.8,2.1 11.25,4.8 4.7,2.3 4.45,7.7 -0.3,5.5 -3.85,9.6 Q 71.5,34.5 62.9,34.7 l 8.4,-3.05 q 5.4,-2.4 7.6,-7.8 l -3,2.3 1.2,-1.8 q 1.45,-2.3 1.7,-4.95 0.5,-5.35 -4.3,-7.95 2.4,1.75 2.95,4.4 Q 78.7,21.5 75,25.9 l 0.35,-1.1 q 0.6,-2.6 -0.15,-3.2 l -0.1,0.35 q -0.25,2.9 -2,5.4 l 0.2,-2.55 h -0.15 l -1.45,2.1 -3.1,-2.55 q -8.25,-6.75 -18.3,-9.6 4.15,1.8 8.3,3.75 7.7,3.45 13.1,9.8 l -1,0.75 q -7.1,3.6 -15.1,4.15 l 6.3,-1.85 q 1.9,-0.55 1.45,-1.95 -4,2.5 -8.55,2.85 -14.9,1.25 -28.5,-5.2 0.9,1.15 2.05,1.55 8.4,3.35 17.5,4.55 l -0.75,0.05 2.25,0.55 1.15,0.15 q 2.9,-0.4 2.5,0.85 -5,0.2 -9.85,-1.1 Q 31,31 21.95,27.2 q 4.25,3.3 9.4,5.3 12.7,5.1 26.3,3.75 Q 47.6,38.6 37.4,36 26.85,33.2 17.15,27.25 20.9,27.9 24.3,29.85 19.75,25.3 13.55,23.8 7.55,22.15 10.7,16.7 l -0.75,0.95 q -1.1,1.35 -0.5,3 1.35,3.45 5.1,4.95 L 11.6,25.25 Q 8.4,24.55 6.95,21.9 l 0.7,-2.15 q 1.6,-3.8 5.4,-5.75 -0.7,1.4 -1,2.95 -0.3,1.4 0.4,2.55 1.95,3.3 5.55,3.15 -0.55,-0.3 -1.1,-0.45 -2.15,-0.7 -3.75,-2.1 -1.6,-1.35 -0.5,-3.35 l 2.2,-4.05 1,-0.65 q -0.45,1.4 -0.55,2.85 h 0.3 L 16.05,14 Q 17.2,11.9 19.25,11.1 27.9,8.25 36.6,10.15 30.55,8.55 24.25,8.1 l 4,-1.35 0.55,0.3 q 17,-3.2 33.8,0.9 L 59.9,7 Q 45.2,3.8 30.55,6.05 l 5.3,-1.2 q 12.3,-2.4 24.3,0.85 l 10.35,4.35 -2.15,-1.9 m 4,3.9 -1.05,-0.2 -1.05,0.2 q -0.45,0.2 -0.45,0.5 l 0.45,0.5 1.05,0.2 1.05,-0.2 0.45,-0.5 -0.45,-0.5"
         fill="#f3e6d1"
         fill-rule="evenodd"
         stroke="none"
         id="path4" />
    </g>
  </defs>
</svg>
