<?xml version="1.0" encoding="UTF-8" standalone="no"?>
<svg xmlns:xlink="http://www.w3.org/1999/xlink" height="36.25px" width="107.65px" xmlns="http://www.w3.org/2000/svg">
  <g transform="matrix(1.0, 0.0, 0.0, 1.0, 0.0, 0.0)">
    <path d="M23.15 35.2 Q17.35 35.05 11.65 33.3 -2.5 29.15 0.5 13.75 3.2 -0.55 17.95 0.0 L41.7 1.6 Q54.35 2.1 66.95 1.7 L88.5 0.8 Q93.05 0.15 97.4 1.8 109.85 6.45 107.15 20.95 104.55 34.6 90.0 34.95 L66.7 36.15 45.35 36.2 23.15 35.2" fill="#000000" fill-rule="evenodd" stroke="none"/>
    <path d="M9.6 7.9 Q8.85 8.15 8.85 8.55 8.85 8.95 9.6 9.25 L11.45 9.5 13.3 9.25 Q14.05 8.95 14.05 8.55 14.05 8.15 13.3 7.9 L11.45 7.6 9.6 7.9 M14.65 9.65 Q14.45 9.35 14.2 9.35 L13.8 9.65 13.6 10.3 13.8 11.0 Q13.95 11.25 14.2 11.25 L14.65 11.0 14.8 10.3 14.65 9.65 M15.4 6.85 L15.9 7.05 Q16.2 7.05 16.4 6.85 L16.6 6.4 16.4 5.95 15.9 5.75 15.4 5.95 15.2 6.4 15.4 6.85 M18.1 6.2 L17.85 7.45 18.3 8.1 23.1 8.55 23.7 8.2 Q23.9 7.4 23.1 6.75 21.75 5.75 20.05 5.55 L18.1 6.2 M16.3 10.55 L15.8 10.85 15.6 12.0 16.3 12.5 17.3 12.0 16.3 10.55 M15.3 10.35 L17.1 10.2 17.8 11.1 18.55 10.9 18.5 10.45 Q18.15 10.05 17.75 9.95 L15.1 9.1 15.3 10.35 M21.2 13.85 L21.7 13.2 20.8 10.05 20.4 9.9 19.55 10.05 19.55 13.25 20.1 13.8 19.35 13.8 23.0 14.2 25.85 14.45 25.6 13.3 26.05 12.55 24.6 12.7 24.0 11.95 23.0 11.6 22.95 11.05 21.75 11.0 22.0 12.95 22.1 13.85 21.2 13.85 M23.65 8.5 L23.4 8.75 Q23.25 8.95 23.25 9.3 L23.4 9.9 23.65 10.1 23.95 9.9 24.05 9.3 23.95 8.75 23.65 8.5 M24.7 8.95 L24.25 9.95 24.3 11.25 25.1 12.2 26.05 12.1 26.35 11.5 25.75 9.3 24.7 8.95 M34.45 13.95 L32.7 13.25 32.75 10.3 30.8 10.25 31.05 11.0 30.1 11.0 30.1 13.85 28.25 14.5 Q27.55 14.75 28.0 14.75 L28.4 14.75 29.9 14.8 33.55 15.25 35.7 14.85 37.3 14.35 38.85 14.05 38.45 12.7 38.1 13.55 36.45 13.55 36.1 10.7 36.5 10.45 35.6 10.4 35.7 11.5 35.95 11.85 36.05 13.0 35.55 13.75 34.45 13.95 M28.35 7.75 L28.6 8.1 Q30.85 8.95 33.35 8.7 L34.05 7.8 33.2 6.5 32.8 6.35 28.7 7.0 28.35 7.75 M34.25 9.95 Q33.75 9.95 33.4 10.5 33.05 11.0 33.05 11.7 33.05 12.4 33.4 12.95 33.75 13.45 34.25 13.45 34.75 13.45 35.1 12.95 35.45 12.4 35.45 11.7 35.45 11.0 35.1 10.5 34.75 9.95 34.25 9.95 M38.65 7.05 L38.05 6.8 Q37.7 6.8 37.5 7.05 37.25 7.25 37.25 7.55 L37.5 8.1 Q37.7 8.3 38.05 8.3 L38.65 8.1 38.85 7.55 38.65 7.05 M40.25 9.55 L39.1 10.7 38.9 11.5 38.9 12.2 39.2 13.5 40.05 14.0 Q41.15 13.8 41.3 12.7 41.55 11.25 41.45 9.8 L40.25 9.55 M3.6 18.45 Q3.35 16.3 3.45 14.15 3.8 8.5 9.15 6.35 19.45 2.15 30.65 3.55 L54.3 4.95 78.55 3.65 Q86.15 3.05 93.75 4.7 107.05 7.6 103.05 20.15 103.9 15.9 102.05 12.0 98.35 10.55 94.3 10.85 L93.85 11.2 93.05 11.3 92.95 12.25 94.35 11.85 94.75 11.35 95.65 11.5 95.9 11.85 Q96.1 12.3 95.85 12.55 L95.55 14.25 92.85 14.45 92.6 12.5 91.7 12.45 90.3 12.35 90.3 10.85 87.4 10.6 87.3 13.0 Q89.3 13.0 90.85 14.0 L90.5 14.8 89.3 15.05 90.45 15.1 90.75 15.6 91.2 14.95 91.7 14.9 92.8 14.75 93.9 15.8 94.05 17.2 92.9 18.6 91.0 18.2 90.95 17.2 90.8 17.2 90.45 19.25 88.1 19.25 88.1 17.2 88.1 15.35 87.1 15.55 85.7 15.55 85.75 15.75 85.9 17.2 85.85 19.0 84.8 19.3 84.1 19.1 83.65 18.35 83.6 17.2 83.5 15.55 80.65 15.75 81.1 16.1 81.15 17.15 81.1 17.25 82.35 17.35 83.8 19.55 83.3 20.05 83.35 20.1 83.6 20.75 80.95 21.45 79.9 19.4 77.8 20.3 77.05 20.0 76.9 17.15 76.85 16.45 77.0 15.35 75.65 15.35 74.8 15.35 75.2 17.15 74.95 20.1 72.35 20.2 71.7 18.7 71.45 17.9 71.55 17.1 71.55 15.75 70.75 15.75 70.5 16.9 70.55 17.1 70.65 17.8 70.8 18.3 70.35 19.75 68.05 20.05 67.85 22.3 67.55 22.7 65.05 22.5 64.65 21.75 64.95 18.85 67.55 18.7 68.1 15.6 67.1 15.6 67.05 17.2 65.95 17.1 65.65 15.9 64.85 15.6 64.95 17.1 64.8 18.35 63.6 18.5 62.45 18.2 62.45 18.65 62.35 20.95 61.65 21.2 59.8 21.25 58.7 20.3 58.5 19.25 56.5 18.25 56.5 17.3 57.2 16.75 58.3 16.7 59.3 15.0 58.0 15.3 53.2 15.45 50.65 15.85 50.8 16.95 Q51.25 19.1 51.05 21.15 L50.85 22.05 50.1 23.25 48.7 23.3 47.7 22.75 47.35 22.35 47.4 21.85 47.45 19.0 47.85 17.3 47.45 16.25 42.95 16.4 40.5 15.8 38.35 16.15 35.2 17.25 37.0 17.6 37.1 18.55 37.3 17.8 39.6 18.2 39.8 16.9 41.2 16.5 41.85 16.9 42.25 16.9 42.95 16.55 45.0 16.7 45.6 18.45 45.6 21.15 44.75 22.0 42.3 22.0 41.55 19.0 39.7 19.05 39.7 20.05 39.1 20.95 37.25 20.7 37.1 19.95 36.85 20.45 36.4 20.45 35.25 20.45 35.25 18.85 35.2 18.35 34.6 18.75 34.2 21.3 33.85 22.25 31.95 22.25 31.0 20.75 31.05 19.25 30.7 18.65 31.05 17.3 31.35 16.95 33.85 17.0 31.95 16.85 27.25 16.35 27.8 16.8 Q29.05 18.6 28.65 20.7 L28.5 21.25 26.2 21.3 26.05 20.25 25.8 19.35 25.2 19.9 24.25 20.0 24.25 20.6 23.35 21.35 22.05 21.25 Q21.4 21.25 20.95 20.7 20.5 20.15 20.5 19.35 L20.85 16.8 21.55 15.55 23.55 15.7 23.55 15.55 18.7 15.25 18.5 14.75 17.35 15.4 18.25 15.95 18.75 15.8 19.2 15.3 19.55 16.8 19.1 18.45 Q18.65 19.1 18.05 19.1 L18.05 20.1 17.35 20.75 16.8 21.25 15.25 21.2 14.75 20.75 14.55 18.5 14.6 16.8 14.6 15.85 14.7 15.7 13.95 15.45 Q15.5 14.35 17.85 14.0 L16.5 13.05 15.8 13.0 15.1 12.5 15.15 11.55 13.25 11.6 13.15 11.15 12.75 12.55 Q13.6 12.45 14.3 12.85 L15.0 13.45 12.75 14.8 12.75 15.7 11.45 15.85 10.85 15.75 10.6 15.7 10.2 15.5 10.35 11.0 5.25 12.45 3.6 18.45 M67.1 15.6 L66.25 15.6 67.1 15.6 M83.3 20.05 L82.55 19.35 82.25 18.25 81.3 17.9 80.85 20.1 81.8 21.0 83.3 20.05 M38.0 11.95 L37.8 11.1 37.25 10.7 36.75 11.1 Q36.5 11.45 36.5 11.95 L36.75 12.85 37.25 13.2 37.8 12.85 38.0 11.95 M31.55 17.8 L31.5 20.45 32.6 21.9 33.05 21.85 33.55 21.35 33.6 19.5 33.35 17.8 32.55 17.3 31.55 17.8 M36.45 18.1 Q36.3 17.75 36.05 17.75 35.8 17.75 35.65 18.1 35.5 18.4 35.5 18.9 L35.65 19.75 36.05 20.05 36.45 19.75 36.6 18.9 36.45 18.1 M39.0 18.45 Q38.75 18.1 38.4 18.1 38.05 18.1 37.85 18.45 37.6 18.8 37.6 19.3 L37.85 20.15 38.4 20.5 Q38.75 20.5 39.0 20.15 L39.2 19.3 39.0 18.45 M41.85 17.8 L40.35 17.0 40.1 17.8 40.55 18.55 41.85 17.8 M29.55 11.55 Q29.15 11.15 28.6 11.15 28.05 11.15 27.7 11.55 27.3 11.9 27.3 12.45 27.3 13.0 27.7 13.4 L28.6 13.75 29.55 13.4 29.9 12.45 29.55 11.55 M25.85 16.8 L26.75 16.3 24.1 16.25 24.15 16.8 24.15 17.0 25.85 16.8 M23.8 17.8 L23.35 16.0 22.95 15.85 22.05 16.05 21.2 17.8 21.55 20.1 22.8 20.7 24.05 19.35 23.8 17.8 M26.1 17.8 L26.7 20.8 28.0 20.75 28.05 19.3 27.8 17.8 26.5 16.95 26.1 17.8 M17.5 17.8 Q17.5 16.8 17.15 16.1 16.75 15.35 16.25 15.35 15.75 15.35 15.4 16.1 15.0 16.8 15.0 17.8 L14.95 19.95 16.05 20.8 16.95 20.05 Q17.85 19.1 17.5 17.8 M11.55 15.5 L12.25 15.2 12.2 11.25 11.55 10.95 10.85 11.25 10.7 15.0 11.55 15.5 M12.1 18.1 Q11.9 17.85 11.65 17.85 L11.25 18.1 11.05 18.7 11.25 19.3 11.65 19.55 12.1 19.3 12.25 18.7 12.1 18.1 M10.8 17.7 L12.45 17.75 12.6 19.8 10.55 19.75 10.8 17.7 M50.35 11.05 L50.6 10.45 50.35 9.9 49.65 9.65 Q49.25 9.65 49.0 9.9 48.7 10.1 48.7 10.45 48.7 10.8 49.0 11.05 L49.65 11.25 50.35 11.05 M47.55 10.15 Q47.2 9.55 46.7 9.55 46.2 9.55 45.85 10.15 45.5 10.7 45.5 11.5 45.5 12.3 45.85 12.9 46.2 13.45 46.7 13.45 47.2 13.45 47.55 12.9 47.9 12.3 47.9 11.5 47.9 10.7 47.55 10.15 M42.0 7.4 L41.95 7.95 41.95 9.25 43.8 10.75 44.35 10.45 44.35 8.95 43.7 8.55 43.3 7.45 42.3 7.0 42.0 7.4 M51.05 9.95 L52.5 9.65 50.0 9.45 51.05 9.95 M54.05 6.45 L51.3 6.4 Q50.75 6.4 50.6 6.9 53.65 10.65 59.85 8.75 L59.8 7.75 54.05 6.45 M48.2 9.8 L48.5 9.55 47.95 9.55 48.2 9.8 M52.5 10.0 Q51.9 10.0 51.5 10.55 51.1 11.05 51.1 11.75 51.1 12.45 51.5 13.0 51.9 13.5 52.5 13.5 53.1 13.5 53.5 13.0 53.9 12.45 53.9 11.75 53.9 11.05 53.5 10.55 53.1 10.0 52.5 10.0 M60.75 8.35 L60.6 9.3 61.55 9.9 62.05 10.05 62.6 10.0 63.3 8.6 64.8 8.5 60.75 8.35 M54.0 9.8 L53.0 9.7 54.35 10.25 53.75 13.65 54.35 13.3 54.7 12.35 57.3 11.35 57.25 10.85 54.5 10.0 54.0 9.8 M64.3 8.8 L63.1 10.25 63.05 10.8 63.25 13.45 64.05 13.95 64.7 13.9 65.0 13.55 Q66.1 11.0 64.3 8.8 M59.1 10.45 L58.25 10.2 57.95 10.7 Q57.55 11.7 57.95 12.75 L58.55 13.05 59.45 12.5 59.7 11.75 59.3 11.35 59.1 10.45 M72.3 6.3 L72.15 6.0 71.7 5.85 Q71.45 5.85 71.3 6.0 L71.1 6.3 71.3 6.65 71.7 6.75 72.15 6.65 72.3 6.3 M66.75 10.35 L70.75 10.1 70.75 9.55 71.3 9.3 66.2 8.3 65.5 9.35 65.8 13.5 66.5 13.5 66.35 10.7 66.75 10.35 M72.8 9.95 Q72.5 9.5 72.05 9.5 71.6 9.5 71.3 9.95 71.0 10.4 71.0 11.05 71.0 11.7 71.3 12.15 L72.05 12.6 Q72.5 12.6 72.8 12.15 L73.1 11.05 72.8 9.95 M73.45 13.35 L78.6 13.35 78.6 12.35 77.95 13.0 75.7 12.8 75.65 9.85 73.15 9.35 73.55 12.2 73.1 12.8 72.2 13.1 71.25 13.1 69.25 12.35 69.3 13.55 72.2 13.5 73.45 13.35 M77.9 9.7 Q77.55 9.2 77.05 9.2 76.55 9.2 76.2 9.7 75.85 10.2 75.85 10.9 75.85 11.6 76.2 12.1 L77.05 12.6 Q77.55 12.6 77.9 12.1 78.25 11.6 78.25 10.9 78.25 10.2 77.9 9.7 M78.7 10.8 L79.35 10.7 78.6 10.3 78.7 10.8 M62.65 11.6 L62.65 11.0 60.2 11.0 60.25 11.25 60.0 12.85 62.7 13.0 62.65 11.6 M76.6 6.85 L76.0 8.75 76.15 8.8 82.7 9.05 82.8 7.75 82.1 7.35 Q79.5 6.3 76.6 6.85 M82.75 10.6 L82.75 10.45 Q82.2 10.7 82.75 10.6 M84.55 10.55 Q84.3 10.1 83.95 10.1 83.6 10.1 83.35 10.55 83.1 11.0 83.1 11.65 83.1 12.3 83.35 12.75 83.6 13.2 83.95 13.2 84.3 13.2 84.55 12.75 L84.8 11.65 84.55 10.55 M85.1 10.95 L85.35 10.1 84.9 10.1 85.1 10.95 M85.95 7.55 L85.75 8.5 86.35 9.25 88.15 9.6 Q89.15 9.55 89.75 8.95 L89.75 8.2 89.1 7.65 85.95 7.55 M91.0 9.65 Q90.7 10.05 90.7 10.6 90.7 11.15 91.0 11.55 L91.6 11.95 Q91.95 11.95 92.25 11.55 L92.5 10.6 92.25 9.65 Q91.95 9.25 91.6 9.25 91.25 9.25 91.0 9.65 M86.85 10.6 L86.3 10.2 85.8 10.6 Q85.55 10.95 85.55 11.5 85.55 12.05 85.8 12.45 86.0 12.8 86.3 12.8 L86.85 12.45 87.05 11.5 86.85 10.6 M95.55 7.95 Q95.55 7.55 95.15 7.3 94.75 7.0 94.15 7.0 93.55 7.0 93.15 7.3 92.75 7.55 92.75 7.95 L93.15 8.65 94.15 8.9 95.15 8.65 Q95.55 8.35 95.55 7.95 M95.05 13.8 L95.35 13.15 95.05 12.55 Q94.7 12.25 94.2 12.25 93.7 12.25 93.4 12.55 93.05 12.8 93.05 13.15 93.05 13.5 93.4 13.8 L94.2 14.05 95.05 13.8 M93.05 17.8 L93.3 15.9 93.05 15.55 92.0 15.3 91.6 17.8 92.1 18.15 93.05 17.8 M90.05 17.8 L89.85 16.2 Q89.6 15.55 89.3 15.55 89.0 15.55 88.8 16.2 88.55 16.85 88.55 17.8 L88.8 18.5 89.3 18.8 89.85 18.5 90.05 17.8 M85.45 13.2 L85.35 13.2 85.05 12.7 84.8 13.35 85.45 13.2 M82.75 13.35 L82.75 12.3 81.05 13.3 82.75 13.35 M85.55 17.8 L85.1 15.85 84.55 15.55 83.95 15.85 84.0 17.8 84.25 18.5 Q84.45 18.8 84.8 18.8 L85.4 18.5 85.55 17.8 M79.7 17.8 Q79.7 16.75 79.35 16.0 78.95 15.25 78.45 15.25 77.95 15.25 77.6 16.0 77.2 16.75 77.2 17.8 L77.25 19.2 78.05 19.7 79.5 18.8 79.7 17.8 M80.05 11.35 L79.2 11.3 79.2 13.0 80.05 13.1 80.7 12.35 80.55 11.8 80.7 11.4 80.35 10.85 80.2 11.2 80.05 11.35 M74.6 17.8 Q74.6 16.65 74.25 15.85 73.85 15.0 73.35 15.0 72.85 15.0 72.5 15.85 72.1 16.65 72.1 17.8 72.1 18.7 72.5 19.35 72.85 20.0 73.35 20.0 73.85 20.0 74.25 19.35 74.6 18.7 74.6 17.8 M70.3 17.8 Q70.35 16.95 70.05 16.4 69.7 15.8 69.2 15.8 68.7 15.8 68.4 16.4 68.05 16.95 68.05 17.8 L68.05 19.1 69.75 19.45 70.3 17.8 M66.75 12.15 Q66.75 12.75 67.05 13.15 L67.65 13.55 68.3 13.15 68.55 12.15 68.3 11.15 67.65 10.75 Q67.3 10.75 67.05 11.15 66.75 11.55 66.75 12.15 M62.45 17.05 L62.7 15.15 62.45 16.05 62.45 17.05 M64.3 17.8 Q64.9 16.65 64.25 15.55 L64.1 15.3 63.1 15.45 63.0 17.8 63.3 17.95 64.3 17.8 M59.2 17.8 L59.2 19.8 Q59.95 21.05 61.55 20.75 L61.75 20.35 Q62.15 19.2 61.95 17.8 62.0 16.65 61.6 15.85 61.2 15.0 60.6 15.0 60.0 15.0 59.6 15.85 59.2 16.65 59.2 17.8 M65.05 20.7 Q65.05 21.35 65.45 21.85 65.8 22.3 66.35 22.3 L67.3 21.85 67.65 20.7 Q67.65 20.05 67.3 19.6 66.9 19.1 66.35 19.1 65.8 19.1 65.45 19.6 65.05 20.05 65.05 20.7 M57.45 13.0 Q57.2 13.7 57.5 13.15 L57.45 13.0 M49.45 14.35 L51.85 13.8 50.75 13.65 50.7 11.75 50.25 11.8 49.95 13.6 48.95 13.7 48.95 11.6 48.3 11.5 48.3 12.95 47.8 13.55 47.25 13.8 45.0 13.05 45.05 11.0 42.5 11.5 42.35 12.55 41.25 13.95 42.2 14.7 43.1 14.6 43.5 14.3 47.05 14.35 49.45 14.35 M52.7 16.95 L53.2 15.75 55.45 15.75 Q56.75 17.4 56.15 19.65 L55.75 21.05 Q54.6 21.35 53.75 20.5 52.3 19.1 52.7 16.95 M55.65 17.8 Q55.65 17.05 55.3 16.5 54.95 15.95 54.45 15.95 53.95 15.95 53.6 16.5 53.25 17.05 53.25 17.8 53.25 19.0 53.6 19.85 53.95 20.7 54.45 20.7 54.95 20.7 55.3 19.85 55.65 19.0 55.65 17.8 M44.85 17.8 L44.5 17.2 43.8 16.85 43.1 17.0 42.4 17.8 Q41.7 19.6 42.8 21.5 L43.7 21.85 43.95 21.6 Q45.8 20.05 44.85 17.8 M50.1 17.8 L48.15 17.8 Q47.35 19.85 47.85 21.85 L49.05 22.75 50.0 22.45 50.25 21.8 Q50.8 19.5 50.1 17.8" fill="#98c00c" fill-rule="evenodd" stroke="none"/>
    <path d="M9.6 7.9 L11.45 7.6 13.3 7.9 Q14.05 8.15 14.05 8.55 14.05 8.95 13.3 9.25 L11.45 9.5 9.6 9.25 Q8.85 8.95 8.85 8.55 8.85 8.15 9.6 7.9 M18.1 6.2 L20.05 5.55 Q21.75 5.75 23.1 6.75 23.9 7.4 23.7 8.2 L23.1 8.55 18.3 8.1 17.85 7.45 18.1 6.2 M15.4 6.85 L15.2 6.4 15.4 5.95 15.9 5.75 16.4 5.95 16.6 6.4 16.4 6.85 Q16.2 7.05 15.9 7.05 L15.4 6.85 M15.3 10.35 L15.1 9.1 17.75 9.95 Q18.15 10.05 18.5 10.45 L18.55 10.9 17.8 11.1 17.1 10.2 15.3 10.35 M22.0 12.95 L21.75 11.0 22.95 11.05 23.0 11.6 24.0 11.95 24.6 12.7 26.05 12.55 25.6 13.3 25.85 14.45 23.0 14.2 22.0 12.95 M23.65 8.5 L23.95 8.75 24.05 9.3 23.95 9.9 23.65 10.1 23.4 9.9 23.25 9.3 Q23.25 8.95 23.4 8.75 L23.65 8.5 M28.35 7.75 L28.7 7.0 32.8 6.35 33.2 6.5 34.05 7.8 33.35 8.7 Q30.85 8.95 28.6 8.1 L28.35 7.75 M30.1 13.85 L30.1 11.0 31.05 11.0 30.8 10.25 32.75 10.3 32.7 13.25 34.45 13.95 33.55 15.25 29.9 14.8 30.1 13.85 M35.55 13.75 L36.05 13.0 35.95 11.85 35.7 11.5 35.6 10.4 36.5 10.45 36.1 10.7 36.45 13.55 38.1 13.55 38.45 12.7 38.85 14.05 37.3 14.35 36.8 13.85 35.55 13.75 M28.4 14.75 L28.0 14.75 Q27.55 14.75 28.25 14.5 L28.4 14.75 M38.65 7.05 L38.85 7.55 38.65 8.1 38.05 8.3 Q37.7 8.3 37.5 8.1 L37.25 7.55 Q37.25 7.25 37.5 7.05 37.7 6.8 38.05 6.8 L38.65 7.05 M3.6 18.45 L5.25 12.45 10.35 11.0 10.2 15.5 10.6 15.7 10.85 15.75 13.35 16.7 13.75 15.75 12.75 14.8 15.0 13.45 14.3 12.85 Q13.6 12.45 12.75 12.55 L13.15 11.15 13.25 11.6 15.15 11.55 15.1 12.5 15.8 13.0 16.5 13.05 17.85 14.0 Q15.5 14.35 13.95 15.45 L14.7 15.7 14.6 15.85 14.6 16.8 7.1 16.7 5.55 12.95 4.7 17.1 Q5.45 19.05 7.25 20.4 12.55 24.3 19.05 25.35 L32.05 26.4 Q53.65 26.8 75.35 26.5 L86.55 25.65 Q97.25 25.4 102.3 16.85 L101.8 13.85 100.7 12.95 101.2 14.05 100.85 15.35 Q100.5 14.4 99.8 14.15 L98.05 13.8 95.85 12.55 Q96.1 12.3 95.9 11.85 L95.65 11.5 94.75 11.35 94.35 11.85 92.95 12.25 93.05 11.3 93.85 11.2 94.3 10.85 Q98.35 10.55 102.05 12.0 103.9 15.9 103.05 20.15 98.55 26.6 90.3 26.9 L66.05 28.15 Q53.85 28.35 41.7 28.05 L18.05 26.95 Q7.8 26.95 3.6 18.45 M14.55 18.5 L14.75 20.75 10.55 20.6 9.8 20.1 10.05 18.45 9.45 17.85 9.3 17.45 9.75 17.5 10.1 17.7 10.45 17.75 10.8 17.7 10.55 19.75 12.6 19.8 12.45 17.75 14.55 18.5 M17.35 20.75 L18.05 20.1 18.05 19.1 20.5 19.35 Q20.5 20.15 20.95 20.7 21.4 21.25 22.05 21.25 21.55 22.4 20.15 21.85 L17.35 20.75 M19.55 16.8 L19.2 15.3 18.75 15.8 17.8 15.25 17.35 15.4 18.5 14.75 18.7 15.25 23.55 15.55 23.55 15.7 21.55 15.55 20.85 16.8 19.55 16.8 M25.2 19.9 L25.8 19.35 26.05 20.25 25.2 19.9 M27.8 16.8 L27.25 16.35 31.95 16.85 27.8 16.8 M30.7 18.65 L31.05 19.25 31.0 20.75 30.15 19.95 30.35 18.9 30.7 18.65 M34.2 21.3 L34.6 18.75 35.25 18.85 35.25 20.45 36.4 20.45 35.6 21.25 34.2 21.3 M44.75 22.0 L45.6 21.15 45.6 18.45 47.45 19.0 47.4 21.85 44.75 22.0 M42.95 16.55 L42.25 16.9 41.85 16.9 41.2 16.5 39.8 16.9 38.8 16.7 38.35 16.15 40.5 15.8 42.95 16.4 42.95 16.55 M47.7 22.75 L48.7 23.3 Q49.0 23.9 48.45 24.1 L47.9 24.4 Q46.85 24.6 46.2 23.75 L46.1 23.0 46.95 22.6 47.7 22.75 M50.1 23.25 L50.85 22.05 51.7 23.0 50.8 23.7 50.1 23.25 M50.8 16.95 L50.65 15.85 53.2 15.45 53.2 15.75 52.7 16.95 50.8 16.95 M58.0 15.3 L59.3 15.0 58.3 16.7 58.35 15.85 58.0 15.3 M59.8 21.25 L61.65 21.2 62.35 20.95 62.45 18.65 63.45 20.8 63.25 21.35 62.15 22.0 61.35 21.85 60.7 22.65 59.85 22.7 59.55 22.35 59.8 21.25 M64.95 17.1 L64.85 15.6 65.65 15.9 65.95 17.1 64.95 17.1 M67.1 15.6 L66.25 15.6 67.1 15.6 M64.65 21.75 L65.05 22.5 67.55 22.7 67.85 22.3 68.45 23.05 68.1 24.95 Q65.85 25.75 63.7 24.5 L63.6 23.35 64.65 21.75 M70.35 19.75 L70.8 18.3 70.65 17.8 71.45 17.9 71.7 18.7 Q71.7 19.15 71.3 19.45 L70.35 19.75 M70.55 17.1 L70.5 16.9 70.75 15.75 71.55 15.75 71.55 17.1 70.55 17.1 M75.2 17.15 L74.8 15.35 75.65 15.35 76.85 16.45 76.9 17.15 75.2 17.15 M83.35 20.1 L83.3 20.05 83.8 19.55 82.35 17.35 81.1 17.25 82.95 17.35 83.65 18.35 84.1 19.1 83.9 19.8 Q83.65 20.1 83.35 20.1 M81.15 17.15 L81.1 16.1 80.65 15.75 83.5 15.55 83.6 17.2 81.15 17.15 M85.9 17.2 L85.75 15.75 86.05 16.0 Q86.7 16.0 87.1 15.55 L88.1 15.35 88.1 17.2 85.9 17.2 M94.05 17.2 L93.9 15.8 96.35 15.7 97.2 15.0 97.85 15.7 98.55 15.85 99.1 16.45 100.45 16.3 100.2 16.8 99.7 17.05 94.05 17.2 M91.7 14.9 L91.2 14.95 90.75 15.6 90.45 15.1 89.3 15.05 90.5 14.8 90.85 14.0 Q89.3 13.0 87.3 13.0 L87.4 10.6 90.3 10.85 90.3 12.35 91.7 12.45 91.35 12.75 91.0 13.85 91.7 14.9 M31.5 23.3 L31.15 23.8 30.3 24.0 29.45 23.8 29.1 23.3 Q29.1 23.0 29.45 22.8 L30.3 22.6 31.15 22.8 31.5 23.3 M40.3 21.85 L41.5 22.05 42.0 22.55 41.5 23.05 40.3 23.25 39.1 23.05 Q38.6 22.85 38.6 22.55 38.6 22.25 39.1 22.05 L40.3 21.85 M38.25 23.35 L38.6 23.75 38.3 24.95 Q36.15 25.55 34.3 24.1 L34.45 22.8 Q36.45 21.55 38.25 23.35 M24.15 16.8 L24.1 16.25 26.75 16.3 25.85 16.8 24.15 16.8 M25.05 22.35 L25.55 22.2 26.85 23.25 26.8 24.0 25.9 24.2 25.1 23.8 24.7 23.05 25.05 22.35 M15.95 22.35 L16.8 22.0 18.6 22.6 18.85 23.35 17.8 24.0 15.75 23.1 15.95 22.35 M48.2 9.8 L47.95 9.55 48.5 9.55 48.2 9.8 M54.05 6.45 L59.8 7.75 59.85 8.75 Q53.65 10.65 50.6 6.9 50.75 6.4 51.3 6.4 L54.05 6.45 M51.05 9.95 L50.0 9.45 52.5 9.65 51.05 9.95 M54.0 9.8 L54.5 10.0 57.25 10.85 57.3 11.35 54.7 12.35 54.35 13.3 53.75 13.65 54.35 10.25 53.0 9.7 54.0 9.8 M60.75 8.35 L64.8 8.5 63.3 8.6 62.6 10.0 62.05 10.05 61.55 9.9 60.6 9.3 60.75 8.35 M66.75 10.35 L66.35 10.7 66.5 13.5 65.8 13.5 65.5 9.35 66.2 8.3 71.3 9.3 70.75 9.55 70.75 10.1 66.75 10.35 M72.3 6.3 L72.15 6.65 71.7 6.75 71.3 6.65 71.1 6.3 71.3 6.0 Q71.45 5.85 71.7 5.85 L72.15 6.0 72.3 6.3 M73.1 12.8 L73.55 12.2 73.15 9.35 75.65 9.85 75.7 12.8 77.95 13.0 78.6 12.35 78.6 13.35 73.45 13.35 73.1 12.8 M72.2 13.5 L69.3 13.55 69.25 12.35 71.25 13.1 72.2 13.1 72.2 13.5 M78.7 10.8 L78.6 10.3 79.35 10.7 78.7 10.8 M76.6 6.85 Q79.5 6.3 82.1 7.35 L82.8 7.75 82.7 9.05 76.15 8.8 76.0 8.75 76.6 6.85 M60.25 11.25 L60.2 11.0 62.65 11.0 62.65 11.6 61.8 11.25 60.25 11.25 M82.75 10.6 Q82.2 10.7 82.75 10.45 L82.75 10.6 M85.1 10.95 L84.9 10.1 85.35 10.1 85.1 10.95 M85.95 7.55 L89.1 7.65 89.75 8.2 89.75 8.95 Q89.15 9.55 88.15 9.6 L86.35 9.25 85.75 8.5 85.95 7.55 M95.55 7.95 Q95.55 8.35 95.15 8.65 L94.15 8.9 93.15 8.65 92.75 7.95 Q92.75 7.55 93.15 7.3 93.55 7.0 94.15 7.0 94.75 7.0 95.15 7.3 95.55 7.55 95.55 7.95 M94.3 18.55 L96.75 19.3 96.85 21.55 92.6 21.45 92.05 20.7 92.2 19.35 94.3 18.55 M85.45 13.2 L84.8 13.35 85.05 12.7 85.35 13.2 85.45 13.2 M82.75 13.35 L81.05 13.3 82.75 12.3 82.75 13.35 M85.95 20.85 Q86.25 20.55 86.7 20.55 87.15 20.55 87.45 20.85 L87.75 21.45 87.45 22.1 86.7 22.35 85.95 22.1 Q85.65 21.8 85.65 21.45 85.65 21.1 85.95 20.85 M81.25 25.2 Q79.65 26.0 77.8 25.8 76.8 25.75 76.35 24.95 L76.35 22.85 Q77.7 21.5 79.6 21.7 L81.0 22.2 81.5 23.3 81.25 25.2 M72.8 20.8 Q73.1 20.45 73.6 20.45 74.1 20.45 74.45 20.8 L74.75 21.6 74.45 22.45 73.6 22.75 72.8 22.45 Q72.45 22.1 72.45 21.6 72.45 21.1 72.8 20.8 M62.45 17.05 L62.45 16.05 62.7 15.15 62.45 17.05 M57.45 13.0 L57.5 13.15 Q57.2 13.7 57.45 13.0 M47.8 13.55 L48.3 12.95 48.3 11.5 48.95 11.6 48.95 13.7 49.95 13.6 50.25 11.8 50.7 11.75 50.75 13.65 51.85 13.8 49.45 14.35 49.2 14.0 47.8 13.55 M47.05 14.35 L43.5 14.3 43.1 14.6 42.2 14.7 41.25 13.95 43.55 13.5 43.6 12.75 42.5 11.5 45.05 11.0 45.0 13.05 47.25 13.8 47.05 14.35 M56.05 22.55 Q56.35 22.2 56.8 22.2 57.25 22.2 57.55 22.55 L57.85 23.4 57.55 24.25 Q57.25 24.6 56.8 24.6 56.35 24.6 56.05 24.25 55.75 23.9 55.75 23.4 55.75 22.9 56.05 22.55" fill="#b5d71e" fill-rule="evenodd" stroke="none"/>
    <path d="M14.65 9.65 L14.8 10.3 14.65 11.0 14.2 11.25 Q13.95 11.25 13.8 11.0 L13.6 10.3 13.8 9.65 14.2 9.35 Q14.45 9.35 14.65 9.65 M16.3 10.55 L17.3 12.0 16.3 12.5 15.6 12.0 15.8 10.85 16.3 10.55 M20.1 13.8 L19.55 13.25 19.55 10.05 20.4 9.9 20.8 10.05 21.7 13.2 21.2 13.85 20.1 13.8 M24.7 8.95 L25.75 9.3 26.35 11.5 26.05 12.1 25.1 12.2 24.3 11.25 24.25 9.95 24.7 8.95 M34.25 9.95 Q34.75 9.95 35.1 10.5 35.45 11.0 35.45 11.7 35.45 12.4 35.1 12.95 34.75 13.45 34.25 13.45 33.75 13.45 33.4 12.95 33.05 12.4 33.05 11.7 33.05 11.0 33.4 10.5 33.75 9.95 34.25 9.95 M40.25 9.55 L41.45 9.8 Q41.55 11.25 41.3 12.7 41.15 13.8 40.05 14.0 L39.2 13.5 38.9 12.2 38.9 11.5 39.1 10.7 40.25 9.55 M38.0 11.95 L37.8 12.85 37.25 13.2 36.75 12.85 36.5 11.95 Q36.5 11.45 36.75 11.1 L37.25 10.7 37.8 11.1 38.0 11.95 M31.55 17.8 L32.55 17.3 33.35 17.8 31.55 17.8 M40.1 17.8 L40.35 17.0 41.85 17.8 40.1 17.8 M29.55 11.55 L29.9 12.45 29.55 13.4 28.6 13.75 27.7 13.4 Q27.3 13.0 27.3 12.45 27.3 11.9 27.7 11.55 28.05 11.15 28.6 11.15 29.15 11.15 29.55 11.55 M21.2 17.8 L22.05 16.05 22.95 15.85 23.35 16.0 23.8 17.8 21.2 17.8 M27.8 17.8 L26.1 17.8 26.5 16.95 27.8 17.8 M15.0 17.8 Q15.0 16.8 15.4 16.1 15.75 15.35 16.25 15.35 16.75 15.35 17.15 16.1 17.5 16.8 17.5 17.8 L15.0 17.8 M11.55 15.5 L10.7 15.0 10.85 11.25 11.55 10.95 12.2 11.25 12.25 15.2 11.55 15.5 M42.0 7.4 L42.3 7.0 43.3 7.45 43.7 8.55 44.35 8.95 44.35 10.45 43.8 10.75 41.95 9.25 41.95 7.95 42.0 7.4 M47.55 10.15 Q47.9 10.7 47.9 11.5 47.9 12.3 47.55 12.9 47.2 13.45 46.7 13.45 46.2 13.45 45.85 12.9 45.5 12.3 45.5 11.5 45.5 10.7 45.85 10.15 46.2 9.55 46.7 9.55 47.2 9.55 47.55 10.15 M50.35 11.05 L49.65 11.25 49.0 11.05 Q48.7 10.8 48.7 10.45 48.7 10.1 49.0 9.9 49.25 9.65 49.65 9.65 L50.35 9.9 50.6 10.45 50.35 11.05 M52.5 10.0 Q53.1 10.0 53.5 10.55 53.9 11.05 53.9 11.75 53.9 12.45 53.5 13.0 53.1 13.5 52.5 13.5 51.9 13.5 51.5 13.0 51.1 12.45 51.1 11.75 51.1 11.05 51.5 10.55 51.9 10.0 52.5 10.0 M59.1 10.45 L59.3 11.35 59.7 11.75 59.45 12.5 58.55 13.05 57.95 12.75 Q57.55 11.7 57.95 10.7 L58.25 10.2 59.1 10.45 M64.3 8.8 Q66.1 11.0 65.0 13.55 L64.7 13.9 64.05 13.95 63.25 13.45 63.05 10.8 63.1 10.25 64.3 8.8 M72.8 9.95 L73.1 11.05 72.8 12.15 Q72.5 12.6 72.05 12.6 L71.3 12.15 Q71.0 11.7 71.0 11.05 71.0 10.4 71.3 9.95 71.6 9.5 72.05 9.5 72.5 9.5 72.8 9.95 M77.9 9.7 Q78.25 10.2 78.25 10.9 78.25 11.6 77.9 12.1 77.55 12.6 77.05 12.6 L76.2 12.1 Q75.85 11.6 75.85 10.9 75.85 10.2 76.2 9.7 76.55 9.2 77.05 9.2 77.55 9.2 77.9 9.7 M84.55 10.55 L84.8 11.65 84.55 12.75 Q84.3 13.2 83.95 13.2 83.6 13.2 83.35 12.75 83.1 12.3 83.1 11.65 83.1 11.0 83.35 10.55 83.6 10.1 83.95 10.1 84.3 10.1 84.55 10.55 M86.85 10.6 L87.05 11.5 86.85 12.45 86.3 12.8 Q86.0 12.8 85.8 12.45 85.55 12.05 85.55 11.5 85.55 10.95 85.8 10.6 L86.3 10.2 86.85 10.6 M91.0 9.65 Q91.25 9.25 91.6 9.25 91.95 9.25 92.25 9.65 L92.5 10.6 92.25 11.55 Q91.95 11.95 91.6 11.95 L91.0 11.55 Q90.7 11.15 90.7 10.6 90.7 10.05 91.0 9.65 M95.05 13.8 L94.2 14.05 93.4 13.8 Q93.05 13.5 93.05 13.15 93.05 12.8 93.4 12.55 93.7 12.25 94.2 12.25 94.7 12.25 95.05 12.55 L95.35 13.15 95.05 13.8 M91.6 17.8 L92.0 15.3 93.05 15.55 93.3 15.9 93.05 17.8 91.6 17.8 M88.55 17.8 Q88.55 16.85 88.8 16.2 89.0 15.55 89.3 15.55 89.6 15.55 89.85 16.2 L90.05 17.8 88.55 17.8 M84.0 17.8 L83.95 15.85 84.55 15.55 85.1 15.85 85.55 17.8 84.0 17.8 M80.05 11.35 L80.2 11.2 80.35 10.85 80.7 11.4 80.55 11.8 80.7 12.35 80.05 13.1 79.2 13.0 79.2 11.3 80.05 11.35 M77.2 17.8 Q77.2 16.75 77.6 16.0 77.95 15.25 78.45 15.25 78.95 15.25 79.35 16.0 79.7 16.75 79.7 17.8 L77.2 17.8 M72.1 17.8 Q72.1 16.65 72.5 15.85 72.85 15.0 73.35 15.0 73.85 15.0 74.25 15.85 74.6 16.65 74.6 17.8 L72.1 17.8 M66.75 12.15 Q66.75 11.55 67.05 11.15 67.3 10.75 67.65 10.75 L68.3 11.15 68.55 12.15 68.3 13.15 67.65 13.55 67.05 13.15 Q66.75 12.75 66.75 12.15 M68.05 17.8 Q68.05 16.95 68.4 16.4 68.7 15.8 69.2 15.8 69.7 15.8 70.05 16.4 70.35 16.95 70.3 17.8 L68.05 17.8 M63.0 17.8 L63.1 15.45 64.1 15.3 64.25 15.55 Q64.9 16.65 64.3 17.8 L63.0 17.8 M59.2 17.8 Q59.2 16.65 59.6 15.85 60.0 15.0 60.6 15.0 61.2 15.0 61.6 15.85 62.0 16.65 61.95 17.8 L59.2 17.8 M53.25 17.8 Q53.25 17.05 53.6 16.5 53.95 15.95 54.45 15.95 54.95 15.95 55.3 16.5 55.65 17.05 55.65 17.8 L53.25 17.8 M42.4 17.8 L43.1 17.0 43.8 16.85 44.5 17.2 44.85 17.8 42.4 17.8" fill="#def26f" fill-rule="evenodd" stroke="none"/>
    <path d="M25.75 1.6 Q12.85 -0.4 3.75 7.85 -0.4 14.75 3.55 21.65 4.85 24.0 7.3 25.0 18.5 30.05 31.15 30.1 L53.15 30.45 75.15 29.75 Q85.85 29.55 96.0 26.9 105.55 24.6 105.25 14.85 104.95 4.35 94.55 3.1 82.85 1.8 71.0 2.85 L50.2 3.7 Q37.85 3.55 25.75 1.6 M24.75 29.9 L22.35 29.75 20.25 29.65 16.5 29.35 14.6 29.15 Q7.1 28.55 2.8 22.45 L1.6 20.45 Q3.45 31.35 14.6 32.6 L16.5 32.85 20.3 33.15 22.55 33.3 26.85 33.55 33.05 33.85 37.6 34.0 39.8 34.1 42.25 34.15 44.6 34.2 73.25 34.0 76.5 33.9 78.1 33.8 80.8 33.65 84.7 33.45 89.4 33.05 92.25 32.7 94.95 32.15 Q99.5 31.3 102.75 27.9 105.75 24.75 105.8 20.5 L104.85 21.95 Q100.5 27.65 93.8 29.15 L92.3 29.35 92.3 29.4 89.4 29.65 89.4 29.6 84.3 29.95 80.75 30.15 78.7 30.25 76.45 30.35 73.25 30.5 43.85 30.7 42.25 30.65 39.85 30.55 37.6 30.5 33.05 30.3 24.75 29.9 M12.25 32.55 Q-1.7 28.6 1.25 14.0 3.95 0.4 18.5 0.95 L41.9 2.45 Q54.4 2.95 66.8 2.55 L88.1 1.7 Q92.55 1.1 96.85 2.65 109.15 7.05 106.45 20.8 103.9 33.8 89.55 34.1 L66.55 35.25 45.5 35.3 23.6 34.35 Q17.9 34.2 12.25 32.55" fill="#374604" fill-rule="evenodd" stroke="none"/>
    <path d="M25.75 1.6 Q37.85 3.55 50.2 3.7 L71.0 2.85 Q82.85 1.8 94.55 3.1 104.95 4.35 105.25 14.85 105.55 24.6 96.0 26.9 85.85 29.55 75.15 29.75 L53.15 30.45 31.15 30.1 Q18.5 30.05 7.3 25.0 4.85 24.0 3.55 21.65 -0.4 14.75 3.75 7.85 12.85 -0.4 25.75 1.6 M103.05 20.15 Q107.05 7.6 93.75 4.7 86.15 3.05 78.55 3.65 L54.3 4.95 30.65 3.55 Q19.45 2.15 9.15 6.35 3.8 8.5 3.45 14.15 3.35 16.3 3.6 18.45 7.8 26.95 18.05 26.95 L41.7 28.05 Q53.85 28.35 66.05 28.15 L90.3 26.9 Q98.55 26.6 103.05 20.15" fill="#698606" fill-rule="evenodd" stroke="none"/>
    <path d="M21.2 13.85 L22.1 13.85 22.0 12.95 23.0 14.2 19.35 13.8 20.1 13.8 21.2 13.85 M34.45 13.95 L35.55 13.75 36.8 13.85 37.3 14.35 35.7 14.85 33.55 15.25 34.45 13.95 M29.9 14.8 L28.4 14.75 28.25 14.5 30.1 13.85 29.9 14.8 M10.85 15.75 L11.45 15.85 12.75 15.7 12.75 14.8 13.75 15.75 13.35 16.7 10.85 15.75 M14.6 16.8 L14.55 18.5 12.45 17.75 10.8 17.7 10.45 17.75 10.1 17.7 9.75 17.5 9.3 17.45 9.45 17.85 10.05 18.45 9.8 20.1 10.55 20.6 14.75 20.75 15.25 21.2 16.8 21.25 17.35 20.75 20.15 21.85 Q21.55 22.4 22.05 21.25 L23.35 21.35 24.25 20.6 24.25 20.0 25.2 19.9 26.05 20.25 26.2 21.3 28.5 21.25 28.65 20.7 Q29.05 18.6 27.8 16.8 L31.95 16.85 33.85 17.0 31.35 16.95 31.05 17.3 30.7 18.65 30.35 18.9 30.15 19.95 31.0 20.75 31.95 22.25 33.85 22.25 34.2 21.3 35.6 21.25 36.4 20.45 36.85 20.45 37.1 19.95 37.25 20.7 39.1 20.95 39.7 20.05 39.7 19.05 41.55 19.0 42.3 22.0 44.75 22.0 47.4 21.85 47.35 22.35 47.7 22.75 46.95 22.6 46.1 23.0 46.2 23.75 Q46.85 24.6 47.9 24.4 L48.45 24.1 Q49.0 23.9 48.7 23.3 L50.1 23.25 50.8 23.7 51.7 23.0 50.85 22.05 51.05 21.15 Q51.25 19.1 50.8 16.95 L52.7 16.95 Q52.3 19.1 53.75 20.5 54.6 21.35 55.75 21.05 L56.15 19.65 Q56.75 17.4 55.45 15.75 L53.2 15.75 53.2 15.45 58.0 15.3 58.35 15.85 58.3 16.7 57.2 16.75 56.5 17.3 56.5 18.25 58.5 19.25 58.7 20.3 59.8 21.25 59.55 22.35 59.85 22.7 60.7 22.65 61.35 21.85 62.15 22.0 63.25 21.35 63.45 20.8 62.45 18.65 62.45 18.2 63.6 18.5 64.8 18.35 64.95 17.1 65.95 17.1 67.05 17.2 67.1 15.6 68.1 15.6 67.55 18.7 64.95 18.85 64.65 21.75 63.6 23.35 63.7 24.5 Q65.85 25.75 68.1 24.95 L68.45 23.05 67.85 22.3 68.05 20.05 70.35 19.75 71.3 19.45 Q71.7 19.15 71.7 18.7 L72.35 20.2 74.95 20.1 75.2 17.15 76.9 17.15 77.05 20.0 77.8 20.3 79.9 19.4 80.95 21.45 83.6 20.75 83.35 20.1 Q83.65 20.1 83.9 19.8 L84.1 19.1 84.8 19.3 85.85 19.0 85.9 17.2 88.1 17.2 88.1 19.25 90.45 19.25 90.8 17.2 90.95 17.2 91.0 18.2 92.9 18.6 94.05 17.2 99.7 17.05 100.2 16.8 100.45 16.3 99.1 16.45 98.55 15.85 97.85 15.7 97.2 15.0 96.35 15.7 93.9 15.8 92.8 14.75 91.7 14.9 91.0 13.85 91.35 12.75 91.7 12.45 92.6 12.5 92.85 14.45 95.55 14.25 95.85 12.55 98.05 13.8 99.8 14.15 Q100.5 14.4 100.85 15.35 L101.2 14.05 100.7 12.95 101.8 13.85 102.3 16.85 Q97.25 25.4 86.55 25.65 L75.35 26.5 Q53.65 26.8 32.05 26.4 L19.05 25.35 Q12.55 24.3 7.25 20.4 5.45 19.05 4.7 17.1 L5.55 12.95 7.1 16.7 14.6 16.8 M18.05 19.1 Q18.65 19.1 19.1 18.45 L19.55 16.8 20.85 16.8 20.5 19.35 18.05 19.1 M18.75 15.8 L18.25 15.95 17.35 15.4 17.8 15.25 18.75 15.8 M34.6 18.75 L35.2 18.35 35.25 18.85 34.6 18.75 M45.6 18.45 L45.0 16.7 42.95 16.55 42.95 16.4 47.45 16.25 47.85 17.3 47.45 19.0 45.6 18.45 M39.8 16.9 L39.6 18.2 37.3 17.8 37.1 18.55 37.0 17.6 35.2 17.25 38.35 16.15 38.8 16.7 39.8 16.9 M70.65 17.8 L70.55 17.1 71.55 17.1 71.45 17.9 70.65 17.8 M75.65 15.35 L77.0 15.35 76.85 16.45 75.65 15.35 M81.1 17.25 L81.15 17.15 83.6 17.2 83.65 18.35 82.95 17.35 81.1 17.25 M85.75 15.75 L85.7 15.55 87.1 15.55 Q86.7 16.0 86.05 16.0 L85.75 15.75 M31.5 23.3 L31.15 22.8 30.3 22.6 29.45 22.8 Q29.1 23.0 29.1 23.3 L29.45 23.8 30.3 24.0 31.15 23.8 31.5 23.3 M38.25 23.35 Q36.45 21.55 34.45 22.8 L34.3 24.1 Q36.15 25.55 38.3 24.95 L38.6 23.75 38.25 23.35 M40.3 21.85 L39.1 22.05 Q38.6 22.25 38.6 22.55 38.6 22.85 39.1 23.05 L40.3 23.25 41.5 23.05 42.0 22.55 41.5 22.05 40.3 21.85 M24.15 16.8 L25.85 16.8 24.15 17.0 24.15 16.8 M25.05 22.35 L24.7 23.05 25.1 23.8 25.9 24.2 26.8 24.0 26.85 23.25 25.55 22.2 25.05 22.35 M15.95 22.35 L15.75 23.1 17.8 24.0 18.85 23.35 18.6 22.6 16.8 22.0 15.95 22.35 M73.45 13.35 L72.2 13.5 72.2 13.1 73.1 12.8 73.45 13.35 M62.65 11.6 L62.7 13.0 60.0 12.85 60.25 11.25 61.8 11.25 62.65 11.6 M94.3 18.55 L92.2 19.35 92.05 20.7 92.6 21.45 96.85 21.55 96.75 19.3 94.3 18.55 M85.95 20.85 Q85.65 21.1 85.65 21.45 85.65 21.8 85.95 22.1 L86.7 22.35 87.45 22.1 87.75 21.45 87.45 20.85 Q87.15 20.55 86.7 20.55 86.25 20.55 85.95 20.85 M81.25 25.2 L81.5 23.3 81.0 22.2 79.6 21.7 Q77.7 21.5 76.35 22.85 L76.35 24.95 Q76.8 25.75 77.8 25.8 79.65 26.0 81.25 25.2 M72.8 20.8 Q72.45 21.1 72.45 21.6 72.45 22.1 72.8 22.45 L73.6 22.75 74.45 22.45 74.75 21.6 74.45 20.8 Q74.1 20.45 73.6 20.45 73.1 20.45 72.8 20.8 M47.8 13.55 L49.2 14.0 49.45 14.35 47.05 14.35 47.25 13.8 47.8 13.55 M41.25 13.95 L42.35 12.55 42.5 11.5 43.6 12.75 43.55 13.5 41.25 13.95 M56.05 22.55 Q55.75 22.9 55.75 23.4 55.75 23.9 56.05 24.25 56.35 24.6 56.8 24.6 57.25 24.6 57.55 24.25 L57.85 23.4 57.55 22.55 Q57.25 22.2 56.8 22.2 56.35 22.2 56.05 22.55" fill="#d1ee31" fill-rule="evenodd" stroke="none"/>
    <path d="M83.3 20.05 L81.8 21.0 80.85 20.1 81.3 17.9 82.25 18.25 82.55 19.35 83.3 20.05 M33.35 17.8 L33.6 19.5 33.55 21.35 33.05 21.85 32.6 21.9 31.5 20.45 31.55 17.8 33.35 17.8 M39.0 18.45 L39.2 19.3 39.0 20.15 Q38.75 20.5 38.4 20.5 L37.85 20.15 37.6 19.3 Q37.6 18.8 37.85 18.45 38.05 18.1 38.4 18.1 38.75 18.1 39.0 18.45 M36.45 18.1 L36.6 18.9 36.45 19.75 36.05 20.05 35.65 19.75 35.5 18.9 Q35.5 18.4 35.65 18.1 35.8 17.75 36.05 17.75 36.3 17.75 36.45 18.1 M41.85 17.8 L40.55 18.55 40.1 17.8 41.85 17.8 M23.8 17.8 L24.05 19.35 22.8 20.7 21.55 20.1 21.2 17.8 23.8 17.8 M26.1 17.8 L27.8 17.8 28.05 19.3 28.0 20.75 26.7 20.8 26.1 17.8 M17.5 17.8 Q17.85 19.1 16.95 20.05 L16.05 20.8 14.95 19.95 15.0 17.8 17.5 17.8 M12.1 18.1 L12.25 18.7 12.1 19.3 11.65 19.55 11.25 19.3 11.05 18.7 11.25 18.1 11.65 17.85 Q11.9 17.85 12.1 18.1 M93.05 17.8 L92.1 18.15 91.6 17.8 93.05 17.8 M90.05 17.8 L89.85 18.5 89.3 18.8 88.8 18.5 88.55 17.8 90.05 17.8 M85.55 17.8 L85.4 18.5 84.8 18.8 Q84.45 18.8 84.25 18.5 L84.0 17.8 85.55 17.8 M79.7 17.8 L79.5 18.8 78.05 19.7 77.25 19.2 77.2 17.8 79.7 17.8 M74.6 17.8 Q74.6 18.7 74.25 19.35 73.85 20.0 73.35 20.0 72.85 20.0 72.5 19.35 72.1 18.7 72.1 17.8 L74.6 17.8 M70.3 17.8 L69.75 19.45 68.05 19.1 68.05 17.8 70.3 17.8 M64.3 17.8 L63.3 17.95 63.0 17.8 64.3 17.8 M61.95 17.8 Q62.15 19.2 61.75 20.35 L61.55 20.75 Q59.95 21.05 59.2 19.8 L59.2 17.8 61.95 17.8 M65.05 20.7 Q65.05 20.05 65.45 19.6 65.8 19.1 66.35 19.1 66.9 19.1 67.3 19.6 67.65 20.05 67.65 20.7 L67.3 21.85 66.35 22.3 Q65.8 22.3 65.45 21.85 65.05 21.35 65.05 20.7 M55.65 17.8 Q55.65 19.0 55.3 19.85 54.95 20.7 54.45 20.7 53.95 20.7 53.6 19.85 53.25 19.0 53.25 17.8 L55.65 17.8 M44.85 17.8 Q45.8 20.05 43.95 21.6 L43.7 21.85 42.8 21.5 Q41.7 19.6 42.4 17.8 L44.85 17.8 M50.1 17.8 Q50.8 19.5 50.25 21.8 L50.0 22.45 49.05 22.75 47.85 21.85 Q47.35 19.85 48.15 17.8 L50.1 17.8" fill="#ebf8a3" fill-rule="evenodd" stroke="none"/>
    <path d="M22.35 29.75 L24.75 29.9 25.3 33.25 26.85 33.55 22.55 33.3 22.35 29.75 M89.4 29.65 L92.3 29.4 92.25 32.7 89.4 33.05 89.4 29.65 M93.8 29.15 Q100.5 27.65 104.85 21.95 L105.8 20.5 Q105.75 24.75 102.75 27.9 99.5 31.3 94.95 32.15 L94.5 29.0 93.8 29.15 M14.6 32.6 Q3.45 31.35 1.6 20.45 L2.8 22.45 Q7.1 28.55 14.6 29.15 L14.6 32.6 M16.5 29.35 L20.25 29.65 20.3 33.15 16.5 32.85 16.5 29.35" fill="#526806" fill-rule="evenodd" stroke="none"/>
    <path d="M22.35 29.75 L22.55 33.3 20.3 33.15 20.25 29.65 22.35 29.75 M26.85 33.55 L25.3 33.25 24.75 29.9 33.05 30.3 33.05 33.85 26.85 33.55 M37.6 30.5 L39.85 30.55 39.8 34.1 37.6 34.0 37.6 30.5 M42.25 30.65 L43.85 30.7 43.75 34.0 44.6 34.2 42.25 34.15 42.25 30.65 M73.25 30.5 L76.45 30.35 76.5 33.9 73.25 34.0 73.25 30.5 M78.7 30.25 L80.75 30.15 80.8 33.65 78.1 33.8 78.8 33.55 78.7 30.25 M84.3 29.95 L89.4 29.6 89.4 29.65 89.4 33.05 84.7 33.45 84.3 29.95 M92.3 29.4 L92.3 29.35 93.8 29.15 94.5 29.0 94.95 32.15 92.25 32.7 92.3 29.4 M14.6 32.6 L14.6 29.15 16.5 29.35 16.5 32.85 14.6 32.6" fill="#6f8c09" fill-rule="evenodd" stroke="none"/>
    <path d="M33.05 30.3 L37.6 30.5 37.6 34.0 33.05 33.85 33.05 30.3 M39.85 30.55 L42.25 30.65 42.25 34.15 39.8 34.1 39.85 30.55 M43.85 30.7 L73.25 30.5 73.25 34.0 44.6 34.2 43.75 34.0 43.85 30.7 M76.45 30.35 L78.7 30.25 78.8 33.55 78.1 33.8 76.5 33.9 76.45 30.35 M80.75 30.15 L84.3 29.95 84.7 33.45 80.8 33.65 80.75 30.15" fill="#8aaf0c" fill-rule="evenodd" stroke="none"/>
  </g>
</svg>
